M48
;Layer_Color=9474304
;FILE_FORMAT=4:4
METRIC
;TYPE=PLATED
T1F00S00C0.3000
T2F00S00C1.0000
T3F00S00C1.1000
T4F00S00C3.2000
%
T01
X01330000Y01890000
X01325000Y01950000
X01350000
X01375000
Y01975000
X01350000
X01325000
X01410000Y01870000
X01431088Y01832409
X01600000Y01850000
X01625000
X01650000
Y01885000
X01625000
X01600000
Y01955000
X01807250Y01821250
X01931088Y01832409
X02100000Y01850000
Y01890000
X02160000
Y01850000
X02131088Y01832409
X02317500Y01845000
X02431088Y01832409
X02460000Y01845000
X02602500Y01855000
X02631088Y01832409
X02660000Y01830000
Y01850000
X02775000
Y01875000
Y01825000
X02800000
Y01850000
Y01875000
X02875000Y01900000
Y01925000
Y01950000
X02850000
X02810000Y02120000
Y02140000
Y02160000
X02610000Y02150000
X02590000
X02543000Y02165000
X02475000
X02441000
X02410058Y02067082
X02410000Y02045000
X02388000Y02012000
X02655500Y02088000
X02380000Y02152000
X02376000Y02165000
X02330000Y02170000
X02304000Y02147000
X02309000Y02130000
X02155000Y02087000
X02105000Y02136000
X02050000Y02140000
X01968000Y02134000
X01870000Y02110000
X01865000Y02159000
X01836000Y02161000
X01808000Y02152000
X01763000Y02165000
X01729000
X01695000
X01661000
X01596000
X01590000Y02180000
X01607000Y02146000
X01610000Y02105000
X01600000Y02070000
Y02005000
X01842500Y01997500
X01876107Y01993196
X01800000Y02080000
X01468000Y02134000
X01390000Y02170000
X01375000Y02075000
Y02050000
Y02025000
Y02000000
X01350000
Y02025000
Y02050000
X01325000
Y02025000
Y02000000
T02
X02636500Y02170000
X02661900
X02687300
X02712700
X02738100
X02763500
X02263500
X02238100
X02212700
X02187300
X02161900
X02136500
X02063500
X02038100
X02012700
X01987300
X01961900
X01936500
X01563500
X01538100
X01512700
X01487300
X01461900
X01436500
T03
X01463527Y01958833
X01486834Y01946599
X01513166
X01536473Y01958833
X01551426Y01980498
X01448574
X01648574
X01663527Y01958833
X01686834Y01946599
X01713166
X01736473Y01958833
X01751426Y01980498
X01830000Y01950000
X01870000
X01963527Y01958833
X01948574Y01980498
X01986834Y01946599
X02013166
X02036473Y01958833
X02051426Y01980498
X02148574
X02163527Y01958833
X02186834Y01946599
X02213166
X02236473Y01958833
X02251426Y01980498
X02330000Y01950000
X02370000
X02463527Y01958833
X02486834Y01946599
X02513166
X02536473Y01958833
X02551426Y01980498
X02648574
X02663527Y01958833
X02686834Y01946599
X02713166
X02736473Y01958833
X02751426Y01980498
X02448574
X02445401Y02006630
X02454736Y02031244
X02474440Y02048700
X02500000Y02055000
X02525560Y02048700
X02545264Y02031244
X02554599Y02006630
X02645401
X02654736Y02031244
X02674441Y02048700
X02700000Y02055000
X02725559Y02048700
X02745264Y02031244
X02754599Y02006630
X02254599
X02245264Y02031244
X02225560Y02048700
X02200000Y02055000
X02174440Y02048700
X02154736Y02031244
X02145401Y02006630
X02054599
X02045264Y02031244
X02025560Y02048700
X02000000Y02055000
X01974440Y02048700
X01954736Y02031244
X01945401Y02006630
X01754599
X01745264Y02031244
X01725560Y02048700
X01700000Y02055000
X01674440Y02048700
X01654736Y02031244
X01645401Y02006630
X01554599
X01545264Y02031244
X01525560Y02048700
X01500000Y02055000
X01474440Y02048700
X01454736Y02031244
X01445401Y02006630
T04
X01350000Y01850000
X02850000
Y02150000
X01350000
M30
