M48
;Layer_Color=9474304
;FILE_FORMAT=4:4
METRIC
;TYPE=PLATED
T01F00S00C0.3000
T02F00S00C0.7000
T03F00S00C0.8000
T04F00S00C1.0000
T05F00S00C1.1500
T06F00S00C3.2000
%
T01
X01320000Y01910000
Y01950000
X01350000
X01380000
X01730000
Y01980000
Y01920000
X01734050Y01864300
X01793000Y01838500
X01830500Y01829500
X01880000Y01810000
X01910000
Y01840000
Y01870000
X01880000
Y01900000
X01910000Y01900000
Y01930000
Y01960000
X01880000Y01980000
X01820000Y01970000
X01970000Y01850000
X01970000Y01810000
X01940000
X02000000
X02030000
X02060000
X02090000
X02120000
X02150000
Y01840000
X02180000
Y01870000
X02210000
Y01810000
X02180000
X02190000Y01950000
X02230000
X02270000
X02300000
X02340000
X02380000
Y01980000
X02350000Y01900000
X02270000
X02170000Y01980000
X02130000
X02090000
X02410000
Y01950000
X02450000
X02490000
X02480000Y01890000
X02464750Y01878500
X02430500Y01893250
X02617500Y01951750
X02672500Y01930750
X02674750Y01904750
X02742750Y01900000
X02774750Y01975500
X02681250Y01982500
X02890000Y01980000
Y01950000
Y01920000
Y01890000
Y01860000
X02810000Y01870000
Y01900000
Y01840000
Y01810000
X02778750Y02002500
X02778750Y02017500
X02790000Y02090000
Y02120000
Y02150000
Y02180000
X02820000Y02120000
Y02090000
X02890000Y02100000
Y02130000
Y02070000
Y02040000
Y02010000
X02774750Y01984500
X02719500Y01989990
X02710500
X02722000Y02002500
Y02017500
X02677500Y02057000
X02685000Y02067000
X02692500Y02077000
X02700000Y02087000
X02707500Y02097000
X02661750Y02082500
X02638500Y02100500
X02580000Y02090000
Y02050000
X02603000Y02017500
X02547000Y01991750
X02540000Y02090000
X02490000
X02450000
X02410000
X02410000Y02040000
X02440000
Y02010000
X02450000Y02160000
Y02180000
X02410000
X02490000
Y02160000
X02520000
Y02180000
X02560000
Y02160000
X02600000
Y02180000
X02370000
Y02160000
X02330000
Y02180000
X02290000
Y02160000
Y02090000
X02330000
X02370000
X02380000Y02040000
X02350000
X02320000
X02290000
X02260000
X02230000
X02200000
X02170000
Y02010000
X02130000
Y02040000
X02090000
Y02010000
X02063500Y02056000
X02038250Y02063500
X02010000Y02050000
Y02080000
X02012750Y02116750
X01987250Y02108250
X02136500Y02124750
X02161900Y02080000
X02187250Y02073250
X01980000Y02080000
X01950000
X01920000
Y02110000
Y02140000
X01890000
X01860000
X01860000Y02170000
X01890000
X01810000Y02190000
X01770000
X01730000Y02170000
X01700000
X01670000
X01669500Y02089500
X01700000Y02100000
Y02070000
Y02040000
Y02010000
X01730000
Y02040000
Y02070000
Y02100000
X01755000Y02062500
X01650000Y02060000
Y02030000
Y02000000
X01860000Y01997500
Y02082500
X01961891Y02100553
X01530000Y02120000
X01440000Y02100000
X01410000
X01380000
Y02070000
X01350000
X01320000
Y02110000
Y02030000
X01350000
X01380000
X01410000
X01440000
Y02070000
X01410000
Y02140000
X01400000Y02190000
X01440000
X01360000
X01350000Y01990000
X01380000
X01320000
T02
X01782500Y01923000
X01807500
X02103000Y01921000
Y01896000
T03
X01524000Y02025000
Y02075000
T04
X02157000Y01896000
Y01921400
X02236500Y01830000
X02261900
X02287300
X02312700
X02338100
X02363500
X02400000Y01830300
Y01855700
X02436500Y01830000
X02461900
X02487300
X02512700
X02538100
X02563500
X02636500
X02661900
X02687300
X02712700
X02738100
X02763500
Y02170000
X02738100
X02712700
X02687300
X02661900
X02636500
X02263500
X02238100
X02212700
X02187300
X02161900
X02136500
X02063500
X02038100
X02012700
X01987300
X01961900
X01936500
X01825000Y02151000
X01775000
X01563500Y02170000
X01538100
X01512700
X01487300
X01461900
X01436500
T05
X02480817Y01968501
X02527413
Y02037815
X02480817
T06
X01350000Y01850000
X02850000
Y02150000
X01350000
M30
