G04*
G04 #@! TF.GenerationSoftware,Altium Limited,Altium Designer,23.8.1 (32)*
G04*
G04 Layer_Color=65535*
%FSAX44Y44*%
%MOMM*%
G71*
G04*
G04 #@! TF.SameCoordinates,78110BDE-5C4C-41F2-AE8D-2B4B6642ACCE*
G04*
G04*
G04 #@! TF.FilePolarity,Positive*
G04*
G01*
G75*
%ADD10C,0.2000*%
%ADD11C,0.3000*%
%ADD12C,0.4000*%
%ADD13C,0.2540*%
%ADD14C,0.7000*%
%ADD15C,0.1524*%
%ADD16R,0.1500X1.6754*%
%ADD17R,0.1500X2.0696*%
%ADD18R,0.1500X2.4238*%
%ADD19R,0.1500X2.6639*%
%ADD20R,0.1500X2.8923*%
%ADD21R,0.1500X3.1284*%
%ADD22R,0.1500X3.3251*%
%ADD23R,0.1500X3.5138*%
%ADD24R,0.1500X3.9532*%
%ADD25R,0.1500X4.1801*%
%ADD26R,0.1500X4.3884*%
%ADD27R,0.1500X4.1779*%
%ADD28R,0.1500X4.6548*%
%ADD29R,0.1500X4.7000*%
%ADD30R,0.1500X5.0250*%
%ADD31R,0.1500X5.1000*%
%ADD32R,0.1000X0.7750*%
%ADD33R,0.1500X0.7750*%
%ADD34R,0.1750X0.6554*%
%ADD35R,6.5312X0.1500*%
%ADD36R,6.2235X0.1500*%
%ADD37R,5.2447X0.1500*%
%ADD38R,5.7413X0.2236*%
%ADD39R,4.6198X0.1500*%
%ADD40R,5.3870X0.1500*%
%ADD41R,5.1238X0.1500*%
%ADD42R,4.8430X0.1500*%
%ADD43R,4.5018X0.1500*%
%ADD44R,4.0742X0.1500*%
%ADD45R,3.3042X0.1500*%
%ADD46R,2.6639X0.1500*%
%ADD47R,2.4238X0.1500*%
%ADD48R,2.0696X0.1500*%
%ADD49R,1.6754X0.1500*%
%ADD50R,3.2927X0.1500*%
%ADD51R,6.7674X0.1500*%
%ADD52R,6.9232X0.1500*%
%ADD53R,7.1352X0.1500*%
%ADD54R,0.7750X0.1000*%
%ADD55R,0.7750X0.1500*%
%ADD56R,0.6554X0.1750*%
%ADD57R,5.1000X0.1500*%
%ADD58R,5.0250X0.1500*%
%ADD59R,4.7000X0.1500*%
%ADD60R,4.6548X0.1500*%
%ADD61R,4.1779X0.1500*%
%ADD62R,4.3884X0.1500*%
%ADD63R,4.1801X0.1500*%
%ADD64R,3.9532X0.1500*%
%ADD65R,3.5138X0.1500*%
%ADD66R,3.3251X0.1500*%
%ADD67R,3.1284X0.1500*%
%ADD68R,2.8923X0.1500*%
%ADD69R,1.6754X0.1500*%
%ADD70C,0.1000*%
G36*
X01764500Y01882000D02*
X01795500D01*
Y01872000D01*
X01764500D01*
Y01882000D01*
D02*
G37*
G36*
X01867500Y01825000D02*
X01860500D01*
Y01834000D01*
X01867500D01*
Y01825000D01*
D02*
G37*
G36*
X01849500Y02121500D02*
Y02131500D01*
X01744500D01*
Y02121500D01*
X01849500D01*
D02*
G37*
G36*
X01881500Y02015000D02*
X01850500D01*
Y02025000D01*
X01881500D01*
Y02015000D01*
D02*
G37*
D10*
X01829000Y01923000D02*
G03*
X01829000Y01923000I-00034000J00000000D01*
G01*
X01574000Y02050000D02*
G03*
X01574000Y02050000I-00050000J00000000D01*
G01*
X02137000Y01908500D02*
G03*
X02137000Y01908500I-00034000J00000000D01*
G01*
X01662000Y02121496D02*
X01680501D01*
X01662000Y02144504D02*
X01680501D01*
Y02121496D02*
Y02144504D01*
X01627500Y02113500D02*
X01643000D01*
X01627500D02*
Y02129250D01*
Y02152500D02*
X01643000D01*
X01627500Y02136750D02*
Y02152500D01*
X01843000Y02121500D02*
Y02196500D01*
X01843000Y02191000D02*
X01849500D01*
X01843000Y02176750D02*
X01849500D01*
X01744500Y02121500D02*
X01849500D01*
X01744500Y02196500D02*
X01849500D01*
X01744500Y02121500D02*
Y02196500D01*
X01849500Y02121500D02*
Y02196500D01*
X01751000Y02121500D02*
Y02196500D01*
X01744500Y02191000D02*
X01751000D01*
X01744500Y02176750D02*
X01751000D01*
X01847500Y01930750D02*
X01860500D01*
X01847500Y01915000D02*
X01860500D01*
X01847500D02*
Y01930750D01*
X01860500Y01915000D02*
Y01930750D01*
X01524250Y01991000D02*
X01539000D01*
X01524250Y01976250D02*
Y01991000D01*
Y01877000D02*
X01539000D01*
X01524250D02*
Y01891750D01*
X01621750Y01984000D02*
X01687809D01*
Y01969250D02*
Y01984000D01*
Y01884000D02*
Y01898750D01*
X01621750Y01884000D02*
X01687809D01*
X01637620Y02005000D02*
Y02057000D01*
X01610380D02*
X01610500Y02005500D01*
X01610369Y02061858D02*
X01610380Y02057000D01*
X01610369Y02061858D02*
X01612750Y02064250D01*
X01637620Y02057000D02*
X01637631Y02061858D01*
X01635250Y02064250D02*
X01637631Y02061858D01*
X01595500Y02106750D02*
X01608500D01*
X01595500Y02091000D02*
X01608500D01*
X01595500D02*
Y02106750D01*
X01608500Y02091000D02*
Y02106750D01*
X01595500Y02128750D02*
X01608500D01*
X01595500Y02113000D02*
X01608500D01*
X01595500D02*
Y02128750D01*
X01608500Y02113000D02*
Y02128750D01*
X01595500Y02150750D02*
X01608500D01*
X01595500Y02135000D02*
X01608500D01*
X01595500D02*
Y02150750D01*
X01608500Y02135000D02*
Y02150750D01*
X01860500Y01825000D02*
X01867500D01*
X01860500Y01853000D02*
X01867500D01*
X01860500Y01825000D02*
Y01853000D01*
X01867500Y01825000D02*
Y01853000D01*
X01628500Y01870250D02*
X01641500D01*
X01628500Y01854500D02*
X01641500D01*
X01628500D02*
Y01870250D01*
X01641500Y01854500D02*
Y01870250D01*
X01583500D02*
X01596500D01*
X01583500Y01854500D02*
X01596500D01*
X01583500D02*
Y01870250D01*
X01596500Y01854500D02*
Y01870250D01*
X01488500Y01859500D02*
X01517500D01*
X01488500Y01978500D02*
X01517500D01*
X01398500D02*
X01427500D01*
X01398500Y01859500D02*
X01427500D01*
X01398500D02*
Y01978500D01*
X01517500Y01859500D02*
Y01978500D01*
X01764500Y01882000D02*
X01795500D01*
X01764500Y01834000D02*
X01795500D01*
Y01882000D01*
X01764500Y01834000D02*
Y01882000D01*
X02863500Y02061497D02*
X02873000D01*
Y01938514D02*
Y02061497D01*
X02863500Y01938514D02*
X02873000D01*
X02827000Y01938503D02*
X02836500D01*
X02827000D02*
Y02061486D01*
X02836500D01*
X02387000Y01817350D02*
Y01868700D01*
X02413000D01*
Y01817350D02*
Y01868700D01*
X02387000Y01817350D02*
X02413000D01*
X02534115Y01980408D02*
Y02025908D01*
X02492615Y01962158D02*
X02515865D01*
X02492365Y02044158D02*
X02515615D01*
X02474115Y01980408D02*
Y02025908D01*
X02668500Y01968500D02*
X02731500D01*
X02668500D02*
Y02031500D01*
X02731500D01*
Y01968500D02*
Y02031500D01*
X02576450Y01817000D02*
Y01843000D01*
X02423500D02*
X02576450D01*
X02423500Y01817000D02*
Y01843000D01*
Y01817000D02*
X02576450D01*
X02376450D02*
Y01843000D01*
X02223500D02*
X02376450D01*
X02223500Y01817000D02*
Y01843000D01*
Y01817000D02*
X02376450D01*
X02776450D02*
Y01843000D01*
X02623500D02*
X02776450D01*
X02623500Y01817000D02*
Y01843000D01*
Y01817000D02*
X02776450D01*
X02123550Y02157000D02*
Y02183000D01*
Y02157000D02*
X02276500D01*
Y02183000D01*
X02123550D02*
X02276500D01*
X01423550Y02157000D02*
Y02183000D01*
Y02157000D02*
X01576500D01*
Y02183000D01*
X01423550D02*
X01576500D01*
X01923550Y02157000D02*
Y02183000D01*
Y02157000D02*
X02076500D01*
Y02183000D01*
X01923550D02*
X02076500D01*
X02623550Y02157000D02*
Y02183000D01*
Y02157000D02*
X02776500D01*
Y02183000D01*
X02623550D02*
X02776500D01*
X01927500Y02046620D02*
X01979500D01*
X01927500Y02019380D02*
X01979000Y02019500D01*
X01922642Y02019369D02*
X01927500Y02019380D01*
X01920250Y02021750D02*
X01922642Y02019369D01*
Y02046631D02*
X01927500Y02046620D01*
X01920250Y02044250D02*
X01922642Y02046631D01*
X02033500Y01881500D02*
X02062500D01*
X02033500Y02000500D02*
X02062500D01*
X01943500D02*
X01972500D01*
X01943500Y01881500D02*
X01972500D01*
X01943500D02*
Y02000500D01*
X02062500Y01881500D02*
Y02000500D01*
X02144000Y01883050D02*
Y01934400D01*
X02170000D01*
Y01883050D02*
Y01934400D01*
X02144000Y01883050D02*
X02170000D01*
X01850500Y02015000D02*
X01881500D01*
X01850500Y02063000D02*
X01881500D01*
X01850500Y02015000D02*
Y02063000D01*
X01881500Y02015000D02*
Y02063000D01*
X01767250Y02041500D02*
X01783000D01*
X01767250Y02028500D02*
X01783000D01*
Y02041500D01*
X01767250Y02028500D02*
Y02041500D01*
X01789250D02*
X01805000D01*
X01789250Y02028500D02*
X01805000D01*
Y02041500D01*
X01789250Y02028500D02*
Y02041500D01*
X01767250Y02072500D02*
Y02085500D01*
X01783000Y02072500D02*
Y02085500D01*
X01767250Y02072500D02*
X01783000D01*
X01767250Y02085500D02*
X01783000D01*
D11*
X02744000Y01957500D02*
G03*
X02744000Y01957500I-00001500J00000000D01*
G01*
D12*
X01633500Y02097000D02*
X01640500D01*
X01847500Y01870000D02*
X01854500D01*
X01802000Y01819500D02*
Y01826500D01*
X01775000Y01819500D02*
Y01826500D01*
X01825500Y01858000D02*
X01832500D01*
X01684000Y01842500D02*
Y01849500D01*
X02812500Y02000000D02*
X02819500D01*
X02396500Y01886000D02*
X02403500D01*
X02411500D02*
X02418500D01*
X02795000Y01952500D02*
Y01959500D01*
X02812500Y02052000D02*
X02819500D01*
X02812500Y01948000D02*
X02819500D01*
X02723000Y01911500D02*
Y01918500D01*
Y01896500D02*
Y01903500D01*
X02558500Y02010000D02*
X02565500D01*
X02555000Y02027500D02*
Y02034500D01*
X02543500Y02010000D02*
X02550500D01*
X02669000Y02090000D02*
X02676000D01*
X02764500Y02010000D02*
X02771500D01*
X02610000Y01959000D02*
Y01966000D01*
X02750000Y01926500D02*
Y01933500D01*
Y01911500D02*
Y01918500D01*
X01346500Y01900000D02*
X01353500D01*
X02846500Y02100000D02*
X02853500D01*
X02846500Y01900000D02*
X02853500D01*
X01346500Y02100000D02*
X01353500D01*
X02096000Y01843500D02*
Y01850500D01*
X02069000Y01843500D02*
Y01850500D01*
X02042000Y01843500D02*
Y01850500D01*
X01873500Y02097000D02*
X01880500D01*
X01810500Y02070500D02*
X01817500D01*
D13*
X01803000Y01906500D02*
X01813000D01*
X01808000Y01901500D02*
Y01911500D01*
X01544000Y02070000D02*
Y02080000D01*
X01539000Y02075000D02*
X01549000D01*
X02081500Y01895500D02*
X02091500D01*
X02086500Y01890500D02*
Y01900500D01*
D14*
X01793000Y02073000D02*
X01801000D01*
D15*
X02217524Y02019697D02*
Y02029853D01*
X02222602D01*
X02224295Y02028161D01*
Y02024775D01*
X02222602Y02023082D01*
X02217524D01*
X02227681Y02026468D02*
X02229373D01*
Y02024775D01*
X02227681D01*
Y02026468D01*
Y02021389D02*
X02229373D01*
Y02019697D01*
X02227681D01*
Y02021389D01*
X02246301Y02019697D02*
Y02029853D01*
X02253073Y02019697D01*
Y02029853D01*
X02256458Y02019697D02*
X02259844D01*
X02258151D01*
Y02026468D01*
X02256458D01*
X02264922D02*
X02271693Y02019697D01*
X02268308Y02023082D01*
X02271693Y02026468D01*
X02264922Y02019697D01*
X02275079D02*
X02278464D01*
X02276772D01*
Y02026468D01*
X02275079D01*
X02288621Y02019697D02*
X02285235D01*
X02283543Y02021389D01*
Y02024775D01*
X02285235Y02026468D01*
X02288621D01*
X02290314Y02024775D01*
Y02023082D01*
X02283543D01*
X02303856Y02019697D02*
Y02029853D01*
X02307242Y02026468D01*
X02310627Y02029853D01*
Y02019697D01*
X02315706Y02026468D02*
X02319091D01*
X02320784Y02024775D01*
Y02019697D01*
X02315706D01*
X02314013Y02021389D01*
X02315706Y02023082D01*
X02320784D01*
X02324170Y02019697D02*
X02327555D01*
X02325862D01*
Y02026468D01*
X02324170D01*
X02332634Y02019697D02*
Y02026468D01*
X02337712D01*
X02339405Y02024775D01*
Y02019697D01*
X02342790Y02029853D02*
Y02019697D01*
X02347869D01*
X02349561Y02021389D01*
Y02023082D01*
Y02024775D01*
X02347869Y02026468D01*
X02342790D01*
X02354640Y02019697D02*
X02358025D01*
X02359718Y02021389D01*
Y02024775D01*
X02358025Y02026468D01*
X02354640D01*
X02352947Y02024775D01*
Y02021389D01*
X02354640Y02019697D01*
X02364796Y02026468D02*
X02368182D01*
X02369875Y02024775D01*
Y02019697D01*
X02364796D01*
X02363104Y02021389D01*
X02364796Y02023082D01*
X02369875D01*
X02373260Y02026468D02*
Y02019697D01*
Y02023082D01*
X02374953Y02024775D01*
X02376646Y02026468D01*
X02378339D01*
X02390188Y02029853D02*
Y02019697D01*
X02385110D01*
X02383417Y02021389D01*
Y02024775D01*
X02385110Y02026468D01*
X02390188D01*
X02224295Y02014008D02*
X02217524D01*
Y02003851D01*
X02224295D01*
X02217524Y02008929D02*
X02220910D01*
X02227681Y02010622D02*
X02229373D01*
Y02008929D01*
X02227681D01*
Y02010622D01*
Y02005544D02*
X02229373D01*
Y02003851D01*
X02227681D01*
Y02005544D01*
X02246301Y02003851D02*
Y02014008D01*
X02249687Y02010622D01*
X02253073Y02014008D01*
Y02003851D01*
X02258151Y02010622D02*
X02261536D01*
X02263229Y02008929D01*
Y02003851D01*
X02258151D01*
X02256458Y02005544D01*
X02258151Y02007236D01*
X02263229D01*
X02268308Y02012315D02*
Y02010622D01*
X02266615D01*
X02270000D01*
X02268308D01*
Y02005544D01*
X02270000Y02003851D01*
X02280157D02*
X02276772D01*
X02275079Y02005544D01*
Y02008929D01*
X02276772Y02010622D01*
X02280157D01*
X02281850Y02008929D01*
Y02007236D01*
X02275079D01*
X02285235Y02010622D02*
Y02005544D01*
X02286928Y02003851D01*
X02292007D01*
Y02010622D01*
X02295392Y02003851D02*
X02300471D01*
X02302163Y02005544D01*
X02300471Y02007236D01*
X02297085D01*
X02295392Y02008929D01*
X02297085Y02010622D01*
X02302163D01*
X02305549D02*
X02312320D01*
X02305549Y02003851D01*
X02312320D01*
X02325862Y02014008D02*
Y02003851D01*
Y02007236D01*
X02332634Y02014008D01*
X02327555Y02008929D01*
X02332634Y02003851D01*
X02337712D02*
X02341098D01*
X02342790Y02005544D01*
Y02008929D01*
X02341098Y02010622D01*
X02337712D01*
X02336019Y02008929D01*
Y02005544D01*
X02337712Y02003851D01*
X02346176Y02010622D02*
Y02005544D01*
X02347869Y02003851D01*
X02349561Y02005544D01*
X02351254Y02003851D01*
X02352947Y02005544D01*
Y02010622D01*
X02358025D02*
X02361411D01*
X02363104Y02008929D01*
Y02003851D01*
X02358025D01*
X02356333Y02005544D01*
X02358025Y02007236D01*
X02363104D01*
X02366489Y02003851D02*
X02369875D01*
X02368182D01*
Y02014008D01*
X02366489D01*
X02381724Y02010622D02*
X02376646D01*
X02374953Y02008929D01*
Y02005544D01*
X02376646Y02003851D01*
X02381724D01*
X02385110Y02010622D02*
X02391881D01*
X02385110Y02003851D01*
X02391881D01*
X02395267Y02010622D02*
Y02005544D01*
X02396959Y02003851D01*
X02402038D01*
Y02002158D01*
X02400345Y02000465D01*
X02398652D01*
X02402038Y02003851D02*
Y02010622D01*
X02405423Y02003851D02*
Y02014008D01*
Y02007236D02*
X02410502Y02010622D01*
X02405423Y02007236D02*
X02410502Y02003851D01*
X02217524Y01994776D02*
Y01988005D01*
X02220910Y01984620D01*
X02224295Y01988005D01*
Y01994776D01*
X02227681Y01991391D02*
X02229373D01*
Y01989698D01*
X02227681D01*
Y01991391D01*
Y01986313D02*
X02229373D01*
Y01984620D01*
X02227681D01*
Y01986313D01*
X02253073Y01994776D02*
X02249687Y01993084D01*
X02246301Y01989698D01*
Y01986313D01*
X02247994Y01984620D01*
X02251380D01*
X02253073Y01986313D01*
Y01988005D01*
X02251380Y01989698D01*
X02246301D01*
X02217524Y01978931D02*
Y01968774D01*
X02222602D01*
X02224295Y01970467D01*
Y01977238D01*
X02222602Y01978931D01*
X02217524D01*
X02227681Y01975545D02*
X02229373D01*
Y01973852D01*
X02227681D01*
Y01975545D01*
Y01970467D02*
X02229373D01*
Y01968774D01*
X02227681D01*
Y01970467D01*
X02246301Y01977238D02*
X02247994Y01978931D01*
X02251380D01*
X02253073Y01977238D01*
Y01970467D01*
X02251380Y01968774D01*
X02247994D01*
X02246301Y01970467D01*
Y01977238D01*
X02263229Y01978931D02*
X02259844Y01977238D01*
X02256458Y01973852D01*
Y01970467D01*
X02258151Y01968774D01*
X02261536D01*
X02263229Y01970467D01*
Y01972160D01*
X02261536Y01973852D01*
X02256458D01*
X02266615Y01968774D02*
Y01970467D01*
X02268308D01*
Y01968774D01*
X02266615D01*
X02275079Y01977238D02*
X02276772Y01978931D01*
X02280157D01*
X02281850Y01977238D01*
Y01970467D01*
X02280157Y01968774D01*
X02276772D01*
X02275079Y01970467D01*
Y01977238D01*
X02285235Y01970467D02*
X02286928Y01968774D01*
X02290314D01*
X02292007Y01970467D01*
Y01977238D01*
X02290314Y01978931D01*
X02286928D01*
X02285235Y01977238D01*
Y01975545D01*
X02286928Y01973852D01*
X02292007D01*
X02295392Y01968774D02*
Y01970467D01*
X02297085D01*
Y01968774D01*
X02295392D01*
X02310627D02*
X02303856D01*
X02310627Y01975545D01*
Y01977238D01*
X02308934Y01978931D01*
X02305549D01*
X02303856Y01977238D01*
X02314013D02*
X02315706Y01978931D01*
X02319091D01*
X02320784Y01977238D01*
Y01970467D01*
X02319091Y01968774D01*
X02315706D01*
X02314013Y01970467D01*
Y01977238D01*
X02330941Y01968774D02*
X02324170D01*
X02330941Y01975545D01*
Y01977238D01*
X02329248Y01978931D01*
X02325862D01*
X02324170Y01977238D01*
X02334326D02*
X02336019Y01978931D01*
X02339405D01*
X02341098Y01977238D01*
Y01975545D01*
X02339405Y01973852D01*
X02337712D01*
X02339405D01*
X02341098Y01972160D01*
Y01970467D01*
X02339405Y01968774D01*
X02336019D01*
X02334326Y01970467D01*
X02461352Y01873226D02*
Y01866455D01*
X02464738Y01869840D02*
X02457967D01*
X02464738Y01863069D02*
X02466431Y01861376D01*
Y01857991D01*
X02464738Y01856298D01*
X02463045D01*
X02461352Y01857991D01*
Y01859684D01*
Y01857991D01*
X02459659Y01856298D01*
X02457967D01*
X02456274Y01857991D01*
Y01861376D01*
X02457967Y01863069D01*
X02466431Y01852912D02*
X02459659D01*
X02456274Y01849527D01*
X02459659Y01846141D01*
X02466431D01*
X02490788Y01867705D02*
X02492481Y01869398D01*
Y01872783D01*
X02490788Y01874476D01*
X02484017D01*
X02482324Y01872783D01*
Y01869398D01*
X02484017Y01867705D01*
X02487402D01*
Y01871090D01*
X02482324Y01864319D02*
X02492481D01*
X02482324Y01857548D01*
X02492481D01*
Y01854162D02*
X02482324D01*
Y01849084D01*
X02484017Y01847391D01*
X02490788D01*
X02492481Y01849084D01*
Y01854162D01*
X02567238Y01905705D02*
X02568931Y01907398D01*
Y01910783D01*
X02567238Y01912476D01*
X02565545D01*
X02563852Y01910783D01*
Y01907398D01*
X02562159Y01905705D01*
X02560467D01*
X02558774Y01907398D01*
Y01910783D01*
X02560467Y01912476D01*
X02568931Y01902319D02*
Y01895548D01*
Y01898934D01*
X02558774D01*
Y01892162D02*
X02565545D01*
X02568931Y01888777D01*
X02565545Y01885391D01*
X02558774D01*
X02563852D01*
Y01892162D01*
X02568931Y01882006D02*
Y01875235D01*
Y01878620D01*
X02558774D01*
X02568931Y01865078D02*
Y01871849D01*
X02558774D01*
Y01865078D01*
X02563852Y01871849D02*
Y01868463D01*
X02542331Y01885476D02*
Y01878705D01*
Y01882090D01*
X02532174D01*
X02542331Y01875319D02*
X02532174Y01868548D01*
X02542331D02*
X02532174Y01875319D01*
X02507924Y01885476D02*
X02518081D01*
Y01880398D01*
X02516388Y01878705D01*
X02513002D01*
X02511310Y01880398D01*
Y01885476D01*
Y01882090D02*
X02507924Y01878705D01*
X02518081Y01875319D02*
X02507924Y01868548D01*
X02518081D02*
X02507924Y01875319D01*
X01516888Y02143955D02*
X01518581Y02145648D01*
Y02149033D01*
X01516888Y02150726D01*
X01510117D01*
X01508424Y02149033D01*
Y02145648D01*
X01510117Y02143955D01*
X01513502D01*
Y02147340D01*
X01508424Y02140569D02*
X01518581D01*
X01508424Y02133798D01*
X01518581D01*
Y02130413D02*
X01508424D01*
Y02125334D01*
X01510117Y02123641D01*
X01516888D01*
X01518581Y02125334D01*
Y02130413D01*
X02272159Y02126825D02*
X02270466Y02125132D01*
Y02121747D01*
X02272159Y02120054D01*
X02278930D01*
X02280623Y02121747D01*
Y02125132D01*
X02278930Y02126825D01*
X02270466Y02136982D02*
Y02130211D01*
X02275545D01*
X02273852Y02133596D01*
Y02135289D01*
X02275545Y02136982D01*
X02278930D01*
X02280623Y02135289D01*
Y02131904D01*
X02278930Y02130211D01*
X02246759Y02126825D02*
X02245066Y02125132D01*
Y02121747D01*
X02246759Y02120054D01*
X02253530D01*
X02255223Y02121747D01*
Y02125132D01*
X02253530Y02126825D01*
X02245066Y02136982D02*
X02246759Y02133596D01*
X02250145Y02130211D01*
X02253530D01*
X02255223Y02131904D01*
Y02135289D01*
X02253530Y02136982D01*
X02251838D01*
X02250145Y02135289D01*
Y02130211D01*
X02221359Y02126825D02*
X02219666Y02125132D01*
Y02121747D01*
X02221359Y02120054D01*
X02228130D01*
X02229823Y02121747D01*
Y02125132D01*
X02228130Y02126825D01*
X02219666Y02130211D02*
Y02136982D01*
X02221359D01*
X02228130Y02130211D01*
X02229823D01*
X02195959Y02126825D02*
X02194266Y02125132D01*
Y02121747D01*
X02195959Y02120054D01*
X02202730D01*
X02204423Y02121747D01*
Y02125132D01*
X02202730Y02126825D01*
X02195959Y02130211D02*
X02194266Y02131904D01*
Y02135289D01*
X02195959Y02136982D01*
X02197652D01*
X02199345Y02135289D01*
X02201038Y02136982D01*
X02202730D01*
X02204423Y02135289D01*
Y02131904D01*
X02202730Y02130211D01*
X02201038D01*
X02199345Y02131904D01*
X02197652Y02130211D01*
X02195959D01*
X02199345Y02131904D02*
Y02135289D01*
X02170559Y02126825D02*
X02168866Y02125132D01*
Y02121747D01*
X02170559Y02120054D01*
X02177330D01*
X02179023Y02121747D01*
Y02125132D01*
X02177330Y02126825D01*
Y02130211D02*
X02179023Y02131904D01*
Y02135289D01*
X02177330Y02136982D01*
X02170559D01*
X02168866Y02135289D01*
Y02131904D01*
X02170559Y02130211D01*
X02172252D01*
X02173945Y02131904D01*
Y02136982D01*
X02143466Y02120054D02*
X02153623D01*
Y02125132D01*
X02151930Y02126825D01*
X02150238D01*
X02148545Y02125132D01*
Y02120054D01*
Y02125132D01*
X02146852Y02126825D01*
X02145159D01*
X02143466Y02125132D01*
Y02120054D01*
X02153623Y02136982D02*
Y02130211D01*
X02146852Y02136982D01*
X02145159D01*
X02143466Y02135289D01*
Y02131904D01*
X02145159Y02130211D01*
X02073512Y02126825D02*
X02071819Y02125132D01*
Y02121747D01*
X02073512Y02120054D01*
X02080283D01*
X02081976Y02121747D01*
Y02125132D01*
X02080283Y02126825D01*
X02073512Y02130211D02*
X02071819Y02131904D01*
Y02135289D01*
X02073512Y02136982D01*
X02080283D01*
X02081976Y02135289D01*
Y02131904D01*
X02080283Y02130211D01*
X02073512D01*
X02048112Y02126825D02*
X02046419Y02125132D01*
Y02121747D01*
X02048112Y02120054D01*
X02054883D01*
X02056576Y02121747D01*
Y02125132D01*
X02054883Y02126825D01*
X02056576Y02130211D02*
Y02133596D01*
Y02131904D01*
X02046419D01*
X02048112Y02130211D01*
X02022712Y02126825D02*
X02021019Y02125132D01*
Y02121747D01*
X02022712Y02120054D01*
X02029483D01*
X02031176Y02121747D01*
Y02125132D01*
X02029483Y02126825D01*
X02031176Y02136982D02*
Y02130211D01*
X02024405Y02136982D01*
X02022712D01*
X02021019Y02135289D01*
Y02131904D01*
X02022712Y02130211D01*
X01997312Y02126825D02*
X01995619Y02125132D01*
Y02121747D01*
X01997312Y02120054D01*
X02004083D01*
X02005776Y02121747D01*
Y02125132D01*
X02004083Y02126825D01*
X01997312Y02130211D02*
X01995619Y02131904D01*
Y02135289D01*
X01997312Y02136982D01*
X01999005D01*
X02000698Y02135289D01*
Y02133596D01*
Y02135289D01*
X02002390Y02136982D01*
X02004083D01*
X02005776Y02135289D01*
Y02131904D01*
X02004083Y02130211D01*
X01971912Y02126825D02*
X01970219Y02125132D01*
Y02121747D01*
X01971912Y02120054D01*
X01978683D01*
X01980376Y02121747D01*
Y02125132D01*
X01978683Y02126825D01*
X01980376Y02135289D02*
X01970219D01*
X01975298Y02130211D01*
Y02136982D01*
X01944819Y02120054D02*
X01954976D01*
Y02125132D01*
X01953283Y02126825D01*
X01951590D01*
X01949898Y02125132D01*
Y02120054D01*
Y02125132D01*
X01948205Y02126825D01*
X01946512D01*
X01944819Y02125132D01*
Y02120054D01*
X01954976Y02130211D02*
Y02133596D01*
Y02131904D01*
X01944819D01*
X01946512Y02130211D01*
X02635852Y01893726D02*
Y01886955D01*
X02639238Y01890340D02*
X02632467D01*
X02639238Y01883569D02*
X02640931Y01881877D01*
Y01878491D01*
X02639238Y01876798D01*
X02637545D01*
X02635852Y01878491D01*
Y01880184D01*
Y01878491D01*
X02634160Y01876798D01*
X02632467D01*
X02630774Y01878491D01*
Y01881877D01*
X02632467Y01883569D01*
X02630774Y01873413D02*
X02632467D01*
Y01871720D01*
X02630774D01*
Y01873413D01*
X02639238Y01864949D02*
X02640931Y01863256D01*
Y01859870D01*
X02639238Y01858177D01*
X02637545D01*
X02635852Y01859870D01*
Y01861563D01*
Y01859870D01*
X02634160Y01858177D01*
X02632467D01*
X02630774Y01859870D01*
Y01863256D01*
X02632467Y01864949D01*
X02640931Y01854792D02*
X02634160D01*
X02630774Y01851406D01*
X02634160Y01848021D01*
X02640931D01*
X02665488Y01912976D02*
X02667181Y01911283D01*
Y01907898D01*
X02665488Y01906205D01*
X02663795D01*
X02662102Y01907898D01*
Y01909590D01*
Y01907898D01*
X02660410Y01906205D01*
X02658717D01*
X02657024Y01907898D01*
Y01911283D01*
X02658717Y01912976D01*
X02657024Y01896048D02*
Y01902819D01*
X02663795Y01896048D01*
X02665488D01*
X02667181Y01897741D01*
Y01901127D01*
X02665488Y01902819D01*
X02667181Y01892663D02*
X02657024D01*
X02660410D01*
X02667181Y01885891D01*
X02662102Y01890970D01*
X02657024Y01885891D01*
X02667181Y01882506D02*
X02657024D01*
X02662102D01*
Y01875735D01*
X02667181D01*
X02657024D01*
X02663795Y01872349D02*
Y01865578D01*
X02657024Y01872349D01*
Y01865578D01*
X02692681Y01890226D02*
Y01886840D01*
Y01888533D01*
X02682524D01*
Y01890226D01*
Y01886840D01*
Y01881762D02*
X02692681D01*
X02682524Y01874991D01*
X02692681D01*
Y01871605D02*
Y01864834D01*
Y01868220D01*
X02682524D01*
X02715238Y01884205D02*
X02716931Y01885898D01*
Y01889283D01*
X02715238Y01890976D01*
X02713545D01*
X02711852Y01889283D01*
Y01885898D01*
X02710160Y01884205D01*
X02708467D01*
X02706774Y01885898D01*
Y01889283D01*
X02708467Y01890976D01*
X02715238Y01874048D02*
X02716931Y01875741D01*
Y01879126D01*
X02715238Y01880819D01*
X02708467D01*
X02706774Y01879126D01*
Y01875741D01*
X02708467Y01874048D01*
X02716931Y01870663D02*
X02706774D01*
Y01863891D01*
X02741988Y01884455D02*
X02743681Y01886148D01*
Y01889533D01*
X02741988Y01891226D01*
X02740295D01*
X02738602Y01889533D01*
Y01886148D01*
X02736909Y01884455D01*
X02735217D01*
X02733524Y01886148D01*
Y01889533D01*
X02735217Y01891226D01*
X02743681Y01881069D02*
X02733524D01*
Y01875991D01*
X02735217Y01874298D01*
X02741988D01*
X02743681Y01875991D01*
Y01881069D01*
X02733524Y01870912D02*
X02740295D01*
X02743681Y01867527D01*
X02740295Y01864141D01*
X02733524D01*
X02738602D01*
Y01870912D01*
X02766988Y01867705D02*
X02768681Y01869398D01*
Y01872783D01*
X02766988Y01874476D01*
X02760217D01*
X02758524Y01872783D01*
Y01869398D01*
X02760217Y01867705D01*
X02763602D01*
Y01871090D01*
X02758524Y01864319D02*
X02768681D01*
X02758524Y01857548D01*
X02768681D01*
Y01854162D02*
X02758524D01*
Y01849084D01*
X02760217Y01847391D01*
X02766988D01*
X02768681Y01849084D01*
Y01854162D01*
X01656078Y02082708D02*
X01645922D01*
Y02087786D01*
X01647614Y02089479D01*
X01651000D01*
X01652693Y02087786D01*
Y02082708D01*
Y02086093D02*
X01656078Y02089479D01*
Y02099636D02*
Y02092864D01*
X01649307Y02099636D01*
X01647614D01*
X01645922Y02097943D01*
Y02094557D01*
X01647614Y02092864D01*
X01656078Y02108100D02*
X01645922D01*
X01651000Y02103021D01*
Y02109792D01*
X01625572Y02156672D02*
Y02166828D01*
X01630650D01*
X01632343Y02165136D01*
Y02161750D01*
X01630650Y02160057D01*
X01625572D01*
X01640807Y02166828D02*
X01637422D01*
X01635729Y02165136D01*
Y02158364D01*
X01637422Y02156672D01*
X01640807D01*
X01642500Y02158364D01*
Y02165136D01*
X01640807Y02166828D01*
X01645886D02*
X01652657D01*
X01649271D01*
Y02156672D01*
X01656042D02*
X01659428D01*
X01657735D01*
Y02166828D01*
X01656042Y02165136D01*
X01730172Y02119536D02*
X01740328Y02126307D01*
X01730172D02*
X01740328Y02119536D01*
Y02136464D02*
Y02129693D01*
X01733557Y02136464D01*
X01731864D01*
X01730172Y02134771D01*
Y02131386D01*
X01731864Y02129693D01*
X01759825Y01964636D02*
X01758132Y01966328D01*
X01754747D01*
X01753054Y01964636D01*
Y01957864D01*
X01754747Y01956172D01*
X01758132D01*
X01759825Y01957864D01*
X01763211Y01956172D02*
X01766596D01*
X01764904D01*
Y01966328D01*
X01763211Y01964636D01*
X01778446Y01966328D02*
X01771675D01*
Y01961250D01*
X01775060Y01962943D01*
X01776753D01*
X01778446Y01961250D01*
Y01957864D01*
X01776753Y01956172D01*
X01773367D01*
X01771675Y01957864D01*
X01852307Y01910578D02*
X01845536D01*
Y01905500D01*
X01848922D01*
X01845536D01*
Y01900422D01*
X01862464D02*
X01855693D01*
X01862464Y01907193D01*
Y01908886D01*
X01860771Y01910578D01*
X01857386D01*
X01855693Y01908886D01*
X01870078Y01857458D02*
X01859922D01*
Y01862536D01*
X01861614Y01864229D01*
X01865000D01*
X01866693Y01862536D01*
Y01857458D01*
Y01860843D02*
X01870078Y01864229D01*
Y01874386D02*
Y01867614D01*
X01863307Y01874386D01*
X01861614D01*
X01859922Y01872693D01*
Y01869307D01*
X01861614Y01867614D01*
Y01877771D02*
X01859922Y01879464D01*
Y01882849D01*
X01861614Y01884542D01*
X01868385D01*
X01870078Y01882849D01*
Y01879464D01*
X01868385Y01877771D01*
X01861614D01*
X01823325Y01821636D02*
X01821633Y01823328D01*
X01818247D01*
X01816554Y01821636D01*
Y01814864D01*
X01818247Y01813172D01*
X01821633D01*
X01823325Y01814864D01*
X01826711Y01813172D02*
X01830096D01*
X01828404D01*
Y01823328D01*
X01826711Y01821636D01*
X01835175D02*
X01836868Y01823328D01*
X01840253D01*
X01841946Y01821636D01*
Y01819943D01*
X01840253Y01818250D01*
X01841946Y01816557D01*
Y01814864D01*
X01840253Y01813172D01*
X01836868D01*
X01835175Y01814864D01*
Y01816557D01*
X01836868Y01818250D01*
X01835175Y01819943D01*
Y01821636D01*
X01836868Y01818250D02*
X01840253D01*
X01734554Y01818422D02*
Y01828578D01*
X01739633D01*
X01741325Y01826886D01*
Y01823500D01*
X01739633Y01821807D01*
X01734554D01*
X01737940D02*
X01741325Y01818422D01*
X01744711D02*
X01748096D01*
X01746404D01*
Y01828578D01*
X01744711Y01826886D01*
X01753175Y01820114D02*
X01754868Y01818422D01*
X01758253D01*
X01759946Y01820114D01*
Y01826886D01*
X01758253Y01828578D01*
X01754868D01*
X01753175Y01826886D01*
Y01825193D01*
X01754868Y01823500D01*
X01759946D01*
X01529000Y01864364D02*
Y01871136D01*
X01527307Y01872828D01*
X01523922D01*
X01522229Y01871136D01*
Y01864364D01*
X01523922Y01862672D01*
X01527307D01*
X01525614Y01866057D02*
X01529000Y01862672D01*
X01527307D02*
X01529000Y01864364D01*
X01532386Y01862672D02*
X01535771D01*
X01534078D01*
Y01872828D01*
X01532386Y01871136D01*
X01595922Y02049536D02*
X01606078D01*
Y02054614D01*
X01604386Y02056307D01*
X01597614D01*
X01595922Y02054614D01*
Y02049536D01*
X01606078Y02066464D02*
Y02059693D01*
X01599307Y02066464D01*
X01597614D01*
X01595922Y02064771D01*
Y02061386D01*
X01597614Y02059693D01*
X01587825Y02085386D02*
X01586133Y02087078D01*
X01582747D01*
X01581054Y02085386D01*
Y02078614D01*
X01582747Y02076922D01*
X01586133D01*
X01587825Y02078614D01*
X01591211Y02076922D02*
X01594596D01*
X01592904D01*
Y02087078D01*
X01591211Y02085386D01*
X01604753Y02076922D02*
Y02087078D01*
X01599675Y02082000D01*
X01606446D01*
X01553304Y02116172D02*
Y02126328D01*
X01558383D01*
X01560075Y02124636D01*
Y02121250D01*
X01558383Y02119557D01*
X01553304D01*
X01556690D02*
X01560075Y02116172D01*
X01563461D02*
X01566846D01*
X01565154D01*
Y02126328D01*
X01563461Y02124636D01*
X01571925D02*
X01573618Y02126328D01*
X01577003D01*
X01578696Y02124636D01*
Y02122943D01*
X01577003Y02121250D01*
X01578696Y02119557D01*
Y02117864D01*
X01577003Y02116172D01*
X01573618D01*
X01571925Y02117864D01*
Y02119557D01*
X01573618Y02121250D01*
X01571925Y02122943D01*
Y02124636D01*
X01573618Y02121250D02*
X01577003D01*
X01551458Y02137922D02*
Y02148078D01*
X01556536D01*
X01558229Y02146386D01*
Y02143000D01*
X01556536Y02141307D01*
X01551458D01*
X01554843D02*
X01558229Y02137922D01*
X01568386D02*
X01561614D01*
X01568386Y02144693D01*
Y02146386D01*
X01566693Y02148078D01*
X01563307D01*
X01561614Y02146386D01*
X01571771D02*
X01573464Y02148078D01*
X01576850D01*
X01578542Y02146386D01*
Y02144693D01*
X01576850Y02143000D01*
X01575157D01*
X01576850D01*
X01578542Y02141307D01*
Y02139614D01*
X01576850Y02137922D01*
X01573464D01*
X01571771Y02139614D01*
X01834078Y01872708D02*
X01823922D01*
Y01877786D01*
X01825614Y01879479D01*
X01829000D01*
X01830693Y01877786D01*
Y01872708D01*
Y01876093D02*
X01834078Y01879479D01*
Y01889636D02*
Y01882865D01*
X01827307Y01889636D01*
X01825614D01*
X01823922Y01887943D01*
Y01884557D01*
X01825614Y01882865D01*
X01834078Y01899792D02*
Y01893021D01*
X01827307Y01899792D01*
X01825614D01*
X01823922Y01898100D01*
Y01894714D01*
X01825614Y01893021D01*
X01897328Y01855271D02*
Y01848500D01*
Y01851886D01*
X01887172D01*
Y01845114D02*
Y01841729D01*
Y01843422D01*
X01897328D01*
X01895636Y01845114D01*
X01698401Y01840922D02*
Y01851078D01*
X01703479D01*
X01705172Y01849386D01*
Y01846000D01*
X01703479Y01844307D01*
X01698401D01*
X01701786D02*
X01705172Y01840922D01*
X01715328D02*
X01708557D01*
X01715328Y01847693D01*
Y01849386D01*
X01713636Y01851078D01*
X01710250D01*
X01708557Y01849386D01*
X01718714Y01840922D02*
X01722099D01*
X01720407D01*
Y01851078D01*
X01718714Y01849386D01*
X01620825Y01848886D02*
X01619132Y01850578D01*
X01615747D01*
X01614054Y01848886D01*
Y01842115D01*
X01615747Y01840422D01*
X01619132D01*
X01620825Y01842115D01*
X01624211Y01840422D02*
X01627596D01*
X01625904D01*
Y01850578D01*
X01624211Y01848886D01*
X01632675Y01850578D02*
X01639446D01*
Y01848886D01*
X01632675Y01842115D01*
Y01840422D01*
X01568804Y01840172D02*
Y01850328D01*
X01573882D01*
X01575575Y01848636D01*
Y01845250D01*
X01573882Y01843557D01*
X01568804D01*
X01572190D02*
X01575575Y01840172D01*
X01578961D02*
X01582346D01*
X01580654D01*
Y01850328D01*
X01578961Y01848636D01*
X01587425Y01850328D02*
X01594196D01*
Y01848636D01*
X01587425Y01841864D01*
Y01840172D01*
X01396286Y02005328D02*
Y01995172D01*
X01403057D01*
X01413214D02*
X01406443D01*
X01413214Y02001943D01*
Y02003636D01*
X01411521Y02005328D01*
X01408136D01*
X01406443Y02003636D01*
X01479575Y02111636D02*
X01477883Y02113328D01*
X01474497D01*
X01472804Y02111636D01*
Y02104864D01*
X01474497Y02103172D01*
X01477883D01*
X01479575Y02104864D01*
X01482961Y02103172D02*
X01486346D01*
X01484654D01*
Y02113328D01*
X01482961Y02111636D01*
X01498196Y02113328D02*
X01494810Y02111636D01*
X01491425Y02108250D01*
Y02104864D01*
X01493118Y02103172D01*
X01496503D01*
X01498196Y02104864D01*
Y02106557D01*
X01496503Y02108250D01*
X01491425D01*
X02642496Y02117507D02*
X02635725D01*
X02632339Y02120893D01*
X02635725Y02124279D01*
X02642496D01*
X02637418D01*
Y02117507D01*
X02642496Y02127664D02*
Y02131050D01*
Y02129357D01*
X02632339D01*
X02634032Y02127664D01*
X02667896Y02117507D02*
X02661125D01*
X02657739Y02120893D01*
X02661125Y02124279D01*
X02667896D01*
X02662818D01*
Y02117507D01*
X02667896Y02134435D02*
Y02127664D01*
X02661125Y02134435D01*
X02659432D01*
X02657739Y02132743D01*
Y02129357D01*
X02659432Y02127664D01*
X02693296Y02117507D02*
X02686525D01*
X02683139Y02120893D01*
X02686525Y02124279D01*
X02693296D01*
X02688218D01*
Y02117507D01*
X02684832Y02127664D02*
X02683139Y02129357D01*
Y02132743D01*
X02684832Y02134435D01*
X02686525D01*
X02688218Y02132743D01*
Y02131050D01*
Y02132743D01*
X02689910Y02134435D01*
X02691603D01*
X02693296Y02132743D01*
Y02129357D01*
X02691603Y02127664D01*
X02718696Y02117507D02*
X02711925D01*
X02708539Y02120893D01*
X02711925Y02124279D01*
X02718696D01*
X02713618D01*
Y02117507D01*
X02718696Y02132743D02*
X02708539D01*
X02713618Y02127664D01*
Y02134435D01*
X02744096Y02117507D02*
X02737325D01*
X02733939Y02120893D01*
X02737325Y02124279D01*
X02744096D01*
X02739018D01*
Y02117507D01*
X02733939Y02134435D02*
Y02127664D01*
X02739018D01*
X02737325Y02131050D01*
Y02132742D01*
X02739018Y02134435D01*
X02742403D01*
X02744096Y02132742D01*
Y02129357D01*
X02742403Y02127664D01*
X02769496Y02117507D02*
X02762725D01*
X02759339Y02120893D01*
X02762725Y02124279D01*
X02769496D01*
X02764418D01*
Y02117507D01*
X02759339Y02134435D02*
X02761032Y02131050D01*
X02764418Y02127664D01*
X02767803D01*
X02769496Y02129357D01*
Y02132742D01*
X02767803Y02134435D01*
X02766111D01*
X02764418Y02132742D01*
Y02127664D01*
X02465476Y01983524D02*
X02455319D01*
X02465476Y01990295D01*
X02455319D01*
X02465476Y01993681D02*
X02455319D01*
Y01998759D01*
X02457012Y02000452D01*
X02460398D01*
X02462090Y01998759D01*
Y01993681D01*
Y01997066D02*
X02465476Y02000452D01*
X02457012Y02010609D02*
X02455319Y02008916D01*
Y02005530D01*
X02457012Y02003837D01*
X02458705D01*
X02460398Y02005530D01*
Y02008916D01*
X02462090Y02010609D01*
X02463783D01*
X02465476Y02008916D01*
Y02005530D01*
X02463783Y02003837D01*
X02455319Y02013994D02*
Y02020765D01*
Y02017380D01*
X02465476D01*
X02287795Y01914488D02*
X02286102Y01916181D01*
X02282717D01*
X02281024Y01914488D01*
Y01912795D01*
X02282717Y01911102D01*
X02286102D01*
X02287795Y01909410D01*
Y01907717D01*
X02286102Y01906024D01*
X02282717D01*
X02281024Y01907717D01*
X02291181Y01916181D02*
Y01906024D01*
X02294566Y01909410D01*
X02297952Y01906024D01*
Y01916181D01*
X02301337D02*
Y01906024D01*
X02306416D01*
X02308109Y01907717D01*
Y01914488D01*
X02306416Y01916181D01*
X02301337D01*
X02311494D02*
X02314880D01*
X02313187D01*
Y01906024D01*
X02311494D01*
X02314880D01*
X02325036Y01916181D02*
X02321651D01*
X02319958Y01914488D01*
Y01907717D01*
X02321651Y01906024D01*
X02325036D01*
X02326729Y01907717D01*
Y01914488D01*
X02325036Y01916181D01*
X02237017Y01897879D02*
Y01891108D01*
X02240403Y01894494D02*
X02233632D01*
X02240403Y01887722D02*
X02242096Y01886030D01*
Y01882644D01*
X02240403Y01880951D01*
X02238710D01*
X02237017Y01882644D01*
Y01884337D01*
Y01882644D01*
X02235325Y01880951D01*
X02233632D01*
X02231939Y01882644D01*
Y01886030D01*
X02233632Y01887722D01*
X02231939Y01877566D02*
X02233632D01*
Y01875873D01*
X02231939D01*
Y01877566D01*
X02240403Y01869102D02*
X02242096Y01867409D01*
Y01864023D01*
X02240403Y01862331D01*
X02238710D01*
X02237017Y01864023D01*
Y01865716D01*
Y01864023D01*
X02235325Y01862331D01*
X02233632D01*
X02231939Y01864023D01*
Y01867409D01*
X02233632Y01869102D01*
X02242096Y01858945D02*
X02235325D01*
X02231939Y01855560D01*
X02235325Y01852174D01*
X02242096D01*
X02266103Y01879158D02*
X02267796Y01880851D01*
Y01884236D01*
X02266103Y01885929D01*
X02259332D01*
X02257639Y01884236D01*
Y01880851D01*
X02259332Y01879158D01*
X02267796Y01875772D02*
X02257639D01*
Y01869001D01*
X02267796Y01865616D02*
X02257639D01*
X02261024D01*
X02267796Y01858844D01*
X02262717Y01863923D01*
X02257639Y01858844D01*
X02291453Y01879108D02*
X02293146Y01880801D01*
Y01884186D01*
X02291453Y01885879D01*
X02284682D01*
X02282989Y01884186D01*
Y01880801D01*
X02284682Y01879108D01*
X02288067D01*
Y01882494D01*
X02282989Y01875722D02*
X02293146D01*
X02282989Y01868951D01*
X02293146D01*
Y01865566D02*
X02282989D01*
Y01860487D01*
X02284682Y01858795D01*
X02291453D01*
X02293146Y01860487D01*
Y01865566D01*
X02318571Y01885904D02*
X02308414D01*
Y01880826D01*
X02310107Y01879133D01*
X02316878D01*
X02318571Y01880826D01*
Y01885904D01*
Y01875747D02*
Y01872362D01*
Y01874055D01*
X02308414D01*
Y01875747D01*
Y01872362D01*
X02318571Y01862205D02*
Y01865591D01*
X02316878Y01867283D01*
X02310107D01*
X02308414Y01865591D01*
Y01862205D01*
X02310107Y01860512D01*
X02316878D01*
X02318571Y01862205D01*
X02333889Y01885929D02*
X02344046D01*
X02333889Y01879158D01*
X02344046D01*
X02333889Y01875772D02*
X02344046D01*
Y01870694D01*
X02342353Y01869001D01*
X02338967D01*
X02337274Y01870694D01*
Y01875772D01*
Y01872387D02*
X02333889Y01869001D01*
X02342353Y01858845D02*
X02344046Y01860537D01*
Y01863923D01*
X02342353Y01865616D01*
X02340660D01*
X02338967Y01863923D01*
Y01860537D01*
X02337274Y01858845D01*
X02335582D01*
X02333889Y01860537D01*
Y01863923D01*
X02335582Y01865616D01*
X02344046Y01855459D02*
Y01848688D01*
Y01852073D01*
X02333889D01*
X02367653Y01879108D02*
X02369346Y01880801D01*
Y01884186D01*
X02367653Y01885879D01*
X02365960D01*
X02364267Y01884186D01*
Y01880801D01*
X02362574Y01879108D01*
X02360882D01*
X02359189Y01880801D01*
Y01884186D01*
X02360882Y01885879D01*
X02369346Y01875722D02*
X02359189D01*
X02362574Y01872337D01*
X02359189Y01868951D01*
X02369346D01*
Y01860487D02*
Y01863873D01*
X02367653Y01865566D01*
X02360882D01*
X02359189Y01863873D01*
Y01860487D01*
X02360882Y01858795D01*
X02367653D01*
X02369346Y01860487D01*
X02456274Y01916181D02*
Y01906024D01*
X02461352D01*
X02463045Y01907717D01*
Y01909410D01*
X02461352Y01911102D01*
X02456274D01*
X02461352D01*
X02463045Y01912795D01*
Y01914488D01*
X02461352Y01916181D01*
X02456274D01*
X02466431D02*
Y01906024D01*
X02473202D01*
X02476587Y01916181D02*
Y01907717D01*
X02478280Y01906024D01*
X02481666D01*
X02483359Y01907717D01*
Y01916181D01*
X02493515D02*
X02486744D01*
Y01906024D01*
X02493515D01*
X02486744Y01911102D02*
X02490130D01*
X02496901Y01916181D02*
X02503672D01*
X02500286D01*
Y01906024D01*
X02512136Y01916181D02*
X02508750D01*
X02507058Y01914488D01*
Y01907717D01*
X02508750Y01906024D01*
X02512136D01*
X02513829Y01907717D01*
Y01914488D01*
X02512136Y01916181D01*
X02522293D02*
X02518907D01*
X02517214Y01914488D01*
Y01907717D01*
X02518907Y01906024D01*
X02522293D01*
X02523985Y01907717D01*
Y01914488D01*
X02522293Y01916181D01*
X02527371D02*
X02534142D01*
X02530757D01*
Y01906024D01*
X02537528Y01916181D02*
Y01906024D01*
Y01911102D01*
X02544299D01*
Y01916181D01*
Y01906024D01*
X01842545Y02113738D02*
X01840852Y02115431D01*
X01837467D01*
X01835774Y02113738D01*
Y02106967D01*
X01837467Y02105274D01*
X01840852D01*
X01842545Y02106967D01*
Y02110352D01*
X01839160D01*
X01845931Y02105274D02*
Y02115431D01*
X01852702Y02105274D01*
Y02115431D01*
X01856087D02*
Y02105274D01*
X01861166D01*
X01862859Y02106967D01*
Y02113738D01*
X01861166Y02115431D01*
X01856087D01*
X01456524Y02150726D02*
X01466681D01*
Y02145648D01*
X01464988Y02143955D01*
X01461602D01*
X01459910Y02145648D01*
Y02150726D01*
X01466681Y02140569D02*
X01456524D01*
X01459910Y02137184D01*
X01456524Y02133798D01*
X01466681D01*
X01456524Y02130412D02*
X01466681D01*
X01463295Y02127027D01*
X01466681Y02123641D01*
X01456524D01*
X01441181Y02150726D02*
X01434410D01*
X01431024Y02147340D01*
X01434410Y02143955D01*
X01441181D01*
X01436102Y02140569D02*
Y02133798D01*
X01439488Y02137184D02*
X01432717D01*
X01747774Y02114431D02*
Y02107660D01*
X01751160Y02104274D01*
X01754545Y02107660D01*
Y02114431D01*
X01757931Y02109352D02*
X01764702D01*
X01761316Y02112738D02*
Y02105967D01*
X02181398Y01884024D02*
Y01890795D01*
X02178012Y01887410D02*
X02184783D01*
X02178012Y01894181D02*
X02176319Y01895874D01*
Y01899259D01*
X02178012Y01900952D01*
X02179705D01*
X02181398Y01899259D01*
Y01897566D01*
Y01899259D01*
X02183090Y01900952D01*
X02184783D01*
X02186476Y01899259D01*
Y01895874D01*
X02184783Y01894181D01*
X02186476Y01904337D02*
X02184783D01*
Y01906030D01*
X02186476D01*
Y01904337D01*
X02178012Y01912801D02*
X02176319Y01914494D01*
Y01917880D01*
X02178012Y01919572D01*
X02179705D01*
X02181398Y01917880D01*
Y01916187D01*
Y01917880D01*
X02183090Y01919572D01*
X02184783D01*
X02186476Y01917880D01*
Y01914494D01*
X02184783Y01912801D01*
X02176319Y01922958D02*
X02183090D01*
X02186476Y01926344D01*
X02183090Y01929729D01*
X02176319D01*
X01491488Y02143955D02*
X01493181Y02145648D01*
Y02149033D01*
X01491488Y02150726D01*
X01484717D01*
X01483024Y02149033D01*
Y02145648D01*
X01484717Y02143955D01*
X01488102D01*
Y02147340D01*
X01483024Y02140569D02*
X01493181D01*
X01483024Y02133798D01*
X01493181D01*
Y02130413D02*
X01483024D01*
Y02125334D01*
X01484717Y02123641D01*
X01491488D01*
X01493181Y02125334D01*
Y02130413D01*
X01583024Y02187852D02*
X01589795D01*
X01586410Y02191238D02*
Y02184467D01*
X01593181Y02192931D02*
Y02182774D01*
Y02187852D01*
X01599952D01*
Y02192931D01*
Y02182774D01*
X01603337Y02192931D02*
Y02186160D01*
X01606723Y02182774D01*
X01610109Y02186160D01*
Y02192931D01*
X01741424Y01901695D02*
Y01893231D01*
X01743117Y01891538D01*
X01746502D01*
X01748195Y01893231D01*
Y01901695D01*
X01751581Y01900002D02*
X01753273Y01901695D01*
X01756659D01*
X01758352Y01900002D01*
Y01898309D01*
X01756659Y01896616D01*
X01754966D01*
X01756659D01*
X01758352Y01894924D01*
Y01893231D01*
X01756659Y01891538D01*
X01753273D01*
X01751581Y01893231D01*
X02861229Y02084328D02*
X02868000Y02074172D01*
Y02084328D02*
X02861229Y02074172D01*
X02871385D02*
X02874771D01*
X02873078D01*
Y02084328D01*
X02871385Y02082636D01*
X01827286Y02077328D02*
Y02068864D01*
X01828979Y02067172D01*
X01832364D01*
X01834057Y02068864D01*
Y02077328D01*
X01844214Y02067172D02*
X01837443D01*
X01844214Y02073943D01*
Y02075636D01*
X01842521Y02077328D01*
X01839136D01*
X01837443Y02075636D01*
X02647979Y02064078D02*
Y02055614D01*
X02649672Y02053922D01*
X02653057D01*
X02654750Y02055614D01*
Y02064078D01*
X02658136Y02053922D02*
X02661521D01*
X02659828D01*
Y02064078D01*
X02658136Y02062386D01*
X02477115Y02059294D02*
X02475422Y02060986D01*
X02472036D01*
X02470344Y02059294D01*
Y02057601D01*
X02472036Y02055908D01*
X02475422D01*
X02477115Y02054215D01*
Y02052522D01*
X02475422Y02050830D01*
X02472036D01*
X02470344Y02052522D01*
X02480500Y02050830D02*
X02483886D01*
X02482193D01*
Y02060986D01*
X02480500Y02059294D01*
X01341078Y01887554D02*
X01330922D01*
Y01892632D01*
X01332614Y01894325D01*
X01336000D01*
X01337693Y01892632D01*
Y01887554D01*
Y01890940D02*
X01341078Y01894325D01*
Y01897711D02*
Y01901096D01*
Y01899404D01*
X01330922D01*
X01332614Y01897711D01*
X01330922Y01912946D02*
X01332614Y01909560D01*
X01336000Y01906175D01*
X01339386D01*
X01341078Y01907868D01*
Y01911253D01*
X01339386Y01912946D01*
X01337693D01*
X01336000Y01911253D01*
Y01906175D01*
X02841328Y02087304D02*
X02831172D01*
Y02092383D01*
X02832864Y02094075D01*
X02836250D01*
X02837943Y02092383D01*
Y02087304D01*
Y02090690D02*
X02841328Y02094075D01*
Y02097461D02*
Y02100846D01*
Y02099154D01*
X02831172D01*
X02832864Y02097461D01*
X02831172Y02112696D02*
Y02105925D01*
X02836250D01*
X02834557Y02109310D01*
Y02111003D01*
X02836250Y02112696D01*
X02839636D01*
X02841328Y02111003D01*
Y02107618D01*
X02839636Y02105925D01*
X02841328Y01887304D02*
X02831172D01*
Y01892383D01*
X02832864Y01894075D01*
X02836250D01*
X02837943Y01892383D01*
Y01887304D01*
Y01890690D02*
X02841328Y01894075D01*
Y01897461D02*
Y01900846D01*
Y01899154D01*
X02831172D01*
X02832864Y01897461D01*
X02841328Y01911003D02*
X02831172D01*
X02836250Y01905925D01*
Y01912696D01*
X01341328Y02087554D02*
X01331172D01*
Y02092632D01*
X01332864Y02094325D01*
X01336250D01*
X01337943Y02092632D01*
Y02087554D01*
Y02090940D02*
X01341328Y02094325D01*
Y02097711D02*
Y02101096D01*
Y02099404D01*
X01331172D01*
X01332864Y02097711D01*
Y02106175D02*
X01331172Y02107868D01*
Y02111253D01*
X01332864Y02112946D01*
X01334557D01*
X01336250Y02111253D01*
Y02109560D01*
Y02111253D01*
X01337943Y02112946D01*
X01339635D01*
X01341328Y02111253D01*
Y02107868D01*
X01339635Y02106175D01*
X02001804Y01842422D02*
Y01852578D01*
X02006882D01*
X02008575Y01850886D01*
Y01847500D01*
X02006882Y01845807D01*
X02001804D01*
X02005190D02*
X02008575Y01842422D01*
X02011961D02*
X02015346D01*
X02013654D01*
Y01852578D01*
X02011961Y01850886D01*
X02027196Y01842422D02*
X02020425D01*
X02027196Y01849193D01*
Y01850886D01*
X02025503Y01852578D01*
X02022117D01*
X02020425Y01850886D01*
X02110997Y01841922D02*
Y01852078D01*
X02116075D01*
X02117768Y01850386D01*
Y01847000D01*
X02116075Y01845307D01*
X02110997D01*
X02114382D02*
X02117768Y01841922D01*
X02121154D02*
X02124539D01*
X02122846D01*
Y01852078D01*
X02121154Y01850386D01*
X02129618Y01841922D02*
X02133003D01*
X02131310D01*
Y01852078D01*
X02129618Y01850386D01*
X02056304Y01855672D02*
Y01865828D01*
X02061382D01*
X02063075Y01864136D01*
Y01860750D01*
X02061382Y01859057D01*
X02056304D01*
X02059690D02*
X02063075Y01855672D01*
X02066461D02*
X02069846D01*
X02068154D01*
Y01865828D01*
X02066461Y01864136D01*
X02074925D02*
X02076618Y01865828D01*
X02080003D01*
X02081696Y01864136D01*
Y01857364D01*
X02080003Y01855672D01*
X02076618D01*
X02074925Y01857364D01*
Y01864136D01*
X01769422Y02011964D02*
X01779578D01*
Y02006886D01*
X01777886Y02005193D01*
X01774500D01*
X01772807Y02006886D01*
Y02011964D01*
Y02008578D02*
X01769422Y02005193D01*
X01771114Y02001807D02*
X01769422Y02000114D01*
Y01996729D01*
X01771114Y01995036D01*
X01777886D01*
X01779578Y01996729D01*
Y02000114D01*
X01777886Y02001807D01*
X01776193D01*
X01774500Y02000114D01*
Y01995036D01*
X01791922Y02011964D02*
X01802078D01*
Y02006886D01*
X01800386Y02005193D01*
X01797000D01*
X01795307Y02006886D01*
Y02011964D01*
Y02008578D02*
X01791922Y02005193D01*
X01800386Y02001807D02*
X01802078Y02000114D01*
Y01996729D01*
X01800386Y01995036D01*
X01798693D01*
X01797000Y01996729D01*
X01795307Y01995036D01*
X01793614D01*
X01791922Y01996729D01*
Y02000114D01*
X01793614Y02001807D01*
X01795307D01*
X01797000Y02000114D01*
X01798693Y02001807D01*
X01800386D01*
X01797000Y02000114D02*
Y01996729D01*
X02807328Y01991786D02*
X02797172D01*
Y01996864D01*
X02798864Y01998557D01*
X02802250D01*
X02803943Y01996864D01*
Y01991786D01*
Y01995172D02*
X02807328Y01998557D01*
X02797172Y02001943D02*
Y02008714D01*
X02798864D01*
X02805636Y02001943D01*
X02807328D01*
X02787536Y01964672D02*
Y01974828D01*
X02792614D01*
X02794307Y01973136D01*
Y01969750D01*
X02792614Y01968057D01*
X02787536D01*
X02790922D02*
X02794307Y01964672D01*
X02804464Y01974828D02*
X02801078Y01973136D01*
X02797693Y01969750D01*
Y01966364D01*
X02799386Y01964672D01*
X02802771D01*
X02804464Y01966364D01*
Y01968057D01*
X02802771Y01969750D01*
X02797693D01*
X02691036Y01894922D02*
Y01905078D01*
X02696115D01*
X02697807Y01903386D01*
Y01900000D01*
X02696115Y01898307D01*
X02691036D01*
X02694422D02*
X02697807Y01894922D01*
X02707964Y01905078D02*
X02701193D01*
Y01900000D01*
X02704579Y01901693D01*
X02706271D01*
X02707964Y01900000D01*
Y01896614D01*
X02706271Y01894922D01*
X02702886D01*
X02701193Y01896614D01*
X02691536Y01909672D02*
Y01919828D01*
X02696614D01*
X02698307Y01918136D01*
Y01914750D01*
X02696614Y01913057D01*
X02691536D01*
X02694922D02*
X02698307Y01909672D01*
X02706771D02*
Y01919828D01*
X02701693Y01914750D01*
X02708464D01*
X02556422Y01995464D02*
X02566578D01*
Y01990386D01*
X02564886Y01988693D01*
X02561500D01*
X02559807Y01990386D01*
Y01995464D01*
Y01992078D02*
X02556422Y01988693D01*
X02564886Y01985307D02*
X02566578Y01983614D01*
Y01980229D01*
X02564886Y01978536D01*
X02563193D01*
X02561500Y01980229D01*
Y01981922D01*
Y01980229D01*
X02559807Y01978536D01*
X02558114D01*
X02556422Y01980229D01*
Y01983614D01*
X02558114Y01985307D01*
X02541672Y01995464D02*
X02551828D01*
Y01990386D01*
X02550136Y01988693D01*
X02546750D01*
X02545057Y01990386D01*
Y01995464D01*
Y01992078D02*
X02541672Y01988693D01*
Y01978536D02*
Y01985307D01*
X02548443Y01978536D01*
X02550136D01*
X02551828Y01980229D01*
Y01983614D01*
X02550136Y01985307D01*
X02420578Y01900729D02*
X02410422D01*
Y01905807D01*
X02412114Y01907500D01*
X02415500D01*
X02417193Y01905807D01*
Y01900729D01*
Y01904114D02*
X02420578Y01907500D01*
Y01910886D02*
Y01914271D01*
Y01912578D01*
X02410422D01*
X02412114Y01910886D01*
X02051479Y02027328D02*
Y02017172D01*
X02058250D01*
X02061636D02*
X02065021D01*
X02063328D01*
Y02027328D01*
X02061636Y02025636D01*
X02160232Y01868622D02*
X02163618D01*
X02161925D01*
Y01877086D01*
X02163618Y01878778D01*
X02165310D01*
X02167003Y01877086D01*
X02156846Y01878778D02*
X02153461D01*
X02155154D01*
Y01868622D01*
X02156846Y01870314D01*
X02148382Y01878778D02*
X02144997D01*
X02146690D01*
Y01868622D01*
X02148382Y01870314D01*
X01409172Y02174307D02*
Y02170922D01*
Y02172614D01*
X01417635D01*
X01419328Y02170922D01*
Y02169229D01*
X01417635Y02167536D01*
X01410864Y02177693D02*
X01409172Y02179386D01*
Y02182771D01*
X01410864Y02184464D01*
X01412557D01*
X01414250Y02182771D01*
X01415943Y02184464D01*
X01417635D01*
X01419328Y02182771D01*
Y02179386D01*
X01417635Y02177693D01*
X01415943D01*
X01414250Y02179386D01*
X01412557Y02177693D01*
X01410864D01*
X01414250Y02179386D02*
Y02182771D01*
X02791078Y01836693D02*
Y01840078D01*
Y01838386D01*
X02782614D01*
X02780922Y01840078D01*
Y01841771D01*
X02782614Y01843464D01*
X02791078Y01833307D02*
Y01826536D01*
X02789386D01*
X02782614Y01833307D01*
X02780922D01*
X02609422Y02174307D02*
Y02170922D01*
Y02172614D01*
X02617886D01*
X02619579Y02170922D01*
Y02169229D01*
X02617886Y02167536D01*
X02609422Y02184464D02*
X02611115Y02181078D01*
X02614500Y02177693D01*
X02617886D01*
X02619579Y02179386D01*
Y02182771D01*
X02617886Y02184464D01*
X02616193D01*
X02614500Y02182771D01*
Y02177693D01*
X02109172Y02174557D02*
Y02171172D01*
Y02172864D01*
X02117636D01*
X02119328Y02171172D01*
Y02169479D01*
X02117636Y02167786D01*
X02109172Y02184714D02*
Y02177943D01*
X02114250D01*
X02112557Y02181328D01*
Y02183021D01*
X02114250Y02184714D01*
X02117636D01*
X02119328Y02183021D01*
Y02179636D01*
X02117636Y02177943D01*
X02591752Y01836771D02*
Y01840157D01*
Y01838464D01*
X02583288D01*
X02581595Y01840157D01*
Y01841849D01*
X02583288Y01843542D01*
X02581595Y01828307D02*
X02591752D01*
X02586674Y01833385D01*
Y01826614D01*
X02388828Y01883443D02*
Y01886828D01*
Y01885136D01*
X02380364D01*
X02378672Y01886828D01*
Y01888521D01*
X02380364Y01890214D01*
X02387136Y01880057D02*
X02388828Y01878364D01*
Y01874979D01*
X02387136Y01873286D01*
X02385443D01*
X02383750Y01874979D01*
Y01876672D01*
Y01874979D01*
X02382057Y01873286D01*
X02380364D01*
X02378672Y01874979D01*
Y01878364D01*
X02380364Y01880057D01*
X01909422Y02174807D02*
Y02171422D01*
Y02173114D01*
X01917885D01*
X01919578Y02171422D01*
Y02169729D01*
X01917885Y02168036D01*
X01919578Y02184964D02*
Y02178193D01*
X01912807Y02184964D01*
X01911114D01*
X01909422Y02183271D01*
Y02179886D01*
X01911114Y02178193D01*
X02208672Y01837500D02*
Y01834114D01*
Y01835807D01*
X02217135D01*
X02218828Y01834114D01*
Y01832422D01*
X02217135Y01830729D01*
X02218828Y01840886D02*
Y01844271D01*
Y01842578D01*
X02208672D01*
X02210364Y01840886D01*
X01752672Y02079000D02*
Y02072229D01*
X01757750D01*
Y02075614D01*
Y02072229D01*
X01762828D01*
Y02082386D02*
Y02085771D01*
Y02084078D01*
X01752672D01*
X01754364Y02082386D01*
X01918729Y02061078D02*
Y02050922D01*
X01923807D01*
X01925500Y02052614D01*
Y02059386D01*
X01923807Y02061078D01*
X01918729D01*
X01928886Y02050922D02*
X01932271D01*
X01930578D01*
Y02061078D01*
X01928886Y02059386D01*
X02130925Y01862114D02*
X02132617Y01860422D01*
X02136003D01*
X02137696Y01862114D01*
Y01868886D01*
X02136003Y01870578D01*
X02132617D01*
X02130925Y01868886D01*
X02127539Y01870578D02*
X02124154D01*
X02125846D01*
Y01860422D01*
X02127539Y01862114D01*
X02119075D02*
X02117382Y01860422D01*
X02113997D01*
X02112304Y01862114D01*
Y01863807D01*
X02113997Y01865500D01*
X02115690D01*
X02113997D01*
X02112304Y01867193D01*
Y01868886D01*
X02113997Y01870578D01*
X02117382D01*
X02119075Y01868886D01*
X01894636Y02103675D02*
X01896328Y02105367D01*
Y02108753D01*
X01894636Y02110446D01*
X01887864D01*
X01886172Y02108753D01*
Y02105367D01*
X01887864Y02103675D01*
X01886172Y02100289D02*
Y02096904D01*
Y02098596D01*
X01896328D01*
X01894636Y02100289D01*
X01886172Y02085054D02*
Y02091825D01*
X01892943Y02085054D01*
X01894636D01*
X01896328Y02086747D01*
Y02090132D01*
X01894636Y02091825D01*
X01801636Y02105232D02*
X01803328Y02106925D01*
Y02110310D01*
X01801636Y02112003D01*
X01794864D01*
X01793172Y02110310D01*
Y02106925D01*
X01794864Y02105232D01*
X01793172Y02101846D02*
Y02098461D01*
Y02100154D01*
X01803328D01*
X01801636Y02101846D01*
X01793172Y02093383D02*
Y02089997D01*
Y02091690D01*
X01803328D01*
X01801636Y02093383D01*
X01816075Y02093636D02*
X01814382Y02095328D01*
X01810997D01*
X01809304Y02093636D01*
Y02086864D01*
X01810997Y02085172D01*
X01814382D01*
X01816075Y02086864D01*
X01819461Y02085172D02*
X01822846D01*
X01821154D01*
Y02095328D01*
X01819461Y02093636D01*
X01827925D02*
X01829617Y02095328D01*
X01833003D01*
X01834696Y02093636D01*
Y02086864D01*
X01833003Y02085172D01*
X01829617D01*
X01827925Y02086864D01*
Y02093636D01*
X02682864Y02093557D02*
X02681172Y02091864D01*
Y02088479D01*
X02682864Y02086786D01*
X02689636D01*
X02691328Y02088479D01*
Y02091864D01*
X02689636Y02093557D01*
Y02096943D02*
X02691328Y02098636D01*
Y02102021D01*
X02689636Y02103714D01*
X02682864D01*
X02681172Y02102021D01*
Y02098636D01*
X02682864Y02096943D01*
X02684557D01*
X02686250Y02098636D01*
Y02103714D01*
X02798615Y02050057D02*
X02796922Y02048364D01*
Y02044979D01*
X02798615Y02043286D01*
X02805385D01*
X02807078Y02044979D01*
Y02048364D01*
X02805385Y02050057D01*
X02798615Y02053443D02*
X02796922Y02055136D01*
Y02058521D01*
X02798615Y02060214D01*
X02800307D01*
X02802000Y02058521D01*
X02803693Y02060214D01*
X02805385D01*
X02807078Y02058521D01*
Y02055136D01*
X02805385Y02053443D01*
X02803693D01*
X02802000Y02055136D01*
X02800307Y02053443D01*
X02798615D01*
X02802000Y02055136D02*
Y02058521D01*
X02798615Y01937057D02*
X02796922Y01935364D01*
Y01931979D01*
X02798615Y01930286D01*
X02805385D01*
X02807078Y01931979D01*
Y01935364D01*
X02805385Y01937057D01*
X02796922Y01940443D02*
Y01947214D01*
X02798615D01*
X02805385Y01940443D01*
X02807078D01*
X02553557Y02048136D02*
X02551864Y02049828D01*
X02548479D01*
X02546786Y02048136D01*
Y02041364D01*
X02548479Y02039672D01*
X02551864D01*
X02553557Y02041364D01*
X02563714Y02049828D02*
X02560328Y02048136D01*
X02556943Y02044750D01*
Y02041364D01*
X02558636Y02039672D01*
X02562021D01*
X02563714Y02041364D01*
Y02043057D01*
X02562021Y02044750D01*
X02556943D01*
X02764114Y02031557D02*
X02762422Y02029864D01*
Y02026479D01*
X02764114Y02024786D01*
X02770886D01*
X02772578Y02026479D01*
Y02029864D01*
X02770886Y02031557D01*
X02762422Y02041714D02*
Y02034943D01*
X02767500D01*
X02765807Y02038328D01*
Y02040021D01*
X02767500Y02041714D01*
X02770886D01*
X02772578Y02040021D01*
Y02036636D01*
X02770886Y02034943D01*
X02607807Y01979386D02*
X02606115Y01981078D01*
X02602729D01*
X02601036Y01979386D01*
Y01972614D01*
X02602729Y01970922D01*
X02606115D01*
X02607807Y01972614D01*
X02616271Y01970922D02*
Y01981078D01*
X02611193Y01976000D01*
X02617964D01*
X02771557Y01917886D02*
X02769865Y01919578D01*
X02766479D01*
X02764786Y01917886D01*
Y01911114D01*
X02766479Y01909422D01*
X02769865D01*
X02771557Y01911114D01*
X02774943Y01917886D02*
X02776636Y01919578D01*
X02780021D01*
X02781714Y01917886D01*
Y01916193D01*
X02780021Y01914500D01*
X02778329D01*
X02780021D01*
X02781714Y01912807D01*
Y01911114D01*
X02780021Y01909422D01*
X02776636D01*
X02774943Y01911114D01*
X02771557Y01933886D02*
X02769865Y01935578D01*
X02766479D01*
X02764786Y01933886D01*
Y01927114D01*
X02766479Y01925422D01*
X02769865D01*
X02771557Y01927114D01*
X02781714Y01925422D02*
X02774943D01*
X02781714Y01932193D01*
Y01933886D01*
X02780021Y01935578D01*
X02776636D01*
X02774943Y01933886D01*
X02396364Y01907750D02*
X02394672Y01906057D01*
Y01902672D01*
X02396364Y01900979D01*
X02403136D01*
X02404828Y01902672D01*
Y01906057D01*
X02403136Y01907750D01*
X02404828Y01911136D02*
Y01914521D01*
Y01912828D01*
X02394672D01*
X02396364Y01911136D01*
D16*
X01827750Y01924623D02*
D03*
D17*
X01827250Y01923902D02*
D03*
D18*
X01826750Y01923381D02*
D03*
D19*
X01826250Y01922930D02*
D03*
D20*
X01825750Y01922789D02*
D03*
D21*
X01824986Y01922594D02*
D03*
D22*
X01824500Y01922375D02*
D03*
D23*
X01823250Y01923181D02*
D03*
D24*
X01822500Y01923734D02*
D03*
D25*
X01821500Y01923599D02*
D03*
D26*
X01820750Y01923308D02*
D03*
D27*
X01820323Y01924639D02*
D03*
D28*
X01819486Y01923024D02*
D03*
D29*
X01818750Y01923250D02*
D03*
D30*
X01818000Y01922625D02*
D03*
D31*
X01816750Y01923000D02*
D03*
D32*
X01613247Y02060373D02*
D03*
X01634747Y02060373D02*
D03*
D33*
X01612501Y02060374D02*
D03*
X01635501D02*
D03*
D34*
X01611625Y02059777D02*
D03*
X01636375D02*
D03*
D35*
X01523961Y02087750D02*
D03*
D36*
X01524262Y02089000D02*
D03*
D37*
X01521026Y02089750D02*
D03*
D38*
X01524642Y02090118D02*
D03*
D39*
X01520152Y02091323D02*
D03*
D40*
X01524854Y02091750D02*
D03*
D41*
X01524530Y02092500D02*
D03*
D42*
X01524263Y02093500D02*
D03*
D43*
X01524943Y02094250D02*
D03*
D44*
X01524191Y02095500D02*
D03*
D45*
X01523527Y02095987D02*
D03*
D46*
X01524069Y02097250D02*
D03*
X02102930Y01877250D02*
D03*
D47*
X01523620Y02097750D02*
D03*
X02103381Y01876750D02*
D03*
D48*
X01523098Y02098250D02*
D03*
X02103902Y01876250D02*
D03*
D49*
X01522377Y02098750D02*
D03*
D50*
X01524595Y02096750D02*
D03*
D51*
X01524033Y02086698D02*
D03*
D52*
X01523903Y02085794D02*
D03*
D53*
X01523898Y02084623D02*
D03*
D54*
X01924126Y02022251D02*
D03*
X01924126Y02043751D02*
D03*
D55*
X01924126Y02021501D02*
D03*
Y02044500D02*
D03*
D56*
X01924723Y02020625D02*
D03*
Y02045375D02*
D03*
D57*
X02103000Y01886750D02*
D03*
D58*
X02102625Y01885500D02*
D03*
D59*
X02103250Y01884750D02*
D03*
D60*
X02103024Y01884014D02*
D03*
D61*
X02104640Y01883177D02*
D03*
D62*
X02103308Y01882750D02*
D03*
D63*
X02103599Y01882000D02*
D03*
D64*
X02103734Y01881000D02*
D03*
D65*
X02103181Y01880250D02*
D03*
D66*
X02102374Y01879000D02*
D03*
D67*
X02102594Y01878513D02*
D03*
D68*
X02102788Y01877750D02*
D03*
D69*
X02104623Y01875750D02*
D03*
D70*
X01300000Y01850000D02*
G03*
X01350000Y01800000I00050000J00000000D01*
G01*
X02850000D02*
G03*
X02900000Y01850000I00000000J00050000D01*
G01*
X01350000Y02200000D02*
G03*
X01300000Y02150000I00000000J-00050000D01*
G01*
X02900000D02*
G03*
X02850000Y02200000I-00050000J00000000D01*
G01*
X01350000D02*
X02850000Y02200000D01*
X01300000Y01850000D02*
X01300000Y02150000D01*
X01350000Y01800000D02*
X02850000Y01800000D01*
X02900000Y02150000D02*
X02900000Y01850000D01*
M02*
