G04*
G04 #@! TF.GenerationSoftware,Altium Limited,Altium Designer,23.8.1 (32)*
G04*
G04 Layer_Physical_Order=2*
G04 Layer_Color=16711680*
%FSAX44Y44*%
%MOMM*%
G71*
G04*
G04 #@! TF.SameCoordinates,78110BDE-5C4C-41F2-AE8D-2B4B6642ACCE*
G04*
G04*
G04 #@! TF.FilePolarity,Positive*
G04*
G01*
G75*
%ADD11C,0.3000*%
%ADD70C,0.1000*%
%ADD117C,0.5000*%
%ADD120C,0.1270*%
%ADD128C,2.0000*%
%ADD129C,1.1000*%
%ADD130R,1.1000X1.1000*%
%ADD131R,1.1000X1.1000*%
%ADD132R,1.6000X1.6000*%
%ADD133C,1.6000*%
%ADD134R,1.7250X1.7250*%
%ADD135R,1.6000X1.6000*%
%ADD136C,5.5000*%
%ADD137C,0.5000*%
G36*
X02850000Y02197961D02*
X02853144Y02197961D01*
X02859377Y02197140D01*
X02865450Y02195513D01*
X02871258Y02193107D01*
X02876703Y02189964D01*
X02881690Y02186136D01*
X02886136Y02181691D01*
X02889963Y02176703D01*
X02893107Y02171258D01*
X02895513Y02165450D01*
X02897140Y02159377D01*
X02897961Y02153143D01*
X02897961Y02150000D01*
Y01850000D01*
Y01846857D01*
X02897140Y01840623D01*
X02895513Y01834550D01*
X02893107Y01828742D01*
X02889964Y01823297D01*
X02886136Y01818309D01*
X02881691Y01813864D01*
X02876703Y01810036D01*
X02871258Y01806893D01*
X02865450Y01804487D01*
X02859377Y01802860D01*
X02853144Y01802039D01*
X02850000D01*
X01350000Y01802039D01*
X01346856Y01802039D01*
X01340623Y01802860D01*
X01334550Y01804487D01*
X01328742Y01806893D01*
X01323297Y01810036D01*
X01318309Y01813864D01*
X01313864Y01818309D01*
X01310036Y01823297D01*
X01306893Y01828742D01*
X01304487Y01834550D01*
X01302860Y01840623D01*
X01302039Y01846857D01*
Y01850000D01*
X01302039Y02150000D01*
Y02153143D01*
X01302860Y02159377D01*
X01304487Y02165450D01*
X01306893Y02171258D01*
X01310036Y02176703D01*
X01313864Y02181691D01*
X01318309Y02186136D01*
X01323297Y02189964D01*
X01328742Y02193107D01*
X01334550Y02195513D01*
X01340623Y02197140D01*
X01346856Y02197961D01*
X01350000Y02197961D01*
X02850000Y02197961D01*
D02*
G37*
%LPC*%
G36*
X02774000Y02180500D02*
X02753000D01*
Y02159500D01*
X02774000D01*
Y02180500D01*
D02*
G37*
G36*
X02739482D02*
X02736718D01*
X02734047Y02179784D01*
X02731653Y02178402D01*
X02729698Y02176447D01*
X02728316Y02174053D01*
X02727600Y02171382D01*
Y02168618D01*
X02728316Y02165947D01*
X02729698Y02163553D01*
X02731653Y02161598D01*
X02734047Y02160216D01*
X02736718Y02159500D01*
X02739482D01*
X02742153Y02160216D01*
X02744547Y02161598D01*
X02746502Y02163553D01*
X02747885Y02165947D01*
X02748600Y02168618D01*
Y02171382D01*
X02747885Y02174053D01*
X02746502Y02176447D01*
X02744547Y02178402D01*
X02742153Y02179784D01*
X02739482Y02180500D01*
D02*
G37*
G36*
X02714082D02*
X02711318D01*
X02708647Y02179784D01*
X02706253Y02178402D01*
X02704298Y02176447D01*
X02702916Y02174053D01*
X02702200Y02171382D01*
Y02168618D01*
X02702916Y02165947D01*
X02704298Y02163553D01*
X02706253Y02161598D01*
X02708647Y02160216D01*
X02711318Y02159500D01*
X02714082D01*
X02716753Y02160216D01*
X02719147Y02161598D01*
X02721102Y02163553D01*
X02722484Y02165947D01*
X02723200Y02168618D01*
Y02171382D01*
X02722484Y02174053D01*
X02721102Y02176447D01*
X02719147Y02178402D01*
X02716753Y02179784D01*
X02714082Y02180500D01*
D02*
G37*
G36*
X02688682D02*
X02685918D01*
X02683247Y02179784D01*
X02680853Y02178402D01*
X02678898Y02176447D01*
X02677516Y02174053D01*
X02676800Y02171382D01*
Y02168618D01*
X02677516Y02165947D01*
X02678898Y02163553D01*
X02680853Y02161598D01*
X02683247Y02160216D01*
X02685918Y02159500D01*
X02688682D01*
X02691353Y02160216D01*
X02693747Y02161598D01*
X02695702Y02163553D01*
X02697084Y02165947D01*
X02697800Y02168618D01*
Y02171382D01*
X02697084Y02174053D01*
X02695702Y02176447D01*
X02693747Y02178402D01*
X02691353Y02179784D01*
X02688682Y02180500D01*
D02*
G37*
G36*
X02663282D02*
X02660518D01*
X02657847Y02179784D01*
X02655453Y02178402D01*
X02653498Y02176447D01*
X02652115Y02174053D01*
X02651400Y02171382D01*
Y02168618D01*
X02652115Y02165947D01*
X02653498Y02163553D01*
X02655453Y02161598D01*
X02657847Y02160216D01*
X02660518Y02159500D01*
X02663282D01*
X02665953Y02160216D01*
X02668347Y02161598D01*
X02670302Y02163553D01*
X02671684Y02165947D01*
X02672400Y02168618D01*
Y02171382D01*
X02671684Y02174053D01*
X02670302Y02176447D01*
X02668347Y02178402D01*
X02665953Y02179784D01*
X02663282Y02180500D01*
D02*
G37*
G36*
X02637882D02*
X02635117D01*
X02632447Y02179784D01*
X02630053Y02178402D01*
X02628098Y02176447D01*
X02626716Y02174053D01*
X02626000Y02171382D01*
Y02168618D01*
X02626716Y02165947D01*
X02628098Y02163553D01*
X02630053Y02161598D01*
X02632447Y02160216D01*
X02635117Y02159500D01*
X02637882D01*
X02640553Y02160216D01*
X02642947Y02161598D01*
X02644902Y02163553D01*
X02646284Y02165947D01*
X02647000Y02168618D01*
Y02171382D01*
X02646284Y02174053D01*
X02644902Y02176447D01*
X02642947Y02178402D01*
X02640553Y02179784D01*
X02637882Y02180500D01*
D02*
G37*
G36*
X02274000D02*
X02253000D01*
Y02159500D01*
X02274000D01*
Y02180500D01*
D02*
G37*
G36*
X02239482D02*
X02236718D01*
X02234047Y02179784D01*
X02231653Y02178402D01*
X02229698Y02176447D01*
X02228316Y02174053D01*
X02227600Y02171382D01*
Y02168618D01*
X02228316Y02165947D01*
X02229698Y02163553D01*
X02231653Y02161598D01*
X02234047Y02160216D01*
X02236718Y02159500D01*
X02239482D01*
X02242153Y02160216D01*
X02244547Y02161598D01*
X02246502Y02163553D01*
X02247884Y02165947D01*
X02248600Y02168618D01*
Y02171382D01*
X02247884Y02174053D01*
X02246502Y02176447D01*
X02244547Y02178402D01*
X02242153Y02179784D01*
X02239482Y02180500D01*
D02*
G37*
G36*
X02214082D02*
X02211318D01*
X02208647Y02179784D01*
X02206253Y02178402D01*
X02204298Y02176447D01*
X02202916Y02174053D01*
X02202200Y02171382D01*
Y02168618D01*
X02202916Y02165947D01*
X02204298Y02163553D01*
X02206253Y02161598D01*
X02208647Y02160216D01*
X02211318Y02159500D01*
X02214082D01*
X02216753Y02160216D01*
X02219147Y02161598D01*
X02221102Y02163553D01*
X02222484Y02165947D01*
X02223200Y02168618D01*
Y02171382D01*
X02222484Y02174053D01*
X02221102Y02176447D01*
X02219147Y02178402D01*
X02216753Y02179784D01*
X02214082Y02180500D01*
D02*
G37*
G36*
X02188682D02*
X02185918D01*
X02183247Y02179784D01*
X02180853Y02178402D01*
X02178898Y02176447D01*
X02177516Y02174053D01*
X02176800Y02171382D01*
Y02168618D01*
X02177516Y02165947D01*
X02178898Y02163553D01*
X02180853Y02161598D01*
X02183247Y02160216D01*
X02185918Y02159500D01*
X02188682D01*
X02191353Y02160216D01*
X02193747Y02161598D01*
X02195702Y02163553D01*
X02197084Y02165947D01*
X02197800Y02168618D01*
Y02171382D01*
X02197084Y02174053D01*
X02195702Y02176447D01*
X02193747Y02178402D01*
X02191353Y02179784D01*
X02188682Y02180500D01*
D02*
G37*
G36*
X02163282D02*
X02160518D01*
X02157847Y02179784D01*
X02155453Y02178402D01*
X02153498Y02176447D01*
X02152116Y02174053D01*
X02151400Y02171382D01*
Y02168618D01*
X02152116Y02165947D01*
X02153498Y02163553D01*
X02155453Y02161598D01*
X02157847Y02160216D01*
X02160518Y02159500D01*
X02163282D01*
X02165953Y02160216D01*
X02168347Y02161598D01*
X02170302Y02163553D01*
X02171684Y02165947D01*
X02172400Y02168618D01*
Y02171382D01*
X02171684Y02174053D01*
X02170302Y02176447D01*
X02168347Y02178402D01*
X02165953Y02179784D01*
X02163282Y02180500D01*
D02*
G37*
G36*
X02137882D02*
X02135118D01*
X02132447Y02179784D01*
X02130053Y02178402D01*
X02128098Y02176447D01*
X02126716Y02174053D01*
X02126000Y02171382D01*
Y02168618D01*
X02126716Y02165947D01*
X02128098Y02163553D01*
X02130053Y02161598D01*
X02132447Y02160216D01*
X02135118Y02159500D01*
X02137882D01*
X02140553Y02160216D01*
X02142947Y02161598D01*
X02144902Y02163553D01*
X02146284Y02165947D01*
X02147000Y02168618D01*
Y02171382D01*
X02146284Y02174053D01*
X02144902Y02176447D01*
X02142947Y02178402D01*
X02140553Y02179784D01*
X02137882Y02180500D01*
D02*
G37*
G36*
X02074000D02*
X02053000D01*
Y02159500D01*
X02074000D01*
Y02180500D01*
D02*
G37*
G36*
X02039482D02*
X02036718D01*
X02034047Y02179784D01*
X02031653Y02178402D01*
X02029698Y02176447D01*
X02028316Y02174053D01*
X02027600Y02171382D01*
Y02168618D01*
X02028316Y02165947D01*
X02029698Y02163553D01*
X02031653Y02161598D01*
X02034047Y02160216D01*
X02036718Y02159500D01*
X02039482D01*
X02042153Y02160216D01*
X02044547Y02161598D01*
X02046502Y02163553D01*
X02047884Y02165947D01*
X02048600Y02168618D01*
Y02171382D01*
X02047884Y02174053D01*
X02046502Y02176447D01*
X02044547Y02178402D01*
X02042153Y02179784D01*
X02039482Y02180500D01*
D02*
G37*
G36*
X02014082D02*
X02011318D01*
X02008647Y02179784D01*
X02006253Y02178402D01*
X02004298Y02176447D01*
X02002916Y02174053D01*
X02002200Y02171382D01*
Y02168618D01*
X02002916Y02165947D01*
X02004298Y02163553D01*
X02006253Y02161598D01*
X02008647Y02160216D01*
X02011318Y02159500D01*
X02014082D01*
X02016753Y02160216D01*
X02019147Y02161598D01*
X02021102Y02163553D01*
X02022484Y02165947D01*
X02023200Y02168618D01*
Y02171382D01*
X02022484Y02174053D01*
X02021102Y02176447D01*
X02019147Y02178402D01*
X02016753Y02179784D01*
X02014082Y02180500D01*
D02*
G37*
G36*
X01988682D02*
X01985918D01*
X01983247Y02179784D01*
X01980853Y02178402D01*
X01978898Y02176447D01*
X01977516Y02174053D01*
X01976800Y02171382D01*
Y02168618D01*
X01977516Y02165947D01*
X01978898Y02163553D01*
X01980853Y02161598D01*
X01983247Y02160216D01*
X01985918Y02159500D01*
X01988682D01*
X01991353Y02160216D01*
X01993747Y02161598D01*
X01995702Y02163553D01*
X01997084Y02165947D01*
X01997800Y02168618D01*
Y02171382D01*
X01997084Y02174053D01*
X01995702Y02176447D01*
X01993747Y02178402D01*
X01991353Y02179784D01*
X01988682Y02180500D01*
D02*
G37*
G36*
X01963282D02*
X01960518D01*
X01957847Y02179784D01*
X01955453Y02178402D01*
X01953498Y02176447D01*
X01952116Y02174053D01*
X01951400Y02171382D01*
Y02168618D01*
X01952116Y02165947D01*
X01953498Y02163553D01*
X01955453Y02161598D01*
X01957847Y02160216D01*
X01960518Y02159500D01*
X01963282D01*
X01965953Y02160216D01*
X01968347Y02161598D01*
X01970302Y02163553D01*
X01971684Y02165947D01*
X01972400Y02168618D01*
Y02171382D01*
X01971684Y02174053D01*
X01970302Y02176447D01*
X01968347Y02178402D01*
X01965953Y02179784D01*
X01963282Y02180500D01*
D02*
G37*
G36*
X01539482D02*
X01536718D01*
X01534047Y02179784D01*
X01531653Y02178402D01*
X01529698Y02176447D01*
X01528316Y02174053D01*
X01527600Y02171382D01*
Y02168618D01*
X01528316Y02165947D01*
X01529698Y02163553D01*
X01531653Y02161598D01*
X01534047Y02160216D01*
X01536718Y02159500D01*
X01539482D01*
X01542153Y02160216D01*
X01544547Y02161598D01*
X01546502Y02163553D01*
X01547884Y02165947D01*
X01548600Y02168618D01*
Y02171382D01*
X01547884Y02174053D01*
X01546502Y02176447D01*
X01544547Y02178402D01*
X01542153Y02179784D01*
X01539482Y02180500D01*
D02*
G37*
G36*
X01776646Y02163500D02*
X01773354D01*
X01770175Y02162648D01*
X01767325Y02161003D01*
X01764998Y02158675D01*
X01763352Y02155825D01*
X01762500Y02152646D01*
Y02149354D01*
X01763352Y02146175D01*
X01764998Y02143325D01*
X01767325Y02140997D01*
X01770175Y02139352D01*
X01773354Y02138500D01*
X01776646D01*
X01779825Y02139352D01*
X01782675Y02140997D01*
X01785002Y02143325D01*
X01786648Y02146175D01*
X01787500Y02149354D01*
Y02152646D01*
X01786648Y02155825D01*
X01785002Y02158675D01*
X01782675Y02161003D01*
X01779825Y02162648D01*
X01776646Y02163500D01*
D02*
G37*
G36*
X02381250Y02193946D02*
X01824250D01*
X01823027Y02193703D01*
X01821990Y02193010D01*
X01794990Y02166010D01*
X01794297Y02164973D01*
X01794054Y02163750D01*
Y02065324D01*
X01780176Y02051446D01*
X01750824D01*
X01745446Y02056824D01*
Y02129500D01*
X01745203Y02130723D01*
X01744510Y02131760D01*
X01736760Y02139510D01*
X01735723Y02140203D01*
X01734500Y02140446D01*
X01471824D01*
X01465096Y02147174D01*
Y02159986D01*
X01465953Y02160216D01*
X01468347Y02161598D01*
X01470302Y02163553D01*
X01471684Y02165947D01*
X01472400Y02168618D01*
Y02171382D01*
X01471684Y02174053D01*
X01470302Y02176447D01*
X01468347Y02178402D01*
X01465953Y02179784D01*
X01463282Y02180500D01*
X01460518D01*
X01457847Y02179784D01*
X01455453Y02178402D01*
X01453498Y02176447D01*
X01452116Y02174053D01*
X01451400Y02171382D01*
Y02168618D01*
X01452116Y02165947D01*
X01453498Y02163553D01*
X01455453Y02161598D01*
X01457847Y02160216D01*
X01458704Y02159986D01*
Y02145850D01*
X01458947Y02144627D01*
X01459640Y02143590D01*
X01468240Y02134990D01*
X01469277Y02134297D01*
X01470500Y02134054D01*
X01733176D01*
X01739054Y02128176D01*
Y02055500D01*
X01739297Y02054277D01*
X01739990Y02053240D01*
X01747240Y02045990D01*
X01748277Y02045297D01*
X01749500Y02045054D01*
X01781500D01*
X01782723Y02045297D01*
X01783760Y02045990D01*
X01799510Y02061740D01*
X01800203Y02062777D01*
X01800446Y02064000D01*
Y02162426D01*
X01825574Y02187554D01*
X02379926D01*
X02429240Y02138240D01*
X02430277Y02137547D01*
X02430681Y02137466D01*
X02430556Y02136196D01*
X01944574D01*
X01939696Y02141074D01*
Y02159986D01*
X01940553Y02160216D01*
X01942947Y02161598D01*
X01944902Y02163553D01*
X01946284Y02165947D01*
X01947000Y02168618D01*
Y02171382D01*
X01946284Y02174053D01*
X01944902Y02176447D01*
X01942947Y02178402D01*
X01940553Y02179784D01*
X01937882Y02180500D01*
X01935118D01*
X01932447Y02179784D01*
X01930053Y02178402D01*
X01928098Y02176447D01*
X01926716Y02174053D01*
X01926000Y02171382D01*
Y02168618D01*
X01926716Y02165947D01*
X01928098Y02163553D01*
X01930053Y02161598D01*
X01932447Y02160216D01*
X01933304Y02159986D01*
Y02139750D01*
X01933547Y02138527D01*
X01934240Y02137490D01*
X01940990Y02130740D01*
X01942027Y02130047D01*
X01943250Y02129804D01*
X02132686D01*
X02133212Y02128534D01*
X02132261Y02127582D01*
X02131500Y02125745D01*
Y02123755D01*
X02132261Y02121918D01*
X02132962Y02121216D01*
X02132437Y02119946D01*
X02016625D01*
X02015582Y02120989D01*
X02013745Y02121750D01*
X02011755D01*
X02009918Y02120989D01*
X02008511Y02119582D01*
X02007750Y02117745D01*
Y02115755D01*
X02008511Y02113918D01*
X02009713Y02112716D01*
X02009491Y02111747D01*
X02009323Y02111446D01*
X01991125D01*
X01990082Y02112489D01*
X01988245Y02113250D01*
X01986255D01*
X01984418Y02112489D01*
X01983011Y02111082D01*
X01982250Y02109245D01*
Y02107256D01*
X01983011Y02105418D01*
X01983463Y02104966D01*
X01982937Y02103696D01*
X01965818D01*
X01964723Y02104791D01*
X01962885Y02105553D01*
X01960896D01*
X01959058Y02104791D01*
X01957652Y02103385D01*
X01956891Y02101547D01*
Y02099558D01*
X01957652Y02097720D01*
X01959058Y02096314D01*
X01960896Y02095553D01*
X01962885D01*
X01964723Y02096314D01*
X01965713Y02097304D01*
X02634625Y02097304D01*
X02635668Y02096261D01*
X02637505Y02095500D01*
X02639495D01*
X02641332Y02096261D01*
X02642739Y02097668D01*
X02643500Y02099505D01*
Y02101495D01*
X02642739Y02103332D01*
X02642288Y02103784D01*
X02642813Y02105054D01*
X02657926D01*
X02674304Y02088676D01*
Y02060875D01*
X02673261Y02059832D01*
X02672500Y02057995D01*
Y02056005D01*
X02673261Y02054168D01*
X02674668Y02052761D01*
X02676505Y02052000D01*
X02678495D01*
X02680332Y02052761D01*
X02681739Y02054168D01*
X02682500Y02056005D01*
Y02057995D01*
X02681739Y02059832D01*
X02680696Y02060875D01*
Y02062436D01*
X02681966Y02062962D01*
X02682168Y02062761D01*
X02684005Y02062000D01*
X02685995D01*
X02687832Y02062761D01*
X02689239Y02064168D01*
X02690000Y02066005D01*
Y02067995D01*
X02689239Y02069832D01*
X02688196Y02070875D01*
Y02072436D01*
X02689466Y02072962D01*
X02689668Y02072761D01*
X02691505Y02072000D01*
X02693495D01*
X02695332Y02072761D01*
X02696739Y02074168D01*
X02697500Y02076005D01*
Y02077995D01*
X02696739Y02079832D01*
X02695696Y02080875D01*
Y02082436D01*
X02696966Y02082962D01*
X02697168Y02082761D01*
X02699005Y02082000D01*
X02700995D01*
X02702832Y02082761D01*
X02704239Y02084168D01*
X02705000Y02086006D01*
Y02087995D01*
X02704239Y02089832D01*
X02703196Y02090875D01*
Y02092437D01*
X02704466Y02092962D01*
X02704668Y02092761D01*
X02706505Y02092000D01*
X02708495D01*
X02710332Y02092761D01*
X02711739Y02094168D01*
X02712500Y02096006D01*
Y02097995D01*
X02711739Y02099832D01*
X02710332Y02101239D01*
X02708495Y02102000D01*
X02707020D01*
X02666260Y02142760D01*
X02665223Y02143453D01*
X02664000Y02143696D01*
X02432824D01*
X02383510Y02193010D01*
X02382473Y02193703D01*
X02381250Y02193946D01*
D02*
G37*
G36*
X02852361Y02180000D02*
X02847639D01*
X02842975Y02179261D01*
X02838484Y02177802D01*
X02834277Y02175658D01*
X02830456Y02172883D01*
X02827117Y02169544D01*
X02824342Y02165723D01*
X02822198Y02161516D01*
X02820739Y02157025D01*
X02820000Y02152361D01*
Y02147639D01*
X02820739Y02142975D01*
X02822198Y02138484D01*
X02824342Y02134277D01*
X02827117Y02130456D01*
X02830456Y02127117D01*
X02834277Y02124342D01*
X02838484Y02122198D01*
X02842975Y02120739D01*
X02847639Y02120000D01*
X02852361D01*
X02857025Y02120739D01*
X02861516Y02122198D01*
X02865723Y02124342D01*
X02869544Y02127117D01*
X02872883Y02130456D01*
X02875658Y02134277D01*
X02877802Y02138484D01*
X02879261Y02142975D01*
X02880000Y02147639D01*
Y02152361D01*
X02879261Y02157025D01*
X02877802Y02161516D01*
X02875658Y02165723D01*
X02872883Y02169544D01*
X02869544Y02172883D01*
X02865723Y02175658D01*
X02861516Y02177802D01*
X02857025Y02179261D01*
X02852361Y02180000D01*
D02*
G37*
G36*
X01352361D02*
X01347639D01*
X01342975Y02179261D01*
X01338484Y02177802D01*
X01334277Y02175658D01*
X01330456Y02172883D01*
X01327117Y02169544D01*
X01324342Y02165723D01*
X01322198Y02161516D01*
X01320739Y02157025D01*
X01320000Y02152361D01*
Y02147639D01*
X01320739Y02142975D01*
X01322198Y02138484D01*
X01324342Y02134277D01*
X01327117Y02130456D01*
X01330456Y02127117D01*
X01334277Y02124342D01*
X01338484Y02122198D01*
X01342975Y02120739D01*
X01347639Y02120000D01*
X01352361D01*
X01357025Y02120739D01*
X01361516Y02122198D01*
X01365723Y02124342D01*
X01369544Y02127117D01*
X01372883Y02130456D01*
X01375658Y02134277D01*
X01377802Y02138484D01*
X01379261Y02142975D01*
X01380000Y02147639D01*
Y02152361D01*
X01379261Y02157025D01*
X01377802Y02161516D01*
X01375658Y02165723D01*
X01372883Y02169544D01*
X01369544Y02172883D01*
X01365723Y02175658D01*
X01361516Y02177802D01*
X01357025Y02179261D01*
X01352361Y02180000D01*
D02*
G37*
G36*
X01534500Y02085500D02*
X01513500D01*
Y02064500D01*
X01534500D01*
Y02085500D01*
D02*
G37*
G36*
X01742000Y02192078D02*
X01742000Y02192078D01*
X01454500D01*
X01452939Y02191768D01*
X01451616Y02190884D01*
X01451616Y02190884D01*
X01440524Y02179792D01*
X01437882Y02180500D01*
X01435118D01*
X01432447Y02179784D01*
X01430053Y02178402D01*
X01428098Y02176447D01*
X01426716Y02174053D01*
X01426000Y02171382D01*
Y02168618D01*
X01426716Y02165947D01*
X01428098Y02163553D01*
X01430053Y02161598D01*
X01432447Y02160216D01*
X01435118Y02159500D01*
X01437882D01*
X01440553Y02160216D01*
X01442947Y02161598D01*
X01444902Y02163553D01*
X01446284Y02165947D01*
X01447000Y02168618D01*
Y02171382D01*
X01446292Y02174024D01*
X01456189Y02183922D01*
X01549659D01*
X01550500Y02183000D01*
X01550500Y02182652D01*
Y02157000D01*
X01576500D01*
Y02182652D01*
X01576500Y02183000D01*
X01577341Y02183922D01*
X01740311D01*
X01750922Y02173311D01*
Y02065493D01*
X01750761Y02065332D01*
X01750000Y02063495D01*
Y02061505D01*
X01750761Y02059668D01*
X01752168Y02058261D01*
X01754005Y02057500D01*
X01755995D01*
X01757832Y02058261D01*
X01759239Y02059668D01*
X01760000Y02061505D01*
Y02063495D01*
X01759239Y02065332D01*
X01759078Y02065493D01*
Y02175000D01*
X01758768Y02176561D01*
X01757884Y02177884D01*
X01757884Y02177884D01*
X01744884Y02190884D01*
X01743561Y02191768D01*
X01743302Y02191819D01*
X01742000Y02192078D01*
D02*
G37*
G36*
X02661750Y02087598D02*
X02661258Y02087500D01*
X02660755D01*
X02660292Y02087308D01*
X02659799Y02087210D01*
X02659382Y02086931D01*
X02658918Y02086739D01*
X02658563Y02086384D01*
X02658145Y02086105D01*
X02657866Y02085687D01*
X02657511Y02085332D01*
X02657319Y02084868D01*
X02657040Y02084451D01*
X02656942Y02083958D01*
X02656750Y02083495D01*
Y02082993D01*
X02656652Y02082500D01*
Y02049000D01*
X02657040Y02047049D01*
X02658145Y02045395D01*
X02664895Y02038645D01*
X02666549Y02037540D01*
X02668176Y02037216D01*
X02668051Y02035946D01*
X02651074D01*
X02604760Y02082260D01*
X02603723Y02082953D01*
X02602500Y02083196D01*
X02165775D01*
X02164732Y02084239D01*
X02162895Y02085000D01*
X02160905D01*
X02159068Y02084239D01*
X02157661Y02082832D01*
X02156900Y02080995D01*
Y02079005D01*
X02157661Y02077168D01*
X02159068Y02075761D01*
X02160905Y02075000D01*
X02162895D01*
X02164732Y02075761D01*
X02165775Y02076804D01*
X02182073D01*
X02182784Y02075534D01*
X02182250Y02074245D01*
Y02072255D01*
X02183011Y02070418D01*
X02184418Y02069011D01*
X02186255Y02068250D01*
X02188244D01*
X02190082Y02069011D01*
X02191125Y02070054D01*
X02591426D01*
X02636490Y02024990D01*
X02637527Y02024297D01*
X02638750Y02024054D01*
X02720703D01*
X02720916Y02023733D01*
X02720926Y02023598D01*
X02720385Y02022243D01*
X02719168Y02021739D01*
X02717761Y02020332D01*
X02717000Y02018495D01*
Y02016505D01*
X02717761Y02014668D01*
X02719168Y02013261D01*
X02721005Y02012500D01*
X02722480D01*
X02726554Y02008426D01*
Y02006814D01*
X02725284Y02006288D01*
X02724832Y02006739D01*
X02722995Y02007500D01*
X02721520D01*
X02709260Y02019760D01*
X02708223Y02020453D01*
X02707000Y02020696D01*
X02606875D01*
X02605832Y02021739D01*
X02603995Y02022500D01*
X02602005D01*
X02600168Y02021739D01*
X02598761Y02020332D01*
X02598000Y02018495D01*
Y02016505D01*
X02598761Y02014668D01*
X02600168Y02013261D01*
X02602005Y02012500D01*
X02603995D01*
X02605832Y02013261D01*
X02606875Y02014304D01*
X02705676D01*
X02717000Y02002980D01*
Y02001505D01*
X02717761Y01999668D01*
X02719168Y01998261D01*
X02721005Y01997500D01*
X02722995D01*
X02724832Y01998261D01*
X02725284Y01998712D01*
X02726554Y01998186D01*
Y01960574D01*
X02719490Y01953510D01*
X02718797Y01952473D01*
X02718553Y01951250D01*
Y01892324D01*
X02707926Y01881696D01*
X02468625D01*
X02467582Y01882739D01*
X02465744Y01883500D01*
X02463755D01*
X02461918Y01882739D01*
X02460511Y01881332D01*
X02459750Y01879495D01*
Y01877505D01*
X02460511Y01875668D01*
X02461918Y01874261D01*
X02463755Y01873500D01*
X02465744D01*
X02467582Y01874261D01*
X02468625Y01875304D01*
X02709250D01*
X02710473Y01875547D01*
X02711510Y01876240D01*
X02724010Y01888740D01*
X02724703Y01889777D01*
X02724946Y01891000D01*
Y01949926D01*
X02732010Y01956990D01*
X02732703Y01958027D01*
X02732946Y01959250D01*
Y02009750D01*
X02732703Y02010973D01*
X02732185Y02011749D01*
X02733171Y02012558D01*
X02769750Y01975980D01*
Y01974505D01*
X02770511Y01972668D01*
X02771918Y01971261D01*
X02773755Y01970500D01*
X02775745D01*
X02777582Y01971261D01*
X02778989Y01972668D01*
X02779750Y01974505D01*
Y01976495D01*
X02778989Y01978332D01*
X02778151Y01979170D01*
X02777719Y01980000D01*
X02778151Y01980830D01*
X02778989Y01981668D01*
X02779750Y01983506D01*
Y01985495D01*
X02778989Y01987332D01*
X02777582Y01988739D01*
X02775745Y01989500D01*
X02774270D01*
X02728760Y02035010D01*
X02727723Y02035703D01*
X02726824Y02035882D01*
X02726949Y02037152D01*
X02767388D01*
X02773652Y02030888D01*
Y02017500D01*
X02773750Y02017007D01*
Y02016505D01*
X02773942Y02016042D01*
X02774040Y02015549D01*
X02774319Y02015132D01*
X02774511Y02014668D01*
X02774866Y02014313D01*
X02775145Y02013895D01*
X02775563Y02013616D01*
X02775918Y02013261D01*
X02776382Y02013069D01*
X02776799Y02012790D01*
X02777292Y02012692D01*
X02777755Y02012500D01*
X02778257D01*
X02778750Y02012402D01*
X02787652D01*
Y01955862D01*
X02768888Y01937098D01*
X02748250D01*
X02746299Y01936710D01*
X02744645Y01935605D01*
X02739145Y01930105D01*
X02738040Y01928451D01*
X02737652Y01926500D01*
Y01900000D01*
Y01864612D01*
X02734888Y01861848D01*
X02646500D01*
X02644549Y01861460D01*
X02642895Y01860355D01*
X02632895Y01850355D01*
X02631790Y01848701D01*
X02631402Y01846750D01*
Y01840500D01*
X02626000D01*
Y01835098D01*
X02606862D01*
X02576855Y01865105D01*
X02575201Y01866210D01*
X02573250Y01866598D01*
X02470400D01*
X02468449Y01866210D01*
X02466795Y01865105D01*
X02461900Y01860210D01*
X02457005Y01865105D01*
X02457005Y01865105D01*
X02435598Y01886512D01*
Y01893250D01*
X02435500Y01893743D01*
Y01894245D01*
X02435308Y01894708D01*
X02435210Y01895201D01*
X02434931Y01895618D01*
X02434739Y01896082D01*
X02434384Y01896437D01*
X02434105Y01896855D01*
X02433687Y01897134D01*
X02433332Y01897489D01*
X02432868Y01897681D01*
X02432451Y01897960D01*
X02431958Y01898058D01*
X02431495Y01898250D01*
X02430992D01*
X02430500Y01898348D01*
X02430007Y01898250D01*
X02429505D01*
X02429042Y01898058D01*
X02428549Y01897960D01*
X02428132Y01897681D01*
X02427668Y01897489D01*
X02427313Y01897134D01*
X02426895Y01896855D01*
X02426616Y01896437D01*
X02426261Y01896082D01*
X02426069Y01895618D01*
X02425790Y01895201D01*
X02425692Y01894708D01*
X02425500Y01894245D01*
Y01893743D01*
X02425402Y01893250D01*
Y01884400D01*
X02425790Y01882449D01*
X02426895Y01880795D01*
X02449795Y01857895D01*
X02449795Y01857895D01*
X02456802Y01850888D01*
Y01839181D01*
X02455453Y01838402D01*
X02453498Y01836447D01*
X02452116Y01834053D01*
X02451400Y01831382D01*
Y01828618D01*
X02452116Y01825947D01*
X02453498Y01823553D01*
X02455453Y01821598D01*
X02457847Y01820216D01*
X02460518Y01819500D01*
X02463282D01*
X02465953Y01820216D01*
X02468347Y01821598D01*
X02470302Y01823553D01*
X02471684Y01825947D01*
X02472400Y01828618D01*
Y01831382D01*
X02471684Y01834053D01*
X02470302Y01836447D01*
X02468347Y01838402D01*
X02466998Y01839181D01*
Y01850888D01*
X02472512Y01856402D01*
X02571138D01*
X02601145Y01826395D01*
X02602799Y01825290D01*
X02604750Y01824902D01*
X02626000D01*
Y01819500D01*
X02647000D01*
Y01840500D01*
X02641598D01*
Y01844638D01*
X02648611Y01851652D01*
X02737000D01*
X02738951Y01852040D01*
X02740605Y01853145D01*
X02746355Y01858895D01*
X02747460Y01860549D01*
X02747848Y01862500D01*
Y01900000D01*
Y01924388D01*
X02750362Y01926902D01*
X02771000D01*
X02772951Y01927290D01*
X02774605Y01928395D01*
X02796355Y01950145D01*
X02797460Y01951799D01*
X02797848Y01953750D01*
Y02014571D01*
X02797460Y02016522D01*
X02796355Y02018176D01*
X02793426Y02021105D01*
X02791772Y02022210D01*
X02789821Y02022598D01*
X02783848D01*
Y02033000D01*
X02783460Y02034951D01*
X02782355Y02036605D01*
X02773105Y02045855D01*
X02771451Y02046960D01*
X02769500Y02047348D01*
X02670612D01*
X02666848Y02051112D01*
Y02082500D01*
X02666750Y02082993D01*
Y02083495D01*
X02666558Y02083958D01*
X02666460Y02084451D01*
X02666181Y02084868D01*
X02665989Y02085332D01*
X02665634Y02085687D01*
X02665355Y02086105D01*
X02664937Y02086384D01*
X02664582Y02086739D01*
X02664118Y02086931D01*
X02663701Y02087210D01*
X02663208Y02087308D01*
X02662745Y02087500D01*
X02662242D01*
X02661750Y02087598D01*
D02*
G37*
G36*
X01860995Y02087500D02*
X01859005D01*
X01857168Y02086739D01*
X01855761Y02085332D01*
X01855000Y02083495D01*
Y02081505D01*
X01855761Y02079668D01*
X01856804Y02078625D01*
Y02001375D01*
X01855761Y02000332D01*
X01855000Y01998495D01*
Y01996505D01*
X01855761Y01994668D01*
X01857168Y01993261D01*
X01859005Y01992500D01*
X01860995D01*
X01862832Y01993261D01*
X01864239Y01994668D01*
X01865000Y01996505D01*
Y01998495D01*
X01864239Y02000332D01*
X01863196Y02001375D01*
Y02078625D01*
X01864239Y02079668D01*
X01865000Y02081505D01*
Y02083495D01*
X01864239Y02085332D01*
X01862832Y02086739D01*
X01860995Y02087500D01*
D02*
G37*
G36*
X02039245Y02068500D02*
X02037255D01*
X02035418Y02067739D01*
X02034011Y02066332D01*
X02033250Y02064495D01*
Y02062505D01*
X02034011Y02060668D01*
X02035418Y02059261D01*
X02037255Y02058500D01*
X02039245D01*
X02041082Y02059261D01*
X02042125Y02060304D01*
X02058936D01*
X02059462Y02059034D01*
X02059261Y02058832D01*
X02058500Y02056995D01*
Y02055005D01*
X02059261Y02053168D01*
X02060668Y02051761D01*
X02062505Y02051000D01*
X02064495D01*
X02066332Y02051761D01*
X02067375Y02052804D01*
X02534676D01*
X02537270Y02050210D01*
X02536743Y02048940D01*
X02516288D01*
Y02026690D01*
X02538538D01*
Y02047146D01*
X02539808Y02047672D01*
X02587740Y01999740D01*
X02588777Y01999047D01*
X02590000Y01998804D01*
X02697166D01*
X02705500Y01990470D01*
Y01988996D01*
X02706261Y01987158D01*
X02707668Y01985751D01*
X02709505Y01984990D01*
X02711494D01*
X02713332Y01985751D01*
X02714170Y01986589D01*
X02715000Y01987022D01*
X02715829Y01986589D01*
X02716668Y01985751D01*
X02718505Y01984990D01*
X02720494D01*
X02722332Y01985751D01*
X02723739Y01987158D01*
X02724500Y01988996D01*
Y01990985D01*
X02723739Y01992822D01*
X02722332Y01994229D01*
X02720494Y01994990D01*
X02719020D01*
X02703750Y02010260D01*
X02702713Y02010953D01*
X02701490Y02011196D01*
X02599074D01*
X02544510Y02065760D01*
X02543473Y02066453D01*
X02542250Y02066696D01*
X02042125D01*
X02041082Y02067739D01*
X02039245Y02068500D01*
D02*
G37*
G36*
X02538538Y01979626D02*
X02516288D01*
Y01957376D01*
X02538538D01*
Y01979626D01*
D02*
G37*
G36*
X02547000Y01996848D02*
X02195000D01*
X02193049Y01996460D01*
X02191395Y01995355D01*
X02153395Y01957355D01*
X02152290Y01955701D01*
X02151902Y01953750D01*
Y01931900D01*
X02146500D01*
Y01910900D01*
X02167500D01*
Y01931900D01*
X02162098D01*
Y01951638D01*
X02197112Y01986652D01*
X02541902D01*
Y01975250D01*
X02542290Y01973299D01*
X02543395Y01971645D01*
X02566895Y01948145D01*
X02568549Y01947040D01*
X02570500Y01946652D01*
X02617500D01*
X02617993Y01946750D01*
X02618495D01*
X02618958Y01946942D01*
X02619451Y01947040D01*
X02619868Y01947319D01*
X02620332Y01947511D01*
X02620687Y01947866D01*
X02621105Y01948145D01*
X02621384Y01948563D01*
X02621739Y01948918D01*
X02621931Y01949382D01*
X02622210Y01949799D01*
X02622308Y01950292D01*
X02622500Y01950755D01*
Y01951257D01*
X02622598Y01951750D01*
X02622500Y01952242D01*
Y01952745D01*
X02622308Y01953208D01*
X02622210Y01953701D01*
X02621931Y01954118D01*
X02621739Y01954582D01*
X02621384Y01954937D01*
X02621105Y01955355D01*
X02620687Y01955634D01*
X02620332Y01955989D01*
X02619868Y01956181D01*
X02619451Y01956460D01*
X02618958Y01956558D01*
X02618495Y01956750D01*
X02617993D01*
X02617500Y01956848D01*
X02572612D01*
X02552098Y01977362D01*
Y01991750D01*
X02552000Y01992242D01*
Y01992745D01*
X02551808Y01993208D01*
X02551710Y01993701D01*
X02551431Y01994118D01*
X02551239Y01994582D01*
X02550884Y01994937D01*
X02550605Y01995355D01*
X02550187Y01995634D01*
X02549832Y01995989D01*
X02549368Y01996181D01*
X02548951Y01996460D01*
X02548458Y01996558D01*
X02547995Y01996750D01*
X02547493D01*
X02547000Y01996848D01*
D02*
G37*
G36*
X02682245Y01987500D02*
X02680255D01*
X02678418Y01986739D01*
X02677011Y01985332D01*
X02676250Y01983495D01*
Y01981505D01*
X02677011Y01979668D01*
X02678054Y01978625D01*
Y01933727D01*
X02676784Y01933474D01*
X02676739Y01933582D01*
X02675332Y01934989D01*
X02673495Y01935750D01*
X02671505D01*
X02669668Y01934989D01*
X02668625Y01933946D01*
X02277500D01*
X02276277Y01933703D01*
X02275240Y01933010D01*
X02259640Y01917410D01*
X02258947Y01916373D01*
X02258704Y01915150D01*
Y01840014D01*
X02257847Y01839784D01*
X02255453Y01838402D01*
X02253498Y01836447D01*
X02252116Y01834053D01*
X02251400Y01831382D01*
Y01828618D01*
X02252116Y01825947D01*
X02253498Y01823553D01*
X02255453Y01821598D01*
X02257847Y01820216D01*
X02260518Y01819500D01*
X02263282D01*
X02265953Y01820216D01*
X02268347Y01821598D01*
X02270302Y01823553D01*
X02271684Y01825947D01*
X02272400Y01828618D01*
Y01831382D01*
X02271684Y01834053D01*
X02270302Y01836447D01*
X02268347Y01838402D01*
X02265953Y01839784D01*
X02265096Y01840014D01*
Y01913826D01*
X02278824Y01927554D01*
X02668625D01*
X02669668Y01926511D01*
X02671505Y01925750D01*
X02673495D01*
X02675332Y01926511D01*
X02676739Y01927918D01*
X02676784Y01928026D01*
X02678054Y01927773D01*
Y01924824D01*
X02674676Y01921446D01*
X02322000D01*
X02320777Y01921203D01*
X02319740Y01920510D01*
X02310440Y01911210D01*
X02309747Y01910173D01*
X02309504Y01908950D01*
Y01840014D01*
X02308647Y01839784D01*
X02306253Y01838402D01*
X02304298Y01836447D01*
X02302916Y01834053D01*
X02302200Y01831382D01*
Y01828618D01*
X02302916Y01825947D01*
X02304298Y01823553D01*
X02306253Y01821598D01*
X02308647Y01820216D01*
X02311318Y01819500D01*
X02314082D01*
X02316753Y01820216D01*
X02319147Y01821598D01*
X02321102Y01823553D01*
X02322484Y01825947D01*
X02323200Y01828618D01*
Y01831382D01*
X02322484Y01834053D01*
X02321102Y01836447D01*
X02319147Y01838402D01*
X02316753Y01839784D01*
X02315896Y01840014D01*
Y01907626D01*
X02323324Y01915054D01*
X02676000D01*
X02677223Y01915297D01*
X02678260Y01915990D01*
X02683510Y01921240D01*
X02684203Y01922277D01*
X02684446Y01923500D01*
Y01978625D01*
X02685489Y01979668D01*
X02686250Y01981505D01*
Y01983495D01*
X02685489Y01985332D01*
X02684082Y01986739D01*
X02682245Y01987500D01*
D02*
G37*
G36*
X01815500Y01931000D02*
X01799500D01*
Y01915000D01*
X01815500D01*
Y01931000D01*
D02*
G37*
G36*
X02675745Y01909750D02*
X02673755D01*
X02671918Y01908989D01*
X02670875Y01907946D01*
X02372250D01*
X02371027Y01907703D01*
X02369990Y01907010D01*
X02361240Y01898260D01*
X02360547Y01897223D01*
X02360304Y01896000D01*
Y01840014D01*
X02359447Y01839784D01*
X02357053Y01838402D01*
X02355098Y01836447D01*
X02353716Y01834053D01*
X02353000Y01831382D01*
Y01828618D01*
X02353716Y01825947D01*
X02355098Y01823553D01*
X02357053Y01821598D01*
X02359447Y01820216D01*
X02362118Y01819500D01*
X02364882D01*
X02367553Y01820216D01*
X02369947Y01821598D01*
X02371902Y01823553D01*
X02373284Y01825947D01*
X02374000Y01828618D01*
Y01831382D01*
X02373284Y01834053D01*
X02371902Y01836447D01*
X02369947Y01838402D01*
X02367553Y01839784D01*
X02366696Y01840014D01*
Y01894676D01*
X02373574Y01901554D01*
X02670875D01*
X02671918Y01900511D01*
X02673755Y01899750D01*
X02675745D01*
X02677582Y01900511D01*
X02678989Y01901918D01*
X02679750Y01903755D01*
Y01905745D01*
X02678989Y01907582D01*
X02677582Y01908989D01*
X02675745Y01909750D01*
D02*
G37*
G36*
X02111000Y01904000D02*
X02095000D01*
Y01888000D01*
X02111000D01*
Y01904000D01*
D02*
G37*
G36*
X02158382Y01906500D02*
X02155618D01*
X02152947Y01905784D01*
X02150553Y01904402D01*
X02148598Y01902447D01*
X02147216Y01900053D01*
X02146500Y01897382D01*
Y01894618D01*
X02147216Y01891947D01*
X02148598Y01889553D01*
X02150553Y01887598D01*
X02152947Y01886216D01*
X02155618Y01885500D01*
X02158382D01*
X02161053Y01886216D01*
X02163447Y01887598D01*
X02165402Y01889553D01*
X02166784Y01891947D01*
X02167500Y01894618D01*
Y01897382D01*
X02166784Y01900053D01*
X02165402Y01902447D01*
X02163447Y01904402D01*
X02161053Y01905784D01*
X02158382Y01906500D01*
D02*
G37*
G36*
X02410500Y01866200D02*
X02389500D01*
Y01845200D01*
X02410500D01*
Y01866200D01*
D02*
G37*
G36*
X01735045Y01869300D02*
X01733055D01*
X01731218Y01868539D01*
X01729811Y01867132D01*
X01729050Y01865295D01*
Y01863306D01*
X01729811Y01861468D01*
X01731218Y01860061D01*
X01733055Y01859300D01*
X01735045D01*
X01736882Y01860061D01*
X01737043Y01860222D01*
X01784761D01*
X01788922Y01856061D01*
Y01841493D01*
X01788761Y01841332D01*
X01788000Y01839495D01*
Y01837505D01*
X01788761Y01835668D01*
X01790168Y01834261D01*
X01792005Y01833500D01*
X01793995D01*
X01795832Y01834261D01*
X01797239Y01835668D01*
X01798000Y01837505D01*
Y01839495D01*
X01797239Y01841332D01*
X01797078Y01841493D01*
Y01857750D01*
X01797078Y01857750D01*
X01796768Y01859311D01*
X01795884Y01860634D01*
X01795884Y01860634D01*
X01789334Y01867184D01*
X01788011Y01868068D01*
X01786450Y01868378D01*
X01786450Y01868378D01*
X01737043D01*
X01736882Y01868539D01*
X01735045Y01869300D01*
D02*
G37*
G36*
X01670495Y02094500D02*
X01668505D01*
X01666668Y02093739D01*
X01665261Y02092332D01*
X01664500Y02090495D01*
Y02088505D01*
X01665261Y02086668D01*
X01666304Y02085625D01*
Y01952500D01*
X01666547Y01951277D01*
X01667240Y01950240D01*
X01733240Y01884240D01*
X01734277Y01883547D01*
X01735500Y01883304D01*
X01793426D01*
X01801054Y01875676D01*
Y01838250D01*
X01801297Y01837027D01*
X01801990Y01835990D01*
X01810740Y01827240D01*
X01811777Y01826547D01*
X01813000Y01826304D01*
X01826625D01*
X01827668Y01825261D01*
X01829505Y01824500D01*
X01831495D01*
X01833332Y01825261D01*
X01834739Y01826668D01*
X01835500Y01828505D01*
Y01830495D01*
X01834739Y01832332D01*
X01833332Y01833739D01*
X01831495Y01834500D01*
X01829505D01*
X01827668Y01833739D01*
X01826625Y01832696D01*
X01814324D01*
X01807446Y01839574D01*
Y01877000D01*
X01807203Y01878223D01*
X01806510Y01879260D01*
X01797010Y01888760D01*
X01795973Y01889453D01*
X01794750Y01889696D01*
X01736824D01*
X01672696Y01953824D01*
Y02085625D01*
X01673739Y02086668D01*
X01674500Y02088505D01*
Y02090495D01*
X01673739Y02092332D01*
X01672332Y02093739D01*
X01670495Y02094500D01*
D02*
G37*
G36*
X02852361Y01880000D02*
X02847639D01*
X02842975Y01879261D01*
X02838484Y01877802D01*
X02834277Y01875658D01*
X02830456Y01872883D01*
X02827117Y01869544D01*
X02824342Y01865723D01*
X02822198Y01861516D01*
X02820739Y01857025D01*
X02820000Y01852361D01*
Y01847639D01*
X02820739Y01842975D01*
X02822198Y01838484D01*
X02824342Y01834277D01*
X02827117Y01830456D01*
X02830456Y01827117D01*
X02834277Y01824342D01*
X02838484Y01822198D01*
X02842975Y01820739D01*
X02847639Y01820000D01*
X02852361D01*
X02857025Y01820739D01*
X02861516Y01822198D01*
X02865723Y01824342D01*
X02869544Y01827117D01*
X02872883Y01830456D01*
X02875658Y01834277D01*
X02877802Y01838484D01*
X02879261Y01842975D01*
X02880000Y01847639D01*
Y01852361D01*
X02879261Y01857025D01*
X02877802Y01861516D01*
X02875658Y01865723D01*
X02872883Y01869544D01*
X02869544Y01872883D01*
X02865723Y01875658D01*
X02861516Y01877802D01*
X02857025Y01879261D01*
X02852361Y01880000D01*
D02*
G37*
G36*
X01352361D02*
X01347639D01*
X01342975Y01879261D01*
X01338484Y01877802D01*
X01334277Y01875658D01*
X01330456Y01872883D01*
X01327117Y01869544D01*
X01324342Y01865723D01*
X01322198Y01861516D01*
X01320739Y01857025D01*
X01320000Y01852361D01*
Y01847639D01*
X01320739Y01842975D01*
X01322198Y01838484D01*
X01324342Y01834277D01*
X01327117Y01830456D01*
X01330456Y01827117D01*
X01334277Y01824342D01*
X01338484Y01822198D01*
X01342975Y01820739D01*
X01347639Y01820000D01*
X01352361D01*
X01357025Y01820739D01*
X01361516Y01822198D01*
X01365723Y01824342D01*
X01369544Y01827117D01*
X01372883Y01830456D01*
X01375658Y01834277D01*
X01377802Y01838484D01*
X01379261Y01842975D01*
X01380000Y01847639D01*
Y01852361D01*
X01379261Y01857025D01*
X01377802Y01861516D01*
X01375658Y01865723D01*
X01372883Y01869544D01*
X01369544Y01872883D01*
X01365723Y01875658D01*
X01361516Y01877802D01*
X01357025Y01879261D01*
X01352361Y01880000D01*
D02*
G37*
G36*
X02739482Y01840500D02*
X02736718D01*
X02734047Y01839784D01*
X02731653Y01838402D01*
X02729698Y01836447D01*
X02728316Y01834053D01*
X02727600Y01831382D01*
Y01828618D01*
X02728316Y01825947D01*
X02729698Y01823553D01*
X02731653Y01821598D01*
X02734047Y01820216D01*
X02736718Y01819500D01*
X02739482D01*
X02742153Y01820216D01*
X02744547Y01821598D01*
X02746502Y01823553D01*
X02747885Y01825947D01*
X02748600Y01828618D01*
Y01831382D01*
X02747885Y01834053D01*
X02746502Y01836447D01*
X02744547Y01838402D01*
X02742153Y01839784D01*
X02739482Y01840500D01*
D02*
G37*
G36*
X02714082D02*
X02711318D01*
X02708647Y01839784D01*
X02706253Y01838402D01*
X02704298Y01836447D01*
X02702916Y01834053D01*
X02702200Y01831382D01*
Y01828618D01*
X02702916Y01825947D01*
X02704298Y01823553D01*
X02706253Y01821598D01*
X02708647Y01820216D01*
X02711318Y01819500D01*
X02714082D01*
X02716753Y01820216D01*
X02719147Y01821598D01*
X02721102Y01823553D01*
X02722484Y01825947D01*
X02723200Y01828618D01*
Y01831382D01*
X02722484Y01834053D01*
X02721102Y01836447D01*
X02719147Y01838402D01*
X02716753Y01839784D01*
X02714082Y01840500D01*
D02*
G37*
G36*
X02688682D02*
X02685918D01*
X02683247Y01839784D01*
X02680853Y01838402D01*
X02678898Y01836447D01*
X02677516Y01834053D01*
X02676800Y01831382D01*
Y01828618D01*
X02677516Y01825947D01*
X02678898Y01823553D01*
X02680853Y01821598D01*
X02683247Y01820216D01*
X02685918Y01819500D01*
X02688682D01*
X02691353Y01820216D01*
X02693747Y01821598D01*
X02695702Y01823553D01*
X02697084Y01825947D01*
X02697800Y01828618D01*
Y01831382D01*
X02697084Y01834053D01*
X02695702Y01836447D01*
X02693747Y01838402D01*
X02691353Y01839784D01*
X02688682Y01840500D01*
D02*
G37*
G36*
X02663282D02*
X02660518D01*
X02657847Y01839784D01*
X02655453Y01838402D01*
X02653498Y01836447D01*
X02652115Y01834053D01*
X02651400Y01831382D01*
Y01828618D01*
X02652115Y01825947D01*
X02653498Y01823553D01*
X02655453Y01821598D01*
X02657847Y01820216D01*
X02660518Y01819500D01*
X02663282D01*
X02665953Y01820216D01*
X02668347Y01821598D01*
X02670302Y01823553D01*
X02671684Y01825947D01*
X02672400Y01828618D01*
Y01831382D01*
X02671684Y01834053D01*
X02670302Y01836447D01*
X02668347Y01838402D01*
X02665953Y01839784D01*
X02663282Y01840500D01*
D02*
G37*
G36*
X02564882D02*
X02562118D01*
X02559447Y01839784D01*
X02557053Y01838402D01*
X02555098Y01836447D01*
X02553716Y01834053D01*
X02553000Y01831382D01*
Y01828618D01*
X02553716Y01825947D01*
X02555098Y01823553D01*
X02557053Y01821598D01*
X02559447Y01820216D01*
X02562118Y01819500D01*
X02564882D01*
X02567553Y01820216D01*
X02569947Y01821598D01*
X02571902Y01823553D01*
X02573284Y01825947D01*
X02574000Y01828618D01*
Y01831382D01*
X02573284Y01834053D01*
X02571902Y01836447D01*
X02569947Y01838402D01*
X02567553Y01839784D01*
X02564882Y01840500D01*
D02*
G37*
G36*
X02539482D02*
X02536718D01*
X02534047Y01839784D01*
X02531653Y01838402D01*
X02529698Y01836447D01*
X02528316Y01834053D01*
X02527600Y01831382D01*
Y01828618D01*
X02528316Y01825947D01*
X02529698Y01823553D01*
X02531653Y01821598D01*
X02534047Y01820216D01*
X02536718Y01819500D01*
X02539482D01*
X02542153Y01820216D01*
X02544547Y01821598D01*
X02546502Y01823553D01*
X02547884Y01825947D01*
X02548600Y01828618D01*
Y01831382D01*
X02547884Y01834053D01*
X02546502Y01836447D01*
X02544547Y01838402D01*
X02542153Y01839784D01*
X02539482Y01840500D01*
D02*
G37*
G36*
X02514082D02*
X02511318D01*
X02508647Y01839784D01*
X02506253Y01838402D01*
X02504298Y01836447D01*
X02502916Y01834053D01*
X02502200Y01831382D01*
Y01828618D01*
X02502916Y01825947D01*
X02504298Y01823553D01*
X02506253Y01821598D01*
X02508647Y01820216D01*
X02511318Y01819500D01*
X02514082D01*
X02516753Y01820216D01*
X02519147Y01821598D01*
X02521102Y01823553D01*
X02522484Y01825947D01*
X02523200Y01828618D01*
Y01831382D01*
X02522484Y01834053D01*
X02521102Y01836447D01*
X02519147Y01838402D01*
X02516753Y01839784D01*
X02514082Y01840500D01*
D02*
G37*
G36*
X02447000D02*
X02426000D01*
Y01819500D01*
X02447000D01*
Y01840500D01*
D02*
G37*
G36*
X02339482D02*
X02336718D01*
X02334047Y01839784D01*
X02331653Y01838402D01*
X02329698Y01836447D01*
X02328316Y01834053D01*
X02327600Y01831382D01*
Y01828618D01*
X02328316Y01825947D01*
X02329698Y01823553D01*
X02331653Y01821598D01*
X02334047Y01820216D01*
X02336718Y01819500D01*
X02339482D01*
X02342153Y01820216D01*
X02344547Y01821598D01*
X02346502Y01823553D01*
X02347884Y01825947D01*
X02348600Y01828618D01*
Y01831382D01*
X02347884Y01834053D01*
X02346502Y01836447D01*
X02344547Y01838402D01*
X02342153Y01839784D01*
X02339482Y01840500D01*
D02*
G37*
G36*
X02247000D02*
X02226000D01*
Y01819500D01*
X02247000D01*
Y01840500D01*
D02*
G37*
%LPD*%
G36*
X02661828Y02129179D02*
X02661207Y02127946D01*
X02140860D01*
X02140412Y02128534D01*
X02141041Y02129804D01*
X02661299D01*
X02661828Y02129179D01*
D02*
G37*
G36*
X02660013Y02121216D02*
X02659330Y02119946D01*
X02141726D01*
X02141047Y02121216D01*
X02141272Y02121554D01*
X02659790D01*
X02660013Y02121216D01*
D02*
G37*
G36*
X02660901Y02112328D02*
X02660170Y02111263D01*
X02659250Y02111446D01*
X02016177D01*
X02016009Y02111747D01*
X02015809Y02112621D01*
X02016632Y02113554D01*
X02659676D01*
X02660901Y02112328D01*
D02*
G37*
G36*
X02633432Y02103784D02*
X02633374Y02103696D01*
X01992997Y02103696D01*
X01992318Y02104966D01*
X01992376Y02105054D01*
X02632753D01*
X02633432Y02103784D01*
D02*
G37*
G36*
X02646263Y02031716D02*
X02645737Y02030446D01*
X02640074D01*
X02595010Y02075510D01*
X02594975Y02075534D01*
X02595360Y02076804D01*
X02601176D01*
X02646263Y02031716D01*
D02*
G37*
G36*
X02594763Y02006466D02*
X02594237Y02005196D01*
X02591324D01*
X02538260Y02058260D01*
X02537223Y02058953D01*
X02536819Y02059034D01*
X02536944Y02060304D01*
X02540926D01*
X02594763Y02006466D01*
D02*
G37*
D11*
X01742000Y02188000D02*
X01755000Y02175000D01*
X01436500Y02170000D02*
X01454500Y02188000D01*
X01742000D01*
X01786450Y01864300D02*
X01793000Y01857750D01*
X01734050Y01864300D02*
X01786450D01*
X01793000Y01838500D02*
Y01857750D01*
X01755000Y02062500D02*
Y02175000D01*
D70*
X01300000Y01850000D02*
G03*
X01350000Y01800000I00050000J00000000D01*
G01*
X02850000D02*
G03*
X02900000Y01850000I00000000J00050000D01*
G01*
X01350000Y02200000D02*
G03*
X01300000Y02150000I00000000J-00050000D01*
G01*
X02900000D02*
G03*
X02850000Y02200000I-00050000J00000000D01*
G01*
X01350000D02*
X02850000Y02200000D01*
X01300000Y01850000D02*
X01300000Y02150000D01*
X01350000Y01800000D02*
X02850000Y01800000D01*
X02900000Y02150000D02*
X02900000Y01850000D01*
D117*
X02157000Y01953750D02*
X02195000Y01991750D01*
X02157000Y01921400D02*
Y01953750D01*
X02195000Y01991750D02*
X02547000D01*
Y01975250D02*
Y01991750D01*
X02570500Y01951750D02*
X02617500D01*
X02547000Y01975250D02*
X02570500Y01951750D01*
X02470400Y01861500D02*
X02573250D01*
X02604750Y01830000D02*
X02636500D01*
X02573250Y01861500D02*
X02604750Y01830000D01*
X02430500Y01884400D02*
X02453400Y01861500D01*
X02430500Y01884400D02*
Y01893250D01*
X02453400Y01861500D02*
X02461900Y01853000D01*
X02453400Y01861500D02*
Y01861500D01*
X02461900Y01853000D02*
X02470400Y01861500D01*
X02461900Y01830000D02*
Y01853000D01*
X02789821Y02017500D02*
X02792750Y02014571D01*
Y01953750D02*
Y02014571D01*
X02778750Y02017500D02*
X02789821D01*
X02778750D02*
Y02033000D01*
X02771000Y01932000D02*
X02792750Y01953750D01*
X02748250Y01932000D02*
X02771000D01*
X02742750Y01926500D02*
X02748250Y01932000D01*
X02742750Y01900000D02*
Y01926500D01*
X02769500Y02042250D02*
X02778750Y02033000D01*
X02668500Y02042250D02*
X02769500D01*
X02661750Y02049000D02*
Y02082500D01*
Y02049000D02*
X02668500Y02042250D01*
X02737000Y01856750D02*
X02742750Y01862500D01*
X02646500Y01856750D02*
X02737000D01*
X02742750Y01862500D02*
Y01900000D01*
X02636500Y01846750D02*
X02646500Y01856750D01*
X02636500Y01830000D02*
Y01846750D01*
D120*
X02602500Y02080000D02*
X02649750Y02032750D01*
X02726500D02*
X02774750Y01984500D01*
X02649750Y02032750D02*
X02726500D01*
X02723000Y02027250D02*
X02774750Y01975500D01*
X02592750Y02073250D02*
X02638750Y02027250D01*
X02723000D01*
X02162250Y02080000D02*
X02602500D01*
X02188000Y02073250D02*
X02592750D01*
X02729750Y01959250D02*
Y02009750D01*
X02722000Y02017500D02*
X02729750Y02009750D01*
X02707000Y02017500D02*
X02722000Y02002500D01*
X02721750Y01951250D02*
X02729750Y01959250D01*
X02721750Y01891000D02*
Y01951250D01*
X02709250Y01878500D02*
X02721750Y01891000D01*
X02464750Y01878500D02*
X02709250D01*
X02372250Y01904750D02*
X02674750D01*
X02322000Y01918250D02*
X02676000D01*
X02681250Y01923500D02*
Y01982500D01*
X02676000Y01918250D02*
X02681250Y01923500D01*
X02277500Y01930750D02*
X02672500D01*
X02363500Y01896000D02*
X02372250Y01904750D01*
X02312700Y01908950D02*
X02322000Y01918250D01*
X02261900Y01915150D02*
X02277500Y01930750D01*
X02363500Y01830000D02*
Y01896000D01*
X02312700Y01830000D02*
Y01908950D01*
X02261900Y01830000D02*
Y01915150D01*
X02038250Y02063500D02*
X02542250D01*
X01987250Y02108250D02*
X02659250D01*
X01961891Y02100500D02*
X02638500Y02100500D01*
X02012750Y02116750D02*
X02661000D01*
X02063500Y02056000D02*
X02536000D01*
X02590000Y02002000D01*
X02597750Y02008000D02*
X02701490D01*
X02542250Y02063500D02*
X02597750Y02008000D01*
X02698490Y02002000D02*
X02710500Y01989990D01*
X02590000Y02002000D02*
X02698490D01*
X02187995Y02073244D02*
X02188000Y02073250D01*
X02187980Y02073244D02*
X02187995D01*
X02136500Y02124750D02*
X02662000D01*
X01943250Y02133000D02*
X02663000D01*
X02701490Y02008000D02*
X02719500Y01989990D01*
X01936500Y02139750D02*
X01943250Y02133000D01*
X01936500Y02139750D02*
Y02170000D01*
X02663000Y02133000D02*
X02700000Y02096000D01*
X02677500Y02057000D02*
Y02090000D01*
X02603000Y02017500D02*
X02707000D01*
X02659250Y02108250D02*
X02677500Y02090000D01*
X02661000Y02116750D02*
X02685000Y02092750D01*
Y02067000D02*
Y02092750D01*
X02662000Y02124750D02*
X02692500Y02094250D01*
Y02077000D02*
Y02094250D01*
X02431500Y02140500D02*
X02664000D01*
X02707500Y02097000D01*
X02700000Y02087000D02*
Y02096000D01*
X01824250Y02190750D02*
X02381250D01*
X01797250Y02163750D02*
X01824250Y02190750D01*
X02381250D02*
X02431500Y02140500D01*
X01749500Y02048250D02*
X01781500D01*
X01742250Y02055500D02*
Y02129500D01*
Y02055500D02*
X01749500Y02048250D01*
X01797250Y02064000D02*
Y02163750D01*
X01781500Y02048250D02*
X01797250Y02064000D01*
X01470500Y02137250D02*
X01734500D01*
X01742250Y02129500D01*
X01461900Y02145850D02*
Y02170000D01*
Y02145850D02*
X01470500Y02137250D01*
X01669500Y01952500D02*
Y02089500D01*
X01735500Y01886500D02*
X01794750D01*
X01669500Y01952500D02*
X01735500Y01886500D01*
X01794750D02*
X01804250Y01877000D01*
Y01838250D02*
Y01877000D01*
X01813000Y01829500D02*
X01830500D01*
X01804250Y01838250D02*
X01813000Y01829500D01*
X01860000Y01997500D02*
Y02082500D01*
D128*
X01825000Y02151000D02*
D03*
X01775000D02*
D03*
D129*
X01782500Y01923000D02*
D03*
X01524000Y02025000D02*
D03*
X02103000Y01921000D02*
D03*
D130*
X01807500Y01923000D02*
D03*
D131*
X01524000Y02075000D02*
D03*
X02103000Y01896000D02*
D03*
D132*
X02400000Y01855700D02*
D03*
X02157000Y01921400D02*
D03*
D133*
X02400000Y01830300D02*
D03*
X02563500Y01830000D02*
D03*
X02538100D02*
D03*
X02512700D02*
D03*
X02487300D02*
D03*
X02461900D02*
D03*
X02363500D02*
D03*
X02338100D02*
D03*
X02312700D02*
D03*
X02287300D02*
D03*
X02261900D02*
D03*
X02763500D02*
D03*
X02738100D02*
D03*
X02712700D02*
D03*
X02687300D02*
D03*
X02661900D02*
D03*
X02136500Y02170000D02*
D03*
X02161900D02*
D03*
X02187300D02*
D03*
X02212700D02*
D03*
X02238100D02*
D03*
X01436500D02*
D03*
X01461900D02*
D03*
X01487300D02*
D03*
X01512700D02*
D03*
X01538100D02*
D03*
X01936500D02*
D03*
X01961900D02*
D03*
X01987300D02*
D03*
X02012700D02*
D03*
X02038100D02*
D03*
X02636500D02*
D03*
X02661900D02*
D03*
X02687300D02*
D03*
X02712700D02*
D03*
X02738100D02*
D03*
X02157000Y01896000D02*
D03*
D134*
X02527413Y02037815D02*
D03*
Y01968501D02*
D03*
X02480817D02*
D03*
Y02037815D02*
D03*
D135*
X02436500Y01830000D02*
D03*
X02236500D02*
D03*
X02636500D02*
D03*
X02263500Y02170000D02*
D03*
X01563500D02*
D03*
X02063500D02*
D03*
X02763500D02*
D03*
D136*
X01350000Y01850000D02*
D03*
X02850000Y02150000D02*
D03*
Y01850000D02*
D03*
X01350000Y02150000D02*
D03*
D137*
X01530000Y02120000D02*
D03*
X01670000Y02170000D02*
D03*
X01700000D02*
D03*
X01730000D02*
D03*
X01820000Y01970000D02*
D03*
X01880000Y01980000D02*
D03*
X01970000Y01850000D02*
D03*
X02150000Y01840000D02*
D03*
X02210000Y01870000D02*
D03*
X02180000D02*
D03*
Y01840000D02*
D03*
X02270000Y01900000D02*
D03*
X02350000D02*
D03*
X02480000Y01890000D02*
D03*
X02810000Y01870000D02*
D03*
Y01900000D02*
D03*
Y01810000D02*
D03*
Y01840000D02*
D03*
X02890000Y01890000D02*
D03*
Y01860000D02*
D03*
Y01950000D02*
D03*
Y01920000D02*
D03*
Y02010000D02*
D03*
Y01980000D02*
D03*
Y02070000D02*
D03*
Y02040000D02*
D03*
Y02130000D02*
D03*
Y02100000D02*
D03*
X02790000Y02150000D02*
D03*
Y02180000D02*
D03*
X02820000Y02090000D02*
D03*
Y02120000D02*
D03*
X02790000Y02090000D02*
D03*
Y02120000D02*
D03*
X02580000Y02050000D02*
D03*
X02410000Y01980000D02*
D03*
X02380000D02*
D03*
X01890000Y02170000D02*
D03*
X01860000D02*
D03*
X01890000Y02140000D02*
D03*
X01860000D02*
D03*
X01920000Y02110000D02*
D03*
Y02140000D02*
D03*
Y02080000D02*
D03*
X01980000D02*
D03*
X01950000D02*
D03*
X02010000Y02050000D02*
D03*
Y02080000D02*
D03*
X01650000Y02060000D02*
D03*
Y02000000D02*
D03*
Y02030000D02*
D03*
X01700000Y02040000D02*
D03*
Y02010000D02*
D03*
Y02070000D02*
D03*
Y02100000D02*
D03*
X01730000Y02070000D02*
D03*
Y02100000D02*
D03*
Y01920000D02*
D03*
Y02010000D02*
D03*
Y02040000D02*
D03*
Y01950000D02*
D03*
Y01980000D02*
D03*
X01880000Y01870000D02*
D03*
Y01900000D02*
D03*
X01910000Y01960000D02*
D03*
Y01900000D02*
D03*
Y01930000D02*
D03*
X01910000Y01840000D02*
D03*
Y01870000D02*
D03*
Y01810000D02*
D03*
X01880000D02*
D03*
X01970000D02*
D03*
X01940000D02*
D03*
X02030000D02*
D03*
X02000000D02*
D03*
X02090000D02*
D03*
X02060000D02*
D03*
X02180000D02*
D03*
X02210000D02*
D03*
X02120000D02*
D03*
X02150000D02*
D03*
X02380000Y02040000D02*
D03*
X02410000D02*
D03*
X02320000D02*
D03*
X02350000D02*
D03*
X02260000D02*
D03*
X02290000D02*
D03*
X02230000D02*
D03*
X02200000D02*
D03*
X02440000Y02010000D02*
D03*
Y02040000D02*
D03*
X02410000Y01950000D02*
D03*
X02450000D02*
D03*
X02490000D02*
D03*
X02300000D02*
D03*
X02340000D02*
D03*
X02380000D02*
D03*
X02190000D02*
D03*
X02230000D02*
D03*
X02270000D02*
D03*
X02090000Y01980000D02*
D03*
X02130000D02*
D03*
X02170000D02*
D03*
X02090000Y02010000D02*
D03*
X02130000D02*
D03*
X02170000D02*
D03*
X02090000Y02040000D02*
D03*
X02130000D02*
D03*
X02170000D02*
D03*
X02540000Y02090000D02*
D03*
X02580000D02*
D03*
X02410000D02*
D03*
X02450000D02*
D03*
X02490000D02*
D03*
X02290000D02*
D03*
X02330000D02*
D03*
X02370000D02*
D03*
X02290000Y02160000D02*
D03*
X02330000D02*
D03*
X02370000D02*
D03*
X02450000D02*
D03*
X02490000D02*
D03*
X02520000D02*
D03*
X02560000D02*
D03*
X02600000D02*
D03*
X02520000Y02180000D02*
D03*
X02560000D02*
D03*
X02600000D02*
D03*
X02410000D02*
D03*
X02450000D02*
D03*
X02490000D02*
D03*
X02290000D02*
D03*
X02330000D02*
D03*
X02370000D02*
D03*
X01770000Y02190000D02*
D03*
X01810000D02*
D03*
X01440000D02*
D03*
X01400000D02*
D03*
X01360000D02*
D03*
X01380000Y02100000D02*
D03*
X01410000Y02140000D02*
D03*
Y02100000D02*
D03*
X01440000D02*
D03*
X01410000Y02070000D02*
D03*
Y02030000D02*
D03*
X01440000Y02070000D02*
D03*
Y02030000D02*
D03*
X01380000Y01950000D02*
D03*
Y01990000D02*
D03*
Y02030000D02*
D03*
Y02070000D02*
D03*
X01350000Y01950000D02*
D03*
Y01990000D02*
D03*
Y02030000D02*
D03*
Y02070000D02*
D03*
X01320000Y01910000D02*
D03*
Y02110000D02*
D03*
Y02070000D02*
D03*
Y02030000D02*
D03*
Y01990000D02*
D03*
Y01950000D02*
D03*
X02547000Y01991750D02*
D03*
X02617500Y01951750D02*
D03*
X02430500Y01893250D02*
D03*
X02722000Y02017500D02*
D03*
Y02002500D02*
D03*
X02464750Y01878500D02*
D03*
X02674750Y01904750D02*
D03*
X02681250Y01982500D02*
D03*
X02672500Y01930750D02*
D03*
X02063500Y02056000D02*
D03*
X02038250Y02063500D02*
D03*
X02012750Y02116750D02*
D03*
X02710500Y01989990D02*
D03*
X02719500D02*
D03*
X02187250Y02073250D02*
D03*
X02136500Y02124750D02*
D03*
X02677500Y02057000D02*
D03*
X02161900Y02080000D02*
D03*
X02774750Y01975500D02*
D03*
Y01984500D02*
D03*
X02603000Y02017500D02*
D03*
X01961891Y02100553D02*
D03*
X02638500Y02100500D02*
D03*
X01987250Y02108250D02*
D03*
X02685000Y02067000D02*
D03*
X02692500Y02077000D02*
D03*
X02700000Y02087000D02*
D03*
X02707500Y02097000D02*
D03*
X02661750Y02082500D02*
D03*
X02778750Y02002500D02*
D03*
X02778750Y02017500D02*
D03*
X02742750Y01900000D02*
D03*
X01669500Y02089500D02*
D03*
X01830500Y01829500D02*
D03*
X01734050Y01864300D02*
D03*
X01793000Y01838500D02*
D03*
X01860000Y02082500D02*
D03*
Y01997500D02*
D03*
X01755000Y02062500D02*
D03*
M02*
