G04*
G04 #@! TF.GenerationSoftware,Altium Limited,Altium Designer,23.8.1 (32)*
G04*
G04 Layer_Color=8388736*
%FSAX44Y44*%
%MOMM*%
G71*
G04*
G04 #@! TF.SameCoordinates,78110BDE-5C4C-41F2-AE8D-2B4B6642ACCE*
G04*
G04*
G04 #@! TF.FilePolarity,Negative*
G04*
G01*
G75*
%ADD70C,0.1000*%
%ADD89R,1.0500X0.7500*%
%ADD90R,1.3500X1.3500*%
%ADD91R,1.6500X1.7500*%
%ADD92R,1.0500X1.7500*%
%ADD93R,0.7500X1.0500*%
%ADD94R,3.5790X1.4070*%
%ADD95R,9.1670X10.8180*%
%ADD96R,1.7000X2.5000*%
%ADD97R,1.3500X0.7500*%
%ADD98R,5.5500X5.5500*%
%ADD99C,1.1500*%
%ADD100R,1.9500X0.8500*%
%ADD101R,2.1500X5.1500*%
%ADD102R,1.6250X0.4500*%
%ADD103R,0.4500X1.6250*%
%ADD104R,2.5000X1.7000*%
%ADD105R,1.7500X1.0500*%
%ADD106R,1.4500X0.8500*%
%ADD107C,2.1500*%
%ADD108C,1.2500*%
%ADD109R,1.2500X1.2500*%
%ADD110R,1.2500X1.2500*%
%ADD111R,1.7500X1.7500*%
%ADD112C,1.7500*%
%ADD113R,1.8750X1.8750*%
%ADD114R,1.7500X1.7500*%
%ADD115C,5.6500*%
%ADD116C,0.6500*%
D70*
X01300000Y01850000D02*
G03*
X01350000Y01800000I00050000J00000000D01*
G01*
X02850000D02*
G03*
X02900000Y01850000I00000000J00050000D01*
G01*
X01350000Y02200000D02*
G03*
X01300000Y02150000I00000000J-00050000D01*
G01*
X02900000D02*
G03*
X02850000Y02200000I-00050000J00000000D01*
G01*
X01350000D02*
X02850000Y02200000D01*
X01300000Y01850000D02*
X01300000Y02150000D01*
X01350000Y01800000D02*
X02850000Y01800000D01*
X02900000Y02150000D02*
X02900000Y01850000D01*
D89*
X01637000Y02089500D02*
D03*
Y02104500D02*
D03*
X01851000Y01862500D02*
D03*
Y01877500D02*
D03*
X01829000Y01850500D02*
D03*
Y01865500D02*
D03*
X02816000Y02007500D02*
D03*
Y01992500D02*
D03*
X02400000Y01893500D02*
D03*
Y01878500D02*
D03*
X02415000Y01893500D02*
D03*
Y01878500D02*
D03*
X02816000Y02059500D02*
D03*
Y02044500D02*
D03*
Y01940500D02*
D03*
Y01955500D02*
D03*
X02562000Y02002500D02*
D03*
Y02017500D02*
D03*
X02547000Y02002500D02*
D03*
Y02017500D02*
D03*
X02672500Y02097500D02*
D03*
Y02082500D02*
D03*
X02768000Y02002500D02*
D03*
Y02017500D02*
D03*
X01350000Y01892500D02*
D03*
Y01907500D02*
D03*
X02850000Y02107500D02*
D03*
Y02092500D02*
D03*
Y01892500D02*
D03*
Y01907500D02*
D03*
X01350000Y02107500D02*
D03*
Y02092500D02*
D03*
X01877000Y02104500D02*
D03*
Y02089500D02*
D03*
X01814000Y02078000D02*
D03*
Y02063000D02*
D03*
D90*
X01637000Y02143000D02*
D03*
Y02123000D02*
D03*
D91*
X01669500Y02133000D02*
D03*
D92*
X01868500Y01923000D02*
D03*
X01839500D02*
D03*
X01616500Y02099000D02*
D03*
X01587500D02*
D03*
X01616500Y02121000D02*
D03*
X01587500D02*
D03*
X01616500Y02143000D02*
D03*
X01587500D02*
D03*
X01649500Y01862500D02*
D03*
X01620500D02*
D03*
X01604500D02*
D03*
X01575500D02*
D03*
D93*
X01809500Y01823000D02*
D03*
X01794500D02*
D03*
X01782500D02*
D03*
X01767500D02*
D03*
X01691500Y01846000D02*
D03*
X01676500D02*
D03*
X02787500Y01956000D02*
D03*
X02802500D02*
D03*
X02730500Y01915000D02*
D03*
X02715500D02*
D03*
Y01900000D02*
D03*
X02730500D02*
D03*
X02547500Y02031000D02*
D03*
X02562500D02*
D03*
X02602500Y01962500D02*
D03*
X02617500D02*
D03*
X02757500Y01930000D02*
D03*
X02742500D02*
D03*
X02757500Y01915000D02*
D03*
X02742500D02*
D03*
X02103500Y01847000D02*
D03*
X02088500D02*
D03*
X02076500D02*
D03*
X02061500D02*
D03*
X02049500D02*
D03*
X02034500D02*
D03*
D94*
X01676820Y01908600D02*
D03*
Y01959400D02*
D03*
D95*
X01573000Y01934000D02*
D03*
D96*
X01624000Y02052500D02*
D03*
Y02009500D02*
D03*
D97*
X01877000Y01848500D02*
D03*
Y01829500D02*
D03*
X01851000Y01839000D02*
D03*
D98*
X01458000Y01964000D02*
D03*
Y01874000D02*
D03*
X02003000Y01986000D02*
D03*
Y01896000D02*
D03*
D99*
X01987300Y02145000D02*
D03*
X01588000Y02170000D02*
D03*
X01598000Y02009000D02*
D03*
X01605000Y02170000D02*
D03*
X01677000Y01863000D02*
D03*
X01669500Y02102000D02*
D03*
X01885000Y01923000D02*
D03*
X01840000Y01943000D02*
D03*
X01461900Y02170000D02*
D03*
X02582000Y02017500D02*
D03*
X02061000Y01831000D02*
D03*
X02431000Y01878500D02*
D03*
X02763500Y02145000D02*
D03*
X02738100D02*
D03*
X02712700D02*
D03*
X02687300D02*
D03*
X02661900D02*
D03*
X02636500D02*
D03*
X02512700Y01855000D02*
D03*
X02538100D02*
D03*
X02436500D02*
D03*
X02563500D02*
D03*
X01936500Y02145000D02*
D03*
X02136500D02*
D03*
X02661900Y01855000D02*
D03*
X02687300D02*
D03*
X02712700D02*
D03*
X02738100D02*
D03*
X02063500Y02145000D02*
D03*
X02038100D02*
D03*
X02012700D02*
D03*
X01961900D02*
D03*
X02263500D02*
D03*
X02238100D02*
D03*
X02715500Y01930750D02*
D03*
X02212700Y02145000D02*
D03*
X02187300D02*
D03*
X02816000Y01970000D02*
D03*
X02161900Y02145000D02*
D03*
X02816000Y02030000D02*
D03*
X01817000Y02020000D02*
D03*
X01932000Y02008000D02*
D03*
X01755000Y02050000D02*
D03*
X01775000Y02110000D02*
D03*
X01877000Y02075000D02*
D03*
X01825000Y02110000D02*
D03*
X01894000Y02075000D02*
D03*
X02103000Y01863000D02*
D03*
Y01954000D02*
D03*
D100*
X01752000Y01864350D02*
D03*
X01808000D02*
D03*
X01752000Y01877050D02*
D03*
X01808000D02*
D03*
X01752000Y01851650D02*
D03*
X01808000D02*
D03*
X01752000Y01838950D02*
D03*
X01808000D02*
D03*
X01894000Y02032650D02*
D03*
X01838000D02*
D03*
X01894000Y02019950D02*
D03*
X01838000D02*
D03*
X01894000Y02045350D02*
D03*
X01838000D02*
D03*
X01894000Y02058050D02*
D03*
X01838000D02*
D03*
D101*
X02850000Y02045000D02*
D03*
Y01955000D02*
D03*
D102*
X02742380Y01972500D02*
D03*
Y01977500D02*
D03*
Y01982500D02*
D03*
Y01987500D02*
D03*
Y01992500D02*
D03*
Y01997500D02*
D03*
Y02002500D02*
D03*
Y02007500D02*
D03*
Y02012500D02*
D03*
Y02017500D02*
D03*
Y02022500D02*
D03*
Y02027500D02*
D03*
X02657620D02*
D03*
Y02022500D02*
D03*
Y02017500D02*
D03*
Y02012500D02*
D03*
Y02007500D02*
D03*
Y02002500D02*
D03*
Y01997500D02*
D03*
Y01992500D02*
D03*
Y01987500D02*
D03*
Y01982500D02*
D03*
Y01977500D02*
D03*
Y01972500D02*
D03*
D103*
X02727500Y02042380D02*
D03*
X02722500D02*
D03*
X02717500D02*
D03*
X02712500D02*
D03*
X02707500D02*
D03*
X02702500D02*
D03*
X02697500D02*
D03*
X02692500D02*
D03*
X02687500D02*
D03*
X02682500D02*
D03*
X02677500D02*
D03*
X02672500D02*
D03*
Y01957620D02*
D03*
X02677500D02*
D03*
X02682500D02*
D03*
X02687500D02*
D03*
X02692500D02*
D03*
X02697500D02*
D03*
X02702500D02*
D03*
X02707500D02*
D03*
X02712500D02*
D03*
X02717500D02*
D03*
X02722500D02*
D03*
X02727500D02*
D03*
D104*
X01932000Y02033000D02*
D03*
X01975000D02*
D03*
D105*
X01775000Y02020500D02*
D03*
Y02049500D02*
D03*
X01797000Y02020500D02*
D03*
Y02049500D02*
D03*
X01775000Y02093500D02*
D03*
Y02064500D02*
D03*
D106*
X01797000Y02082500D02*
D03*
Y02063500D02*
D03*
D107*
X01825000Y02151000D02*
D03*
X01775000D02*
D03*
D108*
X01782500Y01923000D02*
D03*
X01524000Y02025000D02*
D03*
X02103000Y01921000D02*
D03*
D109*
X01807500Y01923000D02*
D03*
D110*
X01524000Y02075000D02*
D03*
X02103000Y01896000D02*
D03*
D111*
X02400000Y01855700D02*
D03*
X02157000Y01921400D02*
D03*
D112*
X02400000Y01830300D02*
D03*
X02563500Y01830000D02*
D03*
X02538100D02*
D03*
X02512700D02*
D03*
X02487300D02*
D03*
X02461900D02*
D03*
X02363500D02*
D03*
X02338100D02*
D03*
X02312700D02*
D03*
X02287300D02*
D03*
X02261900D02*
D03*
X02763500D02*
D03*
X02738100D02*
D03*
X02712700D02*
D03*
X02687300D02*
D03*
X02661900D02*
D03*
X02136500Y02170000D02*
D03*
X02161900D02*
D03*
X02187300D02*
D03*
X02212700D02*
D03*
X02238100D02*
D03*
X01436500D02*
D03*
X01461900D02*
D03*
X01487300D02*
D03*
X01512700D02*
D03*
X01538100D02*
D03*
X01936500D02*
D03*
X01961900D02*
D03*
X01987300D02*
D03*
X02012700D02*
D03*
X02038100D02*
D03*
X02636500D02*
D03*
X02661900D02*
D03*
X02687300D02*
D03*
X02712700D02*
D03*
X02738100D02*
D03*
X02157000Y01896000D02*
D03*
D113*
X02527413Y02037815D02*
D03*
Y01968501D02*
D03*
X02480817D02*
D03*
Y02037815D02*
D03*
D114*
X02436500Y01830000D02*
D03*
X02236500D02*
D03*
X02636500D02*
D03*
X02263500Y02170000D02*
D03*
X01563500D02*
D03*
X02063500D02*
D03*
X02763500D02*
D03*
D115*
X01350000Y01850000D02*
D03*
X02850000Y02150000D02*
D03*
Y01850000D02*
D03*
X01350000Y02150000D02*
D03*
D116*
X01530000Y02120000D02*
D03*
X01670000Y02170000D02*
D03*
X01700000D02*
D03*
X01730000D02*
D03*
X01820000Y01970000D02*
D03*
X01880000Y01980000D02*
D03*
X01970000Y01850000D02*
D03*
X02150000Y01840000D02*
D03*
X02210000Y01870000D02*
D03*
X02180000D02*
D03*
Y01840000D02*
D03*
X02270000Y01900000D02*
D03*
X02350000D02*
D03*
X02480000Y01890000D02*
D03*
X02810000Y01870000D02*
D03*
Y01900000D02*
D03*
Y01810000D02*
D03*
Y01840000D02*
D03*
X02890000Y01890000D02*
D03*
Y01860000D02*
D03*
Y01950000D02*
D03*
Y01920000D02*
D03*
Y02010000D02*
D03*
Y01980000D02*
D03*
Y02070000D02*
D03*
Y02040000D02*
D03*
Y02130000D02*
D03*
Y02100000D02*
D03*
X02790000Y02150000D02*
D03*
Y02180000D02*
D03*
X02820000Y02090000D02*
D03*
Y02120000D02*
D03*
X02790000Y02090000D02*
D03*
Y02120000D02*
D03*
X02580000Y02050000D02*
D03*
X02410000Y01980000D02*
D03*
X02380000D02*
D03*
X01890000Y02170000D02*
D03*
X01860000D02*
D03*
X01890000Y02140000D02*
D03*
X01860000D02*
D03*
X01920000Y02110000D02*
D03*
Y02140000D02*
D03*
Y02080000D02*
D03*
X01980000D02*
D03*
X01950000D02*
D03*
X02010000Y02050000D02*
D03*
Y02080000D02*
D03*
X01650000Y02060000D02*
D03*
Y02000000D02*
D03*
Y02030000D02*
D03*
X01700000Y02040000D02*
D03*
Y02010000D02*
D03*
Y02070000D02*
D03*
Y02100000D02*
D03*
X01730000Y02070000D02*
D03*
Y02100000D02*
D03*
Y01920000D02*
D03*
Y02010000D02*
D03*
Y02040000D02*
D03*
Y01950000D02*
D03*
Y01980000D02*
D03*
X01880000Y01870000D02*
D03*
Y01900000D02*
D03*
X01910000Y01960000D02*
D03*
Y01900000D02*
D03*
Y01930000D02*
D03*
X01910000Y01840000D02*
D03*
Y01870000D02*
D03*
Y01810000D02*
D03*
X01880000D02*
D03*
X01970000D02*
D03*
X01940000D02*
D03*
X02030000D02*
D03*
X02000000D02*
D03*
X02090000D02*
D03*
X02060000D02*
D03*
X02180000D02*
D03*
X02210000D02*
D03*
X02120000D02*
D03*
X02150000D02*
D03*
X02380000Y02040000D02*
D03*
X02410000D02*
D03*
X02320000D02*
D03*
X02350000D02*
D03*
X02260000D02*
D03*
X02290000D02*
D03*
X02230000D02*
D03*
X02200000D02*
D03*
X02440000Y02010000D02*
D03*
Y02040000D02*
D03*
X02410000Y01950000D02*
D03*
X02450000D02*
D03*
X02490000D02*
D03*
X02300000D02*
D03*
X02340000D02*
D03*
X02380000D02*
D03*
X02190000D02*
D03*
X02230000D02*
D03*
X02270000D02*
D03*
X02090000Y01980000D02*
D03*
X02130000D02*
D03*
X02170000D02*
D03*
X02090000Y02010000D02*
D03*
X02130000D02*
D03*
X02170000D02*
D03*
X02090000Y02040000D02*
D03*
X02130000D02*
D03*
X02170000D02*
D03*
X02540000Y02090000D02*
D03*
X02580000D02*
D03*
X02410000D02*
D03*
X02450000D02*
D03*
X02490000D02*
D03*
X02290000D02*
D03*
X02330000D02*
D03*
X02370000D02*
D03*
X02290000Y02160000D02*
D03*
X02330000D02*
D03*
X02370000D02*
D03*
X02450000D02*
D03*
X02490000D02*
D03*
X02520000D02*
D03*
X02560000D02*
D03*
X02600000D02*
D03*
X02520000Y02180000D02*
D03*
X02560000D02*
D03*
X02600000D02*
D03*
X02410000D02*
D03*
X02450000D02*
D03*
X02490000D02*
D03*
X02290000D02*
D03*
X02330000D02*
D03*
X02370000D02*
D03*
X01770000Y02190000D02*
D03*
X01810000D02*
D03*
X01440000D02*
D03*
X01400000D02*
D03*
X01360000D02*
D03*
X01380000Y02100000D02*
D03*
X01410000Y02140000D02*
D03*
Y02100000D02*
D03*
X01440000D02*
D03*
X01410000Y02070000D02*
D03*
Y02030000D02*
D03*
X01440000Y02070000D02*
D03*
Y02030000D02*
D03*
X01380000Y01950000D02*
D03*
Y01990000D02*
D03*
Y02030000D02*
D03*
Y02070000D02*
D03*
X01350000Y01950000D02*
D03*
Y01990000D02*
D03*
Y02030000D02*
D03*
Y02070000D02*
D03*
X01320000Y01910000D02*
D03*
Y02110000D02*
D03*
Y02070000D02*
D03*
Y02030000D02*
D03*
Y01990000D02*
D03*
Y01950000D02*
D03*
X02547000Y01991750D02*
D03*
X02617500Y01951750D02*
D03*
X02430500Y01893250D02*
D03*
X02722000Y02017500D02*
D03*
Y02002500D02*
D03*
X02464750Y01878500D02*
D03*
X02674750Y01904750D02*
D03*
X02681250Y01982500D02*
D03*
X02672500Y01930750D02*
D03*
X02063500Y02056000D02*
D03*
X02038250Y02063500D02*
D03*
X02012750Y02116750D02*
D03*
X02710500Y01989990D02*
D03*
X02719500D02*
D03*
X02187250Y02073250D02*
D03*
X02136500Y02124750D02*
D03*
X02677500Y02057000D02*
D03*
X02161900Y02080000D02*
D03*
X02774750Y01975500D02*
D03*
Y01984500D02*
D03*
X02603000Y02017500D02*
D03*
X01961891Y02100553D02*
D03*
X02638500Y02100500D02*
D03*
X01987250Y02108250D02*
D03*
X02685000Y02067000D02*
D03*
X02692500Y02077000D02*
D03*
X02700000Y02087000D02*
D03*
X02707500Y02097000D02*
D03*
X02661750Y02082500D02*
D03*
X02778750Y02002500D02*
D03*
X02778750Y02017500D02*
D03*
X02742750Y01900000D02*
D03*
X01669500Y02089500D02*
D03*
X01830500Y01829500D02*
D03*
X01734050Y01864300D02*
D03*
X01793000Y01838500D02*
D03*
X01860000Y02082500D02*
D03*
Y01997500D02*
D03*
X01755000Y02062500D02*
D03*
M02*
