G04*
G04 #@! TF.GenerationSoftware,Altium Limited,Altium Designer,23.8.1 (32)*
G04*
G04 Layer_Color=8421504*
%FSAX44Y44*%
%MOMM*%
G71*
G04*
G04 #@! TF.SameCoordinates,78110BDE-5C4C-41F2-AE8D-2B4B6642ACCE*
G04*
G04*
G04 #@! TF.FilePolarity,Positive*
G04*
G01*
G75*
%ADD70C,0.1000*%
%ADD71R,0.9000X0.6000*%
%ADD72R,1.2000X1.2000*%
%ADD73R,1.5000X1.6000*%
%ADD74R,0.9000X1.6000*%
%ADD75R,0.6000X0.9000*%
%ADD76R,3.4290X1.2570*%
%ADD77R,9.0170X10.6680*%
%ADD78R,1.5500X2.3500*%
%ADD79R,1.2000X0.6000*%
%ADD80R,5.4000X5.4000*%
%ADD81C,1.0000*%
%ADD82R,1.8000X0.7000*%
%ADD83R,2.0000X5.0000*%
%ADD84R,1.4750X0.3000*%
%ADD85R,0.3000X1.4750*%
%ADD86R,2.3500X1.5500*%
%ADD87R,1.6000X0.9000*%
%ADD88R,1.3000X0.7000*%
D70*
X01300000Y01850000D02*
G03*
X01350000Y01800000I00050000J00000000D01*
G01*
X02850000D02*
G03*
X02900000Y01850000I00000000J00050000D01*
G01*
X01350000Y02200000D02*
G03*
X01300000Y02150000I00000000J-00050000D01*
G01*
X02900000D02*
G03*
X02850000Y02200000I-00050000J00000000D01*
G01*
X01350000D02*
X02850000Y02200000D01*
X01300000Y01850000D02*
X01300000Y02150000D01*
X01350000Y01800000D02*
X02850000Y01800000D01*
X02900000Y02150000D02*
X02900000Y01850000D01*
D71*
X01637000Y02089500D02*
D03*
Y02104500D02*
D03*
X01851000Y01862500D02*
D03*
Y01877500D02*
D03*
X01829000Y01850500D02*
D03*
Y01865500D02*
D03*
X02816000Y02007500D02*
D03*
Y01992500D02*
D03*
X02400000Y01893500D02*
D03*
Y01878500D02*
D03*
X02415000Y01893500D02*
D03*
Y01878500D02*
D03*
X02816000Y02059500D02*
D03*
Y02044500D02*
D03*
Y01940500D02*
D03*
Y01955500D02*
D03*
X02562000Y02002500D02*
D03*
Y02017500D02*
D03*
X02547000Y02002500D02*
D03*
Y02017500D02*
D03*
X02672500Y02097500D02*
D03*
Y02082500D02*
D03*
X02768000Y02002500D02*
D03*
Y02017500D02*
D03*
X01350000Y01892500D02*
D03*
Y01907500D02*
D03*
X02850000Y02107500D02*
D03*
Y02092500D02*
D03*
Y01892500D02*
D03*
Y01907500D02*
D03*
X01350000Y02107500D02*
D03*
Y02092500D02*
D03*
X01877000Y02104500D02*
D03*
Y02089500D02*
D03*
X01814000Y02078000D02*
D03*
Y02063000D02*
D03*
D72*
X01637000Y02143000D02*
D03*
Y02123000D02*
D03*
D73*
X01669500Y02133000D02*
D03*
D74*
X01868500Y01923000D02*
D03*
X01839500D02*
D03*
X01616500Y02099000D02*
D03*
X01587500D02*
D03*
X01616500Y02121000D02*
D03*
X01587500D02*
D03*
X01616500Y02143000D02*
D03*
X01587500D02*
D03*
X01649500Y01862500D02*
D03*
X01620500D02*
D03*
X01604500D02*
D03*
X01575500D02*
D03*
D75*
X01809500Y01823000D02*
D03*
X01794500D02*
D03*
X01782500D02*
D03*
X01767500D02*
D03*
X01691500Y01846000D02*
D03*
X01676500D02*
D03*
X02787500Y01956000D02*
D03*
X02802500D02*
D03*
X02730500Y01915000D02*
D03*
X02715500D02*
D03*
Y01900000D02*
D03*
X02730500D02*
D03*
X02547500Y02031000D02*
D03*
X02562500D02*
D03*
X02602500Y01962500D02*
D03*
X02617500D02*
D03*
X02757500Y01930000D02*
D03*
X02742500D02*
D03*
X02757500Y01915000D02*
D03*
X02742500D02*
D03*
X02103500Y01847000D02*
D03*
X02088500D02*
D03*
X02076500D02*
D03*
X02061500D02*
D03*
X02049500D02*
D03*
X02034500D02*
D03*
D76*
X01676820Y01908600D02*
D03*
Y01959400D02*
D03*
D77*
X01573000Y01934000D02*
D03*
D78*
X01624000Y02052500D02*
D03*
Y02009500D02*
D03*
D79*
X01877000Y01848500D02*
D03*
Y01829500D02*
D03*
X01851000Y01839000D02*
D03*
D80*
X01458000Y01964000D02*
D03*
Y01874000D02*
D03*
X02003000Y01986000D02*
D03*
Y01896000D02*
D03*
D81*
X01987300Y02145000D02*
D03*
X01588000Y02170000D02*
D03*
X01598000Y02009000D02*
D03*
X01605000Y02170000D02*
D03*
X01677000Y01863000D02*
D03*
X01669500Y02102000D02*
D03*
X01885000Y01923000D02*
D03*
X01840000Y01943000D02*
D03*
X01461900Y02170000D02*
D03*
X02582000Y02017500D02*
D03*
X02061000Y01831000D02*
D03*
X02431000Y01878500D02*
D03*
X02763500Y02145000D02*
D03*
X02738100D02*
D03*
X02712700D02*
D03*
X02687300D02*
D03*
X02661900D02*
D03*
X02636500D02*
D03*
X02512700Y01855000D02*
D03*
X02538100D02*
D03*
X02436500D02*
D03*
X02563500D02*
D03*
X01936500Y02145000D02*
D03*
X02136500D02*
D03*
X02661900Y01855000D02*
D03*
X02687300D02*
D03*
X02712700D02*
D03*
X02738100D02*
D03*
X02063500Y02145000D02*
D03*
X02038100D02*
D03*
X02012700D02*
D03*
X01961900D02*
D03*
X02263500D02*
D03*
X02238100D02*
D03*
X02715500Y01930750D02*
D03*
X02212700Y02145000D02*
D03*
X02187300D02*
D03*
X02816000Y01970000D02*
D03*
X02161900Y02145000D02*
D03*
X02816000Y02030000D02*
D03*
X01817000Y02020000D02*
D03*
X01932000Y02008000D02*
D03*
X01755000Y02050000D02*
D03*
X01775000Y02110000D02*
D03*
X01877000Y02075000D02*
D03*
X01825000Y02110000D02*
D03*
X01894000Y02075000D02*
D03*
X02103000Y01863000D02*
D03*
Y01954000D02*
D03*
D82*
X01752000Y01864350D02*
D03*
X01808000D02*
D03*
X01752000Y01877050D02*
D03*
X01808000D02*
D03*
X01752000Y01851650D02*
D03*
X01808000D02*
D03*
X01752000Y01838950D02*
D03*
X01808000D02*
D03*
X01894000Y02032650D02*
D03*
X01838000D02*
D03*
X01894000Y02019950D02*
D03*
X01838000D02*
D03*
X01894000Y02045350D02*
D03*
X01838000D02*
D03*
X01894000Y02058050D02*
D03*
X01838000D02*
D03*
D83*
X02850000Y02045000D02*
D03*
Y01955000D02*
D03*
D84*
X02742380Y01972500D02*
D03*
Y01977500D02*
D03*
Y01982500D02*
D03*
Y01987500D02*
D03*
Y01992500D02*
D03*
Y01997500D02*
D03*
Y02002500D02*
D03*
Y02007500D02*
D03*
Y02012500D02*
D03*
Y02017500D02*
D03*
Y02022500D02*
D03*
Y02027500D02*
D03*
X02657620D02*
D03*
Y02022500D02*
D03*
Y02017500D02*
D03*
Y02012500D02*
D03*
Y02007500D02*
D03*
Y02002500D02*
D03*
Y01997500D02*
D03*
Y01992500D02*
D03*
Y01987500D02*
D03*
Y01982500D02*
D03*
Y01977500D02*
D03*
Y01972500D02*
D03*
D85*
X02727500Y02042380D02*
D03*
X02722500D02*
D03*
X02717500D02*
D03*
X02712500D02*
D03*
X02707500D02*
D03*
X02702500D02*
D03*
X02697500D02*
D03*
X02692500D02*
D03*
X02687500D02*
D03*
X02682500D02*
D03*
X02677500D02*
D03*
X02672500D02*
D03*
Y01957620D02*
D03*
X02677500D02*
D03*
X02682500D02*
D03*
X02687500D02*
D03*
X02692500D02*
D03*
X02697500D02*
D03*
X02702500D02*
D03*
X02707500D02*
D03*
X02712500D02*
D03*
X02717500D02*
D03*
X02722500D02*
D03*
X02727500D02*
D03*
D86*
X01932000Y02033000D02*
D03*
X01975000D02*
D03*
D87*
X01775000Y02020500D02*
D03*
Y02049500D02*
D03*
X01797000Y02020500D02*
D03*
Y02049500D02*
D03*
X01775000Y02093500D02*
D03*
Y02064500D02*
D03*
D88*
X01797000Y02082500D02*
D03*
Y02063500D02*
D03*
M02*
