G04*
G04 #@! TF.GenerationSoftware,Altium Limited,Altium Designer,23.4.1 (23)*
G04*
G04 Layer_Color=32896*
%FSAX44Y44*%
%MOMM*%
G71*
G04*
G04 #@! TF.SameCoordinates,1AFE91A9-0CB0-4E6F-966B-FDDC03A74EF8*
G04*
G04*
G04 #@! TF.FilePolarity,Positive*
G04*
G01*
G75*
%ADD13C,0.1524*%
%ADD16C,0.1000*%
D13*
X02817668Y02098476D02*
X02807511D01*
Y02093398D01*
X02809204Y02091705D01*
X02812589D01*
X02814282Y02093398D01*
Y02098476D01*
X02810897Y02088319D02*
Y02086626D01*
X02812589D01*
Y02088319D01*
X02810897D01*
X02815975D02*
Y02086626D01*
X02817668D01*
Y02088319D01*
X02815975D01*
X02817668Y02069699D02*
X02807511D01*
X02817668Y02062928D01*
X02807511D01*
X02817668Y02059542D02*
Y02056156D01*
Y02057849D01*
X02810897D01*
Y02059542D01*
Y02051078D02*
X02817668Y02044307D01*
X02814282Y02047692D01*
X02810897Y02044307D01*
X02817668Y02051078D01*
Y02040921D02*
Y02037536D01*
Y02039229D01*
X02810897D01*
Y02040921D01*
X02817668Y02027379D02*
Y02030764D01*
X02815975Y02032457D01*
X02812589D01*
X02810897Y02030764D01*
Y02027379D01*
X02812589Y02025686D01*
X02814282D01*
Y02032457D01*
X02807511Y02012144D02*
X02817668D01*
Y02007065D01*
X02815975Y02005373D01*
X02809204D01*
X02807511Y02007065D01*
Y02012144D01*
X02817668Y02001987D02*
Y01998602D01*
Y02000294D01*
X02810897D01*
Y02001987D01*
X02817668Y01993523D02*
Y01988445D01*
X02815975Y01986752D01*
X02814282Y01988445D01*
Y01991830D01*
X02812589Y01993523D01*
X02810897Y01991830D01*
Y01986752D01*
X02821053Y01983367D02*
X02810897D01*
Y01978288D01*
X02812589Y01976595D01*
X02815975D01*
X02817668Y01978288D01*
Y01983367D01*
Y01973210D02*
Y01969824D01*
Y01971517D01*
X02807511D01*
Y01973210D01*
X02810897Y01963053D02*
Y01959668D01*
X02812589Y01957975D01*
X02817668D01*
Y01963053D01*
X02815975Y01964746D01*
X02814282Y01963053D01*
Y01957975D01*
X02810897Y01954589D02*
X02815975D01*
X02817668Y01952896D01*
Y01947818D01*
X02819361D01*
X02821053Y01949511D01*
Y01951203D01*
X02817668Y01947818D02*
X02810897D01*
X02807511Y01934276D02*
Y01930890D01*
Y01932583D01*
X02817668D01*
Y01934276D01*
Y01930890D01*
Y01925812D02*
X02807511D01*
X02817668Y01919041D01*
X02807511D01*
X02817668Y01915655D02*
Y01912269D01*
Y01913962D01*
X02807511D01*
X02809204Y01915655D01*
X02817668Y01902113D02*
X02807511D01*
X02812589Y01907191D01*
Y01900420D01*
X02826742Y02091705D02*
Y02098476D01*
X02836899D01*
Y02091705D01*
X02831821Y02098476D02*
Y02095090D01*
X02830128Y02088319D02*
Y02086626D01*
X02831821D01*
Y02088319D01*
X02830128D01*
X02835206D02*
Y02086626D01*
X02836899D01*
Y02088319D01*
X02835206D01*
X02836899Y02069699D02*
X02826742D01*
X02830128Y02066313D01*
X02826742Y02062928D01*
X02836899D01*
X02830128Y02057849D02*
Y02054464D01*
X02831821Y02052771D01*
X02836899D01*
Y02057849D01*
X02835206Y02059542D01*
X02833513Y02057849D01*
Y02052771D01*
X02828435Y02047692D02*
X02830128D01*
Y02049385D01*
Y02046000D01*
Y02047692D01*
X02835206D01*
X02836899Y02046000D01*
Y02035843D02*
Y02039229D01*
X02835206Y02040921D01*
X02831821D01*
X02830128Y02039229D01*
Y02035843D01*
X02831821Y02034150D01*
X02833513D01*
Y02040921D01*
X02830128Y02030764D02*
X02835206D01*
X02836899Y02029072D01*
Y02023993D01*
X02830128D01*
X02836899Y02020608D02*
Y02015529D01*
X02835206Y02013837D01*
X02833513Y02015529D01*
Y02018915D01*
X02831821Y02020608D01*
X02830128Y02018915D01*
Y02013837D01*
Y02010451D02*
Y02003680D01*
X02836899Y02010451D01*
Y02003680D01*
X02826742Y01990138D02*
X02836899D01*
X02833513D01*
X02826742Y01983367D01*
X02831821Y01988445D01*
X02836899Y01983367D01*
Y01978288D02*
Y01974903D01*
X02835206Y01973210D01*
X02831821D01*
X02830128Y01974903D01*
Y01978288D01*
X02831821Y01979981D01*
X02835206D01*
X02836899Y01978288D01*
X02830128Y01969824D02*
X02835206D01*
X02836899Y01968131D01*
X02835206Y01966439D01*
X02836899Y01964746D01*
X02835206Y01963053D01*
X02830128D01*
Y01957975D02*
Y01954589D01*
X02831821Y01952896D01*
X02836899D01*
Y01957975D01*
X02835206Y01959668D01*
X02833513Y01957975D01*
Y01952896D01*
X02836899Y01949511D02*
Y01946125D01*
Y01947818D01*
X02826742D01*
Y01949511D01*
X02830128Y01934276D02*
Y01939354D01*
X02831821Y01941047D01*
X02835206D01*
X02836899Y01939354D01*
Y01934276D01*
X02830128Y01930890D02*
Y01924119D01*
X02836899Y01930890D01*
Y01924119D01*
X02830128Y01920733D02*
X02835206D01*
X02836899Y01919041D01*
Y01913962D01*
X02838592D01*
X02840285Y01915655D01*
Y01917348D01*
X02836899Y01913962D02*
X02830128D01*
X02836899Y01910577D02*
X02826742D01*
X02833513D02*
X02830128Y01905498D01*
X02833513Y01910577D02*
X02836899Y01905498D01*
X02845974Y02098476D02*
X02852745D01*
X02856130Y02095090D01*
X02852745Y02091705D01*
X02845974D01*
X02849359Y02088319D02*
Y02086626D01*
X02851052D01*
Y02088319D01*
X02849359D01*
X02854438D02*
Y02086626D01*
X02856130D01*
Y02088319D01*
X02854438D01*
X02856130Y02064620D02*
X02845974D01*
X02851052Y02069699D01*
Y02062928D01*
X02861819Y02098476D02*
X02871976D01*
Y02093398D01*
X02870283Y02091705D01*
X02863512D01*
X02861819Y02093398D01*
Y02098476D01*
X02865205Y02088319D02*
Y02086626D01*
X02866898D01*
Y02088319D01*
X02865205D01*
X02870283D02*
Y02086626D01*
X02871976D01*
Y02088319D01*
X02870283D01*
X02871976Y02069699D02*
Y02066313D01*
Y02068006D01*
X02861819D01*
X02863512Y02069699D01*
X02871976Y02061235D02*
Y02057849D01*
Y02059542D01*
X02861819D01*
X02863512Y02061235D01*
X02871976Y02052771D02*
X02870283D01*
Y02051078D01*
X02871976D01*
Y02052771D01*
X02863512Y02044307D02*
X02861819Y02042614D01*
Y02039229D01*
X02863512Y02037536D01*
X02870283D01*
X02871976Y02039229D01*
Y02042614D01*
X02870283Y02044307D01*
X02863512D01*
X02861819Y02027379D02*
Y02034150D01*
X02866898D01*
X02865205Y02030764D01*
Y02029072D01*
X02866898Y02027379D01*
X02870283D01*
X02871976Y02029072D01*
Y02032457D01*
X02870283Y02034150D01*
X02871976Y02023993D02*
X02870283D01*
Y02022301D01*
X02871976D01*
Y02023993D01*
Y02008758D02*
Y02015529D01*
X02865205Y02008758D01*
X02863512D01*
X02861819Y02010451D01*
Y02013837D01*
X02863512Y02015529D01*
Y02005373D02*
X02861819Y02003680D01*
Y02000294D01*
X02863512Y01998602D01*
X02870283D01*
X02871976Y02000294D01*
Y02003680D01*
X02870283Y02005373D01*
X02863512D01*
X02871976Y01988445D02*
Y01995216D01*
X02865205Y01988445D01*
X02863512D01*
X02861819Y01990138D01*
Y01993523D01*
X02863512Y01995216D01*
Y01985059D02*
X02861819Y01983367D01*
Y01979981D01*
X02863512Y01978288D01*
X02865205D01*
X02866898Y01979981D01*
Y01981674D01*
Y01979981D01*
X02868590Y01978288D01*
X02870283D01*
X02871976Y01979981D01*
Y01983367D01*
X02870283Y01985059D01*
D16*
X02900000Y02150000D02*
G03*
X02850000Y02200000I-00050000J00000000D01*
G01*
X01350000D02*
G03*
X01300000Y02150000I00000000J-00050000D01*
G01*
X02850000Y01800000D02*
G03*
X02900000Y01850000I00000000J00050000D01*
G01*
X01300000D02*
G03*
X01350000Y01800000I00050000J00000000D01*
G01*
Y02200000D02*
X02850000Y02200000D01*
X02900000Y02150000D02*
X02900000Y01850000D01*
X01350000Y01800000D02*
X02850000Y01800000D01*
X01300000Y01850000D02*
X01300000Y02150000D01*
M02*
