G04*
G04 #@! TF.GenerationSoftware,Altium Limited,Altium Designer,23.4.1 (23)*
G04*
G04 Layer_Color=8421504*
%FSAX44Y44*%
%MOMM*%
G71*
G04*
G04 #@! TF.SameCoordinates,1AFE91A9-0CB0-4E6F-966B-FDDC03A74EF8*
G04*
G04*
G04 #@! TF.FilePolarity,Positive*
G04*
G01*
G75*
%ADD16C,0.1000*%
%ADD17R,1.3000X0.7000*%
%ADD18R,0.9000X0.6000*%
%ADD19R,1.2000X0.6000*%
%ADD20R,0.9000X1.6000*%
%ADD21R,0.6000X0.9000*%
%ADD22R,0.6000X1.2000*%
%ADD23C,1.0000*%
%ADD24R,1.6000X0.9000*%
D16*
X02900000Y02150000D02*
G03*
X02850000Y02200000I-00050000J00000000D01*
G01*
X01350000D02*
G03*
X01300000Y02150000I00000000J-00050000D01*
G01*
X02850000Y01800000D02*
G03*
X02900000Y01850000I00000000J00050000D01*
G01*
X01300000D02*
G03*
X01350000Y01800000I00050000J00000000D01*
G01*
Y02200000D02*
X02850000Y02200000D01*
X02900000Y02150000D02*
X02900000Y01850000D01*
X01350000Y01800000D02*
X02850000Y01800000D01*
X01300000Y01850000D02*
X01300000Y02150000D01*
D17*
X02700000Y01990500D02*
D03*
Y02009500D02*
D03*
X02500000Y01990500D02*
D03*
Y02009500D02*
D03*
X02200000Y01990500D02*
D03*
Y02009500D02*
D03*
X02000000Y01990500D02*
D03*
Y02009500D02*
D03*
X01700000Y01990500D02*
D03*
Y02009500D02*
D03*
X01500000Y01990500D02*
D03*
Y02009500D02*
D03*
D18*
X02788000Y02103500D02*
D03*
Y02118500D02*
D03*
X02773000Y02103500D02*
D03*
Y02118500D02*
D03*
X02288000Y02103500D02*
D03*
Y02118500D02*
D03*
X02273000Y02103500D02*
D03*
Y02118500D02*
D03*
X02088000Y02103500D02*
D03*
Y02118500D02*
D03*
X02073000Y02103500D02*
D03*
Y02118500D02*
D03*
X01588000Y02118500D02*
D03*
Y02103500D02*
D03*
X01573000Y02118500D02*
D03*
Y02103500D02*
D03*
X01350000Y02083500D02*
D03*
Y02068500D02*
D03*
X02850000Y02083500D02*
D03*
Y02068500D02*
D03*
X02700000Y01890000D02*
D03*
Y01875000D02*
D03*
X02500000Y01890000D02*
D03*
Y01875000D02*
D03*
X02370000Y01890000D02*
D03*
Y01875000D02*
D03*
X02200000Y01890000D02*
D03*
Y01875000D02*
D03*
X02000000Y01890000D02*
D03*
Y01875000D02*
D03*
X01870000Y01890000D02*
D03*
Y01875000D02*
D03*
X01700000Y01890000D02*
D03*
Y01875000D02*
D03*
X01500000Y01890000D02*
D03*
Y01875000D02*
D03*
X02740000Y01847500D02*
D03*
Y01832500D02*
D03*
X02725000Y01847500D02*
D03*
Y01832500D02*
D03*
X02525000Y01847500D02*
D03*
Y01832500D02*
D03*
X02540000Y01847500D02*
D03*
Y01832500D02*
D03*
X02395000Y01847500D02*
D03*
Y01832500D02*
D03*
X02410000Y01847500D02*
D03*
Y01832500D02*
D03*
X02240000Y01847500D02*
D03*
Y01832500D02*
D03*
X02225000Y01847500D02*
D03*
Y01832500D02*
D03*
X02040000Y01847500D02*
D03*
Y01832500D02*
D03*
X02025000Y01847500D02*
D03*
Y01832500D02*
D03*
X01910000Y01847500D02*
D03*
Y01832500D02*
D03*
X01895000Y01847500D02*
D03*
Y01832500D02*
D03*
X01740000Y01847500D02*
D03*
Y01832500D02*
D03*
X01725000Y01847500D02*
D03*
Y01832500D02*
D03*
X01540000Y01847500D02*
D03*
Y01832500D02*
D03*
X01525000Y01847500D02*
D03*
Y01832500D02*
D03*
X01350000Y01931500D02*
D03*
Y01916500D02*
D03*
X02850000Y01931500D02*
D03*
Y01916500D02*
D03*
D19*
X02756000Y02122500D02*
D03*
Y02103500D02*
D03*
X02730000Y02113000D02*
D03*
X02668000Y02122500D02*
D03*
Y02103500D02*
D03*
X02642000Y02113000D02*
D03*
X02256000Y02122500D02*
D03*
Y02103500D02*
D03*
X02230000Y02113000D02*
D03*
X02168000Y02122500D02*
D03*
Y02103500D02*
D03*
X02142000Y02113000D02*
D03*
X02056000Y02122500D02*
D03*
Y02103500D02*
D03*
X02030000Y02113000D02*
D03*
X01968000Y02122500D02*
D03*
Y02103500D02*
D03*
X01942000Y02113000D02*
D03*
X01442000D02*
D03*
X01468000Y02103500D02*
D03*
Y02122500D02*
D03*
X01556000D02*
D03*
Y02103500D02*
D03*
X01530000Y02113000D02*
D03*
D20*
X02684500Y02107000D02*
D03*
X02713500D02*
D03*
X02684500Y02129000D02*
D03*
X02713500D02*
D03*
X02313500Y02012000D02*
D03*
X02342500D02*
D03*
Y02034000D02*
D03*
X02313500D02*
D03*
X02184500Y02107000D02*
D03*
X02213500D02*
D03*
X02184500Y02129000D02*
D03*
X02213500D02*
D03*
X01984500Y02107000D02*
D03*
X02013500D02*
D03*
X01984500Y02129000D02*
D03*
X02013500D02*
D03*
X01513500D02*
D03*
X01484500D02*
D03*
X01513500Y02107000D02*
D03*
X01484500D02*
D03*
D21*
X02626500Y02103000D02*
D03*
X02611500D02*
D03*
X02567500Y02180000D02*
D03*
X02552500D02*
D03*
X02567500Y02165000D02*
D03*
X02552500D02*
D03*
X02431500Y02180000D02*
D03*
X02416500D02*
D03*
X02431500Y02165000D02*
D03*
X02416500D02*
D03*
X02366500Y02055000D02*
D03*
X02381500D02*
D03*
X02323500Y02097000D02*
D03*
X02308500D02*
D03*
X02323500Y02112000D02*
D03*
X02308500D02*
D03*
X02126500Y02103000D02*
D03*
X02111500D02*
D03*
X01926500D02*
D03*
X01911500D02*
D03*
X01833500Y02055000D02*
D03*
X01818500D02*
D03*
X01651500Y02180000D02*
D03*
X01636500D02*
D03*
X01651500Y02165000D02*
D03*
X01636500D02*
D03*
X01842500Y02128000D02*
D03*
X01827500D02*
D03*
X01842500Y02143000D02*
D03*
X01827500D02*
D03*
X01787500Y02165000D02*
D03*
X01772500D02*
D03*
X01787500Y02180000D02*
D03*
X01772500D02*
D03*
X01411500Y02103000D02*
D03*
X01426500D02*
D03*
X02518500Y02165000D02*
D03*
X02533500D02*
D03*
X02484500D02*
D03*
X02499500D02*
D03*
X02450500D02*
D03*
X02465500D02*
D03*
X01738500D02*
D03*
X01753500D02*
D03*
X01704500D02*
D03*
X01719500D02*
D03*
X01670500D02*
D03*
X01685500D02*
D03*
X02518500Y02180000D02*
D03*
X02533500D02*
D03*
X02484500D02*
D03*
X02499500D02*
D03*
X02450500D02*
D03*
X02465500D02*
D03*
X01738500D02*
D03*
X01753500D02*
D03*
X01704500D02*
D03*
X01719500D02*
D03*
X01670500D02*
D03*
X01685500D02*
D03*
D22*
X02548500Y02148000D02*
D03*
X02567500D02*
D03*
X02558000Y02122000D02*
D03*
X02514500Y02148000D02*
D03*
X02533500D02*
D03*
X02524000Y02122000D02*
D03*
X02480500Y02148000D02*
D03*
X02499500D02*
D03*
X02490000Y02122000D02*
D03*
X02446500Y02148000D02*
D03*
X02465500D02*
D03*
X02456000Y02122000D02*
D03*
X02412500Y02148000D02*
D03*
X02431500D02*
D03*
X02422000Y02122000D02*
D03*
X02376500Y02012000D02*
D03*
X02357500D02*
D03*
X02367000Y02038000D02*
D03*
X02304500Y02080000D02*
D03*
X02323500D02*
D03*
X02314000Y02054000D02*
D03*
X01842500Y02012000D02*
D03*
X01823500D02*
D03*
X01833000Y02038000D02*
D03*
X01823500Y02111000D02*
D03*
X01842500D02*
D03*
X01833000Y02085000D02*
D03*
X01768500Y02148000D02*
D03*
X01787500D02*
D03*
X01778000Y02122000D02*
D03*
X01734500Y02148000D02*
D03*
X01753500D02*
D03*
X01744000Y02122000D02*
D03*
X01700500Y02148000D02*
D03*
X01719500D02*
D03*
X01710000Y02122000D02*
D03*
X01666500Y02148000D02*
D03*
X01685500D02*
D03*
X01676000Y02122000D02*
D03*
X01632500Y02148000D02*
D03*
X01651500D02*
D03*
X01642000Y02122000D02*
D03*
X02709500Y01834000D02*
D03*
X02690500D02*
D03*
X02700000Y01860000D02*
D03*
X02509500Y01834000D02*
D03*
X02490500D02*
D03*
X02500000Y01860000D02*
D03*
X02379500Y01834000D02*
D03*
X02360500D02*
D03*
X02370000Y01860000D02*
D03*
X02209500Y01834000D02*
D03*
X02190500D02*
D03*
X02200000Y01860000D02*
D03*
X02009500Y01834000D02*
D03*
X01990500D02*
D03*
X02000000Y01860000D02*
D03*
X01879500Y01834000D02*
D03*
X01860500D02*
D03*
X01870000Y01860000D02*
D03*
X01709500Y01834000D02*
D03*
X01690500D02*
D03*
X01700000Y01860000D02*
D03*
X01509500Y01834000D02*
D03*
X01490500D02*
D03*
X01500000Y01860000D02*
D03*
D23*
X02422000Y02104000D02*
D03*
X01911000Y02119000D02*
D03*
X02111000D02*
D03*
X01642000Y02104000D02*
D03*
X02475000Y01860000D02*
D03*
X01975000D02*
D03*
X01675000D02*
D03*
X01475000D02*
D03*
X01411000Y02119000D02*
D03*
X02370000Y01906000D02*
D03*
X01870000D02*
D03*
X02675000Y01860000D02*
D03*
X02175000D02*
D03*
X02611000Y02119000D02*
D03*
X02396000Y02055000D02*
D03*
X01804000D02*
D03*
X02558000Y02104000D02*
D03*
X02524000D02*
D03*
X02490000D02*
D03*
X02456000D02*
D03*
X01778000D02*
D03*
X01744000D02*
D03*
X01710000D02*
D03*
X01676000D02*
D03*
D24*
X01861000Y02012500D02*
D03*
Y02041500D02*
D03*
Y02056500D02*
D03*
Y02085500D02*
D03*
M02*
