G04*
G04 #@! TF.GenerationSoftware,Altium Limited,Altium Designer,23.4.1 (23)*
G04*
G04 Layer_Color=65535*
%FSAX44Y44*%
%MOMM*%
G71*
G04*
G04 #@! TF.SameCoordinates,1AFE91A9-0CB0-4E6F-966B-FDDC03A74EF8*
G04*
G04*
G04 #@! TF.FilePolarity,Positive*
G04*
G01*
G75*
%ADD10C,0.2000*%
%ADD11C,0.7000*%
%ADD12C,0.4000*%
%ADD13C,0.1524*%
%ADD14C,0.2540*%
%ADD15C,0.2600*%
%ADD16C,0.1000*%
G36*
X01724000Y02131500D02*
X01715000D01*
Y02138500D01*
X01724000D01*
Y02131500D01*
D02*
G37*
G36*
X01690000D02*
X01681000D01*
Y02138500D01*
X01690000D01*
Y02131500D01*
D02*
G37*
G36*
X01656000D02*
X01647000D01*
Y02138500D01*
X01656000D01*
Y02131500D01*
D02*
G37*
G36*
X01546500Y02099000D02*
X01539500D01*
Y02108000D01*
X01546500D01*
Y02099000D01*
D02*
G37*
G36*
X01458500D02*
X01451500D01*
Y02108000D01*
X01458500D01*
Y02099000D01*
D02*
G37*
G36*
X01695000Y01843500D02*
X01686000D01*
Y01850500D01*
X01695000D01*
Y01843500D01*
D02*
G37*
G36*
X01495000D02*
X01486000D01*
Y01850500D01*
X01495000D01*
Y01843500D01*
D02*
G37*
G36*
X01819000Y02021500D02*
Y02028500D01*
X01828000D01*
Y02021500D01*
X01819000D01*
D02*
G37*
G36*
X01847000Y02101500D02*
Y02094500D01*
X01838000D01*
Y02101500D01*
X01847000D01*
D02*
G37*
G36*
X01758000Y02138500D02*
Y02131500D01*
X01749000D01*
Y02138500D01*
X01758000D01*
D02*
G37*
G36*
X01792000D02*
Y02131500D01*
X01783000D01*
Y02138500D01*
X01792000D01*
D02*
G37*
G36*
X01856000Y01843500D02*
Y01850500D01*
X01865000D01*
Y01843500D01*
X01856000D01*
D02*
G37*
G36*
X01986000D02*
Y01850500D01*
X01995000D01*
Y01843500D01*
X01986000D01*
D02*
G37*
G36*
X01958500Y02099000D02*
X01951500D01*
Y02108000D01*
X01958500D01*
Y02099000D01*
D02*
G37*
G36*
X02046500D02*
X02039500D01*
Y02108000D01*
X02046500D01*
Y02099000D01*
D02*
G37*
G36*
X02186000Y01843500D02*
Y01850500D01*
X02195000D01*
Y01843500D01*
X02186000D01*
D02*
G37*
G36*
X02328000Y02070500D02*
Y02063500D01*
X02319000D01*
Y02070500D01*
X02328000D01*
D02*
G37*
G36*
X02158500Y02099000D02*
X02151500D01*
Y02108000D01*
X02158500D01*
Y02099000D01*
D02*
G37*
G36*
X02246500D02*
X02239500D01*
Y02108000D01*
X02246500D01*
Y02099000D01*
D02*
G37*
G36*
X02356000Y01843500D02*
Y01850500D01*
X02365000D01*
Y01843500D01*
X02356000D01*
D02*
G37*
G36*
X02353000Y02021500D02*
Y02028500D01*
X02362000D01*
Y02021500D01*
X02353000D01*
D02*
G37*
G36*
X02436000Y02138500D02*
Y02131500D01*
X02427000D01*
Y02138500D01*
X02436000D01*
D02*
G37*
G36*
X02470000D02*
Y02131500D01*
X02461000D01*
Y02138500D01*
X02470000D01*
D02*
G37*
G36*
X02486000Y01843500D02*
Y01850500D01*
X02495000D01*
Y01843500D01*
X02486000D01*
D02*
G37*
G36*
X02686000D02*
Y01850500D01*
X02695000D01*
Y01843500D01*
X02686000D01*
D02*
G37*
G36*
X02658500Y02099000D02*
X02651500D01*
Y02108000D01*
X02658500D01*
Y02099000D01*
D02*
G37*
G36*
X02746500D02*
X02739500D01*
Y02108000D01*
X02746500D01*
Y02099000D01*
D02*
G37*
G36*
X02504000Y02138500D02*
Y02131500D01*
X02495000D01*
Y02138500D01*
X02504000D01*
D02*
G37*
G36*
X02538000D02*
Y02131500D01*
X02529000D01*
Y02138500D01*
X02538000D01*
D02*
G37*
G36*
X02572000D02*
Y02131500D01*
X02563000D01*
Y02138500D01*
X02572000D01*
D02*
G37*
D10*
X02792500Y02000000D02*
G03*
X02792500Y02000000I-00092500J00000000D01*
G01*
X02592500D02*
G03*
X02592500Y02000000I-00092500J00000000D01*
G01*
X02380000Y01950000D02*
G03*
X02380000Y01950000I-00030000J00000000D01*
G01*
X02292500Y02000000D02*
G03*
X02292500Y02000000I-00092500J00000000D01*
G01*
X02092500D02*
G03*
X02092500Y02000000I-00092500J00000000D01*
G01*
X01792500D02*
G03*
X01792500Y02000000I-00092500J00000000D01*
G01*
X01592500D02*
G03*
X01592500Y02000000I-00092500J00000000D01*
G01*
X01880000Y01950000D02*
G03*
X01880000Y01950000I-00030000J00000000D01*
G01*
X02739500Y02099000D02*
X02746500D01*
X02739500Y02127000D02*
X02746500D01*
X02739500Y02099000D02*
Y02127000D01*
X02746500Y02099000D02*
Y02127000D01*
X02705500Y02099000D02*
Y02114750D01*
X02692500Y02099000D02*
Y02114750D01*
Y02099000D02*
X02705500D01*
X02692500Y02114750D02*
X02705500D01*
Y02121000D02*
Y02136750D01*
X02692500Y02121000D02*
Y02136750D01*
Y02121000D02*
X02705500D01*
X02692500Y02136750D02*
X02705500D01*
X02651500Y02099000D02*
X02658500D01*
X02651500Y02127000D02*
X02658500D01*
X02651500Y02099000D02*
Y02127000D01*
X02658500Y02099000D02*
Y02127000D01*
X02623550Y02157000D02*
Y02183000D01*
Y02157000D02*
X02776500D01*
Y02183000D01*
X02623550D02*
X02776500D01*
X02572000Y02131500D02*
Y02138500D01*
X02544000Y02131500D02*
Y02138500D01*
Y02131500D02*
X02572000D01*
X02544000Y02138500D02*
X02572000D01*
X02538000Y02131500D02*
Y02138500D01*
X02510000Y02131500D02*
Y02138500D01*
Y02131500D02*
X02538000D01*
X02510000Y02138500D02*
X02538000D01*
X02504000Y02131500D02*
Y02138500D01*
X02476000Y02131500D02*
Y02138500D01*
Y02131500D02*
X02504000D01*
X02476000Y02138500D02*
X02504000D01*
X02470000Y02131500D02*
Y02138500D01*
X02442000Y02131500D02*
Y02138500D01*
Y02131500D02*
X02470000D01*
X02442000Y02138500D02*
X02470000D01*
X02436000Y02131500D02*
Y02138500D01*
X02408000Y02131500D02*
Y02138500D01*
Y02131500D02*
X02436000D01*
X02408000Y02138500D02*
X02436000D01*
X02353000Y02021500D02*
Y02028500D01*
X02381000Y02021500D02*
Y02028500D01*
X02353000D02*
X02381000D01*
X02353000Y02021500D02*
X02381000D01*
X02334500Y02004000D02*
Y02019750D01*
X02321500Y02004000D02*
Y02019750D01*
Y02004000D02*
X02334500D01*
X02321500Y02019750D02*
X02334500D01*
X02321500Y02026250D02*
Y02042000D01*
X02334500Y02026250D02*
Y02042000D01*
X02321500D02*
X02334500D01*
X02321500Y02026250D02*
X02334500D01*
X02328000Y02063500D02*
Y02070500D01*
X02300000Y02063500D02*
Y02070500D01*
Y02063500D02*
X02328000D01*
X02300000Y02070500D02*
X02328000D01*
X02239500Y02099000D02*
X02246500D01*
X02239500Y02127000D02*
X02246500D01*
X02239500Y02099000D02*
Y02127000D01*
X02246500Y02099000D02*
Y02127000D01*
X02205500Y02099000D02*
Y02114750D01*
X02192500Y02099000D02*
Y02114750D01*
Y02099000D02*
X02205500D01*
X02192500Y02114750D02*
X02205500D01*
Y02121000D02*
Y02136750D01*
X02192500Y02121000D02*
Y02136750D01*
Y02121000D02*
X02205500D01*
X02192500Y02136750D02*
X02205500D01*
X02151500Y02099000D02*
X02158500D01*
X02151500Y02127000D02*
X02158500D01*
X02151500Y02099000D02*
Y02127000D01*
X02158500Y02099000D02*
Y02127000D01*
X02039500Y02099000D02*
X02046500D01*
X02039500Y02127000D02*
X02046500D01*
X02039500Y02099000D02*
Y02127000D01*
X02046500Y02099000D02*
Y02127000D01*
X02005500Y02099000D02*
Y02114750D01*
X01992500Y02099000D02*
Y02114750D01*
Y02099000D02*
X02005500D01*
X01992500Y02114750D02*
X02005500D01*
Y02121000D02*
Y02136750D01*
X01992500Y02121000D02*
Y02136750D01*
Y02121000D02*
X02005500D01*
X01992500Y02136750D02*
X02005500D01*
X01951500Y02099000D02*
X01958500D01*
X01951500Y02127000D02*
X01958500D01*
X01951500Y02099000D02*
Y02127000D01*
X01958500Y02099000D02*
Y02127000D01*
X02123550Y02183000D02*
X02276500D01*
Y02157000D02*
Y02183000D01*
X02123550Y02157000D02*
X02276500D01*
X02123550D02*
Y02183000D01*
X01923550Y02157000D02*
Y02183000D01*
Y02157000D02*
X02076500D01*
Y02183000D01*
X01923550D02*
X02076500D01*
X01853250Y02033500D02*
X01869000D01*
X01853250Y02020500D02*
X01869000D01*
Y02033500D01*
X01853250Y02020500D02*
Y02033500D01*
Y02077500D02*
X01869000D01*
X01853250Y02064500D02*
X01869000D01*
Y02077500D01*
X01853250Y02064500D02*
Y02077500D01*
X01819000Y02021500D02*
Y02028500D01*
X01847000Y02021500D02*
Y02028500D01*
X01819000D02*
X01847000D01*
X01819000Y02021500D02*
X01847000D01*
Y02094500D02*
Y02101500D01*
X01819000Y02094500D02*
Y02101500D01*
Y02094500D02*
X01847000D01*
X01819000Y02101500D02*
X01847000D01*
X01792000Y02131500D02*
Y02138500D01*
X01764000Y02131500D02*
Y02138500D01*
Y02131500D02*
X01792000D01*
X01764000Y02138500D02*
X01792000D01*
X01758000Y02131500D02*
Y02138500D01*
X01730000Y02131500D02*
Y02138500D01*
Y02131500D02*
X01758000D01*
X01730000Y02138500D02*
X01758000D01*
X01724000Y02131500D02*
Y02138500D01*
X01696000Y02131500D02*
Y02138500D01*
Y02131500D02*
X01724000D01*
X01696000Y02138500D02*
X01724000D01*
X01690000Y02131500D02*
Y02138500D01*
X01662000Y02131500D02*
Y02138500D01*
Y02131500D02*
X01690000D01*
X01662000Y02138500D02*
X01690000D01*
X01656000Y02131500D02*
Y02138500D01*
X01628000Y02131500D02*
Y02138500D01*
Y02131500D02*
X01656000D01*
X01628000Y02138500D02*
X01656000D01*
X01423550Y02183000D02*
X01576500D01*
Y02157000D02*
Y02183000D01*
X01423550Y02157000D02*
X01576500D01*
X01423550D02*
Y02183000D01*
X01492500Y02136750D02*
X01505500D01*
X01492500Y02121000D02*
X01505500D01*
X01492500D02*
Y02136750D01*
X01505500Y02121000D02*
Y02136750D01*
X01492500Y02114750D02*
X01505500D01*
X01492500Y02099000D02*
X01505500D01*
X01492500D02*
Y02114750D01*
X01505500Y02099000D02*
Y02114750D01*
X01458500Y02099000D02*
Y02127000D01*
X01451500Y02099000D02*
Y02127000D01*
X01458500D01*
X01451500Y02099000D02*
X01458500D01*
X02686000Y01843500D02*
Y01850500D01*
X02714000Y01843500D02*
Y01850500D01*
X02686000D02*
X02714000D01*
X02686000Y01843500D02*
X02714000D01*
X02486000D02*
Y01850500D01*
X02514000Y01843500D02*
Y01850500D01*
X02486000D02*
X02514000D01*
X02486000Y01843500D02*
X02514000D01*
X02356000D02*
Y01850500D01*
X02384000Y01843500D02*
Y01850500D01*
X02356000D02*
X02384000D01*
X02356000Y01843500D02*
X02384000D01*
X02186000D02*
Y01850500D01*
X02214000Y01843500D02*
Y01850500D01*
X02186000D02*
X02214000D01*
X02186000Y01843500D02*
X02214000D01*
X01986000D02*
Y01850500D01*
X02014000Y01843500D02*
Y01850500D01*
X01986000D02*
X02014000D01*
X01986000Y01843500D02*
X02014000D01*
X01856000D02*
Y01850500D01*
X01884000Y01843500D02*
Y01850500D01*
X01856000D02*
X01884000D01*
X01856000Y01843500D02*
X01884000D01*
X01686000D02*
Y01850500D01*
X01714000Y01843500D02*
Y01850500D01*
X01686000D02*
X01714000D01*
X01686000Y01843500D02*
X01714000D01*
X01486000D02*
Y01850500D01*
X01514000Y01843500D02*
Y01850500D01*
X01486000D02*
X01514000D01*
X01486000Y01843500D02*
X01514000D01*
X01539500Y02099000D02*
X01546500D01*
X01539500Y02127000D02*
X01546500D01*
X01539500Y02099000D02*
Y02127000D01*
X01546500Y02099000D02*
Y02127000D01*
D11*
X02696000Y01980000D02*
X02704000D01*
X02496000D02*
X02504000D01*
X02196000D02*
X02204000D01*
X01996000D02*
X02004000D01*
X01696000D02*
X01704000D01*
X01496000D02*
X01504000D01*
D12*
X02784500Y02111000D02*
X02791500D01*
X02769500D02*
X02776500D01*
X02619000Y02099500D02*
Y02106500D01*
X02560000Y02176500D02*
Y02183500D01*
Y02161500D02*
Y02168500D01*
X02424000Y02176500D02*
Y02183500D01*
Y02161500D02*
Y02168500D01*
X02374000Y02051500D02*
Y02058500D01*
X02316000Y02093500D02*
Y02100500D01*
Y02108500D02*
Y02115500D01*
X02284500Y02111000D02*
X02291500D01*
X02269500D02*
X02276500D01*
X02119000Y02099500D02*
Y02106500D01*
X02084500Y02111000D02*
X02091500D01*
X02069500D02*
X02076500D01*
X01919000Y02099500D02*
Y02106500D01*
X01826000Y02051500D02*
Y02058500D01*
X01644000Y02176500D02*
Y02183500D01*
Y02161500D02*
Y02168500D01*
X01835000Y02124500D02*
Y02131500D01*
Y02139500D02*
Y02146500D01*
X01780000Y02161500D02*
Y02168500D01*
Y02176500D02*
Y02183500D01*
X01584500Y02111000D02*
X01591500D01*
X01569500D02*
X01576500D01*
X01419000Y02099500D02*
Y02106500D01*
X01346500Y02076000D02*
X01353500D01*
X02846500D02*
X02853500D01*
X02696500Y01882500D02*
X02703500D01*
X02496500D02*
X02503500D01*
X02366500D02*
X02373500D01*
X02196500D02*
X02203500D01*
X01996500D02*
X02003500D01*
X01866500D02*
X01873500D01*
X01696500D02*
X01703500D01*
X01496500D02*
X01503500D01*
X02736500Y01840000D02*
X02743500D01*
X02721500D02*
X02728500D01*
X02521500D02*
X02528500D01*
X02536500D02*
X02543500D01*
X02391500D02*
X02398500D01*
X02406500D02*
X02413500D01*
X02236500D02*
X02243500D01*
X02221500D02*
X02228500D01*
X02036500D02*
X02043500D01*
X02021500D02*
X02028500D01*
X01906500D02*
X01913500D01*
X01891500D02*
X01898500D01*
X01736500D02*
X01743500D01*
X01721500D02*
X01728500D01*
X01536500D02*
X01543500D01*
X01521500D02*
X01528500D01*
X01346500Y01924000D02*
X01353500D01*
X02846500D02*
X02853500D01*
X02526000Y02161500D02*
Y02168500D01*
X02492000Y02161500D02*
Y02168500D01*
X02458000Y02161500D02*
Y02168500D01*
X01746000Y02161500D02*
Y02168500D01*
X01712000Y02161500D02*
Y02168500D01*
X01678000Y02161500D02*
Y02168500D01*
X02526000Y02176500D02*
Y02183500D01*
X02492000Y02176500D02*
Y02183500D01*
X02458000Y02176500D02*
Y02183500D01*
X01746000Y02176500D02*
Y02183500D01*
X01712000Y02176500D02*
Y02183500D01*
X01678000Y02176500D02*
Y02183500D01*
D13*
X02783274Y02170774D02*
Y02177545D01*
X02786660Y02180931D01*
X02790045Y02177545D01*
Y02170774D01*
Y02175852D01*
X02783274D01*
X02800202Y02180931D02*
X02796816Y02179238D01*
X02793431Y02175852D01*
Y02172467D01*
X02795124Y02170774D01*
X02798509D01*
X02800202Y02172467D01*
Y02174160D01*
X02798509Y02175852D01*
X02793431D01*
X02803587D02*
X02810359D01*
X02813744Y02179238D02*
X02815437Y02180931D01*
X02818823D01*
X02820515Y02179238D01*
Y02172467D01*
X02818823Y02170774D01*
X02815437D01*
X02813744Y02172467D01*
Y02179238D01*
X02289295Y02173488D02*
X02287602Y02175181D01*
X02284217D01*
X02282524Y02173488D01*
Y02166717D01*
X02284217Y02165024D01*
X02287602D01*
X02289295Y02166717D01*
X02292681D02*
X02294373Y02165024D01*
X02297759D01*
X02299452Y02166717D01*
Y02173488D01*
X02297759Y02175181D01*
X02294373D01*
X02292681Y02173488D01*
Y02171795D01*
X02294373Y02170102D01*
X02299452D01*
X02302837D02*
X02309609D01*
X02312994Y02173488D02*
X02314687Y02175181D01*
X02318073D01*
X02319765Y02173488D01*
Y02166717D01*
X02318073Y02165024D01*
X02314687D01*
X02312994Y02166717D01*
Y02173488D01*
X01895295Y02150238D02*
X01893602Y02151931D01*
X01890217D01*
X01888524Y02150238D01*
Y02143467D01*
X01890217Y02141774D01*
X01893602D01*
X01895295Y02143467D01*
X01903759Y02141774D02*
Y02151931D01*
X01898681Y02146852D01*
X01905452D01*
X01908837D02*
X01915609D01*
X01918994Y02150238D02*
X01920687Y02151931D01*
X01924073D01*
X01925765Y02150238D01*
Y02143467D01*
X01924073Y02141774D01*
X01920687D01*
X01918994Y02143467D01*
Y02150238D01*
X02706000Y02029000D02*
X02709385D01*
X02707693D01*
Y02039157D01*
X02706000Y02037464D01*
X02714464D02*
X02716157Y02039157D01*
X02719542D01*
X02721235Y02037464D01*
Y02035771D01*
X02719542Y02034078D01*
X02717849D01*
X02719542D01*
X02721235Y02032386D01*
Y02030693D01*
X02719542Y02029000D01*
X02716157D01*
X02714464Y02030693D01*
X02721000Y02015000D02*
X02724386D01*
X02722693D01*
Y02025157D01*
X02721000Y02023464D01*
X02736235Y02015000D02*
X02729464D01*
X02736235Y02021771D01*
Y02023464D01*
X02734542Y02025157D01*
X02731157D01*
X02729464Y02023464D01*
X02730000Y02000000D02*
X02733386D01*
X02731693D01*
Y02010157D01*
X02730000Y02008464D01*
X02738464Y02000000D02*
X02741849D01*
X02740157D01*
Y02010157D01*
X02738464Y02008464D01*
X02725000Y01983000D02*
X02728386D01*
X02726693D01*
Y01993157D01*
X02725000Y01991464D01*
X02733464D02*
X02735157Y01993157D01*
X02738542D01*
X02740235Y01991464D01*
Y01984693D01*
X02738542Y01983000D01*
X02735157D01*
X02733464Y01984693D01*
Y01991464D01*
X02725000Y01969693D02*
X02726693Y01968000D01*
X02730078D01*
X02731771Y01969693D01*
Y01976464D01*
X02730078Y01978157D01*
X02726693D01*
X02725000Y01976464D01*
Y01974771D01*
X02726693Y01973078D01*
X02731771D01*
X02708000Y01967464D02*
X02709693Y01969157D01*
X02713078D01*
X02714771Y01967464D01*
Y01965771D01*
X02713078Y01964078D01*
X02714771Y01962386D01*
Y01960693D01*
X02713078Y01959000D01*
X02709693D01*
X02708000Y01960693D01*
Y01962386D01*
X02709693Y01964078D01*
X02708000Y01965771D01*
Y01967464D01*
X02709693Y01964078D02*
X02713078D01*
X02697000Y02034000D02*
X02700386D01*
X02698693D01*
Y02044157D01*
X02697000Y02042464D01*
X02687000Y01969157D02*
X02693771D01*
Y01967464D01*
X02687000Y01960693D01*
Y01959000D01*
X02676771Y01980157D02*
X02673386Y01978464D01*
X02670000Y01975078D01*
Y01971693D01*
X02671693Y01970000D01*
X02675078D01*
X02676771Y01971693D01*
Y01973386D01*
X02675078Y01975078D01*
X02670000D01*
X02666771Y01995157D02*
X02660000D01*
Y01990078D01*
X02663386Y01991771D01*
X02665078D01*
X02666771Y01990078D01*
Y01986693D01*
X02665078Y01985000D01*
X02661693D01*
X02660000Y01986693D01*
X02663078Y02006000D02*
Y02016157D01*
X02658000Y02011078D01*
X02664771D01*
X02666000Y02029464D02*
X02667693Y02031157D01*
X02671078D01*
X02672771Y02029464D01*
Y02027771D01*
X02671078Y02026078D01*
X02669385D01*
X02671078D01*
X02672771Y02024386D01*
Y02022693D01*
X02671078Y02021000D01*
X02667693D01*
X02666000Y02022693D01*
X02687771Y02031000D02*
X02681000D01*
X02687771Y02037771D01*
Y02039464D01*
X02686078Y02041157D01*
X02682693D01*
X02681000Y02039464D01*
X02506000Y02029000D02*
X02509386D01*
X02507693D01*
Y02039157D01*
X02506000Y02037464D01*
X02514464D02*
X02516157Y02039157D01*
X02519542D01*
X02521235Y02037464D01*
Y02035771D01*
X02519542Y02034078D01*
X02517849D01*
X02519542D01*
X02521235Y02032386D01*
Y02030693D01*
X02519542Y02029000D01*
X02516157D01*
X02514464Y02030693D01*
X02521000Y02015000D02*
X02524386D01*
X02522693D01*
Y02025157D01*
X02521000Y02023464D01*
X02536235Y02015000D02*
X02529464D01*
X02536235Y02021771D01*
Y02023464D01*
X02534542Y02025157D01*
X02531157D01*
X02529464Y02023464D01*
X02530000Y02000000D02*
X02533385D01*
X02531693D01*
Y02010157D01*
X02530000Y02008464D01*
X02538464Y02000000D02*
X02541850D01*
X02540157D01*
Y02010157D01*
X02538464Y02008464D01*
X02525000Y01983000D02*
X02528385D01*
X02526693D01*
Y01993157D01*
X02525000Y01991464D01*
X02533464D02*
X02535157Y01993157D01*
X02538542D01*
X02540235Y01991464D01*
Y01984693D01*
X02538542Y01983000D01*
X02535157D01*
X02533464Y01984693D01*
Y01991464D01*
X02525000Y01969693D02*
X02526693Y01968000D01*
X02530078D01*
X02531771Y01969693D01*
Y01976464D01*
X02530078Y01978157D01*
X02526693D01*
X02525000Y01976464D01*
Y01974771D01*
X02526693Y01973078D01*
X02531771D01*
X02508000Y01967464D02*
X02509693Y01969157D01*
X02513078D01*
X02514771Y01967464D01*
Y01965771D01*
X02513078Y01964078D01*
X02514771Y01962386D01*
Y01960693D01*
X02513078Y01959000D01*
X02509693D01*
X02508000Y01960693D01*
Y01962386D01*
X02509693Y01964078D01*
X02508000Y01965771D01*
Y01967464D01*
X02509693Y01964078D02*
X02513078D01*
X02497000Y02034000D02*
X02500386D01*
X02498693D01*
Y02044157D01*
X02497000Y02042464D01*
X02487000Y01969157D02*
X02493771D01*
Y01967464D01*
X02487000Y01960693D01*
Y01959000D01*
X02476771Y01980157D02*
X02473386Y01978464D01*
X02470000Y01975078D01*
Y01971693D01*
X02471693Y01970000D01*
X02475078D01*
X02476771Y01971693D01*
Y01973386D01*
X02475078Y01975078D01*
X02470000D01*
X02466771Y01995157D02*
X02460000D01*
Y01990078D01*
X02463385Y01991771D01*
X02465078D01*
X02466771Y01990078D01*
Y01986693D01*
X02465078Y01985000D01*
X02461693D01*
X02460000Y01986693D01*
X02463078Y02006000D02*
Y02016157D01*
X02458000Y02011078D01*
X02464771D01*
X02466000Y02029464D02*
X02467693Y02031157D01*
X02471078D01*
X02472771Y02029464D01*
Y02027771D01*
X02471078Y02026078D01*
X02469386D01*
X02471078D01*
X02472771Y02024386D01*
Y02022693D01*
X02471078Y02021000D01*
X02467693D01*
X02466000Y02022693D01*
X02487771Y02031000D02*
X02481000D01*
X02487771Y02037771D01*
Y02039464D01*
X02486078Y02041157D01*
X02482693D01*
X02481000Y02039464D01*
X02206000Y02029000D02*
X02209386D01*
X02207693D01*
Y02039157D01*
X02206000Y02037464D01*
X02214464D02*
X02216157Y02039157D01*
X02219542D01*
X02221235Y02037464D01*
Y02035771D01*
X02219542Y02034078D01*
X02217849D01*
X02219542D01*
X02221235Y02032386D01*
Y02030693D01*
X02219542Y02029000D01*
X02216157D01*
X02214464Y02030693D01*
X02221000Y02015000D02*
X02224386D01*
X02222693D01*
Y02025157D01*
X02221000Y02023464D01*
X02236235Y02015000D02*
X02229464D01*
X02236235Y02021771D01*
Y02023464D01*
X02234542Y02025157D01*
X02231157D01*
X02229464Y02023464D01*
X02230000Y02000000D02*
X02233386D01*
X02231693D01*
Y02010157D01*
X02230000Y02008464D01*
X02238464Y02000000D02*
X02241850D01*
X02240157D01*
Y02010157D01*
X02238464Y02008464D01*
X02225000Y01983000D02*
X02228386D01*
X02226693D01*
Y01993157D01*
X02225000Y01991464D01*
X02233464D02*
X02235157Y01993157D01*
X02238542D01*
X02240235Y01991464D01*
Y01984693D01*
X02238542Y01983000D01*
X02235157D01*
X02233464Y01984693D01*
Y01991464D01*
X02225000Y01969693D02*
X02226693Y01968000D01*
X02230078D01*
X02231771Y01969693D01*
Y01976464D01*
X02230078Y01978157D01*
X02226693D01*
X02225000Y01976464D01*
Y01974771D01*
X02226693Y01973078D01*
X02231771D01*
X02208000Y01967464D02*
X02209693Y01969157D01*
X02213078D01*
X02214771Y01967464D01*
Y01965771D01*
X02213078Y01964078D01*
X02214771Y01962386D01*
Y01960693D01*
X02213078Y01959000D01*
X02209693D01*
X02208000Y01960693D01*
Y01962386D01*
X02209693Y01964078D01*
X02208000Y01965771D01*
Y01967464D01*
X02209693Y01964078D02*
X02213078D01*
X02197000Y02034000D02*
X02200386D01*
X02198693D01*
Y02044157D01*
X02197000Y02042464D01*
X02187000Y01969157D02*
X02193771D01*
Y01967464D01*
X02187000Y01960693D01*
Y01959000D01*
X02176771Y01980157D02*
X02173386Y01978464D01*
X02170000Y01975078D01*
Y01971693D01*
X02171693Y01970000D01*
X02175078D01*
X02176771Y01971693D01*
Y01973386D01*
X02175078Y01975078D01*
X02170000D01*
X02166771Y01995157D02*
X02160000D01*
Y01990078D01*
X02163386Y01991771D01*
X02165078D01*
X02166771Y01990078D01*
Y01986693D01*
X02165078Y01985000D01*
X02161693D01*
X02160000Y01986693D01*
X02163078Y02006000D02*
Y02016157D01*
X02158000Y02011078D01*
X02164771D01*
X02166000Y02029464D02*
X02167693Y02031157D01*
X02171078D01*
X02172771Y02029464D01*
Y02027771D01*
X02171078Y02026078D01*
X02169386D01*
X02171078D01*
X02172771Y02024386D01*
Y02022693D01*
X02171078Y02021000D01*
X02167693D01*
X02166000Y02022693D01*
X02187771Y02031000D02*
X02181000D01*
X02187771Y02037771D01*
Y02039464D01*
X02186078Y02041157D01*
X02182693D01*
X02181000Y02039464D01*
X02006000Y02029000D02*
X02009386D01*
X02007693D01*
Y02039157D01*
X02006000Y02037464D01*
X02014464D02*
X02016157Y02039157D01*
X02019542D01*
X02021235Y02037464D01*
Y02035771D01*
X02019542Y02034078D01*
X02017849D01*
X02019542D01*
X02021235Y02032386D01*
Y02030693D01*
X02019542Y02029000D01*
X02016157D01*
X02014464Y02030693D01*
X02021000Y02015000D02*
X02024386D01*
X02022693D01*
Y02025157D01*
X02021000Y02023464D01*
X02036235Y02015000D02*
X02029464D01*
X02036235Y02021771D01*
Y02023464D01*
X02034542Y02025157D01*
X02031157D01*
X02029464Y02023464D01*
X02030000Y02000000D02*
X02033385D01*
X02031693D01*
Y02010157D01*
X02030000Y02008464D01*
X02038464Y02000000D02*
X02041850D01*
X02040157D01*
Y02010157D01*
X02038464Y02008464D01*
X02025000Y01983000D02*
X02028386D01*
X02026693D01*
Y01993157D01*
X02025000Y01991464D01*
X02033464D02*
X02035157Y01993157D01*
X02038542D01*
X02040235Y01991464D01*
Y01984693D01*
X02038542Y01983000D01*
X02035157D01*
X02033464Y01984693D01*
Y01991464D01*
X02025000Y01969693D02*
X02026693Y01968000D01*
X02030078D01*
X02031771Y01969693D01*
Y01976464D01*
X02030078Y01978157D01*
X02026693D01*
X02025000Y01976464D01*
Y01974771D01*
X02026693Y01973078D01*
X02031771D01*
X02008000Y01967464D02*
X02009693Y01969157D01*
X02013078D01*
X02014771Y01967464D01*
Y01965771D01*
X02013078Y01964078D01*
X02014771Y01962386D01*
Y01960693D01*
X02013078Y01959000D01*
X02009693D01*
X02008000Y01960693D01*
Y01962386D01*
X02009693Y01964078D01*
X02008000Y01965771D01*
Y01967464D01*
X02009693Y01964078D02*
X02013078D01*
X01997000Y02034000D02*
X02000386D01*
X01998693D01*
Y02044157D01*
X01997000Y02042464D01*
X01987000Y01969157D02*
X01993771D01*
Y01967464D01*
X01987000Y01960693D01*
Y01959000D01*
X01976771Y01980157D02*
X01973386Y01978464D01*
X01970000Y01975078D01*
Y01971693D01*
X01971693Y01970000D01*
X01975078D01*
X01976771Y01971693D01*
Y01973386D01*
X01975078Y01975078D01*
X01970000D01*
X01966771Y01995157D02*
X01960000D01*
Y01990078D01*
X01963386Y01991771D01*
X01965078D01*
X01966771Y01990078D01*
Y01986693D01*
X01965078Y01985000D01*
X01961693D01*
X01960000Y01986693D01*
X01963078Y02006000D02*
Y02016157D01*
X01958000Y02011078D01*
X01964771D01*
X01966000Y02029464D02*
X01967693Y02031157D01*
X01971078D01*
X01972771Y02029464D01*
Y02027771D01*
X01971078Y02026078D01*
X01969386D01*
X01971078D01*
X01972771Y02024386D01*
Y02022693D01*
X01971078Y02021000D01*
X01967693D01*
X01966000Y02022693D01*
X01987771Y02031000D02*
X01981000D01*
X01987771Y02037771D01*
Y02039464D01*
X01986078Y02041157D01*
X01982693D01*
X01981000Y02039464D01*
X01706000Y02029000D02*
X01709386D01*
X01707693D01*
Y02039157D01*
X01706000Y02037464D01*
X01714464D02*
X01716157Y02039157D01*
X01719542D01*
X01721235Y02037464D01*
Y02035771D01*
X01719542Y02034078D01*
X01717849D01*
X01719542D01*
X01721235Y02032386D01*
Y02030693D01*
X01719542Y02029000D01*
X01716157D01*
X01714464Y02030693D01*
X01721000Y02015000D02*
X01724386D01*
X01722693D01*
Y02025157D01*
X01721000Y02023464D01*
X01736235Y02015000D02*
X01729464D01*
X01736235Y02021771D01*
Y02023464D01*
X01734542Y02025157D01*
X01731157D01*
X01729464Y02023464D01*
X01730000Y02000000D02*
X01733385D01*
X01731693D01*
Y02010157D01*
X01730000Y02008464D01*
X01738464Y02000000D02*
X01741850D01*
X01740157D01*
Y02010157D01*
X01738464Y02008464D01*
X01725000Y01983000D02*
X01728385D01*
X01726693D01*
Y01993157D01*
X01725000Y01991464D01*
X01733464D02*
X01735157Y01993157D01*
X01738542D01*
X01740235Y01991464D01*
Y01984693D01*
X01738542Y01983000D01*
X01735157D01*
X01733464Y01984693D01*
Y01991464D01*
X01725000Y01969693D02*
X01726693Y01968000D01*
X01730078D01*
X01731771Y01969693D01*
Y01976464D01*
X01730078Y01978157D01*
X01726693D01*
X01725000Y01976464D01*
Y01974771D01*
X01726693Y01973078D01*
X01731771D01*
X01708000Y01967464D02*
X01709693Y01969157D01*
X01713078D01*
X01714771Y01967464D01*
Y01965771D01*
X01713078Y01964078D01*
X01714771Y01962386D01*
Y01960693D01*
X01713078Y01959000D01*
X01709693D01*
X01708000Y01960693D01*
Y01962386D01*
X01709693Y01964078D01*
X01708000Y01965771D01*
Y01967464D01*
X01709693Y01964078D02*
X01713078D01*
X01697000Y02034000D02*
X01700386D01*
X01698693D01*
Y02044157D01*
X01697000Y02042464D01*
X01687000Y01969157D02*
X01693771D01*
Y01967464D01*
X01687000Y01960693D01*
Y01959000D01*
X01676771Y01980157D02*
X01673386Y01978464D01*
X01670000Y01975078D01*
Y01971693D01*
X01671693Y01970000D01*
X01675078D01*
X01676771Y01971693D01*
Y01973386D01*
X01675078Y01975078D01*
X01670000D01*
X01666771Y01995157D02*
X01660000D01*
Y01990078D01*
X01663385Y01991771D01*
X01665078D01*
X01666771Y01990078D01*
Y01986693D01*
X01665078Y01985000D01*
X01661693D01*
X01660000Y01986693D01*
X01663078Y02006000D02*
Y02016157D01*
X01658000Y02011078D01*
X01664771D01*
X01666000Y02029464D02*
X01667693Y02031157D01*
X01671078D01*
X01672771Y02029464D01*
Y02027771D01*
X01671078Y02026078D01*
X01669386D01*
X01671078D01*
X01672771Y02024386D01*
Y02022693D01*
X01671078Y02021000D01*
X01667693D01*
X01666000Y02022693D01*
X01687771Y02031000D02*
X01681000D01*
X01687771Y02037771D01*
Y02039464D01*
X01686078Y02041157D01*
X01682693D01*
X01681000Y02039464D01*
X01506000Y02029000D02*
X01509386D01*
X01507693D01*
Y02039157D01*
X01506000Y02037464D01*
X01514464D02*
X01516157Y02039157D01*
X01519542D01*
X01521235Y02037464D01*
Y02035771D01*
X01519542Y02034078D01*
X01517849D01*
X01519542D01*
X01521235Y02032386D01*
Y02030693D01*
X01519542Y02029000D01*
X01516157D01*
X01514464Y02030693D01*
X01521000Y02015000D02*
X01524386D01*
X01522693D01*
Y02025157D01*
X01521000Y02023464D01*
X01536235Y02015000D02*
X01529464D01*
X01536235Y02021771D01*
Y02023464D01*
X01534542Y02025157D01*
X01531157D01*
X01529464Y02023464D01*
X01530000Y02000000D02*
X01533386D01*
X01531693D01*
Y02010157D01*
X01530000Y02008464D01*
X01538464Y02000000D02*
X01541850D01*
X01540157D01*
Y02010157D01*
X01538464Y02008464D01*
X01525000Y01983000D02*
X01528386D01*
X01526693D01*
Y01993157D01*
X01525000Y01991464D01*
X01533464D02*
X01535157Y01993157D01*
X01538542D01*
X01540235Y01991464D01*
Y01984693D01*
X01538542Y01983000D01*
X01535157D01*
X01533464Y01984693D01*
Y01991464D01*
X01525000Y01969693D02*
X01526693Y01968000D01*
X01530078D01*
X01531771Y01969693D01*
Y01976464D01*
X01530078Y01978157D01*
X01526693D01*
X01525000Y01976464D01*
Y01974771D01*
X01526693Y01973078D01*
X01531771D01*
X01508000Y01967464D02*
X01509693Y01969157D01*
X01513078D01*
X01514771Y01967464D01*
Y01965771D01*
X01513078Y01964078D01*
X01514771Y01962386D01*
Y01960693D01*
X01513078Y01959000D01*
X01509693D01*
X01508000Y01960693D01*
Y01962386D01*
X01509693Y01964078D01*
X01508000Y01965771D01*
Y01967464D01*
X01509693Y01964078D02*
X01513078D01*
X01497000Y02034000D02*
X01500386D01*
X01498693D01*
Y02044157D01*
X01497000Y02042464D01*
X01487000Y01969157D02*
X01493771D01*
Y01967464D01*
X01487000Y01960693D01*
Y01959000D01*
X01476771Y01980157D02*
X01473386Y01978464D01*
X01470000Y01975078D01*
Y01971693D01*
X01471693Y01970000D01*
X01475078D01*
X01476771Y01971693D01*
Y01973386D01*
X01475078Y01975078D01*
X01470000D01*
X01466771Y01995157D02*
X01460000D01*
Y01990078D01*
X01463386Y01991771D01*
X01465078D01*
X01466771Y01990078D01*
Y01986693D01*
X01465078Y01985000D01*
X01461693D01*
X01460000Y01986693D01*
X01463078Y02006000D02*
Y02016157D01*
X01458000Y02011078D01*
X01464771D01*
X01466000Y02029464D02*
X01467693Y02031157D01*
X01471078D01*
X01472771Y02029464D01*
Y02027771D01*
X01471078Y02026078D01*
X01469386D01*
X01471078D01*
X01472771Y02024386D01*
Y02022693D01*
X01471078Y02021000D01*
X01467693D01*
X01466000Y02022693D01*
X01487771Y02031000D02*
X01481000D01*
X01487771Y02037771D01*
Y02039464D01*
X01486078Y02041157D01*
X01482693D01*
X01481000Y02039464D01*
X01399545Y02148738D02*
X01397852Y02150431D01*
X01394467D01*
X01392774Y02148738D01*
Y02147045D01*
X01394467Y02145352D01*
X01397852D01*
X01399545Y02143660D01*
Y02141967D01*
X01397852Y02140274D01*
X01394467D01*
X01392774Y02141967D01*
X01402931Y02150431D02*
Y02141967D01*
X01404624Y02140274D01*
X01408009D01*
X01409702Y02141967D01*
Y02150431D01*
X01413087Y02140274D02*
Y02150431D01*
X01418166D01*
X01419859Y02148738D01*
Y02145352D01*
X01418166Y02143660D01*
X01413087D01*
X01423244Y02140274D02*
Y02150431D01*
X01428322D01*
X01430015Y02148738D01*
Y02145352D01*
X01428322Y02143660D01*
X01423244D01*
X01433401Y02150431D02*
Y02140274D01*
X01440172D01*
X01443558Y02150431D02*
Y02148738D01*
X01446943Y02145352D01*
X01450329Y02148738D01*
Y02150431D01*
X01446943Y02145352D02*
Y02140274D01*
X02606536Y02093078D02*
Y02086307D01*
X02609922Y02082922D01*
X02613307Y02086307D01*
Y02093078D01*
X02623464D02*
X02620078Y02091386D01*
X02616693Y02088000D01*
Y02084614D01*
X02618386Y02082922D01*
X02621771D01*
X02623464Y02084614D01*
Y02086307D01*
X02621771Y02088000D01*
X02616693D01*
X02406536Y02093078D02*
Y02086307D01*
X02409922Y02082922D01*
X02413307Y02086307D01*
Y02093078D01*
X02423464D02*
X02416693D01*
Y02088000D01*
X02420078Y02089693D01*
X02421771D01*
X02423464Y02088000D01*
Y02084614D01*
X02421771Y02082922D01*
X02418386D01*
X02416693Y02084614D01*
X02107536Y02093078D02*
Y02086307D01*
X02110922Y02082922D01*
X02114307Y02086307D01*
Y02093078D01*
X02122771Y02082922D02*
Y02093078D01*
X02117693Y02088000D01*
X02124464D01*
X01907536Y02093078D02*
Y02086307D01*
X01910922Y02082922D01*
X01914307Y02086307D01*
Y02093078D01*
X01917693Y02091386D02*
X01919386Y02093078D01*
X01922771D01*
X01924464Y02091386D01*
Y02089693D01*
X01922771Y02088000D01*
X01921078D01*
X01922771D01*
X01924464Y02086307D01*
Y02084614D01*
X01922771Y02082922D01*
X01919386D01*
X01917693Y02084614D01*
X01607536Y02092078D02*
Y02085307D01*
X01610922Y02081922D01*
X01614307Y02085307D01*
Y02092078D01*
X01624464Y02081922D02*
X01617693D01*
X01624464Y02088693D01*
Y02090386D01*
X01622771Y02092078D01*
X01619386D01*
X01617693Y02090386D01*
X01407229Y02093078D02*
Y02086307D01*
X01410614Y02082922D01*
X01414000Y02086307D01*
Y02093078D01*
X01417386Y02082922D02*
X01420771D01*
X01419078D01*
Y02093078D01*
X01417386Y02091386D01*
X02366536Y01997078D02*
Y01990307D01*
X02369922Y01986922D01*
X02373307Y01990307D01*
Y01997078D01*
X02376693Y01995386D02*
X02378386Y01997078D01*
X02381771D01*
X02383464Y01995386D01*
Y01993693D01*
X02381771Y01992000D01*
X02383464Y01990307D01*
Y01988614D01*
X02381771Y01986922D01*
X02378386D01*
X02376693Y01988614D01*
Y01990307D01*
X02378386Y01992000D01*
X02376693Y01993693D01*
Y01995386D01*
X02378386Y01992000D02*
X02381771D01*
X01816536Y01997078D02*
Y01990307D01*
X01819922Y01986922D01*
X01823307Y01990307D01*
Y01997078D01*
X01826693D02*
X01833464D01*
Y01995386D01*
X01826693Y01988614D01*
Y01986922D01*
X02354458Y01823078D02*
X02361229D01*
X02357843D01*
Y01812922D01*
X02364614Y01821386D02*
X02366307Y01823078D01*
X02369693D01*
X02371386Y01821386D01*
Y01819693D01*
X02369693Y01818000D01*
X02368000D01*
X02369693D01*
X02371386Y01816307D01*
Y01814614D01*
X02369693Y01812922D01*
X02366307D01*
X02364614Y01814614D01*
X02374771Y01821386D02*
X02376464Y01823078D01*
X02379850D01*
X02381542Y01821386D01*
Y01814614D01*
X02379850Y01812922D01*
X02376464D01*
X02374771Y01814614D01*
Y01821386D01*
X01854458Y01823078D02*
X01861229D01*
X01857843D01*
Y01812922D01*
X01871386D02*
X01864614D01*
X01871386Y01819693D01*
Y01821386D01*
X01869693Y01823078D01*
X01866307D01*
X01864614Y01821386D01*
X01874771Y01814614D02*
X01876464Y01812922D01*
X01879850D01*
X01881542Y01814614D01*
Y01821386D01*
X01879850Y01823078D01*
X01876464D01*
X01874771Y01821386D01*
Y01819693D01*
X01876464Y01818000D01*
X01881542D01*
X02684458Y01823078D02*
X02691229D01*
X02687843D01*
Y01812922D01*
X02701385D02*
X02694614D01*
X02701385Y01819693D01*
Y01821386D01*
X02699693Y01823078D01*
X02696307D01*
X02694614Y01821386D01*
X02704771D02*
X02706464Y01823078D01*
X02709850D01*
X02711542Y01821386D01*
Y01819693D01*
X02709850Y01818000D01*
X02711542Y01816307D01*
Y01814614D01*
X02709850Y01812922D01*
X02706464D01*
X02704771Y01814614D01*
Y01816307D01*
X02706464Y01818000D01*
X02704771Y01819693D01*
Y01821386D01*
X02706464Y01818000D02*
X02709850D01*
X02484458Y01823078D02*
X02491229D01*
X02487843D01*
Y01812922D01*
X02501385D02*
X02494614D01*
X02501385Y01819693D01*
Y01821386D01*
X02499693Y01823078D01*
X02496307D01*
X02494614Y01821386D01*
X02504771Y01823078D02*
X02511542D01*
Y01821386D01*
X02504771Y01814614D01*
Y01812922D01*
X02184458Y01823078D02*
X02191229D01*
X02187843D01*
Y01812922D01*
X02201386D02*
X02194614D01*
X02201386Y01819693D01*
Y01821386D01*
X02199693Y01823078D01*
X02196307D01*
X02194614Y01821386D01*
X02211542Y01823078D02*
X02208157Y01821386D01*
X02204771Y01818000D01*
Y01814614D01*
X02206464Y01812922D01*
X02209850D01*
X02211542Y01814614D01*
Y01816307D01*
X02209850Y01818000D01*
X02204771D01*
X01984458Y01823078D02*
X01991229D01*
X01987843D01*
Y01812922D01*
X02001386D02*
X01994614D01*
X02001386Y01819693D01*
Y01821386D01*
X01999693Y01823078D01*
X01996307D01*
X01994614Y01821386D01*
X02011542Y01823078D02*
X02004771D01*
Y01818000D01*
X02008157Y01819693D01*
X02009850D01*
X02011542Y01818000D01*
Y01814614D01*
X02009850Y01812922D01*
X02006464D01*
X02004771Y01814614D01*
X01684458Y01823078D02*
X01691229D01*
X01687843D01*
Y01812922D01*
X01701385D02*
X01694614D01*
X01701385Y01819693D01*
Y01821386D01*
X01699693Y01823078D01*
X01696307D01*
X01694614Y01821386D01*
X01709850Y01812922D02*
Y01823078D01*
X01704771Y01818000D01*
X01711542D01*
X01484458Y01823078D02*
X01491229D01*
X01487843D01*
Y01812922D01*
X01501386D02*
X01494614D01*
X01501386Y01819693D01*
Y01821386D01*
X01499693Y01823078D01*
X01496307D01*
X01494614Y01821386D01*
X01504771D02*
X01506464Y01823078D01*
X01509850D01*
X01511542Y01821386D01*
Y01819693D01*
X01509850Y01818000D01*
X01508157D01*
X01509850D01*
X01511542Y01816307D01*
Y01814614D01*
X01509850Y01812922D01*
X01506464D01*
X01504771Y01814614D01*
X02537922Y02097458D02*
Y02104229D01*
Y02100843D01*
X02548078D01*
Y02114386D02*
Y02107614D01*
X02541307Y02114386D01*
X02539614D01*
X02537922Y02112693D01*
Y02109307D01*
X02539614Y02107614D01*
X02548078Y02124542D02*
Y02117771D01*
X02541307Y02124542D01*
X02539614D01*
X02537922Y02122849D01*
Y02119464D01*
X02539614Y02117771D01*
X02503922Y02098150D02*
Y02104922D01*
Y02101536D01*
X02514078D01*
Y02115078D02*
Y02108307D01*
X02507307Y02115078D01*
X02505614D01*
X02503922Y02113386D01*
Y02110000D01*
X02505614Y02108307D01*
X02514078Y02118464D02*
Y02121850D01*
Y02120157D01*
X02503922D01*
X02505614Y02118464D01*
X02469922Y02097458D02*
Y02104229D01*
Y02100843D01*
X02480078D01*
Y02114386D02*
Y02107614D01*
X02473307Y02114386D01*
X02471614D01*
X02469922Y02112693D01*
Y02109307D01*
X02471614Y02107614D01*
Y02117771D02*
X02469922Y02119464D01*
Y02122849D01*
X02471614Y02124542D01*
X02478386D01*
X02480078Y02122849D01*
Y02119464D01*
X02478386Y02117771D01*
X02471614D01*
X02435922Y02097304D02*
Y02104075D01*
Y02100690D01*
X02446078D01*
Y02107461D02*
Y02110846D01*
Y02109154D01*
X02435922D01*
X02437614Y02107461D01*
X02444386Y02115925D02*
X02446078Y02117618D01*
Y02121003D01*
X02444386Y02122696D01*
X02437614D01*
X02435922Y02121003D01*
Y02117618D01*
X02437614Y02115925D01*
X02439307D01*
X02441000Y02117618D01*
Y02122696D01*
X02401922Y02097304D02*
Y02104075D01*
Y02100690D01*
X02412078D01*
Y02107461D02*
Y02110846D01*
Y02109154D01*
X02401922D01*
X02403614Y02107461D01*
Y02115925D02*
X02401922Y02117618D01*
Y02121003D01*
X02403614Y02122696D01*
X02405307D01*
X02407000Y02121003D01*
X02408693Y02122696D01*
X02410386D01*
X02412078Y02121003D01*
Y02117618D01*
X02410386Y02115925D01*
X02408693D01*
X02407000Y02117618D01*
X02405307Y02115925D01*
X02403614D01*
X02407000Y02117618D02*
Y02121003D01*
X01757922Y02096304D02*
Y02103075D01*
Y02099690D01*
X01768078D01*
Y02106461D02*
Y02109846D01*
Y02108154D01*
X01757922D01*
X01759614Y02106461D01*
X01757922Y02114925D02*
Y02121696D01*
X01759614D01*
X01766385Y02114925D01*
X01768078D01*
X01723922Y02096304D02*
Y02103075D01*
Y02099690D01*
X01734078D01*
Y02106461D02*
Y02109846D01*
Y02108154D01*
X01723922D01*
X01725614Y02106461D01*
X01723922Y02121696D02*
X01725614Y02118310D01*
X01729000Y02114925D01*
X01732386D01*
X01734078Y02116618D01*
Y02120003D01*
X01732386Y02121696D01*
X01730693D01*
X01729000Y02120003D01*
Y02114925D01*
X01689922Y02096304D02*
Y02103075D01*
Y02099690D01*
X01700078D01*
Y02106461D02*
Y02109846D01*
Y02108154D01*
X01689922D01*
X01691614Y02106461D01*
X01689922Y02121696D02*
Y02114925D01*
X01695000D01*
X01693307Y02118310D01*
Y02120003D01*
X01695000Y02121696D01*
X01698386D01*
X01700078Y02120003D01*
Y02116618D01*
X01698386Y02114925D01*
X01655922Y02096304D02*
Y02103075D01*
Y02099690D01*
X01666078D01*
Y02106461D02*
Y02109846D01*
Y02108154D01*
X01655922D01*
X01657614Y02106461D01*
X01666078Y02120003D02*
X01655922D01*
X01661000Y02114925D01*
Y02121696D01*
X01621922Y02096304D02*
Y02103075D01*
Y02099690D01*
X01632078D01*
Y02106461D02*
Y02109846D01*
Y02108154D01*
X01621922D01*
X01623614Y02106461D01*
Y02114925D02*
X01621922Y02116618D01*
Y02120003D01*
X01623614Y02121696D01*
X01625307D01*
X01627000Y02120003D01*
Y02118310D01*
Y02120003D01*
X01628693Y02121696D01*
X01630386D01*
X01632078Y02120003D01*
Y02116618D01*
X01630386Y02114925D01*
X02736304Y02141078D02*
X02743075D01*
X02739690D01*
Y02130922D01*
X02746461D02*
X02749846D01*
X02748154D01*
Y02141078D01*
X02746461Y02139386D01*
X02761696Y02130922D02*
X02754925D01*
X02761696Y02137693D01*
Y02139386D01*
X02760003Y02141078D01*
X02756617D01*
X02754925Y02139386D01*
X02331997Y02084078D02*
X02338768D01*
X02335383D01*
Y02073922D01*
X02342154D02*
X02345539D01*
X02343846D01*
Y02084078D01*
X02342154Y02082386D01*
X02350618Y02073922D02*
X02354003D01*
X02352310D01*
Y02084078D01*
X02350618Y02082386D01*
X02235304Y02141078D02*
X02242075D01*
X02238690D01*
Y02130922D01*
X02245461D02*
X02248846D01*
X02247154D01*
Y02141078D01*
X02245461Y02139386D01*
X02253925D02*
X02255618Y02141078D01*
X02259003D01*
X02260696Y02139386D01*
Y02132614D01*
X02259003Y02130922D01*
X02255618D01*
X02253925Y02132614D01*
Y02139386D01*
X02022536Y02142078D02*
X02029307D01*
X02025922D01*
Y02131922D01*
X02032693Y02133615D02*
X02034386Y02131922D01*
X02037771D01*
X02039464Y02133615D01*
Y02140386D01*
X02037771Y02142078D01*
X02034386D01*
X02032693Y02140386D01*
Y02138693D01*
X02034386Y02137000D01*
X02039464D01*
X01803922Y02101536D02*
Y02108307D01*
Y02104922D01*
X01814078D01*
X01805614Y02111693D02*
X01803922Y02113386D01*
Y02116771D01*
X01805614Y02118464D01*
X01807307D01*
X01809000Y02116771D01*
X01810693Y02118464D01*
X01812386D01*
X01814078Y02116771D01*
Y02113386D01*
X01812386Y02111693D01*
X01810693D01*
X01809000Y02113386D01*
X01807307Y02111693D01*
X01805614D01*
X01809000Y02113386D02*
Y02116771D01*
X01522536Y02141078D02*
X01529307D01*
X01525922D01*
Y02130922D01*
X01532693Y02141078D02*
X01539464D01*
Y02139386D01*
X01532693Y02132614D01*
Y02130922D01*
X02632536Y02142078D02*
X02639307D01*
X02635922D01*
Y02131922D01*
X02649464Y02142078D02*
X02646078Y02140386D01*
X02642693Y02137000D01*
Y02133615D01*
X02644386Y02131922D01*
X02647771D01*
X02649464Y02133615D01*
Y02135307D01*
X02647771Y02137000D01*
X02642693D01*
X02395078Y02045464D02*
Y02038693D01*
Y02042078D01*
X02384922D01*
X02395078Y02028536D02*
Y02035307D01*
X02390000D01*
X02391693Y02031922D01*
Y02030229D01*
X02390000Y02028536D01*
X02386614D01*
X02384922Y02030229D01*
Y02033614D01*
X02386614Y02035307D01*
X02135536Y02142078D02*
X02142307D01*
X02138922D01*
Y02131922D01*
X02150771D02*
Y02142078D01*
X02145693Y02137000D01*
X02152464D01*
X01934536Y02142078D02*
X01941307D01*
X01937922D01*
Y02131922D01*
X01944693Y02140386D02*
X01946386Y02142078D01*
X01949771D01*
X01951464Y02140386D01*
Y02138693D01*
X01949771Y02137000D01*
X01948078D01*
X01949771D01*
X01951464Y02135307D01*
Y02133615D01*
X01949771Y02131922D01*
X01946386D01*
X01944693Y02133615D01*
X01803922Y02028536D02*
Y02035307D01*
Y02031922D01*
X01814078D01*
Y02045464D02*
Y02038693D01*
X01807307Y02045464D01*
X01805614D01*
X01803922Y02043771D01*
Y02040386D01*
X01805614Y02038693D01*
X01420922Y02112229D02*
Y02119000D01*
Y02115614D01*
X01431078D01*
Y02122386D02*
Y02125771D01*
Y02124078D01*
X01420922D01*
X01422614Y02122386D01*
X01341078Y02062458D02*
X01330922D01*
Y02067536D01*
X01332614Y02069229D01*
X01336000D01*
X01337693Y02067536D01*
Y02062458D01*
Y02065843D02*
X01341078Y02069229D01*
X01330922Y02072614D02*
Y02079386D01*
X01332614D01*
X01339386Y02072614D01*
X01341078D01*
X01332614Y02082771D02*
X01330922Y02084464D01*
Y02087849D01*
X01332614Y02089542D01*
X01334307D01*
X01336000Y02087849D01*
X01337693Y02089542D01*
X01339386D01*
X01341078Y02087849D01*
Y02084464D01*
X01339386Y02082771D01*
X01337693D01*
X01336000Y02084464D01*
X01334307Y02082771D01*
X01332614D01*
X01336000Y02084464D02*
Y02087849D01*
X02841078Y02062458D02*
X02830922D01*
Y02067536D01*
X02832614Y02069229D01*
X02836000D01*
X02837693Y02067536D01*
Y02062458D01*
Y02065843D02*
X02841078Y02069229D01*
X02830922Y02072614D02*
Y02079386D01*
X02832614D01*
X02839386Y02072614D01*
X02841078D01*
X02830922Y02082771D02*
Y02089542D01*
X02832614D01*
X02839386Y02082771D01*
X02841078D01*
X02840078Y01911458D02*
X02829922D01*
Y01916536D01*
X02831614Y01918229D01*
X02835000D01*
X02836693Y01916536D01*
Y01911458D01*
Y01914843D02*
X02840078Y01918229D01*
X02829922Y01921614D02*
Y01928386D01*
X02831614D01*
X02838386Y01921614D01*
X02840078D01*
X02829922Y01938542D02*
X02831614Y01935157D01*
X02835000Y01931771D01*
X02838386D01*
X02840078Y01933464D01*
Y01936850D01*
X02838386Y01938542D01*
X02836693D01*
X02835000Y01936850D01*
Y01931771D01*
X01341078Y01910458D02*
X01330922D01*
Y01915536D01*
X01332614Y01917229D01*
X01336000D01*
X01337693Y01915536D01*
Y01910458D01*
Y01913843D02*
X01341078Y01917229D01*
X01330922Y01920614D02*
Y01927386D01*
X01332614D01*
X01339386Y01920614D01*
X01341078D01*
X01330922Y01937542D02*
Y01930771D01*
X01336000D01*
X01334307Y01934157D01*
Y01935849D01*
X01336000Y01937542D01*
X01339386D01*
X01341078Y01935849D01*
Y01932464D01*
X01339386Y01930771D01*
X02400078Y01854458D02*
X02389922D01*
Y01859536D01*
X02391614Y01861229D01*
X02395000D01*
X02396693Y01859536D01*
Y01854458D01*
Y01857843D02*
X02400078Y01861229D01*
X02389922Y01864614D02*
Y01871386D01*
X02391614D01*
X02398386Y01864614D01*
X02400078D01*
Y01879850D02*
X02389922D01*
X02395000Y01874771D01*
Y01881542D01*
X01900078Y01854458D02*
X01889922D01*
Y01859536D01*
X01891614Y01861229D01*
X01895000D01*
X01896693Y01859536D01*
Y01854458D01*
Y01857843D02*
X01900078Y01861229D01*
X01889922Y01864615D02*
Y01871386D01*
X01891614D01*
X01898385Y01864615D01*
X01900078D01*
X01891614Y01874771D02*
X01889922Y01876464D01*
Y01879850D01*
X01891614Y01881542D01*
X01893307D01*
X01895000Y01879850D01*
Y01878157D01*
Y01879850D01*
X01896693Y01881542D01*
X01898385D01*
X01900078Y01879850D01*
Y01876464D01*
X01898385Y01874771D01*
X02730078Y01854458D02*
X02719922D01*
Y01859536D01*
X02721614Y01861229D01*
X02725000D01*
X02726693Y01859536D01*
Y01854458D01*
Y01857843D02*
X02730078Y01861229D01*
X02719922Y01864614D02*
Y01871386D01*
X02721614D01*
X02728386Y01864614D01*
X02730078D01*
Y01881542D02*
Y01874771D01*
X02723307Y01881542D01*
X02721614D01*
X02719922Y01879850D01*
Y01876464D01*
X02721614Y01874771D01*
X02531078Y01855150D02*
X02520922D01*
Y01860229D01*
X02522614Y01861922D01*
X02526000D01*
X02527693Y01860229D01*
Y01855150D01*
Y01858536D02*
X02531078Y01861922D01*
X02520922Y01865307D02*
Y01872078D01*
X02522614D01*
X02529386Y01865307D01*
X02531078D01*
Y01875464D02*
Y01878849D01*
Y01877157D01*
X02520922D01*
X02522614Y01875464D01*
X02230078Y01854458D02*
X02219922D01*
Y01859536D01*
X02221614Y01861229D01*
X02225000D01*
X02226693Y01859536D01*
Y01854458D01*
Y01857843D02*
X02230078Y01861229D01*
X02219922Y01864614D02*
Y01871386D01*
X02221614D01*
X02228386Y01864614D01*
X02230078D01*
X02221614Y01874771D02*
X02219922Y01876464D01*
Y01879850D01*
X02221614Y01881542D01*
X02228386D01*
X02230078Y01879850D01*
Y01876464D01*
X02228386Y01874771D01*
X02221614D01*
X02030078Y01855458D02*
X02019922D01*
Y01860536D01*
X02021614Y01862229D01*
X02025000D01*
X02026693Y01860536D01*
Y01855458D01*
Y01858843D02*
X02030078Y01862229D01*
X02019922Y01872386D02*
X02021614Y01869000D01*
X02025000Y01865614D01*
X02028386D01*
X02030078Y01867307D01*
Y01870693D01*
X02028386Y01872386D01*
X02026693D01*
X02025000Y01870693D01*
Y01865614D01*
X02028386Y01875771D02*
X02030078Y01877464D01*
Y01880849D01*
X02028386Y01882542D01*
X02021614D01*
X02019922Y01880849D01*
Y01877464D01*
X02021614Y01875771D01*
X02023307D01*
X02025000Y01877464D01*
Y01882542D01*
X01730078Y01854458D02*
X01719922D01*
Y01859536D01*
X01721614Y01861229D01*
X01725000D01*
X01726693Y01859536D01*
Y01854458D01*
Y01857843D02*
X01730078Y01861229D01*
X01719922Y01871386D02*
X01721614Y01868000D01*
X01725000Y01864614D01*
X01728385D01*
X01730078Y01866307D01*
Y01869693D01*
X01728385Y01871386D01*
X01726693D01*
X01725000Y01869693D01*
Y01864614D01*
X01721614Y01874771D02*
X01719922Y01876464D01*
Y01879850D01*
X01721614Y01881542D01*
X01723307D01*
X01725000Y01879850D01*
X01726693Y01881542D01*
X01728385D01*
X01730078Y01879850D01*
Y01876464D01*
X01728385Y01874771D01*
X01726693D01*
X01725000Y01876464D01*
X01723307Y01874771D01*
X01721614D01*
X01725000Y01876464D02*
Y01879850D01*
X01530078Y01854458D02*
X01519922D01*
Y01859536D01*
X01521614Y01861229D01*
X01525000D01*
X01526693Y01859536D01*
Y01854458D01*
Y01857843D02*
X01530078Y01861229D01*
X01519922Y01871386D02*
X01521614Y01868000D01*
X01525000Y01864615D01*
X01528385D01*
X01530078Y01866307D01*
Y01869693D01*
X01528385Y01871386D01*
X01526693D01*
X01525000Y01869693D01*
Y01864615D01*
X01519922Y01874771D02*
Y01881542D01*
X01521614D01*
X01528385Y01874771D01*
X01530078D01*
X02415078Y01854458D02*
X02404922D01*
Y01859536D01*
X02406614Y01861229D01*
X02410000D01*
X02411693Y01859536D01*
Y01854458D01*
Y01857843D02*
X02415078Y01861229D01*
X02404922Y01871386D02*
X02406614Y01868000D01*
X02410000Y01864614D01*
X02413385D01*
X02415078Y01866307D01*
Y01869693D01*
X02413385Y01871386D01*
X02411693D01*
X02410000Y01869693D01*
Y01864614D01*
X02404922Y01881542D02*
X02406614Y01878157D01*
X02410000Y01874771D01*
X02413385D01*
X02415078Y01876464D01*
Y01879850D01*
X02413385Y01881542D01*
X02411693D01*
X02410000Y01879850D01*
Y01874771D01*
X01915078Y01854458D02*
X01904922D01*
Y01859536D01*
X01906614Y01861229D01*
X01910000D01*
X01911693Y01859536D01*
Y01854458D01*
Y01857843D02*
X01915078Y01861229D01*
X01904922Y01871386D02*
X01906614Y01868000D01*
X01910000Y01864615D01*
X01913385D01*
X01915078Y01866307D01*
Y01869693D01*
X01913385Y01871386D01*
X01911693D01*
X01910000Y01869693D01*
Y01864615D01*
X01904922Y01881542D02*
Y01874771D01*
X01910000D01*
X01908307Y01878157D01*
Y01879850D01*
X01910000Y01881542D01*
X01913385D01*
X01915078Y01879850D01*
Y01876464D01*
X01913385Y01874771D01*
X02745078Y01854458D02*
X02734922D01*
Y01859536D01*
X02736614Y01861229D01*
X02740000D01*
X02741693Y01859536D01*
Y01854458D01*
Y01857843D02*
X02745078Y01861229D01*
X02734922Y01871386D02*
X02736614Y01868000D01*
X02740000Y01864615D01*
X02743386D01*
X02745078Y01866307D01*
Y01869693D01*
X02743386Y01871386D01*
X02741693D01*
X02740000Y01869693D01*
Y01864615D01*
X02745078Y01879850D02*
X02734922D01*
X02740000Y01874771D01*
Y01881542D01*
X02545078Y01855458D02*
X02534922D01*
Y01860536D01*
X02536614Y01862229D01*
X02540000D01*
X02541693Y01860536D01*
Y01855458D01*
Y01858843D02*
X02545078Y01862229D01*
X02534922Y01872386D02*
X02536614Y01869000D01*
X02540000Y01865614D01*
X02543386D01*
X02545078Y01867307D01*
Y01870693D01*
X02543386Y01872386D01*
X02541693D01*
X02540000Y01870693D01*
Y01865614D01*
X02536614Y01875771D02*
X02534922Y01877464D01*
Y01880849D01*
X02536614Y01882542D01*
X02538307D01*
X02540000Y01880849D01*
Y01879157D01*
Y01880849D01*
X02541693Y01882542D01*
X02543386D01*
X02545078Y01880849D01*
Y01877464D01*
X02543386Y01875771D01*
X02245078Y01854458D02*
X02234922D01*
Y01859536D01*
X02236614Y01861229D01*
X02240000D01*
X02241693Y01859536D01*
Y01854458D01*
Y01857843D02*
X02245078Y01861229D01*
X02234922Y01871386D02*
X02236614Y01868000D01*
X02240000Y01864615D01*
X02243385D01*
X02245078Y01866307D01*
Y01869693D01*
X02243385Y01871386D01*
X02241693D01*
X02240000Y01869693D01*
Y01864615D01*
X02245078Y01881542D02*
Y01874771D01*
X02238307Y01881542D01*
X02236614D01*
X02234922Y01879850D01*
Y01876464D01*
X02236614Y01874771D01*
X02045078Y01855150D02*
X02034922D01*
Y01860229D01*
X02036614Y01861922D01*
X02040000D01*
X02041693Y01860229D01*
Y01855150D01*
Y01858536D02*
X02045078Y01861922D01*
X02034922Y01872078D02*
X02036614Y01868693D01*
X02040000Y01865307D01*
X02043385D01*
X02045078Y01867000D01*
Y01870386D01*
X02043385Y01872078D01*
X02041693D01*
X02040000Y01870386D01*
Y01865307D01*
X02045078Y01875464D02*
Y01878849D01*
Y01877157D01*
X02034922D01*
X02036614Y01875464D01*
X01745078Y01854458D02*
X01734922D01*
Y01859536D01*
X01736614Y01861229D01*
X01740000D01*
X01741693Y01859536D01*
Y01854458D01*
Y01857843D02*
X01745078Y01861229D01*
X01734922Y01871386D02*
X01736614Y01868000D01*
X01740000Y01864614D01*
X01743386D01*
X01745078Y01866307D01*
Y01869693D01*
X01743386Y01871386D01*
X01741693D01*
X01740000Y01869693D01*
Y01864614D01*
X01736614Y01874771D02*
X01734922Y01876464D01*
Y01879850D01*
X01736614Y01881542D01*
X01743386D01*
X01745078Y01879850D01*
Y01876464D01*
X01743386Y01874771D01*
X01736614D01*
X01545078Y01854458D02*
X01534922D01*
Y01859536D01*
X01536614Y01861229D01*
X01540000D01*
X01541693Y01859536D01*
Y01854458D01*
Y01857843D02*
X01545078Y01861229D01*
X01534922Y01871386D02*
Y01864614D01*
X01540000D01*
X01538307Y01868000D01*
Y01869693D01*
X01540000Y01871386D01*
X01543386D01*
X01545078Y01869693D01*
Y01866307D01*
X01543386Y01864614D01*
Y01874771D02*
X01545078Y01876464D01*
Y01879850D01*
X01543386Y01881542D01*
X01536614D01*
X01534922Y01879850D01*
Y01876464D01*
X01536614Y01874771D01*
X01538307D01*
X01540000Y01876464D01*
Y01881542D01*
X02361078Y01870458D02*
X02350922D01*
Y01875536D01*
X02352614Y01877229D01*
X02356000D01*
X02357693Y01875536D01*
Y01870458D01*
Y01873843D02*
X02361078Y01877229D01*
X02350922Y01887386D02*
Y01880614D01*
X02356000D01*
X02354307Y01884000D01*
Y01885693D01*
X02356000Y01887386D01*
X02359386D01*
X02361078Y01885693D01*
Y01882307D01*
X02359386Y01880614D01*
X02352614Y01890771D02*
X02350922Y01892464D01*
Y01895849D01*
X02352614Y01897542D01*
X02354307D01*
X02356000Y01895849D01*
X02357693Y01897542D01*
X02359386D01*
X02361078Y01895849D01*
Y01892464D01*
X02359386Y01890771D01*
X02357693D01*
X02356000Y01892464D01*
X02354307Y01890771D01*
X02352614D01*
X02356000Y01892464D02*
Y01895849D01*
X01861078Y01870458D02*
X01850922D01*
Y01875536D01*
X01852614Y01877229D01*
X01856000D01*
X01857693Y01875536D01*
Y01870458D01*
Y01873843D02*
X01861078Y01877229D01*
X01850922Y01887386D02*
Y01880614D01*
X01856000D01*
X01854307Y01884000D01*
Y01885693D01*
X01856000Y01887386D01*
X01859386D01*
X01861078Y01885693D01*
Y01882307D01*
X01859386Y01880614D01*
X01850922Y01890771D02*
Y01897542D01*
X01852614D01*
X01859386Y01890771D01*
X01861078D01*
X02691078Y01870458D02*
X02680922D01*
Y01875536D01*
X02682614Y01877229D01*
X02686000D01*
X02687693Y01875536D01*
Y01870458D01*
Y01873843D02*
X02691078Y01877229D01*
X02680922Y01887386D02*
Y01880614D01*
X02686000D01*
X02684307Y01884000D01*
Y01885693D01*
X02686000Y01887386D01*
X02689386D01*
X02691078Y01885693D01*
Y01882307D01*
X02689386Y01880614D01*
X02680922Y01897542D02*
X02682614Y01894157D01*
X02686000Y01890771D01*
X02689386D01*
X02691078Y01892464D01*
Y01895849D01*
X02689386Y01897542D01*
X02687693D01*
X02686000Y01895849D01*
Y01890771D01*
X02491078Y01870458D02*
X02480922D01*
Y01875536D01*
X02482614Y01877229D01*
X02486000D01*
X02487693Y01875536D01*
Y01870458D01*
Y01873843D02*
X02491078Y01877229D01*
X02480922Y01887386D02*
Y01880614D01*
X02486000D01*
X02484307Y01884000D01*
Y01885693D01*
X02486000Y01887386D01*
X02489386D01*
X02491078Y01885693D01*
Y01882307D01*
X02489386Y01880614D01*
X02480922Y01897542D02*
Y01890771D01*
X02486000D01*
X02484307Y01894157D01*
Y01895849D01*
X02486000Y01897542D01*
X02489386D01*
X02491078Y01895849D01*
Y01892464D01*
X02489386Y01890771D01*
X02191078Y01870458D02*
X02180922D01*
Y01875536D01*
X02182614Y01877229D01*
X02186000D01*
X02187693Y01875536D01*
Y01870458D01*
Y01873843D02*
X02191078Y01877229D01*
X02180922Y01887386D02*
Y01880614D01*
X02186000D01*
X02184307Y01884000D01*
Y01885693D01*
X02186000Y01887386D01*
X02189386D01*
X02191078Y01885693D01*
Y01882307D01*
X02189386Y01880614D01*
X02191078Y01895849D02*
X02180922D01*
X02186000Y01890771D01*
Y01897542D01*
X01991078Y01870458D02*
X01980922D01*
Y01875536D01*
X01982614Y01877229D01*
X01986000D01*
X01987693Y01875536D01*
Y01870458D01*
Y01873843D02*
X01991078Y01877229D01*
X01980922Y01887386D02*
Y01880614D01*
X01986000D01*
X01984307Y01884000D01*
Y01885693D01*
X01986000Y01887386D01*
X01989386D01*
X01991078Y01885693D01*
Y01882307D01*
X01989386Y01880614D01*
X01982614Y01890771D02*
X01980922Y01892464D01*
Y01895849D01*
X01982614Y01897542D01*
X01984307D01*
X01986000Y01895849D01*
Y01894157D01*
Y01895849D01*
X01987693Y01897542D01*
X01989386D01*
X01991078Y01895849D01*
Y01892464D01*
X01989386Y01890771D01*
X01691078Y01870458D02*
X01680922D01*
Y01875536D01*
X01682614Y01877229D01*
X01686000D01*
X01687693Y01875536D01*
Y01870458D01*
Y01873843D02*
X01691078Y01877229D01*
X01680922Y01887386D02*
Y01880614D01*
X01686000D01*
X01684307Y01884000D01*
Y01885693D01*
X01686000Y01887386D01*
X01689386D01*
X01691078Y01885693D01*
Y01882307D01*
X01689386Y01880614D01*
X01691078Y01897542D02*
Y01890771D01*
X01684307Y01897542D01*
X01682614D01*
X01680922Y01895849D01*
Y01892464D01*
X01682614Y01890771D01*
X01491078Y01870150D02*
X01480922D01*
Y01875229D01*
X01482614Y01876922D01*
X01486000D01*
X01487693Y01875229D01*
Y01870150D01*
Y01873536D02*
X01491078Y01876922D01*
X01480922Y01887078D02*
Y01880307D01*
X01486000D01*
X01484307Y01883693D01*
Y01885386D01*
X01486000Y01887078D01*
X01489386D01*
X01491078Y01885386D01*
Y01882000D01*
X01489386Y01880307D01*
X01491078Y01890464D02*
Y01893849D01*
Y01892157D01*
X01480922D01*
X01482614Y01890464D01*
X02574458Y02174922D02*
Y02185078D01*
X02579536D01*
X02581229Y02183386D01*
Y02180000D01*
X02579536Y02178307D01*
X02574458D01*
X02577843D02*
X02581229Y02174922D01*
X02591385Y02185078D02*
X02584614D01*
Y02180000D01*
X02588000Y02181693D01*
X02589693D01*
X02591385Y02180000D01*
Y02176614D01*
X02589693Y02174922D01*
X02586307D01*
X02584614Y02176614D01*
X02594771Y02183386D02*
X02596464Y02185078D01*
X02599850D01*
X02601542Y02183386D01*
Y02176614D01*
X02599850Y02174922D01*
X02596464D01*
X02594771Y02176614D01*
Y02183386D01*
X02382458Y02174922D02*
Y02185078D01*
X02387536D01*
X02389229Y02183386D01*
Y02180000D01*
X02387536Y02178307D01*
X02382458D01*
X02385843D02*
X02389229Y02174922D01*
X02397693D02*
Y02185078D01*
X02392614Y02180000D01*
X02399386D01*
X02409542Y02185078D02*
X02406157Y02183386D01*
X02402771Y02180000D01*
Y02176614D01*
X02404464Y02174922D01*
X02407849D01*
X02409542Y02176614D01*
Y02178307D01*
X02407849Y02180000D01*
X02402771D01*
X01794458Y02174922D02*
Y02185078D01*
X01799536D01*
X01801229Y02183386D01*
Y02180000D01*
X01799536Y02178307D01*
X01794458D01*
X01797843D02*
X01801229Y02174922D01*
X01809693D02*
Y02185078D01*
X01804614Y02180000D01*
X01811386D01*
X01821542Y02185078D02*
X01814771D01*
Y02180000D01*
X01818157Y02181693D01*
X01819850D01*
X01821542Y02180000D01*
Y02176615D01*
X01819850Y02174922D01*
X01816464D01*
X01814771Y02176615D01*
X01605150Y02174922D02*
Y02185078D01*
X01610229D01*
X01611922Y02183386D01*
Y02180000D01*
X01610229Y02178307D01*
X01605150D01*
X01608536D02*
X01611922Y02174922D01*
X01620386D02*
Y02185078D01*
X01615307Y02180000D01*
X01622078D01*
X01625464Y02174922D02*
X01628849D01*
X01627157D01*
Y02185078D01*
X01625464Y02183386D01*
X02574458Y02159922D02*
Y02170078D01*
X02579536D01*
X02581229Y02168386D01*
Y02165000D01*
X02579536Y02163307D01*
X02574458D01*
X02577843D02*
X02581229Y02159922D01*
X02589693D02*
Y02170078D01*
X02584614Y02165000D01*
X02591385D01*
X02594771Y02168386D02*
X02596464Y02170078D01*
X02599850D01*
X02601542Y02168386D01*
Y02161614D01*
X02599850Y02159922D01*
X02596464D01*
X02594771Y02161614D01*
Y02168386D01*
X02382458Y02160922D02*
Y02171078D01*
X02387536D01*
X02389229Y02169386D01*
Y02166000D01*
X02387536Y02164307D01*
X02382458D01*
X02385843D02*
X02389229Y02160922D01*
X02392614Y02169386D02*
X02394307Y02171078D01*
X02397693D01*
X02399386Y02169386D01*
Y02167693D01*
X02397693Y02166000D01*
X02396000D01*
X02397693D01*
X02399386Y02164307D01*
Y02162614D01*
X02397693Y02160922D01*
X02394307D01*
X02392614Y02162614D01*
X02409542Y02171078D02*
X02406157Y02169386D01*
X02402771Y02166000D01*
Y02162614D01*
X02404464Y02160922D01*
X02407849D01*
X02409542Y02162614D01*
Y02164307D01*
X02407849Y02166000D01*
X02402771D01*
X01794458Y02159922D02*
Y02170078D01*
X01799536D01*
X01801229Y02168386D01*
Y02165000D01*
X01799536Y02163307D01*
X01794458D01*
X01797843D02*
X01801229Y02159922D01*
X01804614Y02168386D02*
X01806307Y02170078D01*
X01809693D01*
X01811386Y02168386D01*
Y02166693D01*
X01809693Y02165000D01*
X01808000D01*
X01809693D01*
X01811386Y02163307D01*
Y02161614D01*
X01809693Y02159922D01*
X01806307D01*
X01804614Y02161614D01*
X01821542Y02170078D02*
X01814771D01*
Y02165000D01*
X01818157Y02166693D01*
X01819850D01*
X01821542Y02165000D01*
Y02161614D01*
X01819850Y02159922D01*
X01816464D01*
X01814771Y02161614D01*
X01605150Y02159922D02*
Y02170078D01*
X01610229D01*
X01611922Y02168386D01*
Y02165000D01*
X01610229Y02163307D01*
X01605150D01*
X01608536D02*
X01611922Y02159922D01*
X01615307Y02168386D02*
X01617000Y02170078D01*
X01620386D01*
X01622078Y02168386D01*
Y02166693D01*
X01620386Y02165000D01*
X01618693D01*
X01620386D01*
X01622078Y02163307D01*
Y02161614D01*
X01620386Y02159922D01*
X01617000D01*
X01615307Y02161614D01*
X01625464Y02159922D02*
X01628849D01*
X01627157D01*
Y02170078D01*
X01625464Y02168386D01*
X02778078Y02125458D02*
X02767921D01*
Y02130536D01*
X02769614Y02132229D01*
X02773000D01*
X02774693Y02130536D01*
Y02125458D01*
Y02128843D02*
X02778078Y02132229D01*
X02769614Y02135614D02*
X02767921Y02137307D01*
Y02140693D01*
X02769614Y02142386D01*
X02771307D01*
X02773000Y02140693D01*
Y02139000D01*
Y02140693D01*
X02774693Y02142386D01*
X02776385D01*
X02778078Y02140693D01*
Y02137307D01*
X02776385Y02135614D01*
X02769614Y02145771D02*
X02767921Y02147464D01*
Y02150849D01*
X02769614Y02152542D01*
X02776385D01*
X02778078Y02150849D01*
Y02147464D01*
X02776385Y02145771D01*
X02769614D01*
X02330458Y02091922D02*
Y02102078D01*
X02335536D01*
X02337229Y02100386D01*
Y02097000D01*
X02335536Y02095307D01*
X02330458D01*
X02333843D02*
X02337229Y02091922D01*
X02347386D02*
X02340614D01*
X02347386Y02098693D01*
Y02100386D01*
X02345693Y02102078D01*
X02342307D01*
X02340614Y02100386D01*
X02350771Y02093614D02*
X02352464Y02091922D01*
X02355849D01*
X02357542Y02093614D01*
Y02100386D01*
X02355849Y02102078D01*
X02352464D01*
X02350771Y02100386D01*
Y02098693D01*
X02352464Y02097000D01*
X02357542D01*
X02278078Y02125458D02*
X02267922D01*
Y02130536D01*
X02269614Y02132229D01*
X02273000D01*
X02274693Y02130536D01*
Y02125458D01*
Y02128843D02*
X02278078Y02132229D01*
Y02142386D02*
Y02135614D01*
X02271307Y02142386D01*
X02269614D01*
X02267922Y02140693D01*
Y02137307D01*
X02269614Y02135614D01*
Y02145771D02*
X02267922Y02147464D01*
Y02150849D01*
X02269614Y02152542D01*
X02271307D01*
X02273000Y02150849D01*
X02274693Y02152542D01*
X02276386D01*
X02278078Y02150849D01*
Y02147464D01*
X02276386Y02145771D01*
X02274693D01*
X02273000Y02147464D01*
X02271307Y02145771D01*
X02269614D01*
X02273000Y02147464D02*
Y02150849D01*
X02078078Y02125458D02*
X02067922D01*
Y02130536D01*
X02069614Y02132229D01*
X02073000D01*
X02074693Y02130536D01*
Y02125458D01*
Y02128843D02*
X02078078Y02132229D01*
Y02142386D02*
Y02135614D01*
X02071307Y02142386D01*
X02069614D01*
X02067922Y02140693D01*
Y02137307D01*
X02069614Y02135614D01*
X02067922Y02145771D02*
Y02152542D01*
X02069614D01*
X02076386Y02145771D01*
X02078078D01*
X01850458Y02122922D02*
Y02133078D01*
X01855536D01*
X01857229Y02131386D01*
Y02128000D01*
X01855536Y02126307D01*
X01850458D01*
X01853843D02*
X01857229Y02122922D01*
X01867386D02*
X01860614D01*
X01867386Y02129693D01*
Y02131386D01*
X01865693Y02133078D01*
X01862307D01*
X01860614Y02131386D01*
X01877542Y02133078D02*
X01874157Y02131386D01*
X01870771Y02128000D01*
Y02124614D01*
X01872464Y02122922D01*
X01875849D01*
X01877542Y02124614D01*
Y02126307D01*
X01875849Y02128000D01*
X01870771D01*
X01578078Y02125458D02*
X01567922D01*
Y02130536D01*
X01569614Y02132229D01*
X01573000D01*
X01574693Y02130536D01*
Y02125458D01*
Y02128843D02*
X01578078Y02132229D01*
Y02142386D02*
Y02135614D01*
X01571307Y02142386D01*
X01569614D01*
X01567922Y02140693D01*
Y02137307D01*
X01569614Y02135614D01*
X01567922Y02152542D02*
Y02145771D01*
X01573000D01*
X01571307Y02149157D01*
Y02150849D01*
X01573000Y02152542D01*
X01576385D01*
X01578078Y02150849D01*
Y02147464D01*
X01576385Y02145771D01*
X02577458Y02097922D02*
Y02108078D01*
X02582536D01*
X02584229Y02106386D01*
Y02103000D01*
X02582536Y02101307D01*
X02577458D01*
X02580843D02*
X02584229Y02097922D01*
X02594386D02*
X02587614D01*
X02594386Y02104693D01*
Y02106386D01*
X02592693Y02108078D01*
X02589307D01*
X02587614Y02106386D01*
X02602849Y02097922D02*
Y02108078D01*
X02597771Y02103000D01*
X02604542D01*
X02361458Y02063922D02*
Y02074078D01*
X02366536D01*
X02368229Y02072386D01*
Y02069000D01*
X02366536Y02067307D01*
X02361458D01*
X02364843D02*
X02368229Y02063922D01*
X02378386D02*
X02371614D01*
X02378386Y02070693D01*
Y02072386D01*
X02376693Y02074078D01*
X02373307D01*
X02371614Y02072386D01*
X02381771D02*
X02383464Y02074078D01*
X02386850D01*
X02388542Y02072386D01*
Y02070693D01*
X02386850Y02069000D01*
X02385157D01*
X02386850D01*
X02388542Y02067307D01*
Y02065614D01*
X02386850Y02063922D01*
X02383464D01*
X02381771Y02065614D01*
X02131078Y02111458D02*
X02120922D01*
Y02116536D01*
X02122614Y02118229D01*
X02126000D01*
X02127693Y02116536D01*
Y02111458D01*
Y02114843D02*
X02131078Y02118229D01*
Y02128386D02*
Y02121615D01*
X02124307Y02128386D01*
X02122614D01*
X02120922Y02126693D01*
Y02123307D01*
X02122614Y02121615D01*
X02131078Y02138542D02*
Y02131771D01*
X02124307Y02138542D01*
X02122614D01*
X02120922Y02136850D01*
Y02133464D01*
X02122614Y02131771D01*
X01880150Y02098922D02*
Y02109078D01*
X01885229D01*
X01886922Y02107386D01*
Y02104000D01*
X01885229Y02102307D01*
X01880150D01*
X01883536D02*
X01886922Y02098922D01*
X01897078D02*
X01890307D01*
X01897078Y02105693D01*
Y02107386D01*
X01895386Y02109078D01*
X01892000D01*
X01890307Y02107386D01*
X01900464Y02098922D02*
X01903849D01*
X01902157D01*
Y02109078D01*
X01900464Y02107386D01*
X01814458Y02063922D02*
Y02074078D01*
X01819536D01*
X01821229Y02072386D01*
Y02069000D01*
X01819536Y02067307D01*
X01814458D01*
X01817843D02*
X01821229Y02063922D01*
X01831386D02*
X01824614D01*
X01831386Y02070693D01*
Y02072386D01*
X01829693Y02074078D01*
X01826307D01*
X01824614Y02072386D01*
X01834771D02*
X01836464Y02074078D01*
X01839850D01*
X01841542Y02072386D01*
Y02065614D01*
X01839850Y02063922D01*
X01836464D01*
X01834771Y02065614D01*
Y02072386D01*
X01378304Y02098922D02*
Y02109078D01*
X01383383D01*
X01385075Y02107386D01*
Y02104000D01*
X01383383Y02102307D01*
X01378304D01*
X01381690D02*
X01385075Y02098922D01*
X01388461D02*
X01391846D01*
X01390154D01*
Y02109078D01*
X01388461Y02107386D01*
X01396925Y02100614D02*
X01398618Y02098922D01*
X01402003D01*
X01403696Y02100614D01*
Y02107386D01*
X01402003Y02109078D01*
X01398618D01*
X01396925Y02107386D01*
Y02105693D01*
X01398618Y02104000D01*
X01403696D01*
X02793078Y02125304D02*
X02782921D01*
Y02130383D01*
X02784614Y02132075D01*
X02788000D01*
X02789693Y02130383D01*
Y02125304D01*
Y02128690D02*
X02793078Y02132075D01*
Y02135461D02*
Y02138846D01*
Y02137154D01*
X02782921D01*
X02784614Y02135461D01*
Y02143925D02*
X02782921Y02145618D01*
Y02149003D01*
X02784614Y02150696D01*
X02786307D01*
X02788000Y02149003D01*
X02789693Y02150696D01*
X02791385D01*
X02793078Y02149003D01*
Y02145618D01*
X02791385Y02143925D01*
X02789693D01*
X02788000Y02145618D01*
X02786307Y02143925D01*
X02784614D01*
X02788000Y02145618D02*
Y02149003D01*
X02330304Y02106922D02*
Y02117078D01*
X02335383D01*
X02337075Y02115386D01*
Y02112000D01*
X02335383Y02110307D01*
X02330304D01*
X02333690D02*
X02337075Y02106922D01*
X02340461D02*
X02343846D01*
X02342154D01*
Y02117078D01*
X02340461Y02115386D01*
X02348925Y02117078D02*
X02355696D01*
Y02115386D01*
X02348925Y02108615D01*
Y02106922D01*
X02293078Y02125304D02*
X02282922D01*
Y02130383D01*
X02284614Y02132075D01*
X02288000D01*
X02289693Y02130383D01*
Y02125304D01*
Y02128690D02*
X02293078Y02132075D01*
Y02135461D02*
Y02138846D01*
Y02137154D01*
X02282922D01*
X02284614Y02135461D01*
X02282922Y02150696D02*
X02284614Y02147310D01*
X02288000Y02143925D01*
X02291386D01*
X02293078Y02145618D01*
Y02149003D01*
X02291386Y02150696D01*
X02289693D01*
X02288000Y02149003D01*
Y02143925D01*
X02093078Y02125304D02*
X02082922D01*
Y02130383D01*
X02084614Y02132075D01*
X02088000D01*
X02089693Y02130383D01*
Y02125304D01*
Y02128690D02*
X02093078Y02132075D01*
Y02135461D02*
Y02138846D01*
Y02137154D01*
X02082922D01*
X02084614Y02135461D01*
X02082922Y02150696D02*
Y02143925D01*
X02088000D01*
X02086307Y02147310D01*
Y02149003D01*
X02088000Y02150696D01*
X02091386D01*
X02093078Y02149003D01*
Y02145618D01*
X02091386Y02143925D01*
X01850304Y02137922D02*
Y02148078D01*
X01855382D01*
X01857075Y02146386D01*
Y02143000D01*
X01855382Y02141307D01*
X01850304D01*
X01853690D02*
X01857075Y02137922D01*
X01860461D02*
X01863846D01*
X01862154D01*
Y02148078D01*
X01860461Y02146386D01*
X01874003Y02137922D02*
Y02148078D01*
X01868925Y02143000D01*
X01875696D01*
X01593078Y02125304D02*
X01582922D01*
Y02130383D01*
X01584614Y02132075D01*
X01588000D01*
X01589693Y02130383D01*
Y02125304D01*
Y02128690D02*
X01593078Y02132075D01*
Y02135461D02*
Y02138846D01*
Y02137154D01*
X01582922D01*
X01584614Y02135461D01*
Y02143925D02*
X01582922Y02145618D01*
Y02149003D01*
X01584614Y02150696D01*
X01586307D01*
X01588000Y02149003D01*
Y02147310D01*
Y02149003D01*
X01589693Y02150696D01*
X01591386D01*
X01593078Y02149003D01*
Y02145618D01*
X01591386Y02143925D01*
X02705304Y02140922D02*
Y02151078D01*
X02710382D01*
X02712075Y02149386D01*
Y02146000D01*
X02710382Y02144307D01*
X02705304D01*
X02708690D02*
X02712075Y02140922D01*
X02715461D02*
X02718846D01*
X02717154D01*
Y02151078D01*
X02715461Y02149386D01*
X02730696Y02140922D02*
X02723925D01*
X02730696Y02147693D01*
Y02149386D01*
X02729003Y02151078D01*
X02725618D01*
X02723925Y02149386D01*
X02349078Y02045997D02*
X02338922D01*
Y02051075D01*
X02340614Y02052768D01*
X02344000D01*
X02345693Y02051075D01*
Y02045997D01*
Y02049382D02*
X02349078Y02052768D01*
Y02056154D02*
Y02059539D01*
Y02057846D01*
X02338922D01*
X02340614Y02056154D01*
X02349078Y02064618D02*
Y02068003D01*
Y02066310D01*
X02338922D01*
X02340614Y02064618D01*
X02203304Y02140922D02*
Y02151078D01*
X02208383D01*
X02210075Y02149386D01*
Y02146000D01*
X02208383Y02144307D01*
X02203304D01*
X02206690D02*
X02210075Y02140922D01*
X02213461D02*
X02216846D01*
X02215154D01*
Y02151078D01*
X02213461Y02149386D01*
X02221925D02*
X02223618Y02151078D01*
X02227003D01*
X02228696Y02149386D01*
Y02142614D01*
X02227003Y02140922D01*
X02223618D01*
X02221925Y02142614D01*
Y02149386D01*
X02002536Y02140922D02*
Y02151078D01*
X02007614D01*
X02009307Y02149386D01*
Y02146000D01*
X02007614Y02144307D01*
X02002536D01*
X02005922D02*
X02009307Y02140922D01*
X02012693Y02142614D02*
X02014386Y02140922D01*
X02017771D01*
X02019464Y02142614D01*
Y02149386D01*
X02017771Y02151078D01*
X02014386D01*
X02012693Y02149386D01*
Y02147693D01*
X02014386Y02146000D01*
X02019464D01*
X01872922Y02092464D02*
X01883078D01*
Y02087386D01*
X01881386Y02085693D01*
X01878000D01*
X01876307Y02087386D01*
Y02092464D01*
Y02089078D02*
X01872922Y02085693D01*
X01881386Y02082307D02*
X01883078Y02080614D01*
Y02077229D01*
X01881386Y02075536D01*
X01879693D01*
X01878000Y02077229D01*
X01876307Y02075536D01*
X01874614D01*
X01872922Y02077229D01*
Y02080614D01*
X01874614Y02082307D01*
X01876307D01*
X01878000Y02080614D01*
X01879693Y02082307D01*
X01881386D01*
X01878000Y02080614D02*
Y02077229D01*
X01502536Y02141922D02*
Y02152078D01*
X01507614D01*
X01509307Y02150386D01*
Y02147000D01*
X01507614Y02145307D01*
X01502536D01*
X01505922D02*
X01509307Y02141922D01*
X01512693Y02152078D02*
X01519464D01*
Y02150386D01*
X01512693Y02143614D01*
Y02141922D01*
X02678536Y02140922D02*
Y02151078D01*
X02683615D01*
X02685307Y02149386D01*
Y02146000D01*
X02683615Y02144307D01*
X02678536D01*
X02681922D02*
X02685307Y02140922D01*
X02695464Y02151078D02*
X02692079Y02149386D01*
X02688693Y02146000D01*
Y02142614D01*
X02690386Y02140922D01*
X02693771D01*
X02695464Y02142614D01*
Y02144307D01*
X02693771Y02146000D01*
X02688693D01*
X02307536Y01989922D02*
Y02000078D01*
X02312614D01*
X02314307Y01998386D01*
Y01995000D01*
X02312614Y01993307D01*
X02307536D01*
X02310922D02*
X02314307Y01989922D01*
X02324464Y02000078D02*
X02317693D01*
Y01995000D01*
X02321078Y01996693D01*
X02322771D01*
X02324464Y01995000D01*
Y01991614D01*
X02322771Y01989922D01*
X02319386D01*
X02317693Y01991614D01*
X02178536Y02140922D02*
Y02151078D01*
X02183614D01*
X02185307Y02149386D01*
Y02146000D01*
X02183614Y02144307D01*
X02178536D01*
X02181922D02*
X02185307Y02140922D01*
X02193771D02*
Y02151078D01*
X02188693Y02146000D01*
X02195464D01*
X01977536Y02140922D02*
Y02151078D01*
X01982614D01*
X01984307Y02149386D01*
Y02146000D01*
X01982614Y02144307D01*
X01977536D01*
X01980922D02*
X01984307Y02140922D01*
X01987693Y02149386D02*
X01989386Y02151078D01*
X01992771D01*
X01994464Y02149386D01*
Y02147693D01*
X01992771Y02146000D01*
X01991078D01*
X01992771D01*
X01994464Y02144307D01*
Y02142614D01*
X01992771Y02140922D01*
X01989386D01*
X01987693Y02142614D01*
X01872922Y02047464D02*
X01883078D01*
Y02042386D01*
X01881386Y02040693D01*
X01878000D01*
X01876307Y02042386D01*
Y02047464D01*
Y02044078D02*
X01872922Y02040693D01*
Y02030536D02*
Y02037307D01*
X01879693Y02030536D01*
X01881386D01*
X01883078Y02032229D01*
Y02035614D01*
X01881386Y02037307D01*
X01479229Y02141922D02*
Y02152078D01*
X01484307D01*
X01486000Y02150386D01*
Y02147000D01*
X01484307Y02145307D01*
X01479229D01*
X01482614D02*
X01486000Y02141922D01*
X01489386D02*
X01492771D01*
X01491078D01*
Y02152078D01*
X01489386Y02150386D01*
X01408922Y02174307D02*
Y02170922D01*
Y02172614D01*
X01417386D01*
X01419078Y02170922D01*
Y02169229D01*
X01417386Y02167536D01*
X01419078Y02182771D02*
X01408922D01*
X01414000Y02177693D01*
Y02184464D01*
X02608922Y02175307D02*
Y02171922D01*
Y02173614D01*
X02617386D01*
X02619078Y02171922D01*
Y02170229D01*
X02617386Y02168536D01*
X02610614Y02178693D02*
X02608922Y02180386D01*
Y02183771D01*
X02610614Y02185464D01*
X02612307D01*
X02614000Y02183771D01*
Y02182078D01*
Y02183771D01*
X02615693Y02185464D01*
X02617386D01*
X02619078Y02183771D01*
Y02180386D01*
X02617386Y02178693D01*
X02108922Y02175307D02*
Y02171922D01*
Y02173614D01*
X02117386D01*
X02119078Y02171922D01*
Y02170229D01*
X02117386Y02168536D01*
X02119078Y02185464D02*
Y02178693D01*
X02112307Y02185464D01*
X02110614D01*
X02108922Y02183771D01*
Y02180386D01*
X02110614Y02178693D01*
X01908922Y02178000D02*
Y02174614D01*
Y02176307D01*
X01917386D01*
X01919078Y02174614D01*
Y02172922D01*
X01917386Y02171229D01*
X01919078Y02181386D02*
Y02184771D01*
Y02183078D01*
X01908922D01*
X01910614Y02181386D01*
X02678922Y01998536D02*
X02689078D01*
Y02003614D01*
X02687386Y02005307D01*
X02680614D01*
X02678922Y02003614D01*
Y01998536D01*
Y02015464D02*
X02680614Y02012078D01*
X02684000Y02008693D01*
X02687386D01*
X02689078Y02010386D01*
Y02013771D01*
X02687386Y02015464D01*
X02685693D01*
X02684000Y02013771D01*
Y02008693D01*
X02478922Y01997536D02*
X02489078D01*
Y02002614D01*
X02487386Y02004307D01*
X02480614D01*
X02478922Y02002614D01*
Y01997536D01*
Y02014464D02*
Y02007693D01*
X02484000D01*
X02482307Y02011078D01*
Y02012771D01*
X02484000Y02014464D01*
X02487386D01*
X02489078Y02012771D01*
Y02009386D01*
X02487386Y02007693D01*
X02178922Y01997536D02*
X02189078D01*
Y02002614D01*
X02187386Y02004307D01*
X02180614D01*
X02178922Y02002614D01*
Y01997536D01*
X02189078Y02012771D02*
X02178922D01*
X02184000Y02007693D01*
Y02014464D01*
X01978922Y01997536D02*
X01989078D01*
Y02002614D01*
X01987386Y02004307D01*
X01980614D01*
X01978922Y02002614D01*
Y01997536D01*
X01980614Y02007693D02*
X01978922Y02009386D01*
Y02012771D01*
X01980614Y02014464D01*
X01982307D01*
X01984000Y02012771D01*
Y02011078D01*
Y02012771D01*
X01985693Y02014464D01*
X01987386D01*
X01989078Y02012771D01*
Y02009386D01*
X01987386Y02007693D01*
X01678922Y01997536D02*
X01689078D01*
Y02002614D01*
X01687386Y02004307D01*
X01680614D01*
X01678922Y02002614D01*
Y01997536D01*
X01689078Y02014464D02*
Y02007693D01*
X01682307Y02014464D01*
X01680614D01*
X01678922Y02012771D01*
Y02009386D01*
X01680614Y02007693D01*
X01478922Y02001229D02*
X01489078D01*
Y02006307D01*
X01487386Y02008000D01*
X01480614D01*
X01478922Y02006307D01*
Y02001229D01*
X01489078Y02011386D02*
Y02014771D01*
Y02013078D01*
X01478922D01*
X01480614Y02011386D01*
D14*
X02705000Y02082250D02*
Y02072093D01*
X02699922Y02067015D01*
X02694843Y02072093D01*
Y02082250D01*
Y02074633D01*
X02705000D01*
X02505000Y02082250D02*
Y02072093D01*
X02499922Y02067015D01*
X02494843Y02072093D01*
Y02082250D01*
Y02074633D01*
X02505000D01*
X02205000Y02082250D02*
Y02072093D01*
X02199922Y02067015D01*
X02194843Y02072093D01*
Y02082250D01*
Y02074633D01*
X02205000D01*
X02005000Y02082250D02*
Y02072093D01*
X01999922Y02067015D01*
X01994843Y02072093D01*
Y02082250D01*
Y02074633D01*
X02005000D01*
X01705000Y02082250D02*
Y02072093D01*
X01699922Y02067015D01*
X01694843Y02072093D01*
Y02082250D01*
Y02074633D01*
X01705000D01*
X01505000Y02082250D02*
Y02072093D01*
X01499922Y02067015D01*
X01494843Y02072093D01*
Y02082250D01*
Y02074633D01*
X01505000D01*
D15*
X02677664Y01932996D02*
X02669000D01*
Y01926498D01*
X02673332D01*
X02669000D01*
Y01920000D01*
X02681996D02*
Y01932996D01*
X02688494D01*
X02690660Y01930830D01*
Y01926498D01*
X02688494Y01924332D01*
X02681996D01*
X02686328D02*
X02690660Y01920000D01*
X02701490Y01932996D02*
X02697158D01*
X02694991Y01930830D01*
Y01922166D01*
X02697158Y01920000D01*
X02701490D01*
X02703655Y01922166D01*
Y01930830D01*
X02701490Y01932996D01*
X02707987Y01920000D02*
Y01932996D01*
X02716651Y01920000D01*
Y01932996D01*
X02720983D02*
X02729647D01*
X02725315D01*
Y01920000D01*
X02477664Y01932996D02*
X02469000D01*
Y01926498D01*
X02473332D01*
X02469000D01*
Y01920000D01*
X02481996D02*
Y01932996D01*
X02488494D01*
X02490660Y01930830D01*
Y01926498D01*
X02488494Y01924332D01*
X02481996D01*
X02486328D02*
X02490660Y01920000D01*
X02501490Y01932996D02*
X02497158D01*
X02494992Y01930830D01*
Y01922166D01*
X02497158Y01920000D01*
X02501490D01*
X02503656Y01922166D01*
Y01930830D01*
X02501490Y01932996D01*
X02507987Y01920000D02*
Y01932996D01*
X02516651Y01920000D01*
Y01932996D01*
X02520983D02*
X02529647D01*
X02525315D01*
Y01920000D01*
X02177664Y01932996D02*
X02169000D01*
Y01926498D01*
X02173332D01*
X02169000D01*
Y01920000D01*
X02181996D02*
Y01932996D01*
X02188494D01*
X02190660Y01930830D01*
Y01926498D01*
X02188494Y01924332D01*
X02181996D01*
X02186328D02*
X02190660Y01920000D01*
X02201490Y01932996D02*
X02197158D01*
X02194992Y01930830D01*
Y01922166D01*
X02197158Y01920000D01*
X02201490D01*
X02203656Y01922166D01*
Y01930830D01*
X02201490Y01932996D01*
X02207987Y01920000D02*
Y01932996D01*
X02216651Y01920000D01*
Y01932996D01*
X02220983D02*
X02229647D01*
X02225315D01*
Y01920000D01*
X01977664Y01932996D02*
X01969000D01*
Y01926498D01*
X01973332D01*
X01969000D01*
Y01920000D01*
X01981996D02*
Y01932996D01*
X01988494D01*
X01990660Y01930830D01*
Y01926498D01*
X01988494Y01924332D01*
X01981996D01*
X01986328D02*
X01990660Y01920000D01*
X02001490Y01932996D02*
X01997158D01*
X01994992Y01930830D01*
Y01922166D01*
X01997158Y01920000D01*
X02001490D01*
X02003656Y01922166D01*
Y01930830D01*
X02001490Y01932996D01*
X02007987Y01920000D02*
Y01932996D01*
X02016651Y01920000D01*
Y01932996D01*
X02020983D02*
X02029647D01*
X02025315D01*
Y01920000D01*
X01677664Y01932996D02*
X01669000D01*
Y01926498D01*
X01673332D01*
X01669000D01*
Y01920000D01*
X01681996D02*
Y01932996D01*
X01688494D01*
X01690660Y01930830D01*
Y01926498D01*
X01688494Y01924332D01*
X01681996D01*
X01686328D02*
X01690660Y01920000D01*
X01701490Y01932996D02*
X01697158D01*
X01694992Y01930830D01*
Y01922166D01*
X01697158Y01920000D01*
X01701490D01*
X01703656Y01922166D01*
Y01930830D01*
X01701490Y01932996D01*
X01707987Y01920000D02*
Y01932996D01*
X01716651Y01920000D01*
Y01932996D01*
X01720983D02*
X01729647D01*
X01725315D01*
Y01920000D01*
X01477664Y01932996D02*
X01469000D01*
Y01926498D01*
X01473332D01*
X01469000D01*
Y01920000D01*
X01481996D02*
Y01932996D01*
X01488494D01*
X01490660Y01930830D01*
Y01926498D01*
X01488494Y01924332D01*
X01481996D01*
X01486328D02*
X01490660Y01920000D01*
X01501490Y01932996D02*
X01497158D01*
X01494992Y01930830D01*
Y01922166D01*
X01497158Y01920000D01*
X01501490D01*
X01503656Y01922166D01*
Y01930830D01*
X01501490Y01932996D01*
X01507987Y01920000D02*
Y01932996D01*
X01516651Y01920000D01*
Y01932996D01*
X01520983D02*
X01529647D01*
X01525315D01*
Y01920000D01*
D16*
X02900000Y02150000D02*
G03*
X02850000Y02200000I-00050000J00000000D01*
G01*
X01350000D02*
G03*
X01300000Y02150000I00000000J-00050000D01*
G01*
X02850000Y01800000D02*
G03*
X02900000Y01850000I00000000J00050000D01*
G01*
X01300000D02*
G03*
X01350000Y01800000I00050000J00000000D01*
G01*
Y02200000D02*
X02850000Y02200000D01*
X02900000Y02150000D02*
X02900000Y01850000D01*
X01350000Y01800000D02*
X02850000Y01800000D01*
X01300000Y01850000D02*
X01300000Y02150000D01*
M02*
