G04*
G04 #@! TF.GenerationSoftware,Altium Limited,Altium Designer,23.4.1 (23)*
G04*
G04 Layer_Physical_Order=2*
G04 Layer_Color=16711680*
%FSAX44Y44*%
%MOMM*%
G71*
G04*
G04 #@! TF.SameCoordinates,1AFE91A9-0CB0-4E6F-966B-FDDC03A74EF8*
G04*
G04*
G04 #@! TF.FilePolarity,Positive*
G04*
G01*
G75*
%ADD10C,0.2000*%
%ADD12C,0.4000*%
%ADD16C,0.1000*%
%ADD39C,1.5000*%
%ADD40C,1.6000*%
%ADD41R,1.6000X1.6000*%
%ADD42C,5.5000*%
%ADD43C,0.6000*%
G36*
X01931519Y02178671D02*
X01930360Y02178002D01*
X01928498Y02176140D01*
X01927182Y02173860D01*
X01926500Y02171317D01*
Y02168683D01*
X01927182Y02166140D01*
X01928498Y02163860D01*
X01930029Y02162329D01*
X01929561Y02161059D01*
X01918267D01*
X01900558Y02178768D01*
X01901044Y02179941D01*
X01931179D01*
X01931519Y02178671D01*
D02*
G37*
G36*
X02029196Y02174578D02*
X02028781Y02173860D01*
X02028100Y02171317D01*
Y02168683D01*
X02028781Y02166140D01*
X02030098Y02163860D01*
X02031960Y02161998D01*
X02034240Y02160681D01*
X02036783Y02160000D01*
X02039417D01*
X02041960Y02160681D01*
X02044240Y02161998D01*
X02045671Y02163429D01*
X02046941Y02162903D01*
Y02159501D01*
X02044499Y02157059D01*
X01954944D01*
X01954458Y02158232D01*
X01957322Y02161096D01*
X01958040Y02160681D01*
X01960583Y02160000D01*
X01963217D01*
X01965760Y02160681D01*
X01968040Y02161998D01*
X01969902Y02163860D01*
X01971219Y02166140D01*
X01971900Y02168683D01*
Y02171317D01*
X01971219Y02173860D01*
X01969902Y02176140D01*
X01968040Y02178002D01*
X01966881Y02178671D01*
X01967221Y02179941D01*
X01973033D01*
X01978396Y02174578D01*
X01977982Y02173860D01*
X01977300Y02171317D01*
Y02168683D01*
X01977982Y02166140D01*
X01979298Y02163860D01*
X01981160Y02161998D01*
X01983440Y02160681D01*
X01985983Y02160000D01*
X01988616D01*
X01991160Y02160681D01*
X01993440Y02161998D01*
X01995302Y02163860D01*
X01996618Y02166140D01*
X01997300Y02168683D01*
Y02171317D01*
X01996618Y02173860D01*
X01995302Y02176140D01*
X01993440Y02178002D01*
X01991160Y02179319D01*
X01988616Y02180000D01*
X01985983D01*
X01983440Y02179319D01*
X01982722Y02178904D01*
X01977858Y02183768D01*
X01978344Y02184941D01*
X01993433D01*
X02003796Y02174578D01*
X02003382Y02173860D01*
X02002700Y02171317D01*
Y02168683D01*
X02003382Y02166140D01*
X02004698Y02163860D01*
X02006560Y02161998D01*
X02008840Y02160681D01*
X02011384Y02160000D01*
X02014017D01*
X02016560Y02160681D01*
X02018840Y02161998D01*
X02020702Y02163860D01*
X02022018Y02166140D01*
X02022700Y02168683D01*
Y02171317D01*
X02022018Y02173860D01*
X02020702Y02176140D01*
X02018840Y02178002D01*
X02016560Y02179319D01*
X02014017Y02180000D01*
X02011384D01*
X02008840Y02179319D01*
X02008122Y02178904D01*
X01997354Y02189671D01*
X01997881Y02190941D01*
X02012833D01*
X02029196Y02174578D01*
D02*
G37*
G36*
X01883442Y02153232D02*
X01882956Y02152059D01*
X01860267D01*
X01849163Y02163163D01*
X01848170Y02163826D01*
X01847000Y02164059D01*
X01847000Y02164059D01*
X01840447D01*
X01839976Y02164671D01*
X01840594Y02165941D01*
X01870733D01*
X01883442Y02153232D01*
D02*
G37*
G36*
X02138837Y02120837D02*
X02138837Y02120837D01*
X02139830Y02120174D01*
X02141000Y02119941D01*
X02260000D01*
X02260000Y02119941D01*
X02261171Y02120174D01*
X02262163Y02120837D01*
X02293267Y02151941D01*
X02299406D01*
X02300024Y02150671D01*
X02299553Y02150059D01*
X02298000D01*
X02298000Y02150059D01*
X02296829Y02149826D01*
X02295837Y02149163D01*
X02295837Y02149163D01*
X02289837Y02143163D01*
X02289174Y02142171D01*
X02288941Y02141000D01*
X02288941Y02141000D01*
Y02128000D01*
X02288941Y02128000D01*
X02289174Y02126830D01*
X02289837Y02125837D01*
X02296837Y02118837D01*
X02296837Y02118837D01*
X02297598Y02118329D01*
X02297441Y02117196D01*
X02297387Y02117059D01*
X02128267D01*
X02110000Y02135326D01*
Y02136995D01*
X02109239Y02138832D01*
X02107832Y02140239D01*
X02105995Y02141000D01*
X02104005D01*
X02102168Y02140239D01*
X02100761Y02138832D01*
X02100000Y02136995D01*
Y02135005D01*
X02100761Y02133168D01*
X02102168Y02131761D01*
X02104005Y02131000D01*
X02105674D01*
X02124837Y02111837D01*
X02124837Y02111837D01*
X02125829Y02111174D01*
X02127000Y02110941D01*
X02369000D01*
X02369000Y02110941D01*
X02370130Y02110009D01*
X02369278Y02109059D01*
X02007267D01*
X02000059Y02116267D01*
Y02131000D01*
X02000059Y02131000D01*
X01999826Y02132171D01*
X01999163Y02133163D01*
X01982558Y02149768D01*
X01983044Y02150941D01*
X02045766D01*
X02045766Y02150941D01*
X02046937Y02151174D01*
X02047929Y02151837D01*
X02052163Y02156071D01*
X02052163Y02156071D01*
X02052826Y02157063D01*
X02053059Y02158234D01*
X02053059Y02158234D01*
Y02158913D01*
X02053500Y02160000D01*
X02073500D01*
Y02166941D01*
X02092733D01*
X02138837Y02120837D01*
D02*
G37*
G36*
X02335345Y02140329D02*
X02334819Y02139059D01*
X02315000D01*
X02315000Y02139059D01*
X02313829Y02138826D01*
X02312837Y02138163D01*
X02312837Y02138163D01*
X02309674Y02135000D01*
X02308005D01*
X02306168Y02134239D01*
X02304761Y02132832D01*
X02304000Y02130995D01*
Y02129005D01*
X02304761Y02127168D01*
X02306168Y02125761D01*
X02307212Y02125329D01*
X02306959Y02124059D01*
X02300267D01*
X02295059Y02129267D01*
Y02139733D01*
X02298878Y02143553D01*
X02300376D01*
X02301168Y02142761D01*
X02303005Y02142000D01*
X02304995D01*
X02306832Y02142761D01*
X02308239Y02144168D01*
X02309000Y02146005D01*
Y02147995D01*
X02308239Y02149832D01*
X02307400Y02150671D01*
X02307926Y02151941D01*
X02323733D01*
X02335345Y02140329D01*
D02*
G37*
G36*
X02144346Y02127329D02*
X02143819Y02126059D01*
X02142267D01*
X02096163Y02172163D01*
X02095170Y02172826D01*
X02094000Y02173059D01*
X02094000Y02173059D01*
X02073500D01*
Y02180000D01*
X02057298D01*
X02056780Y02181185D01*
X02057390Y02181941D01*
X02089733D01*
X02144346Y02127329D01*
D02*
G37*
G36*
X02370441Y02132804D02*
X02370598Y02131671D01*
X02369837Y02131163D01*
X02362733Y02124059D01*
X02311041D01*
X02310788Y02125329D01*
X02311832Y02125761D01*
X02313239Y02127168D01*
X02314000Y02129005D01*
Y02130674D01*
X02316267Y02132941D01*
X02370387D01*
X02370441Y02132804D01*
D02*
G37*
G36*
X01983941Y02128733D02*
Y02112000D01*
X01983941Y02112000D01*
X01984174Y02110829D01*
X01984837Y02109837D01*
X02000837Y02093837D01*
X02000837Y02093837D01*
X02001510Y02093388D01*
X02001127Y02092118D01*
X01991534D01*
X01974118Y02109534D01*
Y02128804D01*
X01974402Y02129088D01*
X01975455Y02130912D01*
X01976000Y02132947D01*
Y02134878D01*
X01976427Y02135202D01*
X01977203Y02135472D01*
X01983941Y02128733D01*
D02*
G37*
G36*
X02403191Y02103671D02*
X02402674Y02103326D01*
X02388000Y02088651D01*
X02385326Y02091326D01*
X02383341Y02092652D01*
X02381200Y02093078D01*
X02380883Y02093638D01*
X02380713Y02094388D01*
X02391267Y02104941D01*
X02402806D01*
X02403191Y02103671D01*
D02*
G37*
G36*
X02236184Y02034062D02*
X02235764Y02032494D01*
Y02029993D01*
X02236411Y02027577D01*
X02236726Y02027032D01*
X02232753Y02023059D01*
X02161782D01*
X02161256Y02024329D01*
X02162338Y02025410D01*
X02163589Y02027577D01*
X02163751Y02028185D01*
X02227243D01*
X02227244Y02028185D01*
X02228414Y02028418D01*
X02229406Y02029081D01*
X02235046Y02034720D01*
X02236184Y02034062D01*
D02*
G37*
G36*
X02035818Y02032697D02*
X02035764Y02032494D01*
Y02029993D01*
X02036411Y02027577D01*
X02036726Y02027032D01*
X02032753Y02023059D01*
X01961782D01*
X01961256Y02024329D01*
X01962338Y02025410D01*
X01963589Y02027577D01*
X01963751Y02028185D01*
X02028243D01*
X02028244Y02028185D01*
X02029414Y02028418D01*
X02030406Y02029081D01*
X02034680Y02033354D01*
X02035818Y02032697D01*
D02*
G37*
G36*
X01714477Y02033671D02*
X01714081Y02033406D01*
X01701733Y02021059D01*
X01658338D01*
X01658170Y02022329D01*
X01658403Y02022391D01*
X01660569Y02023642D01*
X01662338Y02025410D01*
X01663588Y02027577D01*
X01663751Y02028185D01*
X01698243D01*
X01698244Y02028185D01*
X01699414Y02028418D01*
X01700406Y02029081D01*
X01706267Y02034941D01*
X01714092D01*
X01714477Y02033671D01*
D02*
G37*
G36*
X02146198Y02035456D02*
X02145883Y02034910D01*
X02145236Y02032494D01*
Y02029993D01*
X02145883Y02027577D01*
X02147134Y02025410D01*
X02148216Y02024329D01*
X02147690Y02023059D01*
X02145267D01*
X02134919Y02033406D01*
X02133927Y02034070D01*
X02132756Y02034302D01*
X02132756Y02034302D01*
X02054280D01*
X02054117Y02034910D01*
X02052866Y02037077D01*
X02051097Y02038845D01*
X02048931Y02040096D01*
X02046785Y02040671D01*
X02046952Y02041941D01*
X02139713D01*
X02146198Y02035456D01*
D02*
G37*
G36*
X01736411Y02027577D02*
X01737662Y02025410D01*
X01738744Y02024329D01*
X01738218Y02023059D01*
X01725000D01*
X01725000Y02023059D01*
X01723829Y02022826D01*
X01722837Y02022163D01*
X01710363Y02009689D01*
X01654417D01*
X01654254Y02010297D01*
X01653003Y02012463D01*
X01651795Y02013671D01*
X01652321Y02014941D01*
X01703000D01*
X01703000Y02014941D01*
X01704171Y02015174D01*
X01705163Y02015837D01*
X01717511Y02028185D01*
X01736249D01*
X01736411Y02027577D01*
D02*
G37*
G36*
X02646198Y02035456D02*
X02645883Y02034910D01*
X02645236Y02032494D01*
Y02029993D01*
X02645883Y02027577D01*
X02647134Y02025410D01*
X02648903Y02023642D01*
X02651069Y02022391D01*
X02651301Y02022329D01*
X02651134Y02021059D01*
X02647267D01*
X02636163Y02032163D01*
X02635171Y02032826D01*
X02634000Y02033059D01*
X02634000Y02033059D01*
X02554613D01*
X02554117Y02034910D01*
X02552866Y02037077D01*
X02551271Y02038671D01*
X02551518Y02039941D01*
X02641712D01*
X02646198Y02035456D01*
D02*
G37*
G36*
X01646198D02*
X01645883Y02034910D01*
X01645236Y02032494D01*
Y02029993D01*
X01645883Y02027577D01*
X01647134Y02025410D01*
X01648903Y02023642D01*
X01651069Y02022391D01*
X01651301Y02022329D01*
X01651134Y02021059D01*
X01649267D01*
X01636919Y02033406D01*
X01635927Y02034070D01*
X01634756Y02034302D01*
X01634756Y02034302D01*
X01554280D01*
X01554117Y02034910D01*
X01552866Y02037077D01*
X01551097Y02038845D01*
X01548931Y02040096D01*
X01546515Y02040744D01*
X01544013D01*
X01542445Y02040323D01*
X01541788Y02041462D01*
X01544267Y02043941D01*
X01637712D01*
X01646198Y02035456D01*
D02*
G37*
G36*
X02141837Y02017837D02*
X02141837Y02017837D01*
X02142829Y02017174D01*
X02143008Y02017139D01*
X02143050Y02015835D01*
X02141734Y02015483D01*
X02141189Y02015168D01*
X02134194Y02022163D01*
X02133202Y02022826D01*
X02132031Y02023059D01*
X02132031Y02023059D01*
X02052310D01*
X02051784Y02024329D01*
X02052866Y02025410D01*
X02054117Y02027577D01*
X02054280Y02028185D01*
X02131489D01*
X02141837Y02017837D01*
D02*
G37*
G36*
X02642774Y02016900D02*
X02642446Y02015673D01*
X02641734Y02015483D01*
X02641189Y02015168D01*
X02636194Y02020163D01*
X02635202Y02020826D01*
X02634031Y02021059D01*
X02634031Y02021059D01*
X02548866D01*
X02548699Y02022329D01*
X02548931Y02022391D01*
X02551097Y02023642D01*
X02552866Y02025410D01*
X02553750Y02026941D01*
X02632733D01*
X02642774Y02016900D01*
D02*
G37*
G36*
X01644393Y02017282D02*
X01643833Y02016045D01*
X01641734Y02015483D01*
X01641189Y02015168D01*
X01636194Y02020163D01*
X01635202Y02020826D01*
X01634031Y02021059D01*
X01634031Y02021059D01*
X01548866D01*
X01548699Y02022329D01*
X01548931Y02022391D01*
X01551097Y02023642D01*
X01552866Y02025410D01*
X01554117Y02027577D01*
X01554280Y02028185D01*
X01633490D01*
X01644393Y02017282D01*
D02*
G37*
G36*
X02548205Y02013671D02*
X02546997Y02012463D01*
X02545746Y02010297D01*
X02545583Y02009689D01*
X02463630D01*
X02463630Y02009689D01*
X02462460Y02009456D01*
X02461467Y02008793D01*
X02461467Y02008793D01*
X02455543Y02002869D01*
X02454405Y02003527D01*
X02454901Y02005379D01*
Y02007881D01*
X02454254Y02010297D01*
X02453939Y02010842D01*
X02456038Y02012941D01*
X02484000D01*
X02484000Y02012941D01*
X02485170Y02013174D01*
X02486163Y02013837D01*
X02487267Y02014941D01*
X02547679D01*
X02548205Y02013671D01*
D02*
G37*
G36*
X01812691Y02035053D02*
Y02013161D01*
X01812076Y02012838D01*
X01811421Y02012776D01*
X01811163Y02013163D01*
X01811163Y02013163D01*
X01790919Y02033406D01*
X01789927Y02034070D01*
X01788756Y02034302D01*
X01788756Y02034302D01*
X01754280D01*
X01754117Y02034910D01*
X01752866Y02037077D01*
X01751097Y02038845D01*
X01748931Y02040096D01*
X01746515Y02040744D01*
X01744013D01*
X01742445Y02040323D01*
X01741788Y02041462D01*
X01743267Y02042941D01*
X01804803D01*
X01812691Y02035053D01*
D02*
G37*
G36*
X01983345Y02015671D02*
X01977363Y02009689D01*
X01954417D01*
X01954254Y02010297D01*
X01953003Y02012463D01*
X01951234Y02014232D01*
X01949068Y02015483D01*
X01948365Y02015671D01*
X01948532Y02016941D01*
X01982819D01*
X01983345Y02015671D01*
D02*
G37*
G36*
X01805941Y02009733D02*
Y01936000D01*
X01805941Y01936000D01*
X01806174Y01934830D01*
X01806837Y01933837D01*
X01818837Y01921837D01*
X01818837Y01921837D01*
X01819829Y01921174D01*
X01821000Y01920941D01*
X01889000D01*
X01889000Y01920941D01*
X01890170Y01921174D01*
X01891163Y01921837D01*
X01905163Y01935837D01*
X01905163Y01935837D01*
X01905826Y01936830D01*
X01906059Y01938000D01*
Y02001733D01*
X01921267Y02016941D01*
X01942271D01*
X01942438Y02015671D01*
X01941734Y02015483D01*
X01939568Y02014232D01*
X01937799Y02012463D01*
X01936549Y02010297D01*
X01936386Y02009689D01*
X01926630D01*
X01926630Y02009689D01*
X01925460Y02009456D01*
X01924467Y02008793D01*
X01924467Y02008793D01*
X01912837Y01997163D01*
X01912174Y01996171D01*
X01911941Y01995000D01*
X01911941Y01995000D01*
Y01934267D01*
X01893733Y01916059D01*
X01816267D01*
X01802059Y01930267D01*
Y02001000D01*
X01802059Y02001000D01*
X01801826Y02002171D01*
X01801163Y02003163D01*
X01801163Y02003163D01*
X01782163Y02022163D01*
X01781171Y02022826D01*
X01780000Y02023059D01*
X01780000Y02023059D01*
X01752310D01*
X01751784Y02024329D01*
X01752866Y02025410D01*
X01754117Y02027577D01*
X01754280Y02028185D01*
X01787489D01*
X01805941Y02009733D01*
D02*
G37*
G36*
X02024630Y02009689D02*
X02024630Y02009689D01*
X02023460Y02009456D01*
X02022467Y02008793D01*
X02015733Y02002059D01*
X01957000D01*
X01957000Y02002059D01*
X01955829Y02001826D01*
X01954837Y02001163D01*
X01954467Y02000793D01*
X01953451Y02001573D01*
X01954254Y02002963D01*
X01954417Y02003571D01*
X01978630D01*
X01978630Y02003571D01*
X01979801Y02003804D01*
X01980793Y02004467D01*
X01987267Y02010941D01*
X02024588D01*
X02024630Y02009689D01*
D02*
G37*
G36*
X01751635Y02015671D02*
X01750932Y02015483D01*
X01748766Y02014232D01*
X01746997Y02012463D01*
X01745746Y02010297D01*
X01745583Y02009689D01*
X01730630D01*
X01729460Y02009456D01*
X01728467Y02008793D01*
X01728467Y02008793D01*
X01722548Y02002874D01*
X01713694D01*
X01713309Y02004144D01*
X01713793Y02004467D01*
X01726267Y02016941D01*
X01751468D01*
X01751635Y02015671D01*
D02*
G37*
G36*
X02436549Y02002963D02*
X02437799Y02000797D01*
X02439268Y01999329D01*
X02438843Y01998059D01*
X02437000D01*
X02437000Y01998059D01*
X02435829Y01997826D01*
X02434837Y01997163D01*
X02434837Y01997163D01*
X02414837Y01977163D01*
X02414174Y01976171D01*
X02413941Y01975000D01*
X02413941Y01975000D01*
Y01936267D01*
X02393733Y01916059D01*
X02309267D01*
X02307600Y01917726D01*
X02307859Y01918513D01*
X02308181Y01918941D01*
X02391000D01*
X02391000Y01918941D01*
X02392171Y01919174D01*
X02393163Y01919837D01*
X02410163Y01936837D01*
X02410826Y01937829D01*
X02411059Y01939000D01*
X02411059Y01939000D01*
Y01984733D01*
X02429897Y02003571D01*
X02436386D01*
X02436549Y02002963D01*
D02*
G37*
G36*
X02580837Y01990837D02*
X02581830Y01990174D01*
X02583000Y01989941D01*
X02583000Y01989941D01*
X02643390D01*
X02643730Y01988671D01*
X02642740Y01988100D01*
X02640972Y01986331D01*
X02639721Y01984165D01*
X02639074Y01981749D01*
Y01979247D01*
X02639721Y01976831D01*
X02640036Y01976286D01*
X02628837Y01965087D01*
X02628174Y01964095D01*
X02627941Y01962924D01*
X02627941Y01962924D01*
Y01925267D01*
X02623733Y01921059D01*
X02580267D01*
X02575059Y01926267D01*
Y01986000D01*
X02575059Y01986000D01*
X02574826Y01987171D01*
X02574163Y01988163D01*
X02574163Y01988163D01*
X02568163Y01994163D01*
X02567170Y01994826D01*
X02566000Y01995059D01*
X02566000Y01995059D01*
X02553267D01*
X02552204Y01996122D01*
X02552861Y01997261D01*
X02553348Y01997130D01*
X02555849D01*
X02558266Y01997778D01*
X02560432Y01999028D01*
X02562201Y02000797D01*
X02563451Y02002963D01*
X02563614Y02003571D01*
X02568103D01*
X02580837Y01990837D01*
D02*
G37*
G36*
X02136864Y02010842D02*
X02136549Y02010297D01*
X02135901Y02007881D01*
Y02005379D01*
X02136549Y02002963D01*
X02137799Y02000797D01*
X02139568Y01999028D01*
X02140780Y01998329D01*
X02140439Y01997059D01*
X02093267D01*
X02082163Y02008163D01*
X02081171Y02008826D01*
X02080000Y02009059D01*
X02080000Y02009059D01*
X02063783D01*
X02063451Y02010297D01*
X02062201Y02012463D01*
X02060432Y02014232D01*
X02058266Y02015483D01*
X02057562Y02015671D01*
X02057729Y02016941D01*
X02130764D01*
X02136864Y02010842D01*
D02*
G37*
G36*
X02636863D02*
X02636549Y02010297D01*
X02635901Y02007881D01*
Y02005379D01*
X02636549Y02002963D01*
X02637799Y02000797D01*
X02639568Y01999028D01*
X02641734Y01997778D01*
X02643409Y01997329D01*
X02643242Y01996059D01*
X02584267D01*
X02571533Y02008793D01*
X02570540Y02009456D01*
X02569370Y02009689D01*
X02569370Y02009689D01*
X02563614D01*
X02563451Y02010297D01*
X02562201Y02012463D01*
X02560993Y02013671D01*
X02561519Y02014941D01*
X02632764D01*
X02636863Y02010842D01*
D02*
G37*
G36*
X01636864D02*
X01636549Y02010297D01*
X01635901Y02007881D01*
Y02005379D01*
X01636549Y02002963D01*
X01637799Y02000797D01*
X01639568Y01999028D01*
X01641734Y01997778D01*
X01643409Y01997329D01*
X01643242Y01996059D01*
X01569496D01*
X01563136Y02002418D01*
X01563451Y02002963D01*
X01564099Y02005379D01*
Y02007881D01*
X01563451Y02010297D01*
X01562201Y02012463D01*
X01560993Y02013671D01*
X01561519Y02014941D01*
X01632764D01*
X01636864Y02010842D01*
D02*
G37*
G36*
X02544601Y02003329D02*
X02544155Y02002318D01*
X02543808Y02002059D01*
X02467076D01*
X02465905Y02001826D01*
X02464913Y02001163D01*
X02464913Y02001163D01*
X02452786Y01989036D01*
X02452240Y01989350D01*
X02449824Y01989998D01*
X02447323D01*
X02444907Y01989350D01*
X02442741Y01988100D01*
X02440972Y01986331D01*
X02439721Y01984165D01*
X02439074Y01981749D01*
Y01979247D01*
X02439721Y01976831D01*
X02440036Y01976286D01*
X02428837Y01965087D01*
X02428174Y01964095D01*
X02427941Y01962924D01*
X02427941Y01962924D01*
Y01934267D01*
X02402733Y01909059D01*
X02396613D01*
X02396559Y01909196D01*
X02396402Y01910329D01*
X02397163Y01910837D01*
X02419163Y01932837D01*
X02419163Y01932837D01*
X02419826Y01933829D01*
X02420059Y01935000D01*
Y01973733D01*
X02438267Y01991941D01*
X02452000D01*
X02452000Y01991941D01*
X02453170Y01992174D01*
X02454163Y01992837D01*
X02464897Y02003571D01*
X02544413D01*
X02544601Y02003329D01*
D02*
G37*
G36*
X02548884Y01990790D02*
X02548555Y01989564D01*
X02547759Y01989350D01*
X02547214Y01989036D01*
X02543087Y01993163D01*
X02542095Y01993826D01*
X02540924Y01994059D01*
X02540924Y01994059D01*
X02477000D01*
X02477000Y01994059D01*
X02475829Y01993826D01*
X02474837Y01993163D01*
X02474837Y01993163D01*
X02458827Y01977153D01*
X02457689Y01977811D01*
X02458074Y01979247D01*
Y01981749D01*
X02457426Y01984165D01*
X02457112Y01984710D01*
X02468343Y01995941D01*
X02543733D01*
X02548884Y01990790D01*
D02*
G37*
G36*
X02247087Y01991587D02*
X02248080Y01990924D01*
X02248450Y01990850D01*
X02248493Y01989547D01*
X02247760Y01989350D01*
X02247214Y01989036D01*
X02243087Y01993163D01*
X02242095Y01993826D01*
X02240924Y01994059D01*
X02240924Y01994059D01*
X02178000D01*
X02176829Y01993826D01*
X02175837Y01993163D01*
X02175837Y01993163D01*
X02158056Y01975382D01*
X02157040Y01976162D01*
X02157426Y01976831D01*
X02158074Y01979247D01*
Y01981749D01*
X02157426Y01984165D01*
X02157112Y01984710D01*
X02168343Y01995941D01*
X02242733D01*
X02247087Y01991587D01*
D02*
G37*
G36*
X02045746Y02002963D02*
X02046997Y02000797D01*
X02048766Y01999028D01*
X02050932Y01997778D01*
X02053348Y01997130D01*
X02055849D01*
X02058266Y01997778D01*
X02060432Y01999028D01*
X02062201Y02000797D01*
X02063439Y02002941D01*
X02078733D01*
X02089837Y01991837D01*
X02089837Y01991837D01*
X02090829Y01991174D01*
X02092000Y01990941D01*
X02145937D01*
X02146104Y01989671D01*
X02144907Y01989350D01*
X02142741Y01988100D01*
X02140972Y01986331D01*
X02139721Y01984165D01*
X02139558Y01983557D01*
X02081769D01*
X02071163Y01994163D01*
X02070170Y01994826D01*
X02069000Y01995059D01*
X02069000Y01995059D01*
X02051267D01*
X02050163Y01996163D01*
X02049171Y01996826D01*
X02048000Y01997059D01*
X02048000Y01997059D01*
X02021044D01*
X02020558Y01998232D01*
X02025897Y02003571D01*
X02045583D01*
X02045746Y02002963D01*
D02*
G37*
G36*
X01566066Y01990837D02*
X01567058Y01990174D01*
X01568229Y01989941D01*
X01568229Y01989941D01*
X01643390D01*
X01643730Y01988671D01*
X01642741Y01988100D01*
X01640972Y01986331D01*
X01639721Y01984165D01*
X01639558Y01983557D01*
X01570769D01*
X01559163Y01995163D01*
X01558171Y01995826D01*
X01557000Y01996059D01*
X01556980Y01996118D01*
X01557782Y01997648D01*
X01558266Y01997778D01*
X01558811Y01998092D01*
X01566066Y01990837D01*
D02*
G37*
G36*
X02542888Y01984710D02*
X02542574Y01984165D01*
X02541926Y01981749D01*
Y01979247D01*
X02542311Y01977811D01*
X02541173Y01977153D01*
X02538163Y01980163D01*
X02537171Y01980826D01*
X02536000Y01981059D01*
X02536000Y01981059D01*
X02482694D01*
X02482694Y01981059D01*
X02481523Y01980826D01*
X02480531Y01980163D01*
X02480531Y01980163D01*
X02467739Y01967371D01*
X02467194Y01967686D01*
X02464778Y01968333D01*
X02462276D01*
X02459860Y01967686D01*
X02459736Y01967614D01*
X02458956Y01968630D01*
X02478267Y01987941D01*
X02539657D01*
X02542888Y01984710D01*
D02*
G37*
G36*
X02242888D02*
X02242574Y01984165D01*
X02241926Y01981749D01*
Y01979247D01*
X02242311Y01977811D01*
X02241173Y01977153D01*
X02237163Y01981163D01*
X02236171Y01981826D01*
X02235000Y01982059D01*
X02235000Y01982059D01*
X02183694D01*
X02182523Y01981826D01*
X02181531Y01981163D01*
X02167739Y01967371D01*
X02167194Y01967686D01*
X02164778Y01968333D01*
X02162276D01*
X02161154Y01968033D01*
X02160497Y01969171D01*
X02179267Y01987941D01*
X02239657D01*
X02242888Y01984710D01*
D02*
G37*
G36*
X02042888D02*
X02042574Y01984165D01*
X02041926Y01981749D01*
Y01979247D01*
X02042574Y01976831D01*
X02042960Y01976162D01*
X02041944Y01975382D01*
X02036163Y01981163D01*
X02035170Y01981826D01*
X02034000Y01982059D01*
X02034000Y01982059D01*
X01983694D01*
X01982523Y01981826D01*
X01981531Y01981163D01*
X01967739Y01967371D01*
X01967194Y01967686D01*
X01964778Y01968333D01*
X01962276D01*
X01961154Y01968033D01*
X01960497Y01969171D01*
X01977267Y01985941D01*
X02041657D01*
X02042888Y01984710D01*
D02*
G37*
G36*
X02555689Y01970959D02*
X02555941Y01970668D01*
Y01920000D01*
X02555941Y01920000D01*
X02556174Y01918829D01*
X02556837Y01917837D01*
X02566837Y01907837D01*
X02566837Y01907837D01*
X02567830Y01907174D01*
X02569000Y01906941D01*
X02639000D01*
X02639000Y01906941D01*
X02640171Y01907174D01*
X02641163Y01907837D01*
X02648163Y01914837D01*
X02648826Y01915829D01*
X02649059Y01917000D01*
Y01956733D01*
X02653002Y01960676D01*
X02653010Y01960671D01*
X02654027Y01959905D01*
Y01957583D01*
X02654674Y01955166D01*
X02655925Y01953000D01*
X02657694Y01951231D01*
X02659860Y01949981D01*
X02660468Y01949818D01*
Y01918794D01*
X02646733Y01905059D01*
X02565267D01*
X02553059Y01917267D01*
Y01964000D01*
X02553059Y01964000D01*
X02552826Y01965170D01*
X02552163Y01966163D01*
X02552163Y01966163D01*
X02548082Y01970244D01*
X02548739Y01971383D01*
X02550176Y01970998D01*
X02552677D01*
X02554671Y01971532D01*
X02555689Y01970959D01*
D02*
G37*
G36*
X02258941Y01968657D02*
Y01923000D01*
X02258941Y01923000D01*
X02259174Y01921830D01*
X02259837Y01920837D01*
X02284837Y01895837D01*
X02284837Y01895837D01*
X02285829Y01895174D01*
X02287000Y01894941D01*
X02287000Y01894941D01*
X02413000D01*
X02413000Y01894941D01*
X02414171Y01895174D01*
X02415163Y01895837D01*
X02452163Y01932837D01*
X02452826Y01933829D01*
X02453059Y01935000D01*
X02453059Y01935000D01*
Y01956288D01*
X02454329Y01956456D01*
X02454674Y01955166D01*
X02455925Y01953000D01*
X02457694Y01951231D01*
X02459860Y01949981D01*
X02460468Y01949818D01*
Y01933794D01*
X02417733Y01891059D01*
X02280267D01*
X02253059Y01918267D01*
Y01964000D01*
X02253059Y01964000D01*
X02252826Y01965170D01*
X02252163Y01966163D01*
X02252163Y01966163D01*
X02248082Y01970244D01*
X02248739Y01971383D01*
X02250176Y01970998D01*
X02252677D01*
X02255093Y01971645D01*
X02255638Y01971960D01*
X02258941Y01968657D01*
D02*
G37*
G36*
X02039503Y01969171D02*
X02038846Y01968033D01*
X02037724Y01968333D01*
X02035222D01*
X02032806Y01967686D01*
X02032261Y01967371D01*
X02028469Y01971163D01*
X02027477Y01971826D01*
X02026306Y01972059D01*
X02026306Y01972059D01*
X01990000D01*
X01990000Y01972059D01*
X01988829Y01971826D01*
X01987837Y01971163D01*
X01974297Y01957623D01*
X01973027Y01958149D01*
Y01960084D01*
X01972379Y01962500D01*
X01972065Y01963045D01*
X01984961Y01975941D01*
X02032733D01*
X02039503Y01969171D01*
D02*
G37*
G36*
X01739503D02*
X01738846Y01968033D01*
X01737724Y01968333D01*
X01735222D01*
X01732806Y01967686D01*
X01732261Y01967371D01*
X01726469Y01973163D01*
X01725477Y01973826D01*
X01724306Y01974059D01*
X01724306Y01974059D01*
X01693000D01*
X01693000Y01974059D01*
X01691830Y01973826D01*
X01690837Y01973163D01*
X01674007Y01956333D01*
X01672868Y01956990D01*
X01673027Y01957583D01*
Y01960084D01*
X01672379Y01962500D01*
X01672065Y01963045D01*
X01686961Y01977941D01*
X01730733D01*
X01739503Y01969171D01*
D02*
G37*
G36*
X02241044Y01968630D02*
X02240264Y01967614D01*
X02240140Y01967686D01*
X02237724Y01968333D01*
X02235222D01*
X02232806Y01967686D01*
X02232261Y01967371D01*
X02226469Y01973163D01*
X02225477Y01973826D01*
X02224306Y01974059D01*
X02224306Y01974059D01*
X02192000D01*
X02190829Y01973826D01*
X02189837Y01973163D01*
X02189837Y01973163D01*
X02174297Y01957623D01*
X02173027Y01958149D01*
Y01960084D01*
X02172379Y01962500D01*
X02172065Y01963045D01*
X02184961Y01975941D01*
X02233733D01*
X02241044Y01968630D01*
D02*
G37*
G36*
X02541044Y01968630D02*
X02540264Y01967614D01*
X02540140Y01967686D01*
X02537724Y01968333D01*
X02535222D01*
X02532806Y01967686D01*
X02532261Y01967371D01*
X02528469Y01971163D01*
X02527477Y01971826D01*
X02526306Y01972059D01*
X02526306Y01972059D01*
X02491000D01*
X02489829Y01971826D01*
X02488837Y01971163D01*
X02488837Y01971163D01*
X02474007Y01956333D01*
X02472868Y01956990D01*
X02473027Y01957583D01*
Y01960084D01*
X02472379Y01962500D01*
X02472065Y01963045D01*
X02483961Y01974941D01*
X02534733D01*
X02541044Y01968630D01*
D02*
G37*
G36*
X01684135Y01984804D02*
X01684292Y01983671D01*
X01683531Y01983163D01*
X01683531Y01983163D01*
X01667739Y01967371D01*
X01667194Y01967686D01*
X01664778Y01968333D01*
X01662276D01*
X01659860Y01967686D01*
X01659736Y01967614D01*
X01658956Y01968630D01*
X01675267Y01984941D01*
X01684080D01*
X01684135Y01984804D01*
D02*
G37*
G36*
X02078339Y01978335D02*
X02079332Y01977672D01*
X02080502Y01977439D01*
X02080502Y01977439D01*
X02139558D01*
X02139721Y01976831D01*
X02140972Y01974665D01*
X02142741Y01972896D01*
X02144907Y01971645D01*
X02147323Y01970998D01*
X02149824D01*
X02152240Y01971645D01*
X02152910Y01972032D01*
X02153690Y01971015D01*
X02146733Y01964059D01*
X02072191D01*
X02059964Y01976286D01*
X02060279Y01976831D01*
X02060926Y01979247D01*
Y01981749D01*
X02060279Y01984165D01*
X02059028Y01986331D01*
X02057688Y01987671D01*
X02058214Y01988941D01*
X02067733D01*
X02078339Y01978335D01*
D02*
G37*
G36*
X02527935Y01963045D02*
X02527621Y01962500D01*
X02526973Y01960084D01*
Y01957583D01*
X02527132Y01956990D01*
X02525993Y01956333D01*
X02521163Y01961163D01*
X02520170Y01961826D01*
X02519000Y01962059D01*
X02519000Y01962059D01*
X02499235D01*
X02498064Y01961826D01*
X02497072Y01961163D01*
X02497072Y01961163D01*
X02491046Y01955137D01*
X02490501Y01955452D01*
X02488085Y01956099D01*
X02485583D01*
X02483722Y01955600D01*
X02483065Y01956739D01*
X02492267Y01965941D01*
X02525039D01*
X02527935Y01963045D01*
D02*
G37*
G36*
X02027935D02*
X02027621Y01962500D01*
X02026973Y01960084D01*
Y01957583D01*
X02027132Y01956990D01*
X02025993Y01956333D01*
X02021163Y01961163D01*
X02020170Y01961826D01*
X02019000Y01962059D01*
X02019000Y01962059D01*
X01999235D01*
X01998064Y01961826D01*
X01997072Y01961163D01*
X01997072Y01961163D01*
X01991046Y01955137D01*
X01990501Y01955452D01*
X01988085Y01956099D01*
X01985583D01*
X01983167Y01955452D01*
X01981762Y01954641D01*
X01980983Y01955657D01*
X01991267Y01965941D01*
X02025039D01*
X02027935Y01963045D01*
D02*
G37*
G36*
X01727935D02*
X01727621Y01962500D01*
X01726973Y01960084D01*
Y01957583D01*
X01727132Y01956990D01*
X01725993Y01956333D01*
X01720163Y01962163D01*
X01719171Y01962826D01*
X01718000Y01963059D01*
X01718000Y01963059D01*
X01700235D01*
X01700235Y01963059D01*
X01699064Y01962826D01*
X01698072Y01962163D01*
X01691046Y01955137D01*
X01690501Y01955452D01*
X01688085Y01956099D01*
X01685583D01*
X01683722Y01955600D01*
X01683065Y01956739D01*
X01694267Y01967941D01*
X01723039D01*
X01727935Y01963045D01*
D02*
G37*
G36*
X02227935D02*
X02227621Y01962500D01*
X02226973Y01960084D01*
Y01957583D01*
X02227132Y01956990D01*
X02225993Y01956333D01*
X02221163Y01961163D01*
X02220170Y01961826D01*
X02219000Y01962059D01*
X02219000Y01962059D01*
X02199235D01*
X02198064Y01961826D01*
X02197072Y01961163D01*
X02197072Y01961163D01*
X02191046Y01955137D01*
X02190501Y01955452D01*
X02188085Y01956099D01*
X02185583D01*
X02183167Y01955452D01*
X02181762Y01954641D01*
X02180983Y01955657D01*
X02193267Y01967941D01*
X02223039D01*
X02227935Y01963045D01*
D02*
G37*
G36*
X02047760Y01971645D02*
X02050176Y01970998D01*
X02052677D01*
X02055093Y01971645D01*
X02055638Y01971960D01*
X02068761Y01958837D01*
X02069754Y01958174D01*
X02070924Y01957941D01*
X02148000D01*
X02148000Y01957941D01*
X02149171Y01958174D01*
X02150163Y01958837D01*
X02153189Y01961863D01*
X02154328Y01961206D01*
X02154027Y01960084D01*
Y01957583D01*
X02154674Y01955166D01*
X02154989Y01954621D01*
X02151427Y01951059D01*
X02066267D01*
X02046310Y01971015D01*
X02047090Y01972032D01*
X02047760Y01971645D01*
D02*
G37*
G36*
X02282941Y02003733D02*
Y01944181D01*
X02282513Y01943859D01*
X02281726Y01943600D01*
X02280059Y01945267D01*
Y01998000D01*
X02280059Y01998000D01*
X02279826Y01999171D01*
X02279163Y02000163D01*
X02279163Y02000163D01*
X02272262Y02007064D01*
X02271269Y02007727D01*
X02270099Y02007960D01*
X02270099Y02007960D01*
X02264077D01*
X02263451Y02010297D01*
X02262201Y02012463D01*
X02260993Y02013671D01*
X02261519Y02014941D01*
X02271733D01*
X02282941Y02003733D01*
D02*
G37*
G36*
X02294211Y02022463D02*
Y01941911D01*
X02293783Y01941589D01*
X02292996Y01941330D01*
X02289059Y01945267D01*
Y02005000D01*
X02288826Y02006171D01*
X02288163Y02007163D01*
X02275163Y02020163D01*
X02274171Y02020826D01*
X02273000Y02021059D01*
X02273000Y02021059D01*
X02248866D01*
X02248699Y02022329D01*
X02248931Y02022391D01*
X02251097Y02023642D01*
X02252866Y02025410D01*
X02254117Y02027577D01*
X02254280Y02028185D01*
X02288489D01*
X02294211Y02022463D01*
D02*
G37*
G36*
X01984674Y02081674D02*
X01986659Y02080348D01*
X01989000Y02079883D01*
X02070959D01*
X02073300Y02080348D01*
X02074100Y02080883D01*
X02149804D01*
X02150088Y02080598D01*
X02151912Y02079545D01*
X02153947Y02079000D01*
X02156053D01*
X02158088Y02079545D01*
X02159912Y02080598D01*
X02160196Y02080883D01*
X02378466D01*
X02381882Y02077466D01*
Y02018118D01*
X02345000D01*
X02342659Y02017652D01*
X02340674Y02016326D01*
X02325674Y02001326D01*
X02324348Y01999341D01*
X02323882Y01997000D01*
Y01960902D01*
X02322325Y01960002D01*
X02319998Y01957675D01*
X02318352Y01954825D01*
X02317500Y01951646D01*
Y01948354D01*
X02318352Y01945175D01*
X02319998Y01942325D01*
X02321994Y01940329D01*
X02321525Y01939059D01*
X02320267D01*
X02309059Y01950267D01*
Y02029000D01*
X02308826Y02030171D01*
X02308163Y02031163D01*
X02308163Y02031163D01*
X02294163Y02045163D01*
X02293170Y02045826D01*
X02292000Y02046059D01*
X02292000Y02046059D01*
X02239000D01*
X02239000Y02046059D01*
X02237829Y02045826D01*
X02236837Y02045163D01*
X02236837Y02045163D01*
X02234746Y02043072D01*
X02233730Y02043852D01*
X02234412Y02045033D01*
X02235060Y02047449D01*
Y02049951D01*
X02234412Y02052367D01*
X02233161Y02054533D01*
X02231393Y02056302D01*
X02229226Y02057553D01*
X02226810Y02058200D01*
X02224309D01*
X02221893Y02057553D01*
X02219726Y02056302D01*
X02217958Y02054533D01*
X02216707Y02052367D01*
X02216060Y02049951D01*
Y02047449D01*
X02216707Y02045033D01*
X02217958Y02042867D01*
X02219726Y02041098D01*
X02221893Y02039848D01*
X02224309Y02039200D01*
X02226810D01*
X02229226Y02039848D01*
X02230408Y02040530D01*
X02231188Y02039514D01*
X02225977Y02034302D01*
X02163751D01*
X02163589Y02034910D01*
X02162338Y02037077D01*
X02160569Y02038845D01*
X02158403Y02040096D01*
X02155987Y02040744D01*
X02153485D01*
X02151069Y02040096D01*
X02150524Y02039781D01*
X02143142Y02047163D01*
X02142150Y02047826D01*
X02140979Y02048059D01*
X02140979Y02048059D01*
X02042000D01*
X02042000Y02048059D01*
X02040829Y02047826D01*
X02039837Y02047163D01*
X02039837Y02047163D01*
X02026976Y02034302D01*
X01963751D01*
X01963589Y02034910D01*
X01962338Y02037077D01*
X01960569Y02038845D01*
X01958403Y02040096D01*
X01955987Y02040744D01*
X01953485D01*
X01951069Y02040096D01*
X01948903Y02038845D01*
X01947134Y02037077D01*
X01945883Y02034910D01*
X01945720Y02034302D01*
X01919244D01*
X01918073Y02034070D01*
X01917081Y02033406D01*
X01917081Y02033406D01*
X01891837Y02008163D01*
X01891174Y02007171D01*
X01890941Y02006000D01*
X01890941Y02006000D01*
Y01946267D01*
X01879733Y01935059D01*
X01826267D01*
X01823437Y01937889D01*
X01824216Y01938905D01*
X01825175Y01938352D01*
X01828354Y01937500D01*
X01831646D01*
X01834825Y01938352D01*
X01837675Y01939998D01*
X01840002Y01942325D01*
X01841648Y01945175D01*
X01842500Y01948354D01*
Y01951646D01*
X01841648Y01954825D01*
X01840002Y01957675D01*
X01837675Y01960002D01*
X01836118Y01960902D01*
Y01982466D01*
X01843152Y01989500D01*
X01843553D01*
X01845588Y01990045D01*
X01847412Y01991098D01*
X01848902Y01992588D01*
X01849955Y01994412D01*
X01850500Y01996447D01*
Y01998553D01*
X01849955Y02000588D01*
X01848902Y02002412D01*
X01848618Y02002696D01*
Y02084966D01*
X01855534Y02091882D01*
X01959000D01*
X01961341Y02092348D01*
X01963326Y02093674D01*
X01968000Y02098349D01*
X01984674Y02081674D01*
D02*
G37*
G36*
X02208147Y01954671D02*
X02207333Y01954201D01*
X02205564Y01952432D01*
X02204313Y01950266D01*
X02203666Y01947850D01*
Y01945348D01*
X02204313Y01942932D01*
X02205564Y01940766D01*
X02207333Y01938997D01*
X02209499Y01937746D01*
X02210107Y01937584D01*
Y01898433D01*
X02186733Y01875059D01*
X02061599D01*
X02016225Y01920433D01*
Y01937584D01*
X02016833Y01937746D01*
X02018999Y01938997D01*
X02020768Y01940766D01*
X02022018Y01942932D01*
X02022666Y01945348D01*
Y01947850D01*
X02022167Y01949711D01*
X02023306Y01950368D01*
X02056837Y01916837D01*
X02057829Y01916174D01*
X02059000Y01915941D01*
X02160000D01*
X02160000Y01915941D01*
X02161171Y01916174D01*
X02162163Y01916837D01*
X02183107Y01937781D01*
X02183167Y01937746D01*
X02185583Y01937099D01*
X02188085D01*
X02190501Y01937746D01*
X02192667Y01938997D01*
X02194436Y01940766D01*
X02195687Y01942932D01*
X02196334Y01945348D01*
Y01947850D01*
X02195687Y01950266D01*
X02195372Y01950811D01*
X02200502Y01955941D01*
X02207807D01*
X02208147Y01954671D01*
D02*
G37*
G36*
X01567339Y01978335D02*
X01567339Y01978335D01*
X01568332Y01977672D01*
X01569502Y01977439D01*
X01639558D01*
X01639721Y01976831D01*
X01640972Y01974665D01*
X01642741Y01972896D01*
X01644907Y01971645D01*
X01647323Y01970998D01*
X01649824D01*
X01651261Y01971383D01*
X01651918Y01970244D01*
X01648193Y01966519D01*
X01647530Y01965526D01*
X01647297Y01964356D01*
X01647297Y01964356D01*
Y01940623D01*
X01643733Y01937059D01*
X01572267D01*
X01565059Y01944267D01*
Y01969924D01*
X01565059Y01969924D01*
X01564826Y01971095D01*
X01564163Y01972087D01*
X01564163Y01972087D01*
X01559964Y01976286D01*
X01560279Y01976831D01*
X01560926Y01979247D01*
Y01981749D01*
X01560486Y01983392D01*
X01561624Y01984050D01*
X01567339Y01978335D01*
D02*
G37*
G36*
X02445883Y02027577D02*
X02447134Y02025410D01*
X02448216Y02024329D01*
X02447690Y02023059D01*
X02429000D01*
X02427829Y02022826D01*
X02426837Y02022163D01*
X02426837Y02022163D01*
X02397837Y01993163D01*
X02397174Y01992171D01*
X02396941Y01991000D01*
X02396941Y01991000D01*
Y01948267D01*
X02383217Y01934543D01*
X02382736Y01934614D01*
X02382290Y01935964D01*
X02392163Y01945837D01*
X02392163Y01945837D01*
X02392826Y01946830D01*
X02393059Y01948000D01*
Y01990733D01*
X02430511Y02028185D01*
X02445720D01*
X02445883Y02027577D01*
D02*
G37*
G36*
X02302941Y02027733D02*
Y01949000D01*
X02302941Y01949000D01*
X02303174Y01947829D01*
X02303837Y01946837D01*
X02315442Y01935232D01*
X02314956Y01934059D01*
X02309267D01*
X02300329Y01942997D01*
Y02023730D01*
X02300096Y02024901D01*
X02299433Y02025893D01*
X02291919Y02033406D01*
X02290927Y02034070D01*
X02289756Y02034302D01*
X02289756Y02034302D01*
X02254280D01*
X02254117Y02034910D01*
X02252866Y02037077D01*
X02251271Y02038671D01*
X02251518Y02039941D01*
X02290733D01*
X02302941Y02027733D01*
D02*
G37*
G36*
X02062837Y01945837D02*
X02063829Y01945174D01*
X02065000Y01944941D01*
X02152694D01*
X02152694Y01944941D01*
X02153864Y01945174D01*
X02154857Y01945837D01*
X02159315Y01950295D01*
X02159860Y01949981D01*
X02162276Y01949333D01*
X02164211D01*
X02164737Y01948063D01*
X02149733Y01933059D01*
X02066573D01*
X02045011Y01954621D01*
X02045326Y01955166D01*
X02045973Y01957583D01*
Y01960084D01*
X02045672Y01961206D01*
X02046811Y01961863D01*
X02062837Y01945837D01*
D02*
G37*
G36*
X01945883Y02027577D02*
X01947134Y02025410D01*
X01948216Y02024329D01*
X01947690Y02023059D01*
X01920000D01*
X01918829Y02022826D01*
X01917837Y02022163D01*
X01917837Y02022163D01*
X01900837Y02005163D01*
X01900174Y02004171D01*
X01899941Y02003000D01*
X01899941Y02003000D01*
Y01939267D01*
X01887733Y01927059D01*
X01822267D01*
X01812059Y01937267D01*
Y01939088D01*
X01813329Y01939474D01*
X01813587Y01939087D01*
X01822837Y01929837D01*
X01822837Y01929837D01*
X01823829Y01929174D01*
X01825000Y01928941D01*
X01825000Y01928941D01*
X01881000D01*
X01881000Y01928941D01*
X01882171Y01929174D01*
X01883163Y01929837D01*
X01896163Y01942837D01*
X01896826Y01943829D01*
X01897059Y01945000D01*
Y02004733D01*
X01920511Y02028185D01*
X01945720D01*
X01945883Y02027577D01*
D02*
G37*
G36*
X02442438Y02015671D02*
X02441734Y02015483D01*
X02439568Y02014232D01*
X02437799Y02012463D01*
X02436549Y02010297D01*
X02436386Y02009689D01*
X02428630D01*
X02427460Y02009456D01*
X02426467Y02008793D01*
X02426467Y02008793D01*
X02405837Y01988163D01*
X02405174Y01987171D01*
X02404941Y01986000D01*
X02404941Y01986000D01*
Y01940267D01*
X02389733Y01925059D01*
X02309267D01*
X02307600Y01926726D01*
X02307859Y01927513D01*
X02308181Y01927941D01*
X02384000D01*
X02384000Y01927941D01*
X02385170Y01928174D01*
X02386163Y01928837D01*
X02402163Y01944837D01*
X02402826Y01945829D01*
X02403059Y01947000D01*
X02403059Y01947000D01*
Y01989733D01*
X02430267Y02016941D01*
X02442271D01*
X02442438Y02015671D01*
D02*
G37*
G36*
X02178793Y01951671D02*
X02177982Y01950266D01*
X02177334Y01947850D01*
Y01945348D01*
X02177982Y01942932D01*
X02178576Y01941902D01*
X02158733Y01922059D01*
X02060267D01*
X02033972Y01948353D01*
X02034630Y01949492D01*
X02035222Y01949333D01*
X02037724D01*
X02040140Y01949981D01*
X02040685Y01950295D01*
X02063143Y01927837D01*
X02063143Y01927837D01*
X02064136Y01927174D01*
X02065306Y01926941D01*
X02151000D01*
X02151000Y01926941D01*
X02152171Y01927174D01*
X02153163Y01927837D01*
X02177776Y01952451D01*
X02178793Y01951671D01*
D02*
G37*
G36*
X01547760Y01971645D02*
X01550176Y01970998D01*
X01552677D01*
X01555093Y01971645D01*
X01555638Y01971960D01*
X01558941Y01968657D01*
Y01943000D01*
X01558941Y01943000D01*
X01559174Y01941830D01*
X01559837Y01940837D01*
X01568837Y01931837D01*
X01568837Y01931837D01*
X01569829Y01931174D01*
X01571000Y01930941D01*
X01645000D01*
X01645000Y01930941D01*
X01646171Y01931174D01*
X01647163Y01931837D01*
X01652519Y01937193D01*
X01652519Y01937193D01*
X01653182Y01938185D01*
X01653415Y01939356D01*
X01653415Y01939356D01*
Y01954960D01*
X01654674Y01955166D01*
X01655925Y01953000D01*
X01657694Y01951231D01*
X01659860Y01949981D01*
X01660468Y01949818D01*
Y01935794D01*
X01651561Y01926887D01*
X01562439D01*
X01555059Y01934267D01*
Y01961000D01*
X01555059Y01961000D01*
X01554826Y01962171D01*
X01554163Y01963163D01*
X01546310Y01971015D01*
X01547090Y01972032D01*
X01547760Y01971645D01*
D02*
G37*
G36*
X01548941Y01959733D02*
Y01933000D01*
X01548941Y01933000D01*
X01549174Y01931830D01*
X01549837Y01930837D01*
X01559009Y01921666D01*
X01559009Y01921665D01*
X01560001Y01921003D01*
X01561172Y01920770D01*
X01561172Y01920770D01*
X01652828D01*
X01652828Y01920770D01*
X01653999Y01921003D01*
X01654991Y01921665D01*
X01665690Y01932364D01*
X01666353Y01933356D01*
X01666586Y01934527D01*
X01666586Y01934527D01*
Y01949818D01*
X01667194Y01949981D01*
X01669360Y01951231D01*
X01669671Y01951543D01*
X01670941Y01951017D01*
Y01924267D01*
X01663733Y01917059D01*
X01547267D01*
X01539532Y01924794D01*
Y01949818D01*
X01540140Y01949981D01*
X01542306Y01951231D01*
X01544075Y01953000D01*
X01545326Y01955166D01*
X01545973Y01957583D01*
Y01960084D01*
X01545672Y01961206D01*
X01546811Y01961863D01*
X01548941Y01959733D01*
D02*
G37*
G36*
X02274837Y01941837D02*
X02305837Y01910837D01*
X02306598Y01910329D01*
X02306441Y01909196D01*
X02306387Y01909059D01*
X02299267D01*
X02273059Y01935267D01*
Y01942387D01*
X02273196Y01942441D01*
X02274329Y01942598D01*
X02274837Y01941837D01*
D02*
G37*
G36*
X01795941Y01999733D02*
Y01929000D01*
X01795941Y01929000D01*
X01796174Y01927829D01*
X01796837Y01926837D01*
X01812837Y01910837D01*
X01812837Y01910837D01*
X01813829Y01910174D01*
X01815000Y01909941D01*
X01815000Y01909941D01*
X01895000D01*
X01895000Y01909941D01*
X01896171Y01910174D01*
X01897163Y01910837D01*
X01917163Y01930837D01*
X01917826Y01931830D01*
X01918059Y01933000D01*
Y01993733D01*
X01927897Y02003571D01*
X01936386D01*
X01936549Y02002963D01*
X01937799Y02000797D01*
X01939568Y01999028D01*
X01941734Y01997778D01*
X01943409Y01997329D01*
X01943242Y01996059D01*
X01938000D01*
X01936830Y01995826D01*
X01935837Y01995163D01*
X01922837Y01982163D01*
X01922174Y01981171D01*
X01921941Y01980000D01*
X01921941Y01980000D01*
Y01923267D01*
X01903733Y01905059D01*
X01807267D01*
X01790059Y01922267D01*
Y01994000D01*
X01789826Y01995170D01*
X01789163Y01996163D01*
X01789163Y01996163D01*
X01776533Y02008793D01*
X01775540Y02009456D01*
X01774370Y02009689D01*
X01774370Y02009689D01*
X01763614D01*
X01763451Y02010297D01*
X01762201Y02012463D01*
X01760432Y02014232D01*
X01758266Y02015483D01*
X01757562Y02015671D01*
X01757729Y02016941D01*
X01778733D01*
X01795941Y01999733D01*
D02*
G37*
G36*
X02266941Y01982733D02*
Y01934000D01*
X02266941Y01934000D01*
X02267174Y01932829D01*
X02267837Y01931837D01*
X02295837Y01903837D01*
X02295837Y01903837D01*
X02296830Y01903174D01*
X02298000Y01902941D01*
X02298000Y01902941D01*
X02404000D01*
X02404000Y01902941D01*
X02405170Y01903174D01*
X02406163Y01903837D01*
X02433163Y01930837D01*
X02433163Y01930837D01*
X02433826Y01931830D01*
X02434059Y01933000D01*
X02434059Y01933000D01*
Y01961657D01*
X02444362Y01971960D01*
X02444907Y01971645D01*
X02447323Y01970998D01*
X02449824D01*
X02451261Y01971383D01*
X02451918Y01970244D01*
X02447837Y01966163D01*
X02447174Y01965170D01*
X02446941Y01964000D01*
X02446941Y01964000D01*
Y01936267D01*
X02411733Y01901059D01*
X02288267D01*
X02265059Y01924267D01*
Y01969924D01*
X02265059Y01969924D01*
X02264826Y01971095D01*
X02264163Y01972087D01*
X02264163Y01972087D01*
X02259964Y01976286D01*
X02260279Y01976831D01*
X02260926Y01979247D01*
Y01981749D01*
X02260279Y01984165D01*
X02259028Y01986331D01*
X02257259Y01988100D01*
X02255093Y01989350D01*
X02254829Y01989421D01*
X02254996Y01990691D01*
X02258983D01*
X02266941Y01982733D01*
D02*
G37*
G36*
X01532806Y01949981D02*
X01533414Y01949818D01*
Y01923527D01*
X01533414Y01923527D01*
X01533647Y01922356D01*
X01534310Y01921364D01*
X01543837Y01911837D01*
X01543837Y01911837D01*
X01544830Y01911174D01*
X01546000Y01910941D01*
X01546000Y01910941D01*
X01665000D01*
X01665000Y01910941D01*
X01666171Y01911174D01*
X01667163Y01911837D01*
X01676163Y01920837D01*
X01676163Y01920837D01*
X01676826Y01921830D01*
X01677059Y01923000D01*
Y01941991D01*
X01678329Y01942331D01*
X01679232Y01940766D01*
X01681001Y01938997D01*
X01683167Y01937746D01*
X01683775Y01937584D01*
Y01909101D01*
X01675733Y01901059D01*
X01540267D01*
X01530059Y01911267D01*
Y01950100D01*
X01531329Y01950834D01*
X01532806Y01949981D01*
D02*
G37*
G36*
X02546941Y01956289D02*
Y01916000D01*
X02546941Y01916000D01*
X02547174Y01914830D01*
X02547837Y01913837D01*
X02561837Y01899837D01*
X02561837Y01899837D01*
X02562830Y01899174D01*
X02564000Y01898941D01*
X02648000D01*
X02648000Y01898941D01*
X02649171Y01899174D01*
X02650163Y01899837D01*
X02665690Y01915364D01*
X02665690Y01915364D01*
X02666353Y01916356D01*
X02666586Y01917527D01*
Y01949818D01*
X02667194Y01949981D01*
X02668830Y01950926D01*
X02669964Y01950113D01*
X02669941Y01950000D01*
X02669941Y01950000D01*
Y01905267D01*
X02659733Y01895059D01*
X02551267D01*
X02539532Y01906794D01*
Y01949818D01*
X02540140Y01949981D01*
X02542306Y01951231D01*
X02544075Y01953000D01*
X02545326Y01955166D01*
X02545671Y01956456D01*
X02546941Y01956289D01*
D02*
G37*
G36*
X01710318Y01955671D02*
X01709499Y01955452D01*
X01707333Y01954201D01*
X01705564Y01952432D01*
X01704313Y01950266D01*
X01703666Y01947850D01*
Y01945348D01*
X01704313Y01942932D01*
X01705564Y01940766D01*
X01707333Y01938997D01*
X01709499Y01937746D01*
X01710107Y01937584D01*
Y01898433D01*
X01685733Y01874059D01*
X01546267D01*
X01516225Y01904101D01*
Y01937584D01*
X01516833Y01937746D01*
X01518999Y01938997D01*
X01520768Y01940766D01*
X01522018Y01942932D01*
X01522666Y01945348D01*
Y01947850D01*
X01522408Y01948814D01*
X01523518Y01949577D01*
X01523941Y01949269D01*
Y01910000D01*
X01523941Y01910000D01*
X01524174Y01908829D01*
X01524837Y01907837D01*
X01536837Y01895837D01*
X01536837Y01895837D01*
X01537829Y01895174D01*
X01539000Y01894941D01*
X01677000D01*
X01677000Y01894941D01*
X01678170Y01895174D01*
X01679163Y01895837D01*
X01688997Y01905671D01*
X01689660Y01906664D01*
X01689893Y01907834D01*
X01689893Y01907834D01*
Y01937584D01*
X01690501Y01937746D01*
X01692667Y01938997D01*
X01694436Y01940766D01*
X01695687Y01942932D01*
X01696334Y01945348D01*
Y01947850D01*
X01695687Y01950266D01*
X01695372Y01950811D01*
X01701502Y01956941D01*
X01710151D01*
X01710318Y01955671D01*
D02*
G37*
G36*
X01783941Y01992733D02*
Y01921000D01*
X01783941Y01921000D01*
X01784174Y01919830D01*
X01784837Y01918837D01*
X01803837Y01899837D01*
X01804830Y01899174D01*
X01806000Y01898941D01*
X01806000Y01898941D01*
X01905000D01*
X01905000Y01898941D01*
X01906171Y01899174D01*
X01907163Y01899837D01*
X01927163Y01919837D01*
X01927163Y01919837D01*
X01927826Y01920829D01*
X01928059Y01922000D01*
X01928059Y01922000D01*
Y01978733D01*
X01939267Y01989941D01*
X01943390D01*
X01943730Y01988671D01*
X01942741Y01988100D01*
X01940972Y01986331D01*
X01939721Y01984165D01*
X01939074Y01981749D01*
Y01979247D01*
X01939721Y01976831D01*
X01940036Y01976286D01*
X01931875Y01968125D01*
X01931212Y01967133D01*
X01930979Y01965962D01*
X01930979Y01965962D01*
Y01921305D01*
X01903733Y01894059D01*
X01802267D01*
X01776059Y01920267D01*
Y01987000D01*
X01775826Y01988171D01*
X01775163Y01989163D01*
X01769163Y01995163D01*
X01768171Y01995826D01*
X01767000Y01996059D01*
X01767000Y01996059D01*
X01756758D01*
X01756591Y01997329D01*
X01758266Y01997778D01*
X01760432Y01999028D01*
X01762201Y02000797D01*
X01763451Y02002963D01*
X01763614Y02003571D01*
X01773103D01*
X01783941Y01992733D01*
D02*
G37*
G36*
X02530640Y01951231D02*
X02532806Y01949981D01*
X02533414Y01949818D01*
Y01905527D01*
X02533414Y01905527D01*
X02533647Y01904356D01*
X02534310Y01903364D01*
X02547837Y01889837D01*
X02548829Y01889174D01*
X02550000Y01888941D01*
X02550000Y01888941D01*
X02661000D01*
X02661000Y01888941D01*
X02662170Y01889174D01*
X02663163Y01889837D01*
X02675163Y01901837D01*
X02675826Y01902829D01*
X02676059Y01904000D01*
X02676059Y01904000D01*
Y01947691D01*
X02676064Y01947694D01*
X02677334Y01946961D01*
Y01945348D01*
X02677982Y01942932D01*
X02679232Y01940766D01*
X02681001Y01938997D01*
X02683167Y01937746D01*
X02683775Y01937584D01*
Y01897101D01*
X02673733Y01887059D01*
X02543267D01*
X02529059Y01901267D01*
Y01951017D01*
X02530329Y01951543D01*
X02530640Y01951231D01*
D02*
G37*
G36*
X02246941Y01956289D02*
Y01917000D01*
X02246941Y01917000D01*
X02247174Y01915829D01*
X02247837Y01914837D01*
X02276837Y01885837D01*
X02276837Y01885837D01*
X02277829Y01885174D01*
X02279000Y01884941D01*
X02419000D01*
X02419000Y01884941D01*
X02420170Y01885174D01*
X02421163Y01885837D01*
X02465690Y01930364D01*
X02466353Y01931356D01*
X02466586Y01932527D01*
Y01949818D01*
X02467194Y01949981D01*
X02469360Y01951231D01*
X02469671Y01951543D01*
X02470941Y01951017D01*
Y01927267D01*
X02426733Y01883059D01*
X02268267D01*
X02239532Y01911794D01*
Y01949818D01*
X02240140Y01949981D01*
X02242306Y01951231D01*
X02244075Y01953000D01*
X02245326Y01955166D01*
X02245671Y01956456D01*
X02246941Y01956289D01*
D02*
G37*
G36*
X01769941Y01985733D02*
Y01919000D01*
X01769941Y01919000D01*
X01770174Y01917829D01*
X01770837Y01916837D01*
X01798837Y01888837D01*
X01798837Y01888837D01*
X01799830Y01888174D01*
X01801000Y01887941D01*
X01801000Y01887941D01*
X01905000D01*
X01905000Y01887941D01*
X01906171Y01888174D01*
X01907163Y01888837D01*
X01936201Y01917875D01*
X01936201Y01917875D01*
X01936864Y01918867D01*
X01937097Y01920038D01*
Y01964695D01*
X01944362Y01971960D01*
X01944907Y01971645D01*
X01947323Y01970998D01*
X01949824D01*
X01952240Y01971645D01*
X01952910Y01972032D01*
X01953690Y01971015D01*
X01944837Y01962163D01*
X01944174Y01961171D01*
X01943941Y01960000D01*
X01943941Y01960000D01*
Y01918267D01*
X01907733Y01882059D01*
X01800267D01*
X01764059Y01918267D01*
Y01970924D01*
X01763826Y01972095D01*
X01763163Y01973087D01*
X01759964Y01976286D01*
X01760279Y01976831D01*
X01760926Y01979247D01*
Y01981749D01*
X01760279Y01984165D01*
X01759028Y01986331D01*
X01757259Y01988100D01*
X01756270Y01988671D01*
X01756610Y01989941D01*
X01765733D01*
X01769941Y01985733D01*
D02*
G37*
G36*
X02230640Y01951231D02*
X02232806Y01949981D01*
X02233414Y01949818D01*
Y01910527D01*
X02233414Y01910527D01*
X02233647Y01909356D01*
X02234310Y01908364D01*
X02264837Y01877837D01*
X02265829Y01877174D01*
X02267000Y01876941D01*
X02267000Y01876941D01*
X02428000D01*
X02428000Y01876941D01*
X02429171Y01877174D01*
X02430163Y01877837D01*
X02476163Y01923837D01*
X02476163Y01923837D01*
X02476826Y01924830D01*
X02477059Y01926000D01*
X02477059Y01926000D01*
Y01941991D01*
X02478329Y01942331D01*
X02479232Y01940766D01*
X02481001Y01938997D01*
X02483167Y01937746D01*
X02483775Y01937584D01*
Y01909101D01*
X02447733Y01873059D01*
X02260267D01*
X02229059Y01904267D01*
Y01951017D01*
X02230329Y01951543D01*
X02230640Y01951231D01*
D02*
G37*
G36*
X01747759Y01971645D02*
X01750176Y01970998D01*
X01752677D01*
X01755093Y01971645D01*
X01755638Y01971960D01*
X01757941Y01969657D01*
Y01917000D01*
X01757941Y01917000D01*
X01758174Y01915829D01*
X01758837Y01914837D01*
X01796837Y01876837D01*
X01796837Y01876837D01*
X01797829Y01876174D01*
X01799000Y01875941D01*
X01909000D01*
X01909000Y01875941D01*
X01910170Y01876174D01*
X01911163Y01876837D01*
X01949163Y01914837D01*
X01949163Y01914837D01*
X01949826Y01915829D01*
X01950059Y01917000D01*
X01950059Y01917000D01*
Y01958733D01*
X01953189Y01961863D01*
X01954328Y01961206D01*
X01954027Y01960084D01*
Y01957583D01*
X01954674Y01955166D01*
X01955925Y01953000D01*
X01957694Y01951231D01*
X01959860Y01949981D01*
X01960468Y01949818D01*
Y01923794D01*
X01906733Y01870059D01*
X01799267D01*
X01753059Y01916267D01*
Y01963000D01*
X01753059Y01963000D01*
X01752826Y01964171D01*
X01752163Y01965163D01*
X01746310Y01971015D01*
X01747090Y01972032D01*
X01747759Y01971645D01*
D02*
G37*
G36*
X02508147Y01954671D02*
X02507333Y01954201D01*
X02505564Y01952432D01*
X02504313Y01950266D01*
X02503666Y01947850D01*
Y01945348D01*
X02504313Y01942932D01*
X02505564Y01940766D01*
X02507333Y01938997D01*
X02509499Y01937746D01*
X02510107Y01937584D01*
Y01898433D01*
X02471733Y01860059D01*
X02254599D01*
X02216225Y01898433D01*
Y01937584D01*
X02216833Y01937746D01*
X02218999Y01938997D01*
X02220768Y01940766D01*
X02221671Y01942331D01*
X02222941Y01941991D01*
Y01903000D01*
X02222941Y01903000D01*
X02223174Y01901830D01*
X02223837Y01900837D01*
X02256837Y01867837D01*
X02256837Y01867837D01*
X02257829Y01867174D01*
X02259000Y01866941D01*
X02449000D01*
X02449000Y01866941D01*
X02450170Y01867174D01*
X02451163Y01867837D01*
X02488997Y01905671D01*
X02489660Y01906664D01*
X02489893Y01907834D01*
Y01937584D01*
X02490501Y01937746D01*
X02492667Y01938997D01*
X02494436Y01940766D01*
X02495687Y01942932D01*
X02496334Y01945348D01*
Y01947850D01*
X02495687Y01950266D01*
X02495372Y01950811D01*
X02500502Y01955941D01*
X02507807D01*
X02508147Y01954671D01*
D02*
G37*
G36*
X02008147D02*
X02007333Y01954201D01*
X02005564Y01952432D01*
X02004313Y01950266D01*
X02003666Y01947850D01*
Y01945348D01*
X02004313Y01942932D01*
X02005564Y01940766D01*
X02007333Y01938997D01*
X02009499Y01937746D01*
X02010107Y01937584D01*
Y01920433D01*
X01951733Y01862059D01*
X01933000D01*
X01931736Y01863102D01*
X01931696Y01863371D01*
X01988997Y01920671D01*
X01988997Y01920671D01*
X01989660Y01921664D01*
X01989893Y01922834D01*
Y01937584D01*
X01990501Y01937746D01*
X01992667Y01938997D01*
X01994436Y01940766D01*
X01995687Y01942932D01*
X01996334Y01945348D01*
Y01947850D01*
X01995687Y01950266D01*
X01995372Y01950811D01*
X02000502Y01955941D01*
X02007807D01*
X02008147Y01954671D01*
D02*
G37*
G36*
X01746941Y01956289D02*
Y01915000D01*
X01746941Y01915000D01*
X01747174Y01913829D01*
X01747837Y01912837D01*
X01795837Y01864837D01*
X01795837Y01864837D01*
X01796830Y01864174D01*
X01798000Y01863941D01*
X01908000D01*
X01908000Y01863941D01*
X01909171Y01864174D01*
X01910163Y01864837D01*
X01965690Y01920364D01*
X01965690Y01920364D01*
X01966353Y01921356D01*
X01966586Y01922527D01*
Y01949818D01*
X01967194Y01949981D01*
X01969360Y01951231D01*
X01969768Y01951639D01*
X01970941Y01951153D01*
Y01922267D01*
X01907733Y01859059D01*
X01796267D01*
X01739532Y01915794D01*
Y01949818D01*
X01740140Y01949981D01*
X01742306Y01951231D01*
X01744075Y01953000D01*
X01745326Y01955166D01*
X01745671Y01956456D01*
X01746941Y01956289D01*
D02*
G37*
G36*
X01732806Y01949981D02*
X01733414Y01949818D01*
Y01914527D01*
X01733414Y01914527D01*
X01733647Y01913356D01*
X01734310Y01912364D01*
X01792837Y01853837D01*
X01792837Y01853837D01*
X01793829Y01853174D01*
X01795000Y01852941D01*
X01795000Y01852941D01*
X01909000D01*
X01909000Y01852941D01*
X01910170Y01853174D01*
X01911163Y01853837D01*
X01976163Y01918837D01*
X01976163Y01918837D01*
X01976826Y01919830D01*
X01977059Y01921000D01*
Y01941991D01*
X01978329Y01942331D01*
X01979232Y01940766D01*
X01981001Y01938997D01*
X01983167Y01937746D01*
X01983775Y01937584D01*
Y01924101D01*
X01907733Y01848059D01*
X01793267D01*
X01730059Y01911267D01*
Y01950100D01*
X01731329Y01950834D01*
X01732806Y01949981D01*
D02*
G37*
G36*
X01723941Y01949269D02*
Y01910000D01*
X01723941Y01910000D01*
X01724174Y01908829D01*
X01724837Y01907837D01*
X01789837Y01842837D01*
X01790829Y01842174D01*
X01792000Y01841941D01*
X01792000Y01841941D01*
X01909000D01*
X01909000Y01841941D01*
X01910264Y01840898D01*
X01910304Y01840629D01*
X01905733Y01836059D01*
X01778599D01*
X01716225Y01898433D01*
Y01937584D01*
X01716833Y01937746D01*
X01718999Y01938997D01*
X01720768Y01940766D01*
X01722018Y01942932D01*
X01722666Y01945348D01*
Y01947850D01*
X01722407Y01948814D01*
X01723518Y01949577D01*
X01723941Y01949269D01*
D02*
G37*
G36*
X01623416Y02197961D02*
X01623552Y02197587D01*
X01623627Y02196691D01*
X01622837Y02196163D01*
X01596674Y02170000D01*
X01595005D01*
X01593168Y02169239D01*
X01591761Y02167832D01*
X01591000Y02165995D01*
Y02164005D01*
X01591761Y02162168D01*
X01593168Y02160761D01*
X01595005Y02160000D01*
X01596994D01*
X01598832Y02160761D01*
X01600239Y02162168D01*
X01601000Y02164005D01*
Y02165674D01*
X01626267Y02190941D01*
X01680819D01*
X01681346Y02189671D01*
X01661674Y02170000D01*
X01660005D01*
X01658168Y02169239D01*
X01656761Y02167832D01*
X01656000Y02165995D01*
Y02164005D01*
X01656761Y02162168D01*
X01658168Y02160761D01*
X01660005Y02160000D01*
X01661994D01*
X01663832Y02160761D01*
X01665239Y02162168D01*
X01666000Y02164005D01*
Y02165674D01*
X01685267Y02184941D01*
X01708956D01*
X01709442Y02183768D01*
X01695674Y02170000D01*
X01694005D01*
X01692168Y02169239D01*
X01690761Y02167832D01*
X01690000Y02165995D01*
Y02164005D01*
X01690761Y02162168D01*
X01692168Y02160761D01*
X01694005Y02160000D01*
X01695995D01*
X01697832Y02160761D01*
X01699239Y02162168D01*
X01700000Y02164005D01*
Y02165674D01*
X01714267Y02179941D01*
X01737956D01*
X01738442Y02178768D01*
X01729674Y02170000D01*
X01728005D01*
X01726168Y02169239D01*
X01724761Y02167832D01*
X01724000Y02165995D01*
Y02164005D01*
X01724761Y02162168D01*
X01726168Y02160761D01*
X01728005Y02160000D01*
X01729995D01*
X01731832Y02160761D01*
X01733239Y02162168D01*
X01734000Y02164005D01*
Y02165674D01*
X01743267Y02174941D01*
X01895733D01*
X01912442Y02158232D01*
X01911956Y02157059D01*
X01888267D01*
X01874163Y02171163D01*
X01873170Y02171826D01*
X01872000Y02172059D01*
X01872000Y02172059D01*
X01813000D01*
X01811829Y02171826D01*
X01810837Y02171163D01*
X01810837Y02171163D01*
X01807733Y02168059D01*
X01767012D01*
X01765832Y02169239D01*
X01763994Y02170000D01*
X01762005D01*
X01760168Y02169239D01*
X01758761Y02167832D01*
X01758000Y02165995D01*
Y02164005D01*
X01758761Y02162168D01*
X01760168Y02160761D01*
X01762005Y02160000D01*
X01763994D01*
X01765832Y02160761D01*
X01767012Y02161941D01*
X01809000D01*
X01809000Y02161941D01*
X01810170Y02162174D01*
X01811163Y02162837D01*
X01814267Y02165941D01*
X01832074D01*
X01832600Y02164671D01*
X01831761Y02163832D01*
X01831000Y02161995D01*
Y02160005D01*
X01831761Y02158168D01*
X01833168Y02156761D01*
X01835005Y02156000D01*
X01836994D01*
X01838832Y02156761D01*
X01840012Y02157941D01*
X01845733D01*
X01856346Y02147329D01*
X01855819Y02146059D01*
X01612000D01*
Y02146995D01*
X01611239Y02148832D01*
X01609832Y02150239D01*
X01607995Y02151000D01*
X01606005D01*
X01604168Y02150239D01*
X01602761Y02148832D01*
X01602000Y02146995D01*
Y02145005D01*
X01602761Y02143168D01*
X01604168Y02141761D01*
X01605070Y02141387D01*
X01604817Y02140117D01*
X01576534D01*
X01569617Y02147034D01*
Y02157000D01*
X01576500D01*
Y02183000D01*
X01550500D01*
Y02157000D01*
X01557383D01*
Y02147034D01*
X01550466Y02140117D01*
X01473196D01*
X01472912Y02140402D01*
X01471088Y02141455D01*
X01469053Y02142000D01*
X01466947D01*
X01464912Y02141455D01*
X01463088Y02140402D01*
X01461598Y02138912D01*
X01460545Y02137088D01*
X01460000Y02135053D01*
Y02132947D01*
X01460545Y02130912D01*
X01461598Y02129088D01*
X01463088Y02127598D01*
X01464912Y02126545D01*
X01466947Y02126000D01*
X01469053D01*
X01471088Y02126545D01*
X01472912Y02127598D01*
X01473196Y02127883D01*
X01553000D01*
X01555341Y02128348D01*
X01557326Y02129674D01*
X01563500Y02135849D01*
X01569674Y02129674D01*
X01571659Y02128348D01*
X01574000Y02127883D01*
X01961882D01*
Y02109534D01*
X01956466Y02104117D01*
X01853000D01*
X01850659Y02103652D01*
X01848674Y02102326D01*
X01838174Y02091826D01*
X01836848Y02089841D01*
X01836382Y02087500D01*
Y02002696D01*
X01836098Y02002412D01*
X01835045Y02000588D01*
X01834500Y01998553D01*
Y01998152D01*
X01825674Y01989326D01*
X01824348Y01987341D01*
X01823882Y01985000D01*
Y01960902D01*
X01822325Y01960002D01*
X01820079Y01957756D01*
X01819498Y01957809D01*
X01818809Y01957994D01*
Y02036320D01*
X01818576Y02037490D01*
X01817913Y02038483D01*
X01808233Y02048163D01*
X01807240Y02048826D01*
X01806070Y02049059D01*
X01806070Y02049059D01*
X01742000D01*
X01742000Y02049059D01*
X01740829Y02048826D01*
X01739837Y02048163D01*
X01739837Y02048163D01*
X01734746Y02043072D01*
X01733730Y02043851D01*
X01734412Y02045033D01*
X01735060Y02047449D01*
Y02049951D01*
X01734412Y02052367D01*
X01733161Y02054533D01*
X01731393Y02056302D01*
X01729226Y02057553D01*
X01726810Y02058200D01*
X01724309D01*
X01721893Y02057553D01*
X01719726Y02056302D01*
X01717958Y02054533D01*
X01716707Y02052367D01*
X01716060Y02049951D01*
Y02047449D01*
X01716707Y02045033D01*
X01717958Y02042867D01*
X01718496Y02042329D01*
X01717970Y02041059D01*
X01705000D01*
X01705000Y02041059D01*
X01703829Y02040826D01*
X01702837Y02040163D01*
X01702837Y02040163D01*
X01696976Y02034302D01*
X01663751D01*
X01663588Y02034910D01*
X01662338Y02037077D01*
X01660569Y02038845D01*
X01658403Y02040096D01*
X01655987Y02040744D01*
X01653485D01*
X01651069Y02040096D01*
X01650524Y02039781D01*
X01641142Y02049163D01*
X01640150Y02049826D01*
X01638979Y02050059D01*
X01638979Y02050059D01*
X01543000D01*
X01543000Y02050059D01*
X01541830Y02049826D01*
X01540837Y02049163D01*
X01534746Y02043072D01*
X01533730Y02043852D01*
X01534412Y02045033D01*
X01535060Y02047449D01*
Y02049951D01*
X01534412Y02052367D01*
X01533161Y02054533D01*
X01531393Y02056302D01*
X01529226Y02057553D01*
X01526810Y02058200D01*
X01524309D01*
X01521893Y02057553D01*
X01519726Y02056302D01*
X01517958Y02054533D01*
X01516707Y02052367D01*
X01516060Y02049951D01*
Y02047449D01*
X01516707Y02045033D01*
X01517958Y02042867D01*
X01519726Y02041098D01*
X01521893Y02039848D01*
X01524309Y02039200D01*
X01526810D01*
X01529226Y02039848D01*
X01530408Y02040530D01*
X01531188Y02039514D01*
X01525977Y02034302D01*
X01463751D01*
X01463589Y02034910D01*
X01462338Y02037077D01*
X01460569Y02038845D01*
X01458403Y02040096D01*
X01455987Y02040744D01*
X01453485D01*
X01451069Y02040096D01*
X01448903Y02038845D01*
X01447134Y02037077D01*
X01445883Y02034910D01*
X01445236Y02032494D01*
Y02029993D01*
X01445883Y02027577D01*
X01447134Y02025410D01*
X01448903Y02023642D01*
X01451069Y02022391D01*
X01453485Y02021744D01*
X01455987D01*
X01458403Y02022391D01*
X01460569Y02023642D01*
X01462338Y02025410D01*
X01463589Y02027577D01*
X01463751Y02028185D01*
X01527243D01*
X01527244Y02028185D01*
X01528414Y02028418D01*
X01529406Y02029081D01*
X01535046Y02034720D01*
X01536184Y02034062D01*
X01535764Y02032494D01*
Y02029993D01*
X01536411Y02027577D01*
X01537662Y02025410D01*
X01539431Y02023642D01*
X01541597Y02022391D01*
X01541851Y02021107D01*
X01541806Y02021020D01*
X01540829Y02020826D01*
X01539837Y02020163D01*
X01539837Y02020163D01*
X01529363Y02009689D01*
X01454417D01*
X01454254Y02010297D01*
X01453003Y02012463D01*
X01451234Y02014232D01*
X01449068Y02015483D01*
X01446652Y02016130D01*
X01444151D01*
X01441734Y02015483D01*
X01439568Y02014232D01*
X01437799Y02012463D01*
X01436549Y02010297D01*
X01435901Y02007881D01*
Y02005379D01*
X01436549Y02002963D01*
X01437799Y02000797D01*
X01439568Y01999028D01*
X01441734Y01997778D01*
X01444151Y01997130D01*
X01446652D01*
X01449068Y01997778D01*
X01451234Y01999028D01*
X01453003Y02000797D01*
X01454254Y02002963D01*
X01454417Y02003571D01*
X01530630D01*
X01530630Y02003571D01*
X01531801Y02003804D01*
X01532793Y02004467D01*
X01543267Y02014941D01*
X01547679D01*
X01548205Y02013671D01*
X01546997Y02012463D01*
X01545746Y02010297D01*
X01545099Y02007881D01*
Y02005379D01*
X01545746Y02002963D01*
X01546997Y02000797D01*
X01548766Y01999028D01*
X01550932Y01997778D01*
X01552607Y01997329D01*
X01552440Y01996059D01*
X01461076D01*
X01459905Y01995826D01*
X01458913Y01995163D01*
X01458913Y01995163D01*
X01452786Y01989036D01*
X01452240Y01989350D01*
X01449824Y01989998D01*
X01447323D01*
X01444907Y01989350D01*
X01442741Y01988100D01*
X01440972Y01986331D01*
X01439721Y01984165D01*
X01439074Y01981749D01*
Y01979247D01*
X01439721Y01976831D01*
X01440972Y01974665D01*
X01442741Y01972896D01*
X01444907Y01971645D01*
X01447323Y01970998D01*
X01449824D01*
X01452240Y01971645D01*
X01454407Y01972896D01*
X01456176Y01974665D01*
X01457426Y01976831D01*
X01458074Y01979247D01*
Y01981749D01*
X01457426Y01984165D01*
X01457112Y01984710D01*
X01462343Y01989941D01*
X01546243D01*
X01546583Y01988671D01*
X01545593Y01988100D01*
X01543824Y01986331D01*
X01542574Y01984165D01*
X01541926Y01981749D01*
Y01979247D01*
X01542574Y01976831D01*
X01542793Y01976451D01*
X01542717Y01976320D01*
X01541171Y01975826D01*
X01540000Y01976059D01*
X01540000Y01976059D01*
X01477694D01*
X01477694Y01976059D01*
X01476523Y01975826D01*
X01475531Y01975163D01*
X01475531Y01975163D01*
X01467739Y01967371D01*
X01467194Y01967686D01*
X01464778Y01968333D01*
X01462276D01*
X01459860Y01967686D01*
X01457694Y01966435D01*
X01455925Y01964666D01*
X01454674Y01962500D01*
X01454027Y01960084D01*
Y01957583D01*
X01454674Y01955166D01*
X01455925Y01953000D01*
X01457694Y01951231D01*
X01459860Y01949981D01*
X01462276Y01949333D01*
X01464778D01*
X01467194Y01949981D01*
X01469360Y01951231D01*
X01471129Y01953000D01*
X01472379Y01955166D01*
X01473027Y01957583D01*
Y01960084D01*
X01472379Y01962500D01*
X01472065Y01963045D01*
X01478961Y01969941D01*
X01538579D01*
X01539095Y01969281D01*
X01538355Y01968164D01*
X01537724Y01968333D01*
X01535222D01*
X01532806Y01967686D01*
X01530640Y01966435D01*
X01528871Y01964666D01*
X01527621Y01962500D01*
X01526973Y01960084D01*
Y01957583D01*
X01527132Y01956990D01*
X01525993Y01956333D01*
X01521163Y01961163D01*
X01520170Y01961826D01*
X01519000Y01962059D01*
X01519000Y01962059D01*
X01499235D01*
X01498064Y01961826D01*
X01497072Y01961163D01*
X01497072Y01961163D01*
X01491046Y01955137D01*
X01490501Y01955452D01*
X01488085Y01956099D01*
X01485583D01*
X01483167Y01955452D01*
X01481001Y01954201D01*
X01479232Y01952432D01*
X01477982Y01950266D01*
X01477334Y01947850D01*
Y01945348D01*
X01477982Y01942932D01*
X01479232Y01940766D01*
X01481001Y01938997D01*
X01483167Y01937746D01*
X01485583Y01937099D01*
X01488085D01*
X01490501Y01937746D01*
X01492667Y01938997D01*
X01494436Y01940766D01*
X01495687Y01942932D01*
X01496334Y01945348D01*
Y01947850D01*
X01495687Y01950266D01*
X01495372Y01950811D01*
X01500502Y01955941D01*
X01507807D01*
X01508147Y01954671D01*
X01507333Y01954201D01*
X01505564Y01952432D01*
X01504313Y01950266D01*
X01503666Y01947850D01*
Y01945348D01*
X01504313Y01942932D01*
X01505564Y01940766D01*
X01507333Y01938997D01*
X01509499Y01937746D01*
X01510107Y01937584D01*
Y01902834D01*
X01510107Y01902834D01*
X01510340Y01901664D01*
X01511003Y01900671D01*
X01542837Y01868837D01*
X01542837Y01868837D01*
X01543829Y01868174D01*
X01545000Y01867941D01*
X01545000Y01867941D01*
X01687000D01*
X01687000Y01867941D01*
X01688170Y01868174D01*
X01689163Y01868837D01*
X01713166Y01892840D01*
X01775169Y01830837D01*
X01775169Y01830837D01*
X01776161Y01830174D01*
X01777332Y01829941D01*
X01907000D01*
X01907000Y01829941D01*
X01908170Y01830174D01*
X01909163Y01830837D01*
X01934267Y01855941D01*
X01953000D01*
X01953000Y01855941D01*
X01954171Y01856174D01*
X01955163Y01856837D01*
X02013166Y01914840D01*
X02058169Y01869837D01*
X02059161Y01869174D01*
X02060332Y01868941D01*
X02060332Y01868941D01*
X02188000D01*
X02188000Y01868941D01*
X02189171Y01869174D01*
X02190163Y01869837D01*
X02213166Y01892840D01*
X02251169Y01854837D01*
X02251169Y01854837D01*
X02252161Y01854174D01*
X02253332Y01853941D01*
X02253332Y01853941D01*
X02473000D01*
X02473000Y01853941D01*
X02474171Y01854174D01*
X02475163Y01854837D01*
X02513166Y01892840D01*
X02535169Y01870837D01*
X02535169Y01870837D01*
X02536161Y01870174D01*
X02537332Y01869941D01*
X02537332Y01869941D01*
X02689000D01*
X02689000Y01869941D01*
X02690171Y01870174D01*
X02691163Y01870837D01*
X02715329Y01895003D01*
X02715329Y01895003D01*
X02715992Y01895995D01*
X02716225Y01897166D01*
X02716225Y01897166D01*
Y01937584D01*
X02716833Y01937746D01*
X02718999Y01938997D01*
X02720768Y01940766D01*
X02722018Y01942932D01*
X02722666Y01945348D01*
Y01947850D01*
X02722018Y01950266D01*
X02720768Y01952432D01*
X02718999Y01954201D01*
X02716833Y01955452D01*
X02714417Y01956099D01*
X02711915D01*
X02709499Y01955452D01*
X02707333Y01954201D01*
X02705564Y01952432D01*
X02704313Y01950266D01*
X02703666Y01947850D01*
Y01945348D01*
X02704313Y01942932D01*
X02705564Y01940766D01*
X02707333Y01938997D01*
X02709499Y01937746D01*
X02710107Y01937584D01*
Y01898433D01*
X02687733Y01876059D01*
X02538599D01*
X02516225Y01898433D01*
Y01937584D01*
X02516833Y01937746D01*
X02518999Y01938997D01*
X02520768Y01940766D01*
X02521671Y01942331D01*
X02522941Y01941991D01*
Y01900000D01*
X02522941Y01900000D01*
X02523174Y01898829D01*
X02523837Y01897837D01*
X02539837Y01881837D01*
X02539837Y01881837D01*
X02540829Y01881174D01*
X02542000Y01880941D01*
X02675000D01*
X02675000Y01880941D01*
X02676170Y01881174D01*
X02677163Y01881837D01*
X02688997Y01893671D01*
X02689660Y01894664D01*
X02689893Y01895834D01*
X02689893Y01895834D01*
Y01937584D01*
X02690501Y01937746D01*
X02692667Y01938997D01*
X02694436Y01940766D01*
X02695687Y01942932D01*
X02696334Y01945348D01*
Y01947850D01*
X02695687Y01950266D01*
X02694436Y01952432D01*
X02692667Y01954201D01*
X02690501Y01955452D01*
X02688085Y01956099D01*
X02685583D01*
X02685088Y01955966D01*
X02684431Y01957105D01*
X02693267Y01965941D01*
X02725039D01*
X02727935Y01963045D01*
X02727621Y01962500D01*
X02726973Y01960084D01*
Y01957583D01*
X02727621Y01955166D01*
X02728871Y01953000D01*
X02730640Y01951231D01*
X02732806Y01949981D01*
X02735222Y01949333D01*
X02737724D01*
X02740140Y01949981D01*
X02742306Y01951231D01*
X02744075Y01953000D01*
X02745326Y01955166D01*
X02745973Y01957583D01*
Y01960084D01*
X02745326Y01962500D01*
X02744075Y01964666D01*
X02742306Y01966435D01*
X02740140Y01967686D01*
X02737724Y01968333D01*
X02735222D01*
X02732806Y01967686D01*
X02732261Y01967371D01*
X02728469Y01971163D01*
X02727477Y01971826D01*
X02726306Y01972059D01*
X02726306Y01972059D01*
X02692000D01*
X02692000Y01972059D01*
X02690829Y01971826D01*
X02689837Y01971163D01*
X02689837Y01971163D01*
X02673641Y01954966D01*
X02672502Y01955624D01*
X02673027Y01957583D01*
Y01960084D01*
X02672379Y01962500D01*
X02671129Y01964666D01*
X02669360Y01966435D01*
X02667194Y01967686D01*
X02664778Y01968333D01*
X02662455D01*
X02661689Y01969350D01*
X02661684Y01969359D01*
X02669765Y01977439D01*
X02742411D01*
X02742574Y01976831D01*
X02743824Y01974665D01*
X02745593Y01972896D01*
X02747759Y01971645D01*
X02750175Y01970998D01*
X02752677D01*
X02755093Y01971645D01*
X02757260Y01972896D01*
X02759028Y01974665D01*
X02760279Y01976831D01*
X02760926Y01979247D01*
Y01981749D01*
X02760279Y01984165D01*
X02759028Y01986331D01*
X02757260Y01988100D01*
X02755093Y01989350D01*
X02752677Y01989998D01*
X02750175D01*
X02747759Y01989350D01*
X02745593Y01988100D01*
X02743824Y01986331D01*
X02742574Y01984165D01*
X02742411Y01983557D01*
X02668498D01*
X02667327Y01983324D01*
X02666335Y01982661D01*
X02666335Y01982661D01*
X02643837Y01960163D01*
X02643174Y01959171D01*
X02642941Y01958000D01*
X02642941Y01958000D01*
Y01918267D01*
X02637733Y01913059D01*
X02570267D01*
X02562059Y01921267D01*
Y01972924D01*
X02562059Y01972924D01*
X02561826Y01974095D01*
X02561163Y01975087D01*
X02559964Y01976286D01*
X02560279Y01976831D01*
X02560926Y01979247D01*
Y01981749D01*
X02560279Y01984165D01*
X02559028Y01986331D01*
X02557688Y01987671D01*
X02558214Y01988941D01*
X02564733D01*
X02568941Y01984733D01*
Y01925000D01*
X02568941Y01925000D01*
X02569174Y01923829D01*
X02569837Y01922837D01*
X02576837Y01915837D01*
X02576837Y01915837D01*
X02577830Y01915174D01*
X02579000Y01914941D01*
X02579000Y01914941D01*
X02625000D01*
X02625000Y01914941D01*
X02626170Y01915174D01*
X02627163Y01915837D01*
X02633163Y01921837D01*
X02633826Y01922829D01*
X02634059Y01924000D01*
X02634059Y01924000D01*
Y01961657D01*
X02644362Y01971960D01*
X02644907Y01971645D01*
X02647323Y01970998D01*
X02649825D01*
X02652241Y01971645D01*
X02654407Y01972896D01*
X02656176Y01974665D01*
X02657426Y01976831D01*
X02658074Y01979247D01*
Y01981749D01*
X02657426Y01984165D01*
X02656176Y01986331D01*
X02654407Y01988100D01*
X02653417Y01988671D01*
X02653757Y01989941D01*
X02740969D01*
X02740969Y01989941D01*
X02742139Y01990174D01*
X02743131Y01990837D01*
X02750387Y01998092D01*
X02750932Y01997778D01*
X02753348Y01997130D01*
X02755849D01*
X02758266Y01997778D01*
X02760432Y01999028D01*
X02762201Y02000797D01*
X02763451Y02002963D01*
X02764099Y02005379D01*
Y02007881D01*
X02763451Y02010297D01*
X02762201Y02012463D01*
X02760432Y02014232D01*
X02758266Y02015483D01*
X02755849Y02016130D01*
X02753348D01*
X02750932Y02015483D01*
X02748766Y02014232D01*
X02746997Y02012463D01*
X02745746Y02010297D01*
X02745099Y02007881D01*
Y02005379D01*
X02745746Y02002963D01*
X02746061Y02002418D01*
X02739702Y01996059D01*
X02647560D01*
X02647393Y01997329D01*
X02649068Y01997778D01*
X02651234Y01999028D01*
X02653003Y02000797D01*
X02654254Y02002963D01*
X02654901Y02005379D01*
Y02007881D01*
X02654254Y02010297D01*
X02653003Y02012463D01*
X02651795Y02013671D01*
X02652321Y02014941D01*
X02732020D01*
X02732021Y02014941D01*
X02733191Y02015174D01*
X02734183Y02015837D01*
X02741052Y02022706D01*
X02741597Y02022391D01*
X02744013Y02021744D01*
X02746515D01*
X02748931Y02022391D01*
X02751097Y02023642D01*
X02752866Y02025410D01*
X02754117Y02027577D01*
X02754764Y02029993D01*
Y02032494D01*
X02754117Y02034910D01*
X02752866Y02037077D01*
X02751097Y02038845D01*
X02748931Y02040096D01*
X02746515Y02040744D01*
X02744013D01*
X02741597Y02040096D01*
X02739431Y02038845D01*
X02737662Y02037077D01*
X02736411Y02034910D01*
X02735764Y02032494D01*
Y02029993D01*
X02736411Y02027577D01*
X02736726Y02027032D01*
X02730753Y02021059D01*
X02658338D01*
X02658170Y02022329D01*
X02658403Y02022391D01*
X02660569Y02023642D01*
X02662338Y02025410D01*
X02663588Y02027577D01*
X02664236Y02029993D01*
Y02032494D01*
X02663588Y02034910D01*
X02662338Y02037077D01*
X02660569Y02038845D01*
X02658403Y02040096D01*
X02655987Y02040744D01*
X02653485D01*
X02651069Y02040096D01*
X02650524Y02039781D01*
X02645142Y02045163D01*
X02644150Y02045826D01*
X02642979Y02046059D01*
X02642979Y02046059D01*
X02539000D01*
X02539000Y02046059D01*
X02537829Y02045826D01*
X02536837Y02045163D01*
X02536837Y02045163D01*
X02534746Y02043072D01*
X02533730Y02043852D01*
X02534412Y02045033D01*
X02535060Y02047449D01*
Y02049951D01*
X02534412Y02052367D01*
X02533161Y02054533D01*
X02531393Y02056302D01*
X02529226Y02057553D01*
X02526810Y02058200D01*
X02524309D01*
X02521893Y02057553D01*
X02519726Y02056302D01*
X02517958Y02054533D01*
X02516707Y02052367D01*
X02516060Y02049951D01*
Y02047449D01*
X02516707Y02045033D01*
X02517958Y02042867D01*
X02519726Y02041098D01*
X02521893Y02039848D01*
X02524309Y02039200D01*
X02526810D01*
X02529226Y02039848D01*
X02530408Y02040530D01*
X02531188Y02039514D01*
X02525977Y02034302D01*
X02463751D01*
X02463588Y02034910D01*
X02462338Y02037077D01*
X02460569Y02038845D01*
X02458403Y02040096D01*
X02455987Y02040744D01*
X02453485D01*
X02451069Y02040096D01*
X02448903Y02038845D01*
X02447134Y02037077D01*
X02445883Y02034910D01*
X02445720Y02034302D01*
X02429244D01*
X02428073Y02034070D01*
X02427081Y02033406D01*
X02387837Y01994163D01*
X02387174Y01993170D01*
X02386941Y01992000D01*
X02386941Y01992000D01*
Y01949267D01*
X02376733Y01939059D01*
X02338475D01*
X02338006Y01940329D01*
X02340002Y01942325D01*
X02341648Y01945175D01*
X02342500Y01948354D01*
Y01951646D01*
X02341648Y01954825D01*
X02340002Y01957675D01*
X02337675Y01960002D01*
X02336118Y01960902D01*
Y01994466D01*
X02347534Y02005883D01*
X02382804D01*
X02383088Y02005598D01*
X02384912Y02004545D01*
X02386947Y02004000D01*
X02389053D01*
X02391088Y02004545D01*
X02392912Y02005598D01*
X02394402Y02007088D01*
X02395455Y02008912D01*
X02396000Y02010947D01*
Y02013053D01*
X02395455Y02015088D01*
X02394402Y02016912D01*
X02394117Y02017196D01*
Y02077466D01*
X02409534Y02092883D01*
X02641966D01*
X02647500Y02087348D01*
Y02086947D01*
X02648045Y02084912D01*
X02649099Y02083088D01*
X02650588Y02081598D01*
X02652412Y02080545D01*
X02654447Y02080000D01*
X02656553D01*
X02658588Y02080545D01*
X02660412Y02081598D01*
X02661902Y02083088D01*
X02662955Y02084912D01*
X02663500Y02086947D01*
Y02089053D01*
X02662955Y02091088D01*
X02661902Y02092912D01*
X02660412Y02094402D01*
X02658588Y02095455D01*
X02656553Y02096000D01*
X02656151D01*
X02648826Y02103326D01*
X02648309Y02103671D01*
X02648694Y02104941D01*
X02745000D01*
X02745000Y02104941D01*
X02746170Y02105174D01*
X02747163Y02105837D01*
X02765663Y02124337D01*
X02765663Y02124337D01*
X02766326Y02125329D01*
X02766559Y02126500D01*
Y02160000D01*
X02773500D01*
Y02180000D01*
X02753500D01*
Y02160000D01*
X02760441D01*
Y02127767D01*
X02743733Y02111059D01*
X02390000D01*
X02388829Y02110826D01*
X02387837Y02110163D01*
X02387837Y02110163D01*
X02376733Y02099059D01*
X02004267D01*
X01990059Y02113267D01*
Y02130000D01*
X01990059Y02130000D01*
X01989826Y02131171D01*
X01989163Y02132163D01*
X01989163Y02132163D01*
X01977428Y02143898D01*
X01977851Y02145271D01*
X01978314Y02145360D01*
X01993941Y02129733D01*
Y02115000D01*
X01993941Y02115000D01*
X01994174Y02113829D01*
X01994837Y02112837D01*
X02003837Y02103837D01*
X02003837Y02103837D01*
X02004830Y02103174D01*
X02006000Y02102941D01*
X02006000Y02102941D01*
X02371000D01*
X02371000Y02102941D01*
X02372171Y02103174D01*
X02373163Y02103837D01*
X02384267Y02114941D01*
X02730000D01*
X02730000Y02114941D01*
X02731170Y02115174D01*
X02732163Y02115837D01*
X02740263Y02123937D01*
X02740263Y02123937D01*
X02740926Y02124929D01*
X02741159Y02126100D01*
Y02160467D01*
X02741960Y02160681D01*
X02744240Y02161998D01*
X02746102Y02163860D01*
X02747419Y02166140D01*
X02748100Y02168683D01*
Y02171317D01*
X02747419Y02173860D01*
X02746102Y02176140D01*
X02744240Y02178002D01*
X02741960Y02179319D01*
X02739417Y02180000D01*
X02736783D01*
X02734240Y02179319D01*
X02731960Y02178002D01*
X02730098Y02176140D01*
X02728781Y02173860D01*
X02728100Y02171317D01*
Y02168683D01*
X02728781Y02166140D01*
X02730098Y02163860D01*
X02731960Y02161998D01*
X02734240Y02160681D01*
X02735041Y02160467D01*
Y02127367D01*
X02728733Y02121059D01*
X02705181D01*
X02704655Y02122329D01*
X02714863Y02132537D01*
X02714863Y02132537D01*
X02715526Y02133529D01*
X02715759Y02134700D01*
Y02160467D01*
X02716560Y02160681D01*
X02718840Y02161998D01*
X02720702Y02163860D01*
X02722018Y02166140D01*
X02722700Y02168683D01*
Y02171317D01*
X02722018Y02173860D01*
X02720702Y02176140D01*
X02718840Y02178002D01*
X02716560Y02179319D01*
X02714016Y02180000D01*
X02711383D01*
X02708840Y02179319D01*
X02706560Y02178002D01*
X02704698Y02176140D01*
X02703381Y02173860D01*
X02702700Y02171317D01*
Y02168683D01*
X02703381Y02166140D01*
X02704698Y02163860D01*
X02706560Y02161998D01*
X02708840Y02160681D01*
X02709641Y02160467D01*
Y02135967D01*
X02700193Y02126519D01*
X02675641D01*
X02675114Y02127789D01*
X02689463Y02142137D01*
X02689463Y02142137D01*
X02690126Y02143129D01*
X02690359Y02144300D01*
X02690359Y02144300D01*
Y02160467D01*
X02691160Y02160681D01*
X02693440Y02161998D01*
X02695302Y02163860D01*
X02696619Y02166140D01*
X02697300Y02168683D01*
Y02171317D01*
X02696619Y02173860D01*
X02695302Y02176140D01*
X02693440Y02178002D01*
X02691160Y02179319D01*
X02688617Y02180000D01*
X02685984D01*
X02683440Y02179319D01*
X02681160Y02178002D01*
X02679298Y02176140D01*
X02677982Y02173860D01*
X02677300Y02171317D01*
Y02168683D01*
X02677982Y02166140D01*
X02679298Y02163860D01*
X02681160Y02161998D01*
X02683440Y02160681D01*
X02684241Y02160467D01*
Y02145567D01*
X02670733Y02132059D01*
X02651613D01*
X02651559Y02132196D01*
X02651402Y02133329D01*
X02652163Y02133837D01*
X02664063Y02145737D01*
X02664063Y02145737D01*
X02664726Y02146729D01*
X02664959Y02147900D01*
X02664959Y02147900D01*
Y02160467D01*
X02665760Y02160681D01*
X02668040Y02161998D01*
X02669902Y02163860D01*
X02671219Y02166140D01*
X02671900Y02168683D01*
Y02171317D01*
X02671219Y02173860D01*
X02669902Y02176140D01*
X02668040Y02178002D01*
X02665760Y02179319D01*
X02663217Y02180000D01*
X02660583D01*
X02658040Y02179319D01*
X02655760Y02178002D01*
X02653898Y02176140D01*
X02652581Y02173860D01*
X02651900Y02171317D01*
Y02168683D01*
X02652581Y02166140D01*
X02653898Y02163860D01*
X02655760Y02161998D01*
X02658040Y02160681D01*
X02658841Y02160467D01*
Y02149167D01*
X02648733Y02139059D01*
X02523181D01*
X02522655Y02140329D01*
X02542326Y02160000D01*
X02543994D01*
X02545832Y02160761D01*
X02547239Y02162168D01*
X02548000Y02164005D01*
Y02165995D01*
X02547239Y02167832D01*
X02545832Y02169239D01*
X02543994Y02170000D01*
X02542005D01*
X02540168Y02169239D01*
X02538761Y02167832D01*
X02538000Y02165995D01*
Y02164326D01*
X02518733Y02145059D01*
X02339267D01*
X02327163Y02157163D01*
X02326171Y02157826D01*
X02325000Y02158059D01*
X02325000Y02158059D01*
X02292000D01*
X02290829Y02157826D01*
X02289837Y02157163D01*
X02258733Y02126059D01*
X02245181D01*
X02244655Y02127329D01*
X02265663Y02148337D01*
X02265663Y02148337D01*
X02266326Y02149330D01*
X02266559Y02150500D01*
X02266559Y02150500D01*
Y02160000D01*
X02273500D01*
Y02180000D01*
X02254679D01*
X02254262Y02180702D01*
X02254129Y02181231D01*
X02254684Y02181941D01*
X02336437D01*
X02355541Y02162837D01*
X02356534Y02162174D01*
X02357704Y02161941D01*
X02371988D01*
X02373168Y02160761D01*
X02375005Y02160000D01*
X02376995D01*
X02378832Y02160761D01*
X02380239Y02162168D01*
X02381000Y02164005D01*
Y02165995D01*
X02380239Y02167832D01*
X02378832Y02169239D01*
X02376995Y02170000D01*
X02375005D01*
X02373168Y02169239D01*
X02371988Y02168059D01*
X02358971D01*
X02340359Y02186671D01*
X02340885Y02187941D01*
X02413733D01*
X02436000Y02165674D01*
Y02164005D01*
X02436761Y02162168D01*
X02438168Y02160761D01*
X02440005Y02160000D01*
X02441994D01*
X02443832Y02160761D01*
X02445239Y02162168D01*
X02446000Y02164005D01*
Y02165995D01*
X02445239Y02167832D01*
X02443832Y02169239D01*
X02441994Y02170000D01*
X02440326D01*
X02417163Y02193163D01*
X02416171Y02193826D01*
X02415000Y02194059D01*
X02415000Y02194059D01*
X02233700D01*
X02232529Y02193826D01*
X02231537Y02193163D01*
X02217278Y02178904D01*
X02216560Y02179319D01*
X02214017Y02180000D01*
X02211384D01*
X02208840Y02179319D01*
X02206560Y02178002D01*
X02204698Y02176140D01*
X02203382Y02173860D01*
X02202700Y02171317D01*
Y02168683D01*
X02203382Y02166140D01*
X02204698Y02163860D01*
X02206560Y02161998D01*
X02208840Y02160681D01*
X02211384Y02160000D01*
X02214017D01*
X02216560Y02160681D01*
X02218840Y02161998D01*
X02220702Y02163860D01*
X02222018Y02166140D01*
X02222700Y02168683D01*
Y02171317D01*
X02222018Y02173860D01*
X02221604Y02174578D01*
X02234967Y02187941D01*
X02249919D01*
X02250446Y02186671D01*
X02242678Y02178904D01*
X02241960Y02179319D01*
X02239417Y02180000D01*
X02236783D01*
X02234240Y02179319D01*
X02231960Y02178002D01*
X02230098Y02176140D01*
X02228781Y02173860D01*
X02228100Y02171317D01*
Y02168683D01*
X02228781Y02166140D01*
X02230098Y02163860D01*
X02231960Y02161998D01*
X02234240Y02160681D01*
X02236783Y02160000D01*
X02239417D01*
X02241960Y02160681D01*
X02244240Y02161998D01*
X02246102Y02163860D01*
X02247419Y02166140D01*
X02248100Y02168683D01*
Y02171317D01*
X02247419Y02173860D01*
X02247004Y02174578D01*
X02252230Y02179804D01*
X02253500Y02179278D01*
X02253500Y02179062D01*
X02253500Y02179062D01*
X02253500Y02179029D01*
Y02160000D01*
X02260441D01*
Y02151767D01*
X02240733Y02132059D01*
X02148267D01*
X02093163Y02187163D01*
X02092171Y02187826D01*
X02091000Y02188059D01*
X02091000Y02188059D01*
X02056000D01*
X02056000Y02188059D01*
X02054829Y02187826D01*
X02053837Y02187163D01*
X02053837Y02187163D01*
X02047837Y02181163D01*
X02047174Y02180170D01*
X02046941Y02179000D01*
X02046941Y02179000D01*
Y02177097D01*
X02045671Y02176571D01*
X02044240Y02178002D01*
X02041960Y02179319D01*
X02039417Y02180000D01*
X02036783D01*
X02034240Y02179319D01*
X02033522Y02178904D01*
X02016263Y02196163D01*
X02015473Y02196691D01*
X02015548Y02197587D01*
X02015684Y02197961D01*
X02850000Y02197961D01*
X02853144Y02197961D01*
X02859377Y02197140D01*
X02865450Y02195513D01*
X02871258Y02193107D01*
X02876703Y02189964D01*
X02881690Y02186136D01*
X02886136Y02181691D01*
X02889963Y02176703D01*
X02893107Y02171258D01*
X02895513Y02165450D01*
X02897140Y02159377D01*
X02897961Y02153143D01*
X02897961Y02150000D01*
Y01850000D01*
Y01846857D01*
X02897140Y01840623D01*
X02895513Y01834550D01*
X02893107Y01828742D01*
X02889964Y01823297D01*
X02886136Y01818309D01*
X02881691Y01813864D01*
X02876703Y01810036D01*
X02871258Y01806893D01*
X02865450Y01804487D01*
X02859377Y01802860D01*
X02853144Y01802039D01*
X02850000D01*
X01350000Y01802039D01*
X01346856Y01802039D01*
X01340623Y01802860D01*
X01334550Y01804487D01*
X01328742Y01806893D01*
X01323297Y01810036D01*
X01318309Y01813864D01*
X01313864Y01818309D01*
X01310036Y01823297D01*
X01306893Y01828742D01*
X01304487Y01834550D01*
X01302860Y01840623D01*
X01302039Y01846857D01*
Y01850000D01*
X01302039Y02150000D01*
Y02153143D01*
X01302860Y02159377D01*
X01304487Y02165450D01*
X01306893Y02171258D01*
X01310036Y02176703D01*
X01313864Y02181691D01*
X01318309Y02186136D01*
X01323297Y02189964D01*
X01328742Y02193107D01*
X01334550Y02195513D01*
X01340623Y02197140D01*
X01346856Y02197961D01*
X01350000Y02197961D01*
X01623416Y02197961D01*
D02*
G37*
%LPC*%
G36*
X02201646Y02067500D02*
X02198354D01*
X02195175Y02066648D01*
X02192325Y02065002D01*
X02189998Y02062675D01*
X02188352Y02059825D01*
X02187500Y02056646D01*
Y02053354D01*
X02188352Y02050175D01*
X02189998Y02047325D01*
X02192325Y02044998D01*
X02195175Y02043352D01*
X02198354Y02042500D01*
X02201646D01*
X02204825Y02043352D01*
X02207675Y02044998D01*
X02210002Y02047325D01*
X02211648Y02050175D01*
X02212500Y02053354D01*
Y02056646D01*
X02211648Y02059825D01*
X02210002Y02062675D01*
X02207675Y02065002D01*
X02204825Y02066648D01*
X02201646Y02067500D01*
D02*
G37*
G36*
X02001646D02*
X01998354D01*
X01995175Y02066648D01*
X01992325Y02065002D01*
X01989998Y02062675D01*
X01988352Y02059825D01*
X01987500Y02056646D01*
Y02053354D01*
X01988352Y02050175D01*
X01989998Y02047325D01*
X01992325Y02044998D01*
X01995175Y02043352D01*
X01998354Y02042500D01*
X02001646D01*
X02004825Y02043352D01*
X02007675Y02044998D01*
X02010002Y02047325D01*
X02011648Y02050175D01*
X02012500Y02053354D01*
Y02056646D01*
X02011648Y02059825D01*
X02010002Y02062675D01*
X02007675Y02065002D01*
X02004825Y02066648D01*
X02001646Y02067500D01*
D02*
G37*
G36*
X02175691Y02058200D02*
X02173190D01*
X02170774Y02057553D01*
X02168607Y02056302D01*
X02166839Y02054533D01*
X02165588Y02052367D01*
X02164940Y02049951D01*
Y02047449D01*
X02165588Y02045033D01*
X02166839Y02042867D01*
X02168607Y02041098D01*
X02170774Y02039848D01*
X02173190Y02039200D01*
X02175691D01*
X02178107Y02039848D01*
X02180274Y02041098D01*
X02182042Y02042867D01*
X02183293Y02045033D01*
X02183940Y02047449D01*
Y02049951D01*
X02183293Y02052367D01*
X02182042Y02054533D01*
X02180274Y02056302D01*
X02178107Y02057553D01*
X02175691Y02058200D01*
D02*
G37*
G36*
X02026810D02*
X02024309D01*
X02021893Y02057553D01*
X02019726Y02056302D01*
X02017958Y02054533D01*
X02016707Y02052367D01*
X02016060Y02049951D01*
Y02047449D01*
X02016707Y02045033D01*
X02017958Y02042867D01*
X02019726Y02041098D01*
X02021893Y02039848D01*
X02024309Y02039200D01*
X02026810D01*
X02029226Y02039848D01*
X02031393Y02041098D01*
X02033161Y02042867D01*
X02034412Y02045033D01*
X02035060Y02047449D01*
Y02049951D01*
X02034412Y02052367D01*
X02033161Y02054533D01*
X02031393Y02056302D01*
X02029226Y02057553D01*
X02026810Y02058200D01*
D02*
G37*
G36*
X01975691D02*
X01973190D01*
X01970774Y02057553D01*
X01968607Y02056302D01*
X01966839Y02054533D01*
X01965588Y02052367D01*
X01964940Y02049951D01*
Y02047449D01*
X01965588Y02045033D01*
X01966839Y02042867D01*
X01968607Y02041098D01*
X01970774Y02039848D01*
X01973190Y02039200D01*
X01975691D01*
X01978107Y02039848D01*
X01980274Y02041098D01*
X01982042Y02042867D01*
X01983293Y02045033D01*
X01983940Y02047449D01*
Y02049951D01*
X01983293Y02052367D01*
X01982042Y02054533D01*
X01980274Y02056302D01*
X01978107Y02057553D01*
X01975691Y02058200D01*
D02*
G37*
G36*
X01871251Y01959500D02*
X01868749D01*
X01866333Y01958853D01*
X01864167Y01957602D01*
X01862398Y01955833D01*
X01861147Y01953667D01*
X01860500Y01951251D01*
Y01948749D01*
X01861147Y01946333D01*
X01862398Y01944167D01*
X01864167Y01942398D01*
X01866333Y01941147D01*
X01868749Y01940500D01*
X01871251D01*
X01873667Y01941147D01*
X01875833Y01942398D01*
X01877602Y01944167D01*
X01878853Y01946333D01*
X01879500Y01948749D01*
Y01951251D01*
X01878853Y01953667D01*
X01877602Y01955833D01*
X01875833Y01957602D01*
X01873667Y01958853D01*
X01871251Y01959500D01*
D02*
G37*
G36*
X02637816Y02180000D02*
X02635183D01*
X02632640Y02179319D01*
X02630360Y02178002D01*
X02628498Y02176140D01*
X02627181Y02173860D01*
X02626500Y02171317D01*
Y02168683D01*
X02627181Y02166140D01*
X02628498Y02163860D01*
X02630360Y02161998D01*
X02632640Y02160681D01*
X02635183Y02160000D01*
X02637816D01*
X02640360Y02160681D01*
X02642640Y02161998D01*
X02644502Y02163860D01*
X02645818Y02166140D01*
X02646500Y02168683D01*
Y02171317D01*
X02645818Y02173860D01*
X02644502Y02176140D01*
X02642640Y02178002D01*
X02640360Y02179319D01*
X02637816Y02180000D01*
D02*
G37*
G36*
X02475995Y02170000D02*
X02474005D01*
X02472168Y02169239D01*
X02470988Y02168059D01*
X02458000D01*
X02456830Y02167826D01*
X02455837Y02167163D01*
X02443733Y02155059D01*
X02384012D01*
X02382832Y02156239D01*
X02380995Y02157000D01*
X02379005D01*
X02377168Y02156239D01*
X02375761Y02154832D01*
X02375000Y02152995D01*
Y02151006D01*
X02375761Y02149168D01*
X02377168Y02147761D01*
X02379005Y02147000D01*
X02380995D01*
X02382832Y02147761D01*
X02384012Y02148941D01*
X02445000D01*
X02445000Y02148941D01*
X02446171Y02149174D01*
X02447163Y02149837D01*
X02459267Y02161941D01*
X02470988D01*
X02472168Y02160761D01*
X02474005Y02160000D01*
X02475995D01*
X02477832Y02160761D01*
X02479239Y02162168D01*
X02480000Y02164005D01*
Y02165995D01*
X02479239Y02167832D01*
X02477832Y02169239D01*
X02475995Y02170000D01*
D02*
G37*
G36*
X02188616Y02180000D02*
X02185983D01*
X02183440Y02179319D01*
X02181160Y02178002D01*
X02179298Y02176140D01*
X02177982Y02173860D01*
X02177300Y02171317D01*
Y02168683D01*
X02177982Y02166140D01*
X02179298Y02163860D01*
X02181160Y02161998D01*
X02183440Y02160681D01*
X02185983Y02160000D01*
X02188616D01*
X02191160Y02160681D01*
X02193440Y02161998D01*
X02195302Y02163860D01*
X02196618Y02166140D01*
X02197300Y02168683D01*
Y02171317D01*
X02196618Y02173860D01*
X02195302Y02176140D01*
X02193440Y02178002D01*
X02191160Y02179319D01*
X02188616Y02180000D01*
D02*
G37*
G36*
X02163217D02*
X02160583D01*
X02158040Y02179319D01*
X02155760Y02178002D01*
X02153898Y02176140D01*
X02152581Y02173860D01*
X02151900Y02171317D01*
Y02168683D01*
X02152581Y02166140D01*
X02153898Y02163860D01*
X02155760Y02161998D01*
X02158040Y02160681D01*
X02160583Y02160000D01*
X02163217D01*
X02165760Y02160681D01*
X02168040Y02161998D01*
X02169902Y02163860D01*
X02171219Y02166140D01*
X02171900Y02168683D01*
Y02171317D01*
X02171219Y02173860D01*
X02169902Y02176140D01*
X02168040Y02178002D01*
X02165760Y02179319D01*
X02163217Y02180000D01*
D02*
G37*
G36*
X02137816D02*
X02135184D01*
X02132640Y02179319D01*
X02130360Y02178002D01*
X02128498Y02176140D01*
X02127182Y02173860D01*
X02126500Y02171317D01*
Y02168683D01*
X02127182Y02166140D01*
X02128498Y02163860D01*
X02130360Y02161998D01*
X02132640Y02160681D01*
X02135184Y02160000D01*
X02137816D01*
X02140360Y02160681D01*
X02142640Y02161998D01*
X02144502Y02163860D01*
X02145818Y02166140D01*
X02146500Y02168683D01*
Y02171317D01*
X02145818Y02173860D01*
X02144502Y02176140D01*
X02142640Y02178002D01*
X02140360Y02179319D01*
X02137816Y02180000D01*
D02*
G37*
G36*
X01539417D02*
X01536783D01*
X01534240Y02179319D01*
X01531960Y02178002D01*
X01530098Y02176140D01*
X01528781Y02173860D01*
X01528100Y02171317D01*
Y02168683D01*
X01528781Y02166140D01*
X01530098Y02163860D01*
X01531960Y02161998D01*
X01534240Y02160681D01*
X01536783Y02160000D01*
X01539417D01*
X01541960Y02160681D01*
X01544240Y02161998D01*
X01546102Y02163860D01*
X01547419Y02166140D01*
X01548100Y02168683D01*
Y02171317D01*
X01547419Y02173860D01*
X01546102Y02176140D01*
X01544240Y02178002D01*
X01541960Y02179319D01*
X01539417Y02180000D01*
D02*
G37*
G36*
X01463217D02*
X01460583D01*
X01458040Y02179319D01*
X01455760Y02178002D01*
X01453898Y02176140D01*
X01452581Y02173860D01*
X01451900Y02171317D01*
Y02168683D01*
X01452581Y02166140D01*
X01453898Y02163860D01*
X01455760Y02161998D01*
X01458040Y02160681D01*
X01460583Y02160000D01*
X01463217D01*
X01465760Y02160681D01*
X01468040Y02161998D01*
X01469902Y02163860D01*
X01471219Y02166140D01*
X01471900Y02168683D01*
Y02171317D01*
X01471219Y02173860D01*
X01469902Y02176140D01*
X01468040Y02178002D01*
X01465760Y02179319D01*
X01463217Y02180000D01*
D02*
G37*
G36*
X01437816D02*
X01435184D01*
X01432640Y02179319D01*
X01430360Y02178002D01*
X01428498Y02176140D01*
X01427182Y02173860D01*
X01426500Y02171317D01*
Y02168683D01*
X01427116Y02166384D01*
X01394116Y02133384D01*
X01393232Y02132061D01*
X01392922Y02130500D01*
X01392922Y02130500D01*
Y01956000D01*
X01392922Y01956000D01*
X01393232Y01954439D01*
X01394116Y01953116D01*
X01427009Y01920223D01*
Y01835402D01*
X01426849Y01835242D01*
X01426088Y01833404D01*
Y01831415D01*
X01426849Y01829577D01*
X01428255Y01828170D01*
X01430093Y01827409D01*
X01432082D01*
X01433920Y01828170D01*
X01434080Y01828331D01*
X01717014D01*
X01726990Y01818356D01*
X01726990Y01818356D01*
X01728313Y01817472D01*
X01729874Y01817161D01*
X01804268D01*
X01804418Y01817011D01*
X01806255Y01816250D01*
X01808244D01*
X01810082Y01817011D01*
X01810232Y01817161D01*
X01919918D01*
X01919918Y01817161D01*
X01921479Y01817472D01*
X01922802Y01818356D01*
X01931855Y01827409D01*
X01932082D01*
X01933920Y01828170D01*
X01934080Y01828331D01*
X02128095D01*
X02128255Y01828170D01*
X02130093Y01827409D01*
X02132082D01*
X02133920Y01828170D01*
X02134080Y01828331D01*
X02428095D01*
X02428255Y01828170D01*
X02430093Y01827409D01*
X02432082D01*
X02433920Y01828170D01*
X02434080Y01828331D01*
X02628095D01*
X02628255Y01828170D01*
X02630093Y01827409D01*
X02632082D01*
X02633920Y01828170D01*
X02635327Y01829577D01*
X02636088Y01831415D01*
Y01833404D01*
X02635327Y01835242D01*
X02633920Y01836648D01*
X02632082Y01837409D01*
X02630093D01*
X02628255Y01836648D01*
X02628095Y01836488D01*
X02434080D01*
X02433920Y01836648D01*
X02432082Y01837409D01*
X02430093D01*
X02428255Y01836648D01*
X02428095Y01836488D01*
X02134080D01*
X02133920Y01836648D01*
X02132082Y01837409D01*
X02130093D01*
X02128255Y01836648D01*
X02128095Y01836488D01*
X01934080D01*
X01933920Y01836648D01*
X01932082Y01837409D01*
X01930093D01*
X01928255Y01836648D01*
X01926849Y01835242D01*
X01926088Y01833404D01*
Y01833177D01*
X01918229Y01825318D01*
X01810253D01*
X01810082Y01825489D01*
X01808244Y01826250D01*
X01806255D01*
X01804418Y01825489D01*
X01804247Y01825318D01*
X01731563D01*
X01721588Y01835293D01*
X01720264Y01836177D01*
X01718704Y01836488D01*
X01718704Y01836488D01*
X01435166D01*
Y01921912D01*
X01435166Y01921912D01*
X01434856Y01923473D01*
X01433972Y01924796D01*
X01433971Y01924796D01*
X01401078Y01957689D01*
Y02128811D01*
X01432884Y02160616D01*
X01435184Y02160000D01*
X01437816D01*
X01440360Y02160681D01*
X01442640Y02161998D01*
X01444502Y02163860D01*
X01445818Y02166140D01*
X01446500Y02168683D01*
Y02171317D01*
X01445818Y02173860D01*
X01444502Y02176140D01*
X01442640Y02178002D01*
X01440360Y02179319D01*
X01437816Y02180000D01*
D02*
G37*
G36*
X02852322Y02179500D02*
X02847678D01*
X02843092Y02178774D01*
X02838676Y02177339D01*
X02834539Y02175231D01*
X02830782Y02172501D01*
X02827499Y02169218D01*
X02824769Y02165461D01*
X02822661Y02161324D01*
X02821227Y02156908D01*
X02820500Y02152322D01*
Y02147678D01*
X02821227Y02143092D01*
X02822661Y02138676D01*
X02824769Y02134539D01*
X02827499Y02130782D01*
X02830782Y02127499D01*
X02834539Y02124769D01*
X02838676Y02122661D01*
X02843092Y02121226D01*
X02847678Y02120500D01*
X02852322D01*
X02856908Y02121226D01*
X02861324Y02122661D01*
X02865461Y02124769D01*
X02869218Y02127499D01*
X02872501Y02130782D01*
X02875231Y02134539D01*
X02877339Y02138676D01*
X02878773Y02143092D01*
X02879500Y02147678D01*
Y02152322D01*
X02878773Y02156908D01*
X02877339Y02161324D01*
X02875231Y02165461D01*
X02872501Y02169218D01*
X02869218Y02172501D01*
X02865461Y02175231D01*
X02861324Y02177339D01*
X02856908Y02178774D01*
X02852322Y02179500D01*
D02*
G37*
G36*
X01352322D02*
X01347678D01*
X01343092Y02178774D01*
X01338676Y02177339D01*
X01334539Y02175231D01*
X01330782Y02172501D01*
X01327499Y02169218D01*
X01324769Y02165461D01*
X01322661Y02161324D01*
X01321226Y02156908D01*
X01320500Y02152322D01*
Y02147678D01*
X01321226Y02143092D01*
X01322661Y02138676D01*
X01324769Y02134539D01*
X01327499Y02130782D01*
X01330782Y02127499D01*
X01334539Y02124769D01*
X01338676Y02122661D01*
X01343092Y02121226D01*
X01347678Y02120500D01*
X01352322D01*
X01356908Y02121226D01*
X01361324Y02122661D01*
X01365461Y02124769D01*
X01369218Y02127499D01*
X01372501Y02130782D01*
X01375231Y02134539D01*
X01377339Y02138676D01*
X01378774Y02143092D01*
X01379500Y02147678D01*
Y02152322D01*
X01378774Y02156908D01*
X01377339Y02161324D01*
X01375231Y02165461D01*
X01372501Y02169218D01*
X01369218Y02172501D01*
X01365461Y02175231D01*
X01361324Y02177339D01*
X01356908Y02178774D01*
X01352322Y02179500D01*
D02*
G37*
G36*
X01701251Y02064500D02*
X01698749D01*
X01696333Y02063853D01*
X01694167Y02062602D01*
X01692398Y02060833D01*
X01691147Y02058667D01*
X01690500Y02056251D01*
Y02053749D01*
X01691147Y02051333D01*
X01692398Y02049167D01*
X01694167Y02047398D01*
X01696333Y02046147D01*
X01698749Y02045500D01*
X01701251D01*
X01703667Y02046147D01*
X01705833Y02047398D01*
X01707602Y02049167D01*
X01708853Y02051333D01*
X01709500Y02053749D01*
Y02056251D01*
X01708853Y02058667D01*
X01707602Y02060833D01*
X01705833Y02062602D01*
X01703667Y02063853D01*
X01701251Y02064500D01*
D02*
G37*
G36*
X02701646Y02067500D02*
X02698354D01*
X02695175Y02066648D01*
X02692325Y02065002D01*
X02689998Y02062675D01*
X02688352Y02059825D01*
X02687500Y02056646D01*
Y02053354D01*
X02688352Y02050175D01*
X02689998Y02047325D01*
X02692325Y02044998D01*
X02695175Y02043352D01*
X02698354Y02042500D01*
X02701646D01*
X02704825Y02043352D01*
X02707675Y02044998D01*
X02710002Y02047325D01*
X02711648Y02050175D01*
X02712500Y02053354D01*
Y02056646D01*
X02711648Y02059825D01*
X02710002Y02062675D01*
X02707675Y02065002D01*
X02704825Y02066648D01*
X02701646Y02067500D01*
D02*
G37*
G36*
X02501646D02*
X02498354D01*
X02495175Y02066648D01*
X02492325Y02065002D01*
X02489998Y02062675D01*
X02488352Y02059825D01*
X02487500Y02056646D01*
Y02053354D01*
X02488352Y02050175D01*
X02489998Y02047325D01*
X02492325Y02044998D01*
X02495175Y02043352D01*
X02498354Y02042500D01*
X02501646D01*
X02504825Y02043352D01*
X02507675Y02044998D01*
X02510002Y02047325D01*
X02511648Y02050175D01*
X02512500Y02053354D01*
Y02056646D01*
X02511648Y02059825D01*
X02510002Y02062675D01*
X02507675Y02065002D01*
X02504825Y02066648D01*
X02501646Y02067500D01*
D02*
G37*
G36*
X01501646D02*
X01498354D01*
X01495175Y02066648D01*
X01492325Y02065002D01*
X01489998Y02062675D01*
X01488352Y02059825D01*
X01487500Y02056646D01*
Y02053354D01*
X01488352Y02050175D01*
X01489998Y02047325D01*
X01492325Y02044998D01*
X01495175Y02043352D01*
X01498354Y02042500D01*
X01501646D01*
X01504825Y02043352D01*
X01507675Y02044998D01*
X01510002Y02047325D01*
X01511648Y02050175D01*
X01512500Y02053354D01*
Y02056646D01*
X01511648Y02059825D01*
X01510002Y02062675D01*
X01507675Y02065002D01*
X01504825Y02066648D01*
X01501646Y02067500D01*
D02*
G37*
G36*
X02411053Y02072082D02*
X02409064D01*
X02407226Y02071320D01*
X02405820Y02069914D01*
X02405058Y02068076D01*
Y02066087D01*
X02405820Y02064249D01*
X02406941Y02063128D01*
Y02049012D01*
X02405761Y02047832D01*
X02405000Y02045995D01*
Y02044005D01*
X02405761Y02042168D01*
X02407168Y02040761D01*
X02409005Y02040000D01*
X02410995D01*
X02412832Y02040761D01*
X02414239Y02042168D01*
X02415000Y02044005D01*
Y02045995D01*
X02414239Y02047832D01*
X02413059Y02049012D01*
Y02063011D01*
X02414297Y02064249D01*
X02415058Y02066087D01*
Y02068076D01*
X02414297Y02069914D01*
X02412891Y02071320D01*
X02411053Y02072082D01*
D02*
G37*
G36*
X02726810Y02058200D02*
X02724309D01*
X02721893Y02057553D01*
X02719726Y02056302D01*
X02717957Y02054533D01*
X02716707Y02052367D01*
X02716060Y02049951D01*
Y02047449D01*
X02716707Y02045033D01*
X02717957Y02042867D01*
X02719726Y02041098D01*
X02721893Y02039848D01*
X02724309Y02039200D01*
X02726810D01*
X02729226Y02039848D01*
X02731393Y02041098D01*
X02733161Y02042867D01*
X02734412Y02045033D01*
X02735060Y02047449D01*
Y02049951D01*
X02734412Y02052367D01*
X02733161Y02054533D01*
X02731393Y02056302D01*
X02729226Y02057553D01*
X02726810Y02058200D01*
D02*
G37*
G36*
X02675691D02*
X02673190D01*
X02670774Y02057553D01*
X02668607Y02056302D01*
X02666839Y02054533D01*
X02665588Y02052367D01*
X02664940Y02049951D01*
Y02047449D01*
X02665588Y02045033D01*
X02666839Y02042867D01*
X02668607Y02041098D01*
X02670774Y02039848D01*
X02673190Y02039200D01*
X02675691D01*
X02678107Y02039848D01*
X02680274Y02041098D01*
X02682042Y02042867D01*
X02683293Y02045033D01*
X02683940Y02047449D01*
Y02049951D01*
X02683293Y02052367D01*
X02682042Y02054533D01*
X02680274Y02056302D01*
X02678107Y02057553D01*
X02675691Y02058200D01*
D02*
G37*
G36*
X02475691D02*
X02473190D01*
X02470774Y02057553D01*
X02468607Y02056302D01*
X02466839Y02054533D01*
X02465588Y02052367D01*
X02464940Y02049951D01*
Y02047449D01*
X02465588Y02045033D01*
X02466839Y02042867D01*
X02468607Y02041098D01*
X02470774Y02039848D01*
X02473190Y02039200D01*
X02475691D01*
X02478107Y02039848D01*
X02480274Y02041098D01*
X02482042Y02042867D01*
X02483293Y02045033D01*
X02483940Y02047449D01*
Y02049951D01*
X02483293Y02052367D01*
X02482042Y02054533D01*
X02480274Y02056302D01*
X02478107Y02057553D01*
X02475691Y02058200D01*
D02*
G37*
G36*
X01675691D02*
X01673190D01*
X01670774Y02057553D01*
X01668607Y02056302D01*
X01666839Y02054533D01*
X01665588Y02052367D01*
X01664940Y02049951D01*
Y02047449D01*
X01665588Y02045033D01*
X01666839Y02042867D01*
X01668607Y02041098D01*
X01670774Y02039848D01*
X01673190Y02039200D01*
X01675691D01*
X01678107Y02039848D01*
X01680274Y02041098D01*
X01682042Y02042867D01*
X01683293Y02045033D01*
X01683940Y02047449D01*
Y02049951D01*
X01683293Y02052367D01*
X01682042Y02054533D01*
X01680274Y02056302D01*
X01678107Y02057553D01*
X01675691Y02058200D01*
D02*
G37*
G36*
X01475691D02*
X01473190D01*
X01470774Y02057553D01*
X01468607Y02056302D01*
X01466839Y02054533D01*
X01465588Y02052367D01*
X01464940Y02049951D01*
Y02047449D01*
X01465588Y02045033D01*
X01466839Y02042867D01*
X01468607Y02041098D01*
X01470774Y02039848D01*
X01473190Y02039200D01*
X01475691D01*
X01478107Y02039848D01*
X01480274Y02041098D01*
X01482042Y02042867D01*
X01483293Y02045033D01*
X01483940Y02047449D01*
Y02049951D01*
X01483293Y02052367D01*
X01482042Y02054533D01*
X01480274Y02056302D01*
X01478107Y02057553D01*
X01475691Y02058200D01*
D02*
G37*
G36*
X02371251Y01959500D02*
X02368749D01*
X02366333Y01958853D01*
X02364167Y01957602D01*
X02362398Y01955833D01*
X02361147Y01953667D01*
X02360500Y01951251D01*
Y01948749D01*
X02361147Y01946333D01*
X02362398Y01944167D01*
X02364167Y01942398D01*
X02366333Y01941147D01*
X02368749Y01940500D01*
X02371251D01*
X02373667Y01941147D01*
X02375833Y01942398D01*
X02377602Y01944167D01*
X02378853Y01946333D01*
X02379500Y01948749D01*
Y01951251D01*
X02378853Y01953667D01*
X02377602Y01955833D01*
X02375833Y01957602D01*
X02373667Y01958853D01*
X02371251Y01959500D01*
D02*
G37*
G36*
X02852322Y01879500D02*
X02847678D01*
X02843092Y01878774D01*
X02838676Y01877339D01*
X02834539Y01875231D01*
X02830782Y01872501D01*
X02827499Y01869218D01*
X02824769Y01865461D01*
X02822661Y01861324D01*
X02821227Y01856908D01*
X02820500Y01852322D01*
Y01847678D01*
X02821227Y01843092D01*
X02822661Y01838676D01*
X02824769Y01834539D01*
X02827499Y01830782D01*
X02830782Y01827499D01*
X02834539Y01824769D01*
X02838676Y01822661D01*
X02843092Y01821226D01*
X02847678Y01820500D01*
X02852322D01*
X02856908Y01821226D01*
X02861324Y01822661D01*
X02865461Y01824769D01*
X02869218Y01827499D01*
X02872501Y01830782D01*
X02875231Y01834539D01*
X02877339Y01838676D01*
X02878773Y01843092D01*
X02879500Y01847678D01*
Y01852322D01*
X02878773Y01856908D01*
X02877339Y01861324D01*
X02875231Y01865461D01*
X02872501Y01869218D01*
X02869218Y01872501D01*
X02865461Y01875231D01*
X02861324Y01877339D01*
X02856908Y01878774D01*
X02852322Y01879500D01*
D02*
G37*
G36*
X01352322D02*
X01347678D01*
X01343092Y01878774D01*
X01338676Y01877339D01*
X01334539Y01875231D01*
X01330782Y01872501D01*
X01327499Y01869218D01*
X01324769Y01865461D01*
X01322661Y01861324D01*
X01321226Y01856908D01*
X01320500Y01852322D01*
Y01847678D01*
X01321226Y01843092D01*
X01322661Y01838676D01*
X01324769Y01834539D01*
X01327499Y01830782D01*
X01330782Y01827499D01*
X01334539Y01824769D01*
X01338676Y01822661D01*
X01343092Y01821226D01*
X01347678Y01820500D01*
X01352322D01*
X01356908Y01821226D01*
X01361324Y01822661D01*
X01365461Y01824769D01*
X01369218Y01827499D01*
X01372501Y01830782D01*
X01375231Y01834539D01*
X01377339Y01838676D01*
X01378774Y01843092D01*
X01379500Y01847678D01*
Y01852322D01*
X01378774Y01856908D01*
X01377339Y01861324D01*
X01375231Y01865461D01*
X01372501Y01869218D01*
X01369218Y01872501D01*
X01365461Y01875231D01*
X01361324Y01877339D01*
X01356908Y01878774D01*
X01352322Y01879500D01*
D02*
G37*
%LPD*%
D10*
X02071959Y02087000D02*
X02381000D01*
X02070959Y02086000D02*
X02071959Y02087000D01*
X01989000Y02086000D02*
X02070959D01*
X02381000Y02087000D02*
X02388000Y02080000D01*
X02378000Y02096000D02*
X02390000Y02108000D01*
X02003000Y02096000D02*
X02378000D01*
X01987000Y02112000D02*
X02003000Y02096000D01*
X01968000Y02107000D02*
X01989000Y02086000D01*
X02407000Y02099000D02*
X02644500D01*
X02655500Y02088000D01*
X02410000Y02067023D02*
X02410058Y02067082D01*
X02410000Y02045000D02*
Y02067023D01*
X02400000Y01991000D02*
X02429000Y02020000D01*
X02474000D02*
X02478000Y02024000D01*
X02429000Y02020000D02*
X02474000D01*
X02306000Y01949000D02*
X02319000Y01936000D01*
X02378000D02*
X02390000Y01948000D01*
X02319000Y01936000D02*
X02378000D01*
X02244000Y01999000D02*
X02249250Y01993750D01*
X02260250D02*
X02270000Y01984000D01*
X02249250Y01993750D02*
X02260250D01*
X02132756Y02031244D02*
X02144000Y02020000D01*
X02234021D02*
X02245264Y02031244D01*
X02144000Y02020000D02*
X02234021D01*
X02059000Y01919000D02*
X02160000D01*
X02019000Y01959000D02*
X02059000Y01919000D01*
X01806070Y02046000D02*
X01815750Y02036320D01*
Y01941250D02*
X01825000Y01932000D01*
X01815750Y01941250D02*
Y02036320D01*
X02380000Y02152000D02*
X02445000D01*
X02458000Y02165000D02*
X02475000D01*
X02445000Y02152000D02*
X02458000Y02165000D01*
X02325000Y02155000D02*
X02338000Y02142000D01*
X02520000D01*
X02292000Y02155000D02*
X02325000D01*
X02415000Y02191000D02*
X02441000Y02165000D01*
X02233700Y02191000D02*
X02415000D01*
X02212700Y02170000D02*
X02233700Y02191000D01*
X02045766Y02154000D02*
X02050000Y02158234D01*
Y02179000D02*
X02056000Y02185000D01*
X02050000Y02158234D02*
Y02179000D01*
X02091000Y02185000D02*
X02147000Y02129000D01*
X02056000Y02185000D02*
X02091000D01*
X02242000Y02129000D02*
X02263500Y02150500D01*
X02147000Y02129000D02*
X02242000D01*
X02094000Y02170000D02*
X02141000Y02123000D01*
X02260000D01*
X02292000Y02155000D01*
X02263500Y02150500D02*
Y02170000D01*
X02063500D02*
X02094000D01*
X01872000Y02169000D02*
X01887000Y02154000D01*
X02045766D01*
X01917000Y02158000D02*
X01949900D01*
X01897000Y02178000D02*
X01917000Y02158000D01*
X01742000Y02178000D02*
X01897000D01*
X01813000Y02169000D02*
X01872000D01*
X01763000Y02165000D02*
X01809000D01*
X01813000Y02169000D01*
X01859000Y02149000D02*
X01979000D01*
X01997000Y02115000D02*
Y02131000D01*
X01979000Y02149000D02*
X01997000Y02131000D01*
X01847000Y02161000D02*
X01859000Y02149000D01*
X01974000Y02143000D02*
X01987000Y02130000D01*
X01607000Y02146000D02*
X01607172D01*
X01610172Y02143000D01*
X01974000D01*
X01574000Y02134000D02*
X01968000D01*
X01563500Y02144500D02*
X01574000Y02134000D01*
X01968000Y02107000D02*
Y02134000D01*
X01987000Y02112000D02*
Y02130000D01*
X02127000Y02114000D02*
X02369000D01*
X02105000Y02136000D02*
X02127000Y02114000D01*
X02520000Y02142000D02*
X02543000Y02165000D01*
X02292000Y02141000D02*
X02298000Y02147000D01*
X02292000Y02128000D02*
Y02141000D01*
X02298000Y02147000D02*
X02304000D01*
X02315000Y02136000D02*
X02650000D01*
X02661900Y02147900D02*
Y02170000D01*
X02292000Y02128000D02*
X02299000Y02121000D01*
X02364000D01*
X02650000Y02136000D02*
X02661900Y02147900D01*
X02672000Y02129000D02*
X02687300Y02144300D01*
X02364000Y02121000D02*
X02372000Y02129000D01*
X02672000D01*
X02309000Y02130000D02*
X02315000Y02136000D01*
X02378460Y02123460D02*
X02701460D01*
X02712700Y02134700D01*
X02369000Y02114000D02*
X02378460Y02123460D01*
X02383000Y02118000D02*
X02730000D01*
X02006000Y02106000D02*
X02371000D01*
X02383000Y02118000D01*
X02745000Y02108000D02*
X02763500Y02126500D01*
X02390000Y02108000D02*
X02745000D01*
X02687300Y02144300D02*
Y02170000D01*
X02712700Y02134700D02*
Y02170000D01*
X02730000Y02118000D02*
X02738100Y02126100D01*
Y02170000D01*
X02337704Y02185000D02*
X02357704Y02165000D01*
X02238100Y02170000D02*
X02253100Y02185000D01*
X02337704D01*
X01695000Y02165000D02*
X01713000Y02183000D01*
X01684000Y02188000D02*
X01994700D01*
X02012700Y02170000D01*
X01974300Y02183000D02*
X01987300Y02170000D01*
X01713000Y02183000D02*
X01974300D01*
X01661000Y02165000D02*
X01684000Y02188000D01*
X01729000Y02165000D02*
X01742000Y02178000D01*
X02357704Y02165000D02*
X02376000D01*
X01949900Y02158000D02*
X01961900Y02170000D01*
X01596000Y02165000D02*
X01625000Y02194000D01*
X02014100D02*
X02038100Y02170000D01*
X01625000Y02194000D02*
X02014100D01*
X02763500Y02126500D02*
Y02170000D01*
X02388000Y02080000D02*
X02407000Y02099000D01*
X01997000Y02115000D02*
X02006000Y02106000D01*
X01836000Y02161000D02*
X01847000D01*
X01777332Y01833000D02*
X01907000D01*
X01933000Y01859000D01*
X01713166Y01897166D02*
X01777332Y01833000D01*
X01953000Y01859000D02*
X02013166Y01919166D01*
X01933000Y01859000D02*
X01953000D01*
X02013166Y01919166D02*
X02060332Y01872000D01*
X02188000D01*
X02013166Y01919166D02*
Y01946599D01*
X01909000Y01845000D02*
X01986834Y01922834D01*
X01792000Y01845000D02*
X01909000D01*
X01986834Y01922834D02*
Y01946599D01*
X01909000Y01856000D02*
X01974000Y01921000D01*
Y01953000D01*
X01795000Y01856000D02*
X01909000D01*
X01798000Y01867000D02*
X01908000D01*
X01963527Y01922527D01*
Y01958833D01*
X02145401Y02006630D02*
X02152771Y02014000D01*
X02241000D02*
X02245000Y02018000D01*
X02152771Y02014000D02*
X02241000D01*
X02153000Y01994000D02*
X02165630Y02006630D01*
X02254599D01*
X02245000Y02018000D02*
X02273000D01*
X02045264Y02031244D02*
X02132756D01*
X02308000Y01922000D02*
X02391000D01*
X02408000Y01939000D02*
Y01986000D01*
X02391000Y01922000D02*
X02408000Y01939000D01*
X02384000Y01931000D02*
X02400000Y01947000D01*
Y01991000D01*
X02408000Y01986000D02*
X02428630Y02006630D01*
X02395000Y01913000D02*
X02417000Y01935000D01*
Y01975000D02*
X02437000Y01995000D01*
X02417000Y01935000D02*
Y01975000D01*
X02390000Y01948000D02*
Y01992000D01*
X02429244Y02031244D02*
X02454736D01*
X02390000Y01992000D02*
X02429244Y02031244D01*
X02292000Y02043000D02*
X02306000Y02029000D01*
Y01949000D02*
Y02029000D01*
X02308000Y01931000D02*
X02384000D01*
X02297270Y01941730D02*
X02308000Y01931000D01*
X02297270Y01941730D02*
Y02023730D01*
X02277000Y01944000D02*
X02308000Y01913000D01*
X02395000D01*
X02286000Y01944000D02*
X02308000Y01922000D01*
X02286000Y01944000D02*
Y02005000D01*
X02273000Y02018000D02*
X02286000Y02005000D01*
X02270099Y02004901D02*
X02277000Y01998000D01*
Y01944000D02*
Y01998000D01*
X02256328Y02004901D02*
X02270099D01*
X02245264Y02031244D02*
X02289756D01*
X02297270Y02023730D01*
X02270000Y01934000D02*
X02298000Y01906000D01*
X02270000Y01934000D02*
Y01984000D01*
X02298000Y01906000D02*
X02404000D01*
X02431000Y01933000D02*
Y01962924D01*
X02287000Y01898000D02*
X02413000D01*
X02279000Y01888000D02*
X02419000D01*
X02463527Y01932527D01*
X02404000Y01906000D02*
X02431000Y01933000D01*
X02250000Y01917000D02*
X02279000Y01888000D01*
X02413000Y01898000D02*
X02450000Y01935000D01*
X02262000Y01923000D02*
X02287000Y01898000D01*
X02428630Y02006630D02*
X02445401D01*
X02478000Y02024000D02*
X02537658D01*
X02486000Y02018000D02*
X02634031D01*
X02484000Y02016000D02*
X02486000Y02018000D01*
X02634031D02*
X02645401Y02006630D01*
X02454771Y02016000D02*
X02484000D01*
X02544902Y02031244D02*
X02545264D01*
X02537658Y02024000D02*
X02544902Y02031244D01*
X02527243D02*
X02539000Y02043000D01*
X02642979D02*
X02654736Y02031244D01*
X02539000Y02043000D02*
X02642979D01*
X02545264Y02031244D02*
X02546508Y02030000D01*
X02634000D01*
X02454736Y02031244D02*
X02527243D01*
X02634000Y02030000D02*
X02646000Y02018000D01*
X02732021D02*
X02745264Y02031244D01*
X02646000Y02018000D02*
X02732021D01*
X02239000Y02043000D02*
X02292000D01*
X02227244Y02031244D02*
X02239000Y02043000D01*
X02154736Y02031244D02*
X02227244D01*
X02428000Y01880000D02*
X02474000Y01926000D01*
X02267000Y01880000D02*
X02428000D01*
X02236473Y01910527D02*
X02267000Y01880000D01*
X02259000Y01870000D02*
X02449000D01*
X02486834Y01907834D01*
X02226000Y01903000D02*
X02259000Y01870000D01*
X02213166Y01897166D02*
X02253332Y01857000D01*
X02473000D02*
X02513166Y01897166D01*
X02253332Y01857000D02*
X02473000D01*
X02028244Y02031244D02*
X02042000Y02045000D01*
X02140979D02*
X02154736Y02031244D01*
X02042000Y02045000D02*
X02140979D01*
X01954736Y02031244D02*
X02028244D01*
X01919244D02*
X01954736D01*
X01894000Y02006000D02*
X01919244Y02031244D01*
X01915000Y01933000D02*
Y01995000D01*
X01903000Y02003000D02*
X01920000Y02020000D01*
X02034021D01*
X01915000Y01995000D02*
X01926630Y02006630D01*
X01945401D01*
X01978630D01*
X01903000Y01938000D02*
Y02003000D01*
X01894000Y01945000D02*
Y02006000D01*
X01881000Y01932000D02*
X01894000Y01945000D01*
X01825000Y01932000D02*
X01881000D01*
X01895000Y01913000D02*
X01915000Y01933000D01*
X01889000Y01924000D02*
X01903000Y01938000D01*
X01815000Y01913000D02*
X01895000D01*
X01821000Y01924000D02*
X01889000D01*
X01806000Y01902000D02*
X01905000D01*
X01925000Y01922000D02*
Y01980000D01*
X01905000Y01902000D02*
X01925000Y01922000D01*
X01801000Y01891000D02*
X01905000D01*
X01934038Y01920038D02*
Y01965962D01*
X01905000Y01891000D02*
X01934038Y01920038D01*
X01799000Y01879000D02*
X01909000D01*
X01947000Y01917000D02*
Y01960000D01*
X01909000Y01879000D02*
X01947000Y01917000D01*
X01809000Y01936000D02*
X01821000Y01924000D01*
X01809000Y01936000D02*
Y02011000D01*
X01799000Y01929000D02*
Y02001000D01*
Y01929000D02*
X01815000Y01913000D01*
X01787000Y01921000D02*
Y01994000D01*
Y01921000D02*
X01806000Y01902000D01*
X01773000Y01919000D02*
Y01987000D01*
Y01919000D02*
X01801000Y01891000D01*
X01761000Y01917000D02*
Y01970924D01*
Y01917000D02*
X01799000Y01879000D01*
X01750000Y01915000D02*
Y01963000D01*
Y01915000D02*
X01798000Y01867000D01*
X01736473Y01914527D02*
X01795000Y01856000D01*
X01727000Y01910000D02*
X01792000Y01845000D01*
X01742000Y02046000D02*
X01806070D01*
X01842500Y01997500D02*
Y02087500D01*
X01853000Y02098000D01*
X01830000Y01985000D02*
X01842500Y01997500D01*
X01853000Y02098000D02*
X01959000D01*
X01705000Y02038000D02*
X01734000D01*
X01742000Y02046000D01*
X01654736Y02031244D02*
X01698244D01*
X01705000Y02038000D01*
X01638979Y02047000D02*
X01654736Y02031244D01*
X01527244D02*
X01543000Y02047000D01*
X01638979D01*
X01454736Y02031244D02*
X01527244D01*
X02445401Y02006630D02*
X02454771Y02016000D01*
X02545000Y01999000D02*
X02552000Y01992000D01*
X02467076Y01999000D02*
X02545000D01*
X02552000Y01992000D02*
X02566000D01*
X02583000Y01993000D02*
X02740969D01*
X02754599Y02006630D01*
X02569370D02*
X02583000Y01993000D01*
X02437000Y01995000D02*
X02452000D01*
X01986000Y02014000D02*
X02042000D01*
X02048000Y02020000D02*
X02132031D01*
X02042000Y02014000D02*
X02048000Y02020000D01*
X01957000Y01999000D02*
X02017000D01*
X02024630Y02006630D02*
X02054599D01*
X02017000Y01999000D02*
X02024630Y02006630D01*
X01951000Y01993000D02*
X01957000Y01999000D01*
X01948574Y01980498D02*
X01962076Y01994000D01*
X02048000D02*
X02050000Y01992000D01*
X01962076Y01994000D02*
X02048000D01*
X02051426Y01980498D02*
X02070924Y01961000D01*
X01976000Y01989000D02*
X02042924D01*
X01947000Y01960000D02*
X01976000Y01989000D01*
X02042924D02*
X02051426Y01980498D01*
X02132031Y02020000D02*
X02145401Y02006630D01*
X01978630D02*
X01986000Y02014000D01*
X02034021Y02020000D02*
X02045264Y02031244D01*
X01934038Y01965962D02*
X01948574Y01980498D01*
X01925000Y01980000D02*
X01938000Y01993000D01*
X01745264Y02031244D02*
X01788756D01*
X01809000Y02011000D01*
X01545264Y02031244D02*
X01634756D01*
X01648000Y02018000D02*
X01703000D01*
X01634756Y02031244D02*
X01648000Y02018000D01*
X01703000D02*
X01716243Y02031244D01*
X01711630Y02006630D02*
X01725000Y02020000D01*
X01645401Y02006630D02*
X01711630D01*
X01652000Y01993000D02*
X01658815Y01999815D01*
X01723815D01*
X01730630Y02006630D02*
X01754599D01*
X01723815Y01999815D02*
X01730630Y02006630D01*
X01754599D02*
X01774370D01*
X01661076Y01993000D02*
X01767000D01*
X01648574Y01980498D02*
X01661076Y01993000D01*
X01650356Y01964356D02*
X01674000Y01988000D01*
X01743924D02*
X01751426Y01980498D01*
X01674000Y01988000D02*
X01743924D01*
X01716243Y02031244D02*
X01745264D01*
X01736473Y01914527D02*
Y01958833D01*
X01780000Y02020000D02*
X01799000Y02001000D01*
X01445401Y02006630D02*
X01530630D01*
X01542000Y02018000D02*
X01634031D01*
X01530630Y02006630D02*
X01542000Y02018000D01*
X01725000Y02020000D02*
X01780000D01*
X01634031Y02018000D02*
X01645401Y02006630D01*
X01461076Y01993000D02*
X01557000D01*
X01569502Y01980498D02*
X01648574D01*
X01557000Y01993000D02*
X01569502Y01980498D01*
X02213166Y01897166D02*
Y01946599D01*
X02188000Y01872000D02*
X02213166Y01897166D01*
X02186834Y01945834D02*
Y01946599D01*
X02160000Y01919000D02*
X02186834Y01945834D01*
X02151000Y01930000D02*
X02192000Y01971000D01*
X02065306Y01930000D02*
X02151000D01*
X02036473Y01958833D02*
X02065306Y01930000D01*
X02152694Y01948000D02*
X02163527Y01958833D01*
X02065000Y01948000D02*
X02152694D01*
X02070924Y01961000D02*
X02148000D01*
X02069000Y01992000D02*
X02080502Y01980498D01*
X02148574D01*
X01554599Y02006630D02*
X01568229Y01993000D01*
X01652000D01*
X01938000D02*
X01951000D01*
X01774370Y02006630D02*
X01787000Y01994000D01*
X01767000Y01993000D02*
X01773000Y01987000D01*
X01751426Y01980498D02*
X01761000Y01970924D01*
X02050000Y01992000D02*
X02069000D01*
X01983694Y01979000D02*
X02034000D01*
X01963527Y01958833D02*
X01983694Y01979000D01*
X01974000Y01953000D02*
X01990000Y01969000D01*
X02026306D01*
X02034000Y01979000D02*
X02065000Y01948000D01*
X02026306Y01969000D02*
X02036473Y01958833D01*
X02054599Y02006630D02*
X02055229Y02006000D01*
X02080000D01*
X02092000Y01994000D01*
X02153000D01*
X02148574Y01980498D02*
X02167076Y01999000D01*
X02244000D01*
X02254599Y02006630D02*
X02256328Y02004901D01*
X02236473Y01910527D02*
Y01958833D01*
X02183694Y01979000D02*
X02235000D01*
X02250000Y01964000D01*
X02251426Y01980498D02*
X02262000Y01969924D01*
Y01923000D02*
Y01969924D01*
X02250000Y01917000D02*
Y01964000D01*
X02240924Y01991000D02*
X02251426Y01980498D01*
X02345000Y02012000D02*
X02388000D01*
X02330000Y01950000D02*
Y01997000D01*
X02345000Y02012000D01*
X02463630Y02006630D02*
X02554599D01*
X02452000Y01995000D02*
X02463630Y02006630D01*
X02554599D02*
X02569370D01*
X02566000Y01992000D02*
X02572000Y01986000D01*
X02579000Y01918000D02*
X02625000D01*
X02572000Y01925000D02*
X02579000Y01918000D01*
X02572000Y01925000D02*
Y01986000D01*
X02646000Y01958000D02*
X02668498Y01980498D01*
X02751426D01*
X02639000Y01910000D02*
X02646000Y01917000D01*
Y01958000D01*
X02569000Y01910000D02*
X02639000D01*
X02559000Y01920000D02*
X02569000Y01910000D01*
X02551426Y01980498D02*
X02559000Y01972924D01*
Y01920000D02*
Y01972924D01*
X02550000Y01916000D02*
Y01964000D01*
X02536000Y01978000D02*
X02550000Y01964000D01*
Y01916000D02*
X02564000Y01902000D01*
X02482694Y01978000D02*
X02536000D01*
X02625000Y01918000D02*
X02631000Y01924000D01*
Y01962924D01*
X02648574Y01980498D01*
X02448574D02*
X02467076Y01999000D01*
X02477000Y01991000D02*
X02540924D01*
X02450000Y01964000D02*
X02477000Y01991000D01*
X02450000Y01935000D02*
Y01964000D01*
X02564000Y01902000D02*
X02648000D01*
X02663527Y01917527D02*
Y01958833D01*
X02648000Y01902000D02*
X02663527Y01917527D01*
X02536473Y01905527D02*
X02550000Y01892000D01*
X02661000D01*
X02536473Y01905527D02*
Y01958833D01*
X02673000Y01904000D02*
Y01950000D01*
X02661000Y01892000D02*
X02673000Y01904000D01*
X02542000Y01884000D02*
X02675000D01*
X02526000Y01900000D02*
X02542000Y01884000D01*
X02675000D02*
X02686834Y01895834D01*
Y01946599D01*
X02526000Y01900000D02*
Y01952000D01*
X02513166Y01897166D02*
X02537332Y01873000D01*
X02689000D02*
X02713166Y01897166D01*
X02537332Y01873000D02*
X02689000D01*
X01687000Y01871000D02*
X01713166Y01897166D01*
X01513166Y01902834D02*
X01545000Y01871000D01*
X01687000D01*
X01830000Y01950000D02*
Y01985000D01*
X01448574Y01980498D02*
X01461076Y01993000D01*
X02226000Y01903000D02*
Y01952000D01*
X02431000Y01962924D02*
X02448574Y01980498D01*
X02178000Y01991000D02*
X02240924D01*
X02148000Y01961000D02*
X02178000Y01991000D01*
X02540924D02*
X02551426Y01980498D01*
X02463527Y01958833D02*
X02482694Y01978000D01*
X01571000Y01934000D02*
X01645000D01*
X01650356Y01939356D02*
Y01964356D01*
X01645000Y01934000D02*
X01650356Y01939356D01*
X01685694Y01981000D02*
X01732000D01*
X01750000Y01963000D01*
X01663527Y01958833D02*
X01685694Y01981000D01*
X01693000Y01971000D02*
X01724306D01*
X01674000Y01952000D02*
X01693000Y01971000D01*
X01724306D02*
X01736473Y01958833D01*
X01562000Y01943000D02*
X01571000Y01934000D01*
X01551426Y01980498D02*
X01562000Y01969924D01*
Y01943000D02*
Y01969924D01*
X02463527Y01932527D02*
Y01958833D01*
X02163527D02*
X02183694Y01979000D01*
X02192000Y01971000D02*
X02224306D01*
X01674000Y01923000D02*
Y01952000D01*
X01561172Y01923828D02*
X01652828D01*
X01663527Y01934527D02*
Y01958833D01*
X01652828Y01923828D02*
X01663527Y01934527D01*
X01552000Y01933000D02*
X01561172Y01923828D01*
X01665000Y01914000D02*
X01674000Y01923000D01*
X01552000Y01933000D02*
Y01961000D01*
X01540000Y01973000D02*
X01552000Y01961000D01*
X01463527Y01958833D02*
X01477694Y01973000D01*
X01540000D01*
X01486834Y01946599D02*
X01499235Y01959000D01*
X01519000D01*
X02726306Y01969000D02*
X02736473Y01958833D01*
X02673000Y01950000D02*
X02692000Y01969000D01*
X02726306D01*
X02519000Y01959000D02*
X02526000Y01952000D01*
X02474000Y01952000D02*
X02491000Y01969000D01*
X02474000Y01926000D02*
Y01952000D01*
X02491000Y01969000D02*
X02526306D01*
X02536473Y01958833D01*
X02486834Y01907834D02*
Y01946599D01*
X02219000Y01959000D02*
X02226000Y01952000D01*
X02224306Y01971000D02*
X02236473Y01958833D01*
X02199235Y01959000D02*
X02219000D01*
X02186834Y01946599D02*
X02199235Y01959000D01*
X01727000Y01910000D02*
Y01951000D01*
X01718000Y01960000D02*
X01727000Y01951000D01*
X01700235Y01960000D02*
X01718000D01*
X01686834Y01946599D02*
X01700235Y01960000D01*
X01546000Y01914000D02*
X01665000D01*
X01536473Y01923527D02*
Y01958833D01*
Y01923527D02*
X01546000Y01914000D01*
X01519000Y01959000D02*
X01527000Y01951000D01*
Y01910000D02*
Y01951000D01*
Y01910000D02*
X01539000Y01898000D01*
X02486834Y01946599D02*
X02499235Y01959000D01*
X02519000D01*
X01999235D02*
X02019000D01*
X01986834Y01946599D02*
X01999235Y01959000D01*
X01539000Y01898000D02*
X01677000D01*
X01686834Y01907834D02*
Y01946599D01*
X01677000Y01898000D02*
X01686834Y01907834D01*
X02713166Y01897166D02*
Y01946599D01*
X02513166Y01897166D02*
Y01946599D01*
X01713166Y01897166D02*
Y01946599D01*
X01513166Y01902834D02*
Y01946599D01*
X01959000Y02098000D02*
X01968000Y02107000D01*
X02388000Y02012000D02*
Y02080000D01*
X01563500Y02144500D02*
Y02170000D01*
X01468000Y02134000D02*
X01553000D01*
X01563500Y02144500D01*
D12*
X01729874Y01821239D02*
X01919918D01*
X01397000Y02130500D02*
X01436500Y02170000D01*
X01397000Y01956000D02*
Y02130500D01*
X01431088Y01832409D02*
Y01921912D01*
X01397000Y01956000D02*
X01431088Y01921912D01*
X02431088Y01832409D02*
X02631088D01*
X02131088D02*
X02431088D01*
X01931088D02*
X02131088D01*
X01919918Y01821239D02*
X01931088Y01832409D01*
X01431088D02*
X01718704D01*
X01729874Y01821239D01*
D16*
X02900000Y02150000D02*
G03*
X02850000Y02200000I-00050000J00000000D01*
G01*
X01350000D02*
G03*
X01300000Y02150000I00000000J-00050000D01*
G01*
X02850000Y01800000D02*
G03*
X02900000Y01850000I00000000J00050000D01*
G01*
X01300000D02*
G03*
X01350000Y01800000I00050000J00000000D01*
G01*
Y02200000D02*
X02850000Y02200000D01*
X02900000Y02150000D02*
X02900000Y01850000D01*
X01350000Y01800000D02*
X02850000Y01800000D01*
X01300000Y01850000D02*
X01300000Y02150000D01*
D39*
X02700000Y02055000D02*
D03*
X02725559Y02048700D02*
D03*
X02745264Y02031244D02*
D03*
X02754599Y02006630D02*
D03*
X02751426Y01980498D02*
D03*
X02736473Y01958833D02*
D03*
X02713166Y01946599D02*
D03*
X02686834D02*
D03*
X02663527Y01958833D02*
D03*
X02648574Y01980498D02*
D03*
X02645401Y02006630D02*
D03*
X02654736Y02031244D02*
D03*
X02674441Y02048700D02*
D03*
X02500000Y02055000D02*
D03*
X02525560Y02048700D02*
D03*
X02545264Y02031244D02*
D03*
X02554599Y02006630D02*
D03*
X02551426Y01980498D02*
D03*
X02536473Y01958833D02*
D03*
X02513166Y01946599D02*
D03*
X02486834D02*
D03*
X02463527Y01958833D02*
D03*
X02448574Y01980498D02*
D03*
X02445401Y02006630D02*
D03*
X02454736Y02031244D02*
D03*
X02474440Y02048700D02*
D03*
X02370000Y01950000D02*
D03*
X02330000D02*
D03*
X02200000Y02055000D02*
D03*
X02225560Y02048700D02*
D03*
X02245264Y02031244D02*
D03*
X02254599Y02006630D02*
D03*
X02251426Y01980498D02*
D03*
X02236473Y01958833D02*
D03*
X02213166Y01946599D02*
D03*
X02186834D02*
D03*
X02163527Y01958833D02*
D03*
X02148574Y01980498D02*
D03*
X02145401Y02006630D02*
D03*
X02154736Y02031244D02*
D03*
X02174440Y02048700D02*
D03*
X02000000Y02055000D02*
D03*
X02025560Y02048700D02*
D03*
X02045264Y02031244D02*
D03*
X02054599Y02006630D02*
D03*
X02051426Y01980498D02*
D03*
X02036473Y01958833D02*
D03*
X02013166Y01946599D02*
D03*
X01986834D02*
D03*
X01963527Y01958833D02*
D03*
X01948574Y01980498D02*
D03*
X01945401Y02006630D02*
D03*
X01954736Y02031244D02*
D03*
X01974440Y02048700D02*
D03*
X01700000Y02055000D02*
D03*
X01725560Y02048700D02*
D03*
X01745264Y02031244D02*
D03*
X01754599Y02006630D02*
D03*
X01751426Y01980498D02*
D03*
X01736473Y01958833D02*
D03*
X01713166Y01946599D02*
D03*
X01686834D02*
D03*
X01663527Y01958833D02*
D03*
X01648574Y01980498D02*
D03*
X01645401Y02006630D02*
D03*
X01654736Y02031244D02*
D03*
X01674440Y02048700D02*
D03*
X01500000Y02055000D02*
D03*
X01525560Y02048700D02*
D03*
X01545264Y02031244D02*
D03*
X01554599Y02006630D02*
D03*
X01551426Y01980498D02*
D03*
X01536473Y01958833D02*
D03*
X01513166Y01946599D02*
D03*
X01486834D02*
D03*
X01463527Y01958833D02*
D03*
X01448574Y01980498D02*
D03*
X01445401Y02006630D02*
D03*
X01454736Y02031244D02*
D03*
X01474440Y02048700D02*
D03*
X01870000Y01950000D02*
D03*
X01830000D02*
D03*
D40*
X02636500Y02170000D02*
D03*
X02661900D02*
D03*
X02687300D02*
D03*
X02712700D02*
D03*
X02738100D02*
D03*
X02238100D02*
D03*
X02212700D02*
D03*
X02187300D02*
D03*
X02161900D02*
D03*
X02136500D02*
D03*
X01936500D02*
D03*
X01961900D02*
D03*
X01987300D02*
D03*
X02012700D02*
D03*
X02038100D02*
D03*
X01538100D02*
D03*
X01512700D02*
D03*
X01487300D02*
D03*
X01461900D02*
D03*
X01436500D02*
D03*
D41*
X02763500D02*
D03*
X02263500D02*
D03*
X02063500D02*
D03*
X01563500D02*
D03*
D42*
X02850000Y01850000D02*
D03*
X01350000Y02150000D02*
D03*
X02850000D02*
D03*
X01350000Y01850000D02*
D03*
D43*
X01808000Y02152000D02*
D03*
X01865000Y02159000D02*
D03*
X02050000Y02140000D02*
D03*
X02330000Y02170000D02*
D03*
X02590000Y02150000D02*
D03*
X02610000D02*
D03*
X02810000Y02120000D02*
D03*
Y02140000D02*
D03*
Y02160000D02*
D03*
X02850000Y01950000D02*
D03*
X02875000D02*
D03*
Y01925000D02*
D03*
Y01900000D02*
D03*
X02800000Y01825000D02*
D03*
Y01850000D02*
D03*
Y01875000D02*
D03*
X02775000D02*
D03*
Y01850000D02*
D03*
Y01825000D02*
D03*
X02660000Y01830000D02*
D03*
Y01850000D02*
D03*
X02602500Y01855000D02*
D03*
X02460000Y01845000D02*
D03*
X02317500D02*
D03*
X02160000Y01850000D02*
D03*
Y01890000D02*
D03*
X02100000D02*
D03*
Y01850000D02*
D03*
X01800000Y02080000D02*
D03*
X01870000Y02110000D02*
D03*
X01876107Y01993196D02*
D03*
X01330000Y01890000D02*
D03*
X01410000Y01870000D02*
D03*
X01375000Y02075000D02*
D03*
X01390000Y02170000D02*
D03*
X01590000Y02180000D02*
D03*
X01610000Y02105000D02*
D03*
X01600000Y02070000D02*
D03*
Y02005000D02*
D03*
Y01955000D02*
D03*
X01650000Y01885000D02*
D03*
X01625000D02*
D03*
X01600000D02*
D03*
X01650000Y01850000D02*
D03*
X01625000D02*
D03*
X01600000D02*
D03*
X01375000Y01950000D02*
D03*
Y01975000D02*
D03*
Y02000000D02*
D03*
Y02025000D02*
D03*
Y02050000D02*
D03*
X01350000D02*
D03*
Y02025000D02*
D03*
Y02000000D02*
D03*
Y01975000D02*
D03*
Y01950000D02*
D03*
X01325000D02*
D03*
Y01975000D02*
D03*
Y02000000D02*
D03*
Y02025000D02*
D03*
Y02050000D02*
D03*
X02155000Y02087000D02*
D03*
X02655500Y02088000D02*
D03*
X02410058Y02067082D02*
D03*
X02410000Y02045000D02*
D03*
X01807250Y01821250D02*
D03*
X02380000Y02152000D02*
D03*
X01968000Y02134000D02*
D03*
X02105000Y02136000D02*
D03*
X02304000Y02147000D02*
D03*
X02309000Y02130000D02*
D03*
X01763000Y02165000D02*
D03*
X01729000D02*
D03*
X01596000D02*
D03*
X02376000D02*
D03*
X02543000D02*
D03*
X02475000D02*
D03*
X02441000D02*
D03*
X01695000D02*
D03*
X01661000D02*
D03*
X01836000Y02161000D02*
D03*
X01607000Y02146000D02*
D03*
X01931088Y01832409D02*
D03*
X01431088D02*
D03*
X02131088D02*
D03*
X02631088D02*
D03*
X02431088D02*
D03*
X01842500Y01997500D02*
D03*
X02388000Y02012000D02*
D03*
X01468000Y02134000D02*
D03*
M02*
