G04*
G04 #@! TF.GenerationSoftware,Altium Limited,Altium Designer,23.4.1 (23)*
G04*
G04 Layer_Color=8388736*
%FSAX44Y44*%
%MOMM*%
G71*
G04*
G04 #@! TF.SameCoordinates,1AFE91A9-0CB0-4E6F-966B-FDDC03A74EF8*
G04*
G04*
G04 #@! TF.FilePolarity,Negative*
G04*
G01*
G75*
%ADD16C,0.1000*%
%ADD25R,1.4500X0.8500*%
%ADD26R,1.0500X0.7500*%
%ADD27R,1.3500X0.7500*%
%ADD28R,1.0500X1.7500*%
%ADD29R,0.7500X1.0500*%
%ADD30R,0.7500X1.3500*%
%ADD31C,1.1500*%
%ADD32R,1.7500X1.0500*%
%ADD33C,1.6500*%
%ADD34C,1.7500*%
%ADD35R,1.7500X1.7500*%
%ADD36C,5.6500*%
%ADD37C,0.7500*%
D16*
X02900000Y02150000D02*
G03*
X02850000Y02200000I-00050000J00000000D01*
G01*
X01350000D02*
G03*
X01300000Y02150000I00000000J-00050000D01*
G01*
X02850000Y01800000D02*
G03*
X02900000Y01850000I00000000J00050000D01*
G01*
X01300000D02*
G03*
X01350000Y01800000I00050000J00000000D01*
G01*
Y02200000D02*
X02850000Y02200000D01*
X02900000Y02150000D02*
X02900000Y01850000D01*
X01350000Y01800000D02*
X02850000Y01800000D01*
X01300000Y01850000D02*
X01300000Y02150000D01*
D25*
X02700000Y01990500D02*
D03*
Y02009500D02*
D03*
X02500000Y01990500D02*
D03*
Y02009500D02*
D03*
X02200000Y01990500D02*
D03*
Y02009500D02*
D03*
X02000000Y01990500D02*
D03*
Y02009500D02*
D03*
X01700000Y01990500D02*
D03*
Y02009500D02*
D03*
X01500000Y01990500D02*
D03*
Y02009500D02*
D03*
D26*
X02788000Y02103500D02*
D03*
Y02118500D02*
D03*
X02773000Y02103500D02*
D03*
Y02118500D02*
D03*
X02288000Y02103500D02*
D03*
Y02118500D02*
D03*
X02273000Y02103500D02*
D03*
Y02118500D02*
D03*
X02088000Y02103500D02*
D03*
Y02118500D02*
D03*
X02073000Y02103500D02*
D03*
Y02118500D02*
D03*
X01588000Y02118500D02*
D03*
Y02103500D02*
D03*
X01573000Y02118500D02*
D03*
Y02103500D02*
D03*
X01350000Y02083500D02*
D03*
Y02068500D02*
D03*
X02850000Y02083500D02*
D03*
Y02068500D02*
D03*
X02700000Y01890000D02*
D03*
Y01875000D02*
D03*
X02500000Y01890000D02*
D03*
Y01875000D02*
D03*
X02370000Y01890000D02*
D03*
Y01875000D02*
D03*
X02200000Y01890000D02*
D03*
Y01875000D02*
D03*
X02000000Y01890000D02*
D03*
Y01875000D02*
D03*
X01870000Y01890000D02*
D03*
Y01875000D02*
D03*
X01700000Y01890000D02*
D03*
Y01875000D02*
D03*
X01500000Y01890000D02*
D03*
Y01875000D02*
D03*
X02740000Y01847500D02*
D03*
Y01832500D02*
D03*
X02725000Y01847500D02*
D03*
Y01832500D02*
D03*
X02525000Y01847500D02*
D03*
Y01832500D02*
D03*
X02540000Y01847500D02*
D03*
Y01832500D02*
D03*
X02395000Y01847500D02*
D03*
Y01832500D02*
D03*
X02410000Y01847500D02*
D03*
Y01832500D02*
D03*
X02240000Y01847500D02*
D03*
Y01832500D02*
D03*
X02225000Y01847500D02*
D03*
Y01832500D02*
D03*
X02040000Y01847500D02*
D03*
Y01832500D02*
D03*
X02025000Y01847500D02*
D03*
Y01832500D02*
D03*
X01910000Y01847500D02*
D03*
Y01832500D02*
D03*
X01895000Y01847500D02*
D03*
Y01832500D02*
D03*
X01740000Y01847500D02*
D03*
Y01832500D02*
D03*
X01725000Y01847500D02*
D03*
Y01832500D02*
D03*
X01540000Y01847500D02*
D03*
Y01832500D02*
D03*
X01525000Y01847500D02*
D03*
Y01832500D02*
D03*
X01350000Y01931500D02*
D03*
Y01916500D02*
D03*
X02850000Y01931500D02*
D03*
Y01916500D02*
D03*
D27*
X02756000Y02122500D02*
D03*
Y02103500D02*
D03*
X02730000Y02113000D02*
D03*
X02668000Y02122500D02*
D03*
Y02103500D02*
D03*
X02642000Y02113000D02*
D03*
X02256000Y02122500D02*
D03*
Y02103500D02*
D03*
X02230000Y02113000D02*
D03*
X02168000Y02122500D02*
D03*
Y02103500D02*
D03*
X02142000Y02113000D02*
D03*
X02056000Y02122500D02*
D03*
Y02103500D02*
D03*
X02030000Y02113000D02*
D03*
X01968000Y02122500D02*
D03*
Y02103500D02*
D03*
X01942000Y02113000D02*
D03*
X01442000D02*
D03*
X01468000Y02103500D02*
D03*
Y02122500D02*
D03*
X01556000D02*
D03*
Y02103500D02*
D03*
X01530000Y02113000D02*
D03*
D28*
X02684500Y02107000D02*
D03*
X02713500D02*
D03*
X02684500Y02129000D02*
D03*
X02713500D02*
D03*
X02313500Y02012000D02*
D03*
X02342500D02*
D03*
Y02034000D02*
D03*
X02313500D02*
D03*
X02184500Y02107000D02*
D03*
X02213500D02*
D03*
X02184500Y02129000D02*
D03*
X02213500D02*
D03*
X01984500Y02107000D02*
D03*
X02013500D02*
D03*
X01984500Y02129000D02*
D03*
X02013500D02*
D03*
X01513500D02*
D03*
X01484500D02*
D03*
X01513500Y02107000D02*
D03*
X01484500D02*
D03*
D29*
X02626500Y02103000D02*
D03*
X02611500D02*
D03*
X02567500Y02180000D02*
D03*
X02552500D02*
D03*
X02567500Y02165000D02*
D03*
X02552500D02*
D03*
X02431500Y02180000D02*
D03*
X02416500D02*
D03*
X02431500Y02165000D02*
D03*
X02416500D02*
D03*
X02366500Y02055000D02*
D03*
X02381500D02*
D03*
X02323500Y02097000D02*
D03*
X02308500D02*
D03*
X02323500Y02112000D02*
D03*
X02308500D02*
D03*
X02126500Y02103000D02*
D03*
X02111500D02*
D03*
X01926500D02*
D03*
X01911500D02*
D03*
X01833500Y02055000D02*
D03*
X01818500D02*
D03*
X01651500Y02180000D02*
D03*
X01636500D02*
D03*
X01651500Y02165000D02*
D03*
X01636500D02*
D03*
X01842500Y02128000D02*
D03*
X01827500D02*
D03*
X01842500Y02143000D02*
D03*
X01827500D02*
D03*
X01787500Y02165000D02*
D03*
X01772500D02*
D03*
X01787500Y02180000D02*
D03*
X01772500D02*
D03*
X01411500Y02103000D02*
D03*
X01426500D02*
D03*
X02518500Y02165000D02*
D03*
X02533500D02*
D03*
X02484500D02*
D03*
X02499500D02*
D03*
X02450500D02*
D03*
X02465500D02*
D03*
X01738500D02*
D03*
X01753500D02*
D03*
X01704500D02*
D03*
X01719500D02*
D03*
X01670500D02*
D03*
X01685500D02*
D03*
X02518500Y02180000D02*
D03*
X02533500D02*
D03*
X02484500D02*
D03*
X02499500D02*
D03*
X02450500D02*
D03*
X02465500D02*
D03*
X01738500D02*
D03*
X01753500D02*
D03*
X01704500D02*
D03*
X01719500D02*
D03*
X01670500D02*
D03*
X01685500D02*
D03*
D30*
X02548500Y02148000D02*
D03*
X02567500D02*
D03*
X02558000Y02122000D02*
D03*
X02514500Y02148000D02*
D03*
X02533500D02*
D03*
X02524000Y02122000D02*
D03*
X02480500Y02148000D02*
D03*
X02499500D02*
D03*
X02490000Y02122000D02*
D03*
X02446500Y02148000D02*
D03*
X02465500D02*
D03*
X02456000Y02122000D02*
D03*
X02412500Y02148000D02*
D03*
X02431500D02*
D03*
X02422000Y02122000D02*
D03*
X02376500Y02012000D02*
D03*
X02357500D02*
D03*
X02367000Y02038000D02*
D03*
X02304500Y02080000D02*
D03*
X02323500D02*
D03*
X02314000Y02054000D02*
D03*
X01842500Y02012000D02*
D03*
X01823500D02*
D03*
X01833000Y02038000D02*
D03*
X01823500Y02111000D02*
D03*
X01842500D02*
D03*
X01833000Y02085000D02*
D03*
X01768500Y02148000D02*
D03*
X01787500D02*
D03*
X01778000Y02122000D02*
D03*
X01734500Y02148000D02*
D03*
X01753500D02*
D03*
X01744000Y02122000D02*
D03*
X01700500Y02148000D02*
D03*
X01719500D02*
D03*
X01710000Y02122000D02*
D03*
X01666500Y02148000D02*
D03*
X01685500D02*
D03*
X01676000Y02122000D02*
D03*
X01632500Y02148000D02*
D03*
X01651500D02*
D03*
X01642000Y02122000D02*
D03*
X02709500Y01834000D02*
D03*
X02690500D02*
D03*
X02700000Y01860000D02*
D03*
X02509500Y01834000D02*
D03*
X02490500D02*
D03*
X02500000Y01860000D02*
D03*
X02379500Y01834000D02*
D03*
X02360500D02*
D03*
X02370000Y01860000D02*
D03*
X02209500Y01834000D02*
D03*
X02190500D02*
D03*
X02200000Y01860000D02*
D03*
X02009500Y01834000D02*
D03*
X01990500D02*
D03*
X02000000Y01860000D02*
D03*
X01879500Y01834000D02*
D03*
X01860500D02*
D03*
X01870000Y01860000D02*
D03*
X01709500Y01834000D02*
D03*
X01690500D02*
D03*
X01700000Y01860000D02*
D03*
X01509500Y01834000D02*
D03*
X01490500D02*
D03*
X01500000Y01860000D02*
D03*
D31*
X02422000Y02104000D02*
D03*
X01911000Y02119000D02*
D03*
X02111000D02*
D03*
X01642000Y02104000D02*
D03*
X02475000Y01860000D02*
D03*
X01975000D02*
D03*
X01675000D02*
D03*
X01475000D02*
D03*
X01411000Y02119000D02*
D03*
X02370000Y01906000D02*
D03*
X01870000D02*
D03*
X02675000Y01860000D02*
D03*
X02175000D02*
D03*
X02611000Y02119000D02*
D03*
X02396000Y02055000D02*
D03*
X01804000D02*
D03*
X02558000Y02104000D02*
D03*
X02524000D02*
D03*
X02490000D02*
D03*
X02456000D02*
D03*
X01778000D02*
D03*
X01744000D02*
D03*
X01710000D02*
D03*
X01676000D02*
D03*
D32*
X01861000Y02012500D02*
D03*
Y02041500D02*
D03*
Y02056500D02*
D03*
Y02085500D02*
D03*
D33*
X02700000Y02055000D02*
D03*
X02725559Y02048700D02*
D03*
X02745264Y02031244D02*
D03*
X02754599Y02006630D02*
D03*
X02751426Y01980498D02*
D03*
X02736473Y01958833D02*
D03*
X02713166Y01946599D02*
D03*
X02686834D02*
D03*
X02663527Y01958833D02*
D03*
X02648574Y01980498D02*
D03*
X02645401Y02006630D02*
D03*
X02654736Y02031244D02*
D03*
X02674441Y02048700D02*
D03*
X02500000Y02055000D02*
D03*
X02525560Y02048700D02*
D03*
X02545264Y02031244D02*
D03*
X02554599Y02006630D02*
D03*
X02551426Y01980498D02*
D03*
X02536473Y01958833D02*
D03*
X02513166Y01946599D02*
D03*
X02486834D02*
D03*
X02463527Y01958833D02*
D03*
X02448574Y01980498D02*
D03*
X02445401Y02006630D02*
D03*
X02454736Y02031244D02*
D03*
X02474440Y02048700D02*
D03*
X02370000Y01950000D02*
D03*
X02330000D02*
D03*
X02200000Y02055000D02*
D03*
X02225560Y02048700D02*
D03*
X02245264Y02031244D02*
D03*
X02254599Y02006630D02*
D03*
X02251426Y01980498D02*
D03*
X02236473Y01958833D02*
D03*
X02213166Y01946599D02*
D03*
X02186834D02*
D03*
X02163527Y01958833D02*
D03*
X02148574Y01980498D02*
D03*
X02145401Y02006630D02*
D03*
X02154736Y02031244D02*
D03*
X02174440Y02048700D02*
D03*
X02000000Y02055000D02*
D03*
X02025560Y02048700D02*
D03*
X02045264Y02031244D02*
D03*
X02054599Y02006630D02*
D03*
X02051426Y01980498D02*
D03*
X02036473Y01958833D02*
D03*
X02013166Y01946599D02*
D03*
X01986834D02*
D03*
X01963527Y01958833D02*
D03*
X01948574Y01980498D02*
D03*
X01945401Y02006630D02*
D03*
X01954736Y02031244D02*
D03*
X01974440Y02048700D02*
D03*
X01700000Y02055000D02*
D03*
X01725560Y02048700D02*
D03*
X01745264Y02031244D02*
D03*
X01754599Y02006630D02*
D03*
X01751426Y01980498D02*
D03*
X01736473Y01958833D02*
D03*
X01713166Y01946599D02*
D03*
X01686834D02*
D03*
X01663527Y01958833D02*
D03*
X01648574Y01980498D02*
D03*
X01645401Y02006630D02*
D03*
X01654736Y02031244D02*
D03*
X01674440Y02048700D02*
D03*
X01500000Y02055000D02*
D03*
X01525560Y02048700D02*
D03*
X01545264Y02031244D02*
D03*
X01554599Y02006630D02*
D03*
X01551426Y01980498D02*
D03*
X01536473Y01958833D02*
D03*
X01513166Y01946599D02*
D03*
X01486834D02*
D03*
X01463527Y01958833D02*
D03*
X01448574Y01980498D02*
D03*
X01445401Y02006630D02*
D03*
X01454736Y02031244D02*
D03*
X01474440Y02048700D02*
D03*
X01870000Y01950000D02*
D03*
X01830000D02*
D03*
D34*
X02636500Y02170000D02*
D03*
X02661900D02*
D03*
X02687300D02*
D03*
X02712700D02*
D03*
X02738100D02*
D03*
X02238100D02*
D03*
X02212700D02*
D03*
X02187300D02*
D03*
X02161900D02*
D03*
X02136500D02*
D03*
X01936500D02*
D03*
X01961900D02*
D03*
X01987300D02*
D03*
X02012700D02*
D03*
X02038100D02*
D03*
X01538100D02*
D03*
X01512700D02*
D03*
X01487300D02*
D03*
X01461900D02*
D03*
X01436500D02*
D03*
D35*
X02763500D02*
D03*
X02263500D02*
D03*
X02063500D02*
D03*
X01563500D02*
D03*
D36*
X02850000Y01850000D02*
D03*
X01350000Y02150000D02*
D03*
X02850000D02*
D03*
X01350000Y01850000D02*
D03*
D37*
X01808000Y02152000D02*
D03*
X01865000Y02159000D02*
D03*
X02050000Y02140000D02*
D03*
X02330000Y02170000D02*
D03*
X02590000Y02150000D02*
D03*
X02610000D02*
D03*
X02810000Y02120000D02*
D03*
Y02140000D02*
D03*
Y02160000D02*
D03*
X02850000Y01950000D02*
D03*
X02875000D02*
D03*
Y01925000D02*
D03*
Y01900000D02*
D03*
X02800000Y01825000D02*
D03*
Y01850000D02*
D03*
Y01875000D02*
D03*
X02775000D02*
D03*
Y01850000D02*
D03*
Y01825000D02*
D03*
X02660000Y01830000D02*
D03*
Y01850000D02*
D03*
X02602500Y01855000D02*
D03*
X02460000Y01845000D02*
D03*
X02317500D02*
D03*
X02160000Y01850000D02*
D03*
Y01890000D02*
D03*
X02100000D02*
D03*
Y01850000D02*
D03*
X01800000Y02080000D02*
D03*
X01870000Y02110000D02*
D03*
X01876107Y01993196D02*
D03*
X01330000Y01890000D02*
D03*
X01410000Y01870000D02*
D03*
X01375000Y02075000D02*
D03*
X01390000Y02170000D02*
D03*
X01590000Y02180000D02*
D03*
X01610000Y02105000D02*
D03*
X01600000Y02070000D02*
D03*
Y02005000D02*
D03*
Y01955000D02*
D03*
X01650000Y01885000D02*
D03*
X01625000D02*
D03*
X01600000D02*
D03*
X01650000Y01850000D02*
D03*
X01625000D02*
D03*
X01600000D02*
D03*
X01375000Y01950000D02*
D03*
Y01975000D02*
D03*
Y02000000D02*
D03*
Y02025000D02*
D03*
Y02050000D02*
D03*
X01350000D02*
D03*
Y02025000D02*
D03*
Y02000000D02*
D03*
Y01975000D02*
D03*
Y01950000D02*
D03*
X01325000D02*
D03*
Y01975000D02*
D03*
Y02000000D02*
D03*
Y02025000D02*
D03*
Y02050000D02*
D03*
X02155000Y02087000D02*
D03*
X02655500Y02088000D02*
D03*
X02410058Y02067082D02*
D03*
X02410000Y02045000D02*
D03*
X01807250Y01821250D02*
D03*
X02380000Y02152000D02*
D03*
X01968000Y02134000D02*
D03*
X02105000Y02136000D02*
D03*
X02304000Y02147000D02*
D03*
X02309000Y02130000D02*
D03*
X01763000Y02165000D02*
D03*
X01729000D02*
D03*
X01596000D02*
D03*
X02376000D02*
D03*
X02543000D02*
D03*
X02475000D02*
D03*
X02441000D02*
D03*
X01695000D02*
D03*
X01661000D02*
D03*
X01836000Y02161000D02*
D03*
X01607000Y02146000D02*
D03*
X01931088Y01832409D02*
D03*
X01431088D02*
D03*
X02131088D02*
D03*
X02631088D02*
D03*
X02431088D02*
D03*
X01842500Y01997500D02*
D03*
X02388000Y02012000D02*
D03*
X01468000Y02134000D02*
D03*
M02*
