G04*
G04 #@! TF.GenerationSoftware,Altium Limited,Altium Designer,23.4.1 (23)*
G04*
G04 Layer_Physical_Order=1*
G04 Layer_Color=255*
%FSAX44Y44*%
%MOMM*%
G71*
G04*
G04 #@! TF.SameCoordinates,1AFE91A9-0CB0-4E6F-966B-FDDC03A74EF8*
G04*
G04*
G04 #@! TF.FilePolarity,Positive*
G04*
G01*
G75*
%ADD10C,0.2000*%
%ADD12C,0.4000*%
%ADD16C,0.1000*%
%ADD17R,1.3000X0.7000*%
%ADD18R,0.9000X0.6000*%
%ADD19R,1.2000X0.6000*%
%ADD20R,0.9000X1.6000*%
%ADD21R,0.6000X0.9000*%
%ADD22R,0.6000X1.2000*%
%ADD23C,1.0000*%
%ADD24R,1.6000X0.9000*%
%ADD38C,0.6000*%
%ADD39C,1.5000*%
%ADD40C,1.6000*%
%ADD41R,1.6000X1.6000*%
%ADD42C,5.5000*%
%ADD43C,0.6000*%
G36*
X02850000Y02197961D02*
X02853144Y02197961D01*
X02859377Y02197140D01*
X02865450Y02195513D01*
X02871258Y02193107D01*
X02876703Y02189964D01*
X02881690Y02186136D01*
X02886136Y02181691D01*
X02889963Y02176703D01*
X02893107Y02171258D01*
X02895513Y02165450D01*
X02897140Y02159377D01*
X02897961Y02153143D01*
X02897961Y02150000D01*
Y01850000D01*
Y01846857D01*
X02897140Y01840623D01*
X02895513Y01834550D01*
X02893107Y01828742D01*
X02889964Y01823297D01*
X02886136Y01818309D01*
X02881691Y01813864D01*
X02876703Y01810036D01*
X02871258Y01806893D01*
X02865450Y01804487D01*
X02859377Y01802860D01*
X02853144Y01802039D01*
X02850000D01*
X01350000Y01802039D01*
X01346856Y01802039D01*
X01340623Y01802860D01*
X01334550Y01804487D01*
X01328742Y01806893D01*
X01323297Y01810036D01*
X01318309Y01813864D01*
X01313864Y01818309D01*
X01310036Y01823297D01*
X01306893Y01828742D01*
X01304487Y01834550D01*
X01302860Y01840623D01*
X01302039Y01846857D01*
Y01850000D01*
X01302039Y02150000D01*
Y02153143D01*
X01302860Y02159377D01*
X01304487Y02165450D01*
X01306893Y02171258D01*
X01310036Y02176703D01*
X01313864Y02181691D01*
X01318309Y02186136D01*
X01323297Y02189964D01*
X01328742Y02193107D01*
X01334550Y02195513D01*
X01340623Y02197140D01*
X01346856Y02197961D01*
X01350000Y02197961D01*
X02850000Y02197961D01*
D02*
G37*
%LPC*%
G36*
X02505000Y02195059D02*
X02505000Y02195059D01*
X02405000D01*
X02405000Y02195059D01*
X02403829Y02194826D01*
X02402837Y02194163D01*
X02397733Y02189059D01*
X02177900D01*
X02177900Y02189059D01*
X02176729Y02188826D01*
X02175737Y02188163D01*
X02166478Y02178904D01*
X02165760Y02179319D01*
X02163217Y02180000D01*
X02160583D01*
X02158040Y02179319D01*
X02155760Y02178002D01*
X02153898Y02176140D01*
X02152581Y02173860D01*
X02151900Y02171317D01*
Y02168683D01*
X02152581Y02166140D01*
X02153898Y02163860D01*
X02155760Y02161998D01*
X02158040Y02160681D01*
X02160583Y02160000D01*
X02163217D01*
X02165760Y02160681D01*
X02168040Y02161998D01*
X02169902Y02163860D01*
X02171219Y02166140D01*
X02171900Y02168683D01*
Y02171317D01*
X02171219Y02173860D01*
X02170804Y02174578D01*
X02179167Y02182941D01*
X02399000D01*
X02399000Y02182941D01*
X02400170Y02183174D01*
X02401163Y02183837D01*
X02406267Y02188941D01*
X02503733D01*
X02505190Y02187484D01*
X02504390Y02186515D01*
X02503496Y02186500D01*
X02503280Y02186500D01*
X02494500D01*
Y02173500D01*
X02496441D01*
Y02171500D01*
X02494500D01*
Y02158500D01*
X02496441D01*
Y02156000D01*
X02494500D01*
Y02140000D01*
X02504500D01*
Y02156000D01*
X02502559D01*
Y02158500D01*
X02504500D01*
Y02171500D01*
X02502559D01*
Y02173500D01*
X02504500D01*
Y02185236D01*
X02505770Y02186001D01*
X02505941Y02185921D01*
Y02167000D01*
X02505941Y02167000D01*
X02506174Y02165829D01*
X02506837Y02164837D01*
X02508837Y02162837D01*
X02509829Y02162174D01*
X02511000Y02161941D01*
X02513500D01*
Y02158500D01*
X02523500D01*
Y02171500D01*
X02513500D01*
Y02169685D01*
X02512230Y02169145D01*
X02512059Y02169310D01*
Y02188000D01*
X02511826Y02189171D01*
X02511163Y02190163D01*
X02511163Y02190163D01*
X02507163Y02194163D01*
X02506171Y02194826D01*
X02505000Y02195059D01*
D02*
G37*
G36*
X02421500Y02171500D02*
X02411500D01*
Y02168059D01*
X02380012D01*
X02378832Y02169239D01*
X02376995Y02170000D01*
X02375005D01*
X02373168Y02169239D01*
X02371761Y02167832D01*
X02371000Y02165995D01*
Y02164005D01*
X02371761Y02162168D01*
X02373168Y02160761D01*
X02375005Y02160000D01*
X02376995D01*
X02378832Y02160761D01*
X02380012Y02161941D01*
X02411500D01*
Y02158500D01*
X02421500D01*
Y02171500D01*
D02*
G37*
G36*
X01641500D02*
X01631500D01*
Y02168059D01*
X01600012D01*
X01598832Y02169239D01*
X01596994Y02170000D01*
X01595005D01*
X01593168Y02169239D01*
X01591761Y02167832D01*
X01591000Y02165995D01*
Y02164005D01*
X01591761Y02162168D01*
X01593168Y02160761D01*
X01595005Y02160000D01*
X01596994D01*
X01598832Y02160761D01*
X01600012Y02161941D01*
X01631500D01*
Y02158500D01*
X01641500D01*
Y02171500D01*
D02*
G37*
G36*
X01836994Y02166000D02*
X01835005D01*
X01833168Y02165239D01*
X01831988Y02164059D01*
X01830500D01*
X01830500Y02164059D01*
X01829329Y02163826D01*
X01828337Y02163163D01*
X01828337Y02163163D01*
X01825337Y02160163D01*
X01824674Y02159171D01*
X01824441Y02158000D01*
X01824441Y02158000D01*
Y02149500D01*
X01822500D01*
Y02136500D01*
X01832500D01*
Y02149500D01*
X01830559D01*
Y02156733D01*
X01831025Y02157199D01*
X01832730D01*
X01833168Y02156761D01*
X01835005Y02156000D01*
X01836994D01*
X01838832Y02156761D01*
X01840239Y02158168D01*
X01841000Y02160005D01*
Y02161995D01*
X01840239Y02163832D01*
X01838832Y02165239D01*
X01836994Y02166000D01*
D02*
G37*
G36*
X02773500Y02180000D02*
X02753500D01*
Y02160000D01*
X02773500D01*
Y02180000D01*
D02*
G37*
G36*
X02739417D02*
X02736783D01*
X02734240Y02179319D01*
X02731960Y02178002D01*
X02730098Y02176140D01*
X02728781Y02173860D01*
X02728100Y02171317D01*
Y02168683D01*
X02728781Y02166140D01*
X02730098Y02163860D01*
X02731960Y02161998D01*
X02734240Y02160681D01*
X02736783Y02160000D01*
X02739417D01*
X02741960Y02160681D01*
X02744240Y02161998D01*
X02746102Y02163860D01*
X02747419Y02166140D01*
X02748100Y02168683D01*
Y02171317D01*
X02747419Y02173860D01*
X02746102Y02176140D01*
X02744240Y02178002D01*
X02741960Y02179319D01*
X02739417Y02180000D01*
D02*
G37*
G36*
X02714016D02*
X02711383D01*
X02708840Y02179319D01*
X02706560Y02178002D01*
X02704698Y02176140D01*
X02703381Y02173860D01*
X02702700Y02171317D01*
Y02168683D01*
X02703381Y02166140D01*
X02704698Y02163860D01*
X02706560Y02161998D01*
X02708840Y02160681D01*
X02711383Y02160000D01*
X02714016D01*
X02716560Y02160681D01*
X02718840Y02161998D01*
X02720702Y02163860D01*
X02722018Y02166140D01*
X02722700Y02168683D01*
Y02171317D01*
X02722018Y02173860D01*
X02720702Y02176140D01*
X02718840Y02178002D01*
X02716560Y02179319D01*
X02714016Y02180000D01*
D02*
G37*
G36*
X02688617D02*
X02685984D01*
X02683440Y02179319D01*
X02681160Y02178002D01*
X02679298Y02176140D01*
X02677982Y02173860D01*
X02677300Y02171317D01*
Y02168683D01*
X02677982Y02166140D01*
X02679298Y02163860D01*
X02681160Y02161998D01*
X02683440Y02160681D01*
X02685984Y02160000D01*
X02688617D01*
X02691160Y02160681D01*
X02693440Y02161998D01*
X02695302Y02163860D01*
X02696619Y02166140D01*
X02697300Y02168683D01*
Y02171317D01*
X02696619Y02173860D01*
X02695302Y02176140D01*
X02693440Y02178002D01*
X02691160Y02179319D01*
X02688617Y02180000D01*
D02*
G37*
G36*
X02663217D02*
X02660583D01*
X02658040Y02179319D01*
X02655760Y02178002D01*
X02653898Y02176140D01*
X02652581Y02173860D01*
X02651900Y02171317D01*
Y02168683D01*
X02652581Y02166140D01*
X02653898Y02163860D01*
X02655760Y02161998D01*
X02658040Y02160681D01*
X02660583Y02160000D01*
X02663217D01*
X02665760Y02160681D01*
X02668040Y02161998D01*
X02669902Y02163860D01*
X02671219Y02166140D01*
X02671900Y02168683D01*
Y02171317D01*
X02671219Y02173860D01*
X02669902Y02176140D01*
X02668040Y02178002D01*
X02665760Y02179319D01*
X02663217Y02180000D01*
D02*
G37*
G36*
X02273500D02*
X02253500D01*
Y02160000D01*
X02273500D01*
Y02180000D01*
D02*
G37*
G36*
X02239417D02*
X02236783D01*
X02234240Y02179319D01*
X02231960Y02178002D01*
X02230098Y02176140D01*
X02228781Y02173860D01*
X02228100Y02171317D01*
Y02168683D01*
X02228781Y02166140D01*
X02230098Y02163860D01*
X02231960Y02161998D01*
X02234240Y02160681D01*
X02236783Y02160000D01*
X02239417D01*
X02241960Y02160681D01*
X02244240Y02161998D01*
X02246102Y02163860D01*
X02247419Y02166140D01*
X02248100Y02168683D01*
Y02171317D01*
X02247419Y02173860D01*
X02246102Y02176140D01*
X02244240Y02178002D01*
X02241960Y02179319D01*
X02239417Y02180000D01*
D02*
G37*
G36*
X02214017D02*
X02211384D01*
X02208840Y02179319D01*
X02206560Y02178002D01*
X02204698Y02176140D01*
X02203382Y02173860D01*
X02202700Y02171317D01*
Y02168683D01*
X02203382Y02166140D01*
X02204698Y02163860D01*
X02206560Y02161998D01*
X02208840Y02160681D01*
X02211384Y02160000D01*
X02214017D01*
X02216560Y02160681D01*
X02218840Y02161998D01*
X02220702Y02163860D01*
X02222018Y02166140D01*
X02222700Y02168683D01*
Y02171317D01*
X02222018Y02173860D01*
X02220702Y02176140D01*
X02218840Y02178002D01*
X02216560Y02179319D01*
X02214017Y02180000D01*
D02*
G37*
G36*
X02073500D02*
X02053500D01*
Y02160000D01*
X02073500D01*
Y02180000D01*
D02*
G37*
G36*
X02039417D02*
X02036783D01*
X02034240Y02179319D01*
X02031960Y02178002D01*
X02030098Y02176140D01*
X02028781Y02173860D01*
X02028100Y02171317D01*
Y02168683D01*
X02028781Y02166140D01*
X02030098Y02163860D01*
X02031960Y02161998D01*
X02034240Y02160681D01*
X02036783Y02160000D01*
X02039417D01*
X02041960Y02160681D01*
X02044240Y02161998D01*
X02046102Y02163860D01*
X02047419Y02166140D01*
X02048100Y02168683D01*
Y02171317D01*
X02047419Y02173860D01*
X02046102Y02176140D01*
X02044240Y02178002D01*
X02041960Y02179319D01*
X02039417Y02180000D01*
D02*
G37*
G36*
X02014017D02*
X02011384D01*
X02008840Y02179319D01*
X02006560Y02178002D01*
X02004698Y02176140D01*
X02003382Y02173860D01*
X02002700Y02171317D01*
Y02168683D01*
X02003382Y02166140D01*
X02004698Y02163860D01*
X02006560Y02161998D01*
X02008840Y02160681D01*
X02011384Y02160000D01*
X02014017D01*
X02016560Y02160681D01*
X02018840Y02161998D01*
X02020702Y02163860D01*
X02022018Y02166140D01*
X02022700Y02168683D01*
Y02171317D01*
X02022018Y02173860D01*
X02020702Y02176140D01*
X02018840Y02178002D01*
X02016560Y02179319D01*
X02014017Y02180000D01*
D02*
G37*
G36*
X01988616D02*
X01985983D01*
X01983440Y02179319D01*
X01981160Y02178002D01*
X01979298Y02176140D01*
X01977982Y02173860D01*
X01977300Y02171317D01*
Y02168683D01*
X01977982Y02166140D01*
X01979298Y02163860D01*
X01981160Y02161998D01*
X01983440Y02160681D01*
X01985983Y02160000D01*
X01988616D01*
X01991160Y02160681D01*
X01993440Y02161998D01*
X01995302Y02163860D01*
X01996618Y02166140D01*
X01997300Y02168683D01*
Y02171317D01*
X01996618Y02173860D01*
X01995302Y02176140D01*
X01993440Y02178002D01*
X01991160Y02179319D01*
X01988616Y02180000D01*
D02*
G37*
G36*
X01963217D02*
X01960583D01*
X01958040Y02179319D01*
X01955760Y02178002D01*
X01953898Y02176140D01*
X01952581Y02173860D01*
X01951900Y02171317D01*
Y02168683D01*
X01952581Y02166140D01*
X01953898Y02163860D01*
X01955760Y02161998D01*
X01958040Y02160681D01*
X01960583Y02160000D01*
X01963217D01*
X01965760Y02160681D01*
X01968040Y02161998D01*
X01969902Y02163860D01*
X01971219Y02166140D01*
X01971900Y02168683D01*
Y02171317D01*
X01971219Y02173860D01*
X01969902Y02176140D01*
X01968040Y02178002D01*
X01965760Y02179319D01*
X01963217Y02180000D01*
D02*
G37*
G36*
X01937816D02*
X01935184D01*
X01932640Y02179319D01*
X01930360Y02178002D01*
X01928498Y02176140D01*
X01927182Y02173860D01*
X01926967Y02173059D01*
X01901000D01*
X01899829Y02172826D01*
X01898837Y02172163D01*
X01898837Y02172163D01*
X01889837Y02163163D01*
X01889174Y02162171D01*
X01888941Y02161000D01*
X01888941Y02161000D01*
Y02039000D01*
X01888941Y02039000D01*
X01889174Y02037829D01*
X01889837Y02036837D01*
X01906941Y02019733D01*
Y01852500D01*
X01903500D01*
Y01842500D01*
X01916500D01*
Y01852500D01*
X01913059D01*
Y02021000D01*
X01913059Y02021000D01*
X01912826Y02022171D01*
X01912163Y02023163D01*
X01895059Y02040267D01*
Y02159733D01*
X01902267Y02166941D01*
X01926967D01*
X01927182Y02166140D01*
X01928498Y02163860D01*
X01930360Y02161998D01*
X01932640Y02160681D01*
X01935184Y02160000D01*
X01937816D01*
X01940360Y02160681D01*
X01942640Y02161998D01*
X01944502Y02163860D01*
X01945818Y02166140D01*
X01946500Y02168683D01*
Y02171317D01*
X01945818Y02173860D01*
X01944502Y02176140D01*
X01942640Y02178002D01*
X01940360Y02179319D01*
X01937816Y02180000D01*
D02*
G37*
G36*
X01539417D02*
X01536783D01*
X01534240Y02179319D01*
X01531960Y02178002D01*
X01530098Y02176140D01*
X01528781Y02173860D01*
X01528100Y02171317D01*
Y02168683D01*
X01528781Y02166140D01*
X01530098Y02163860D01*
X01531960Y02161998D01*
X01534240Y02160681D01*
X01536783Y02160000D01*
X01539417D01*
X01541960Y02160681D01*
X01544240Y02161998D01*
X01546102Y02163860D01*
X01547419Y02166140D01*
X01548100Y02168683D01*
Y02171317D01*
X01547419Y02173860D01*
X01546102Y02176140D01*
X01544240Y02178002D01*
X01541960Y02179319D01*
X01539417Y02180000D01*
D02*
G37*
G36*
X01463217D02*
X01460583D01*
X01458040Y02179319D01*
X01455760Y02178002D01*
X01453898Y02176140D01*
X01452581Y02173860D01*
X01451900Y02171317D01*
Y02168683D01*
X01452581Y02166140D01*
X01452996Y02165422D01*
X01438633Y02151059D01*
X01404000D01*
X01402829Y02150826D01*
X01401837Y02150163D01*
X01388837Y02137163D01*
X01388174Y02136171D01*
X01387941Y02135000D01*
X01387941Y02135000D01*
Y01846837D01*
X01387941Y01846837D01*
X01388174Y01845667D01*
X01388837Y01844674D01*
X01426674Y01806837D01*
X01427667Y01806174D01*
X01428837Y01805941D01*
X01564500D01*
X01564500Y01805941D01*
X01565670Y01806174D01*
X01566663Y01806837D01*
X01575750Y01815924D01*
X01584837Y01806837D01*
X01585829Y01806174D01*
X01587000Y01805941D01*
X01587000Y01805941D01*
X01764500D01*
X01764500Y01805941D01*
X01765670Y01806174D01*
X01766663Y01806837D01*
X01775750Y01815924D01*
X01784837Y01806837D01*
X01785829Y01806174D01*
X01787000Y01805941D01*
X01787000Y01805941D01*
X02064500D01*
X02064500Y01805941D01*
X02065670Y01806174D01*
X02066663Y01806837D01*
X02075750Y01815924D01*
X02084837Y01806837D01*
X02085829Y01806174D01*
X02087000Y01805941D01*
X02087000Y01805941D01*
X02264500D01*
X02264500Y01805941D01*
X02265670Y01806174D01*
X02266663Y01806837D01*
X02275750Y01815924D01*
X02284837Y01806837D01*
X02285829Y01806174D01*
X02287000Y01805941D01*
X02287000Y01805941D01*
X02564500D01*
X02564500Y01805941D01*
X02565670Y01806174D01*
X02566663Y01806837D01*
X02575750Y01815924D01*
X02584837Y01806837D01*
X02585829Y01806174D01*
X02587000Y01805941D01*
X02587000Y01805941D01*
X02747000D01*
X02747000Y01805941D01*
X02748170Y01806174D01*
X02749163Y01806837D01*
X02757163Y01814837D01*
X02757826Y01815829D01*
X02758059Y01817000D01*
Y01846000D01*
X02757826Y01847171D01*
X02757163Y01848163D01*
X02757163Y01848163D01*
X02755663Y01849663D01*
X02754670Y01850326D01*
X02753500Y01850559D01*
X02753500Y01850559D01*
X02746500D01*
Y01852500D01*
X02733500D01*
Y01842500D01*
X02746500D01*
Y01844441D01*
X02751941D01*
Y01818267D01*
X02745733Y01812059D01*
X02588267D01*
X02578809Y01821517D01*
Y01840250D01*
X02578576Y01841420D01*
X02577913Y01842413D01*
X02577913Y01842413D01*
X02570663Y01849663D01*
X02569670Y01850326D01*
X02568500Y01850559D01*
X02568500Y01850559D01*
X02546500D01*
Y01852500D01*
X02533500D01*
Y01842500D01*
X02546500D01*
Y01844441D01*
X02567233D01*
X02572691Y01838983D01*
Y01821517D01*
X02563233Y01812059D01*
X02288267D01*
X02278809Y01821517D01*
Y01840250D01*
X02278576Y01841420D01*
X02277913Y01842413D01*
X02277913Y01842413D01*
X02270663Y01849663D01*
X02269671Y01850326D01*
X02268500Y01850559D01*
X02268500Y01850559D01*
X02246500D01*
Y01852500D01*
X02233500D01*
Y01842500D01*
X02246500D01*
Y01844441D01*
X02267233D01*
X02272691Y01838983D01*
Y01821517D01*
X02263233Y01812059D01*
X02088267D01*
X02078809Y01821517D01*
Y01840250D01*
X02078576Y01841420D01*
X02077913Y01842413D01*
X02077913Y01842413D01*
X02070663Y01849663D01*
X02069671Y01850326D01*
X02068500Y01850559D01*
X02068500Y01850559D01*
X02046500D01*
Y01852500D01*
X02033500D01*
Y01842500D01*
X02046500D01*
Y01844441D01*
X02067233D01*
X02072691Y01838983D01*
Y01821517D01*
X02063233Y01812059D01*
X01788267D01*
X01778809Y01821517D01*
Y01840250D01*
X01778576Y01841420D01*
X01777913Y01842413D01*
X01777913Y01842413D01*
X01770663Y01849663D01*
X01769671Y01850326D01*
X01768500Y01850559D01*
X01768500Y01850559D01*
X01746500D01*
Y01852500D01*
X01733500D01*
Y01842500D01*
X01746500D01*
Y01844441D01*
X01767233D01*
X01772691Y01838983D01*
Y01821517D01*
X01763233Y01812059D01*
X01588267D01*
X01578809Y01821517D01*
Y01840250D01*
X01578576Y01841420D01*
X01577913Y01842413D01*
X01577913Y01842413D01*
X01570663Y01849663D01*
X01569671Y01850326D01*
X01568500Y01850559D01*
X01568500Y01850559D01*
X01546500D01*
Y01852500D01*
X01533500D01*
Y01842500D01*
X01546500D01*
Y01844441D01*
X01567233D01*
X01572691Y01838983D01*
Y01821517D01*
X01563233Y01812059D01*
X01430104D01*
X01394059Y01848104D01*
Y02133733D01*
X01405267Y02144941D01*
X01439900D01*
X01439900Y02144941D01*
X01441071Y02145174D01*
X01442063Y02145837D01*
X01457322Y02161096D01*
X01458040Y02160681D01*
X01460583Y02160000D01*
X01463217D01*
X01465760Y02160681D01*
X01468040Y02161998D01*
X01469902Y02163860D01*
X01471219Y02166140D01*
X01471900Y02168683D01*
Y02171317D01*
X01471219Y02173860D01*
X01469902Y02176140D01*
X01468040Y02178002D01*
X01465760Y02179319D01*
X01463217Y02180000D01*
D02*
G37*
G36*
X01437816D02*
X01435184D01*
X01432640Y02179319D01*
X01430360Y02178002D01*
X01428498Y02176140D01*
X01427182Y02173860D01*
X01426500Y02171317D01*
Y02168683D01*
X01427182Y02166140D01*
X01428498Y02163860D01*
X01430360Y02161998D01*
X01432640Y02160681D01*
X01435184Y02160000D01*
X01437816D01*
X01440360Y02160681D01*
X01442640Y02161998D01*
X01444502Y02163860D01*
X01445818Y02166140D01*
X01446500Y02168683D01*
Y02171317D01*
X01445818Y02173860D01*
X01444502Y02176140D01*
X01442640Y02178002D01*
X01440360Y02179319D01*
X01437816Y02180000D01*
D02*
G37*
G36*
X02538500Y02186500D02*
X02528500D01*
Y02173500D01*
X02530441D01*
Y02171500D01*
X02528500D01*
Y02158500D01*
X02530441D01*
Y02156000D01*
X02528500D01*
Y02140000D01*
X02538500D01*
Y02156000D01*
X02536559D01*
Y02158500D01*
X02538500D01*
Y02160633D01*
X02539770Y02161159D01*
X02540168Y02160761D01*
X02542005Y02160000D01*
X02543994D01*
X02545832Y02160761D01*
X02546230Y02161159D01*
X02547500Y02160633D01*
Y02158500D01*
X02557500D01*
Y02171500D01*
X02547500D01*
Y02169367D01*
X02546230Y02168841D01*
X02545832Y02169239D01*
X02543994Y02170000D01*
X02542005D01*
X02540168Y02169239D01*
X02539770Y02168841D01*
X02538500Y02169367D01*
Y02171500D01*
X02536559D01*
Y02173500D01*
X02538500D01*
Y02186500D01*
D02*
G37*
G36*
X02470500D02*
X02460500D01*
Y02173500D01*
X02462441D01*
Y02171500D01*
X02460500D01*
Y02158500D01*
X02462441D01*
Y02156000D01*
X02460500D01*
Y02140000D01*
X02470500D01*
Y02156000D01*
X02468559D01*
Y02158500D01*
X02470500D01*
Y02160633D01*
X02471770Y02161159D01*
X02472168Y02160761D01*
X02474005Y02160000D01*
X02475995D01*
X02477832Y02160761D01*
X02478230Y02161159D01*
X02479500Y02160633D01*
Y02158500D01*
X02489500D01*
Y02171500D01*
X02479500D01*
Y02169367D01*
X02478230Y02168841D01*
X02477832Y02169239D01*
X02475995Y02170000D01*
X02474005D01*
X02472168Y02169239D01*
X02471770Y02168841D01*
X02470500Y02169367D01*
Y02171500D01*
X02468559D01*
Y02173500D01*
X02470500D01*
Y02186500D01*
D02*
G37*
G36*
X02436500D02*
X02426500D01*
Y02173500D01*
X02428441D01*
Y02171500D01*
X02426500D01*
Y02158500D01*
X02428441D01*
Y02156000D01*
X02426500D01*
Y02140000D01*
X02436500D01*
Y02156000D01*
X02434559D01*
Y02158500D01*
X02436500D01*
Y02160633D01*
X02437770Y02161159D01*
X02438168Y02160761D01*
X02440005Y02160000D01*
X02441994D01*
X02443832Y02160761D01*
X02444230Y02161159D01*
X02445500Y02160633D01*
Y02158500D01*
X02455500D01*
Y02171500D01*
X02445500D01*
Y02169367D01*
X02444230Y02168841D01*
X02443832Y02169239D01*
X02441994Y02170000D01*
X02440005D01*
X02438168Y02169239D01*
X02437770Y02168841D01*
X02436500Y02169367D01*
Y02171500D01*
X02434559D01*
Y02173500D01*
X02436500D01*
Y02186500D01*
D02*
G37*
G36*
X01758500D02*
X01748500D01*
Y02173500D01*
X01750441D01*
Y02171500D01*
X01748500D01*
Y02158500D01*
X01750441D01*
Y02156000D01*
X01748500D01*
Y02140000D01*
X01758500D01*
Y02156000D01*
X01756559D01*
Y02158500D01*
X01758500D01*
Y02160633D01*
X01759770Y02161159D01*
X01760168Y02160761D01*
X01762005Y02160000D01*
X01763994D01*
X01765832Y02160761D01*
X01766230Y02161159D01*
X01767500Y02160633D01*
Y02158500D01*
X01777500D01*
Y02171500D01*
X01767500D01*
Y02169367D01*
X01766230Y02168841D01*
X01765832Y02169239D01*
X01763994Y02170000D01*
X01762005D01*
X01760168Y02169239D01*
X01759770Y02168841D01*
X01758500Y02169367D01*
Y02171500D01*
X01756559D01*
Y02173500D01*
X01758500D01*
Y02186500D01*
D02*
G37*
G36*
X01724500D02*
X01714500D01*
Y02173500D01*
X01716441D01*
Y02171500D01*
X01714500D01*
Y02158500D01*
X01716441D01*
Y02156000D01*
X01714500D01*
Y02140000D01*
X01724500D01*
Y02156000D01*
X01722559D01*
Y02158500D01*
X01724500D01*
Y02160633D01*
X01725770Y02161159D01*
X01726168Y02160761D01*
X01728005Y02160000D01*
X01729995D01*
X01731832Y02160761D01*
X01732230Y02161159D01*
X01733500Y02160633D01*
Y02158500D01*
X01743500D01*
Y02171500D01*
X01733500D01*
Y02169367D01*
X01732230Y02168841D01*
X01731832Y02169239D01*
X01729995Y02170000D01*
X01728005D01*
X01726168Y02169239D01*
X01725770Y02168841D01*
X01724500Y02169367D01*
Y02171500D01*
X01722559D01*
Y02173500D01*
X01724500D01*
Y02186500D01*
D02*
G37*
G36*
X01690500D02*
X01680500D01*
Y02173500D01*
X01682441D01*
Y02171500D01*
X01680500D01*
Y02158500D01*
X01682441D01*
Y02156000D01*
X01680500D01*
Y02140000D01*
X01690500D01*
Y02156000D01*
X01688559D01*
Y02158500D01*
X01690500D01*
Y02160633D01*
X01691770Y02161159D01*
X01692168Y02160761D01*
X01694005Y02160000D01*
X01695995D01*
X01697832Y02160761D01*
X01698230Y02161159D01*
X01699500Y02160633D01*
Y02158500D01*
X01709500D01*
Y02171500D01*
X01699500D01*
Y02169367D01*
X01698230Y02168841D01*
X01697832Y02169239D01*
X01695995Y02170000D01*
X01694005D01*
X01692168Y02169239D01*
X01691770Y02168841D01*
X01690500Y02169367D01*
Y02171500D01*
X01688559D01*
Y02173500D01*
X01690500D01*
Y02186500D01*
D02*
G37*
G36*
X01656500D02*
X01646500D01*
Y02173500D01*
X01648441D01*
Y02171500D01*
X01646500D01*
Y02158500D01*
X01648441D01*
Y02156000D01*
X01646500D01*
Y02140000D01*
X01656500D01*
Y02156000D01*
X01654559D01*
Y02158500D01*
X01656500D01*
Y02160633D01*
X01657770Y02161159D01*
X01658168Y02160761D01*
X01660005Y02160000D01*
X01661994D01*
X01663832Y02160761D01*
X01664230Y02161159D01*
X01665500Y02160633D01*
Y02158500D01*
X01675500D01*
Y02171500D01*
X01665500D01*
Y02169367D01*
X01664230Y02168841D01*
X01663832Y02169239D01*
X01661994Y02170000D01*
X01660005D01*
X01658168Y02169239D01*
X01657770Y02168841D01*
X01656500Y02169367D01*
Y02171500D01*
X01654559D01*
Y02173500D01*
X01656500D01*
Y02186500D01*
D02*
G37*
G36*
X01576500Y02183000D02*
X01550500D01*
Y02157000D01*
X01576500D01*
Y02183000D01*
D02*
G37*
G36*
X02304995Y02152000D02*
X02303005D01*
X02301168Y02151239D01*
X02299988Y02150059D01*
X02293000D01*
X02293000Y02150059D01*
X02291830Y02149826D01*
X02290837Y02149163D01*
X02285837Y02144163D01*
X02285174Y02143170D01*
X02284941Y02142000D01*
X02284941Y02142000D01*
Y02123500D01*
X02281500D01*
Y02113500D01*
X02294500D01*
Y02123500D01*
X02291059D01*
Y02140733D01*
X02294267Y02143941D01*
X02299988D01*
X02301168Y02142761D01*
X02303005Y02142000D01*
X02304995D01*
X02306832Y02142761D01*
X02308239Y02144168D01*
X02309000Y02146005D01*
Y02147995D01*
X02308239Y02149832D01*
X02306832Y02151239D01*
X02304995Y02152000D01*
D02*
G37*
G36*
X02188616Y02180000D02*
X02185983D01*
X02183440Y02179319D01*
X02181160Y02178002D01*
X02179298Y02176140D01*
X02177982Y02173860D01*
X02177300Y02171317D01*
Y02168683D01*
X02177982Y02166140D01*
X02179298Y02163860D01*
X02181160Y02161998D01*
X02183440Y02160681D01*
X02185983Y02160000D01*
X02188616D01*
X02191160Y02160681D01*
X02191878Y02161096D01*
X02201895Y02151079D01*
X02201369Y02149809D01*
X02147517D01*
X02139559Y02157767D01*
Y02160467D01*
X02140360Y02160681D01*
X02142640Y02161998D01*
X02144502Y02163860D01*
X02145818Y02166140D01*
X02146500Y02168683D01*
Y02171317D01*
X02145818Y02173860D01*
X02144502Y02176140D01*
X02142640Y02178002D01*
X02140360Y02179319D01*
X02137816Y02180000D01*
X02135184D01*
X02132640Y02179319D01*
X02130360Y02178002D01*
X02128498Y02176140D01*
X02127182Y02173860D01*
X02126500Y02171317D01*
Y02168683D01*
X02127182Y02166140D01*
X02128498Y02163860D01*
X02130360Y02161998D01*
X02132640Y02160681D01*
X02133441Y02160467D01*
Y02156500D01*
X02133441Y02156500D01*
X02133674Y02155329D01*
X02134337Y02154337D01*
X02144087Y02144587D01*
X02144087Y02144587D01*
X02145079Y02143924D01*
X02146250Y02143691D01*
X02220733D01*
X02240191Y02124233D01*
Y02089750D01*
X02240191Y02089750D01*
X02240424Y02088580D01*
X02241087Y02087587D01*
X02278941Y02049733D01*
Y01945000D01*
X02278941Y01945000D01*
X02279174Y01943829D01*
X02279837Y01942837D01*
X02293837Y01928837D01*
X02293837Y01928837D01*
X02294829Y01928174D01*
X02296000Y01927941D01*
X02296000Y01927941D01*
X02343000D01*
X02343000Y01927941D01*
X02344171Y01928174D01*
X02345163Y01928837D01*
X02353163Y01936837D01*
X02353163Y01936837D01*
X02353826Y01937829D01*
X02354059Y01939000D01*
X02354059Y01939000D01*
Y01960733D01*
X02359267Y01965941D01*
X02399733D01*
X02406941Y01958733D01*
Y01852500D01*
X02403500D01*
Y01842500D01*
X02416500D01*
Y01852500D01*
X02413059D01*
Y01960000D01*
X02413059Y01960000D01*
X02412826Y01961171D01*
X02412163Y01962163D01*
X02403163Y01971163D01*
X02402171Y01971826D01*
X02401000Y01972059D01*
X02401000Y01972059D01*
X02358000D01*
X02356829Y01971826D01*
X02355837Y01971163D01*
X02348837Y01964163D01*
X02348174Y01963170D01*
X02347941Y01962000D01*
X02347941Y01962000D01*
Y01940267D01*
X02341733Y01934059D01*
X02297267D01*
X02285059Y01946267D01*
Y02051000D01*
X02284826Y02052171D01*
X02284163Y02053163D01*
X02246309Y02091017D01*
Y02125500D01*
X02246309Y02125500D01*
X02246076Y02126671D01*
X02245413Y02127663D01*
X02225405Y02147671D01*
X02225931Y02148941D01*
X02274000D01*
X02274000Y02148941D01*
X02275170Y02149174D01*
X02276163Y02149837D01*
X02282267Y02155941D01*
X02338733D01*
X02344837Y02149837D01*
X02345829Y02149174D01*
X02347000Y02148941D01*
X02375988D01*
X02377168Y02147761D01*
X02379005Y02147000D01*
X02380995D01*
X02382832Y02147761D01*
X02384239Y02149168D01*
X02385000Y02151006D01*
Y02152995D01*
X02384239Y02154832D01*
X02382832Y02156239D01*
X02380995Y02157000D01*
X02379005D01*
X02377168Y02156239D01*
X02375988Y02155059D01*
X02348267D01*
X02342163Y02161163D01*
X02341171Y02161826D01*
X02340000Y02162059D01*
X02340000Y02162059D01*
X02281000D01*
X02279830Y02161826D01*
X02278837Y02161163D01*
X02272733Y02155059D01*
X02206567D01*
X02196204Y02165422D01*
X02196618Y02166140D01*
X02197300Y02168683D01*
Y02171317D01*
X02196618Y02173860D01*
X02195302Y02176140D01*
X02193440Y02178002D01*
X02191160Y02179319D01*
X02188616Y02180000D01*
D02*
G37*
G36*
X02572500Y02186500D02*
X02562500D01*
Y02173500D01*
X02564441D01*
Y02171500D01*
X02562500D01*
Y02158500D01*
X02564441D01*
Y02156000D01*
X02562500D01*
Y02140000D01*
X02572500D01*
Y02156000D01*
X02570559D01*
Y02158500D01*
X02572500D01*
Y02171500D01*
X02570559D01*
Y02173500D01*
X02572500D01*
Y02186500D01*
D02*
G37*
G36*
X01792500D02*
X01782500D01*
Y02173500D01*
X01784441D01*
Y02171500D01*
X01782500D01*
Y02158500D01*
X01784441D01*
Y02156000D01*
X01782500D01*
Y02140000D01*
X01792500D01*
Y02156000D01*
X01790559D01*
Y02158500D01*
X01792500D01*
Y02171500D01*
X01790559D01*
Y02173500D01*
X01792500D01*
Y02186500D01*
D02*
G37*
G36*
X01994000Y02142000D02*
X01975000D01*
Y02140110D01*
X01973730Y02139584D01*
X01972912Y02140402D01*
X01971088Y02141455D01*
X01969053Y02142000D01*
X01966947D01*
X01964912Y02141455D01*
X01963088Y02140402D01*
X01961598Y02138912D01*
X01960545Y02137088D01*
X01960000Y02135053D01*
Y02132947D01*
X01960315Y02131770D01*
X01959382Y02130500D01*
X01957000D01*
Y02114500D01*
X01978000D01*
Y02106559D01*
X01976000D01*
Y02108500D01*
X01960000D01*
Y02098500D01*
X01976000D01*
Y02100441D01*
X01978000D01*
Y02097000D01*
X01991000D01*
Y02103941D01*
X01994000D01*
X01994000Y02103941D01*
X01995170Y02104174D01*
X01996163Y02104837D01*
X02000163Y02108837D01*
X02000163Y02108837D01*
X02000826Y02109829D01*
X02001059Y02111000D01*
Y02124733D01*
X02002267Y02125941D01*
X02007000D01*
Y02119000D01*
X02020000D01*
Y02139000D01*
X02007000D01*
Y02132059D01*
X02001000D01*
X02001000Y02132059D01*
X01999830Y02131826D01*
X01998837Y02131163D01*
X01998837Y02131163D01*
X01995837Y02128163D01*
X01994242Y02128062D01*
X01994000Y02128255D01*
Y02142000D01*
D02*
G37*
G36*
X01494000D02*
X01475000D01*
Y02140110D01*
X01473730Y02139584D01*
X01472912Y02140402D01*
X01471088Y02141455D01*
X01469053Y02142000D01*
X01466947D01*
X01464912Y02141455D01*
X01463088Y02140402D01*
X01461598Y02138912D01*
X01460545Y02137088D01*
X01460000Y02135053D01*
Y02132947D01*
X01460315Y02131770D01*
X01459382Y02130500D01*
X01457000D01*
Y02114500D01*
X01478000D01*
Y02106559D01*
X01476000D01*
Y02108500D01*
X01460000D01*
Y02098500D01*
X01476000D01*
Y02100441D01*
X01478000D01*
Y02097000D01*
X01491000D01*
Y02103941D01*
X01494000D01*
X01494000Y02103941D01*
X01495170Y02104174D01*
X01496163Y02104837D01*
X01500163Y02108837D01*
X01500163Y02108837D01*
X01500826Y02109829D01*
X01501059Y02111000D01*
Y02124733D01*
X01502267Y02125941D01*
X01507000D01*
Y02119000D01*
X01520000D01*
Y02139000D01*
X01507000D01*
Y02132059D01*
X01501000D01*
X01501000Y02132059D01*
X01499830Y02131826D01*
X01498837Y02131163D01*
X01498837Y02131163D01*
X01495837Y02128163D01*
X01494242Y02128062D01*
X01494000Y02128255D01*
Y02142000D01*
D02*
G37*
G36*
X02105995Y02141000D02*
X02104005D01*
X02102168Y02140239D01*
X02100988Y02139059D01*
X02093000D01*
X02093000Y02139059D01*
X02091829Y02138826D01*
X02090837Y02138163D01*
X02085837Y02133163D01*
X02085174Y02132171D01*
X02084941Y02131000D01*
X02084941Y02131000D01*
Y02123500D01*
X02081500D01*
Y02113500D01*
X02094500D01*
Y02123500D01*
X02091059D01*
Y02129733D01*
X02094267Y02132941D01*
X02100988D01*
X02102168Y02131761D01*
X02104005Y02131000D01*
X02105995D01*
X02107832Y02131761D01*
X02109239Y02133168D01*
X02110000Y02135005D01*
Y02136995D01*
X02109239Y02138832D01*
X02107832Y02140239D01*
X02105995Y02141000D01*
D02*
G37*
G36*
X01607995Y02151000D02*
X01606005D01*
X01604168Y02150239D01*
X01602761Y02148832D01*
X01602000Y02146995D01*
Y02145005D01*
X01602761Y02143168D01*
X01603941Y02141988D01*
Y02123267D01*
X01602233Y02121559D01*
X01594500D01*
Y02123500D01*
X01581500D01*
Y02113500D01*
X01594500D01*
Y02115441D01*
X01603500D01*
X01603500Y02115441D01*
X01604671Y02115674D01*
X01605663Y02116337D01*
X01609163Y02119837D01*
X01609163Y02119837D01*
X01609826Y02120829D01*
X01610059Y02122000D01*
X01610059Y02122000D01*
Y02141988D01*
X01611239Y02143168D01*
X01612000Y02145005D01*
Y02146995D01*
X01611239Y02148832D01*
X01609832Y02150239D01*
X01607995Y02151000D01*
D02*
G37*
G36*
X02738000Y02118000D02*
X02722000D01*
Y02116059D01*
X02720000D01*
Y02117000D01*
X02707000D01*
Y02097000D01*
X02720000D01*
Y02109941D01*
X02722000D01*
Y02108000D01*
X02738000D01*
Y02118000D01*
D02*
G37*
G36*
X02238000D02*
X02222000D01*
Y02116059D01*
X02220000D01*
Y02117000D01*
X02207000D01*
Y02097000D01*
X02220000D01*
Y02109941D01*
X02222000D01*
Y02108000D01*
X02238000D01*
Y02118000D01*
D02*
G37*
G36*
X02038000D02*
X02022000D01*
Y02116059D01*
X02020000D01*
Y02117000D01*
X02007000D01*
Y02097000D01*
X02020000D01*
Y02109941D01*
X02022000D01*
Y02108000D01*
X02038000D01*
Y02118000D01*
D02*
G37*
G36*
X01538000D02*
X01522000D01*
Y02116059D01*
X01520000D01*
Y02117000D01*
X01507000D01*
Y02097000D01*
X01520000D01*
Y02109941D01*
X01522000D01*
Y02108000D01*
X01538000D01*
Y02118000D01*
D02*
G37*
G36*
X02779000Y02191059D02*
X02779000Y02191059D01*
X02643000D01*
X02641830Y02190826D01*
X02640837Y02190163D01*
X02634337Y02183663D01*
X02633674Y02182670D01*
X02633441Y02181500D01*
X02633441Y02181500D01*
Y02179533D01*
X02632640Y02179319D01*
X02630360Y02178002D01*
X02628498Y02176140D01*
X02627181Y02173860D01*
X02626500Y02171317D01*
Y02168683D01*
X02627181Y02166140D01*
X02628498Y02163860D01*
X02630360Y02161998D01*
X02632640Y02160681D01*
X02635183Y02160000D01*
X02637816D01*
X02640360Y02160681D01*
X02642640Y02161998D01*
X02644502Y02163860D01*
X02645818Y02166140D01*
X02646500Y02168683D01*
Y02171317D01*
X02645818Y02173860D01*
X02644502Y02176140D01*
X02642640Y02178002D01*
X02640360Y02179319D01*
X02640044Y02180718D01*
X02644267Y02184941D01*
X02777733D01*
X02784941Y02177733D01*
Y02123500D01*
X02781500D01*
Y02113500D01*
X02794500D01*
Y02123500D01*
X02791059D01*
Y02179000D01*
X02791059Y02179000D01*
X02790826Y02180170D01*
X02790163Y02181163D01*
X02790163Y02181163D01*
X02781163Y02190163D01*
X02780171Y02190826D01*
X02779000Y02191059D01*
D02*
G37*
G36*
X02694000Y02142000D02*
X02675000D01*
Y02130500D01*
X02657000D01*
Y02128518D01*
X02655159Y02128152D01*
X02653174Y02126826D01*
X02651174Y02124826D01*
X02649848Y02122841D01*
X02649482Y02121000D01*
X02631000D01*
Y02119118D01*
X02630000D01*
X02627659Y02118652D01*
X02625674Y02117326D01*
X02622174Y02113826D01*
X02621418Y02112695D01*
X02620135Y02112717D01*
X02619527Y02113770D01*
X02620319Y02115140D01*
X02621000Y02117684D01*
Y02120316D01*
X02620319Y02122860D01*
X02619002Y02125140D01*
X02617140Y02127002D01*
X02614860Y02128318D01*
X02612317Y02129000D01*
X02609684D01*
X02607140Y02128318D01*
X02604860Y02127002D01*
X02602998Y02125140D01*
X02601682Y02122860D01*
X02601000Y02120316D01*
Y02117684D01*
X02601682Y02115140D01*
X02602998Y02112860D01*
X02603500Y02112358D01*
Y02093500D01*
X02605882D01*
Y02081000D01*
X02606348Y02078659D01*
X02607674Y02076674D01*
X02619955Y02064394D01*
X02621939Y02063068D01*
X02624280Y02062602D01*
X02683746D01*
X02687965Y02058383D01*
X02687500Y02056646D01*
Y02053354D01*
X02688352Y02050175D01*
X02689998Y02047325D01*
X02692325Y02044998D01*
X02695175Y02043352D01*
X02698354Y02042500D01*
X02701646D01*
X02704825Y02043352D01*
X02707675Y02044998D01*
X02710002Y02047325D01*
X02711648Y02050175D01*
X02712500Y02053354D01*
Y02056646D01*
X02711648Y02059825D01*
X02710002Y02062675D01*
X02707675Y02065002D01*
X02704825Y02066648D01*
X02701646Y02067500D01*
X02698354D01*
X02696617Y02067034D01*
X02690606Y02073046D01*
X02688621Y02074372D01*
X02686280Y02074837D01*
X02626814D01*
X02618117Y02083534D01*
Y02093500D01*
X02634500D01*
Y02105000D01*
X02649383D01*
Y02093196D01*
X02649099Y02092912D01*
X02648045Y02091088D01*
X02647500Y02089053D01*
Y02086947D01*
X02648045Y02084912D01*
X02649099Y02083088D01*
X02650588Y02081598D01*
X02652412Y02080545D01*
X02654447Y02080000D01*
X02656553D01*
X02658588Y02080545D01*
X02660412Y02081598D01*
X02661902Y02083088D01*
X02662955Y02084912D01*
X02663500Y02086947D01*
Y02089053D01*
X02662955Y02091088D01*
X02661902Y02092912D01*
X02661617Y02093196D01*
Y02098500D01*
X02676000D01*
Y02100441D01*
X02678000D01*
Y02097000D01*
X02691000D01*
Y02103941D01*
X02694000D01*
X02694000Y02103941D01*
X02695171Y02104174D01*
X02696163Y02104837D01*
X02700163Y02108837D01*
X02700163Y02108837D01*
X02700826Y02109829D01*
X02701059Y02111000D01*
Y02124733D01*
X02702267Y02125941D01*
X02707000D01*
Y02119000D01*
X02720000D01*
Y02139000D01*
X02707000D01*
Y02132059D01*
X02701000D01*
X02701000Y02132059D01*
X02699829Y02131826D01*
X02698837Y02131163D01*
X02698837Y02131163D01*
X02695837Y02128163D01*
X02694242Y02128062D01*
X02694000Y02128255D01*
Y02142000D01*
D02*
G37*
G36*
X02194000D02*
X02175000D01*
Y02130500D01*
X02157000D01*
Y02128518D01*
X02155159Y02128152D01*
X02153174Y02126826D01*
X02150674Y02124326D01*
X02149348Y02122341D01*
X02149081Y02121000D01*
X02131000D01*
Y02119118D01*
X02130000D01*
X02127659Y02118652D01*
X02125674Y02117326D01*
X02122174Y02113826D01*
X02121418Y02112695D01*
X02120135Y02112717D01*
X02119527Y02113770D01*
X02120318Y02115140D01*
X02121000Y02117684D01*
Y02120316D01*
X02120318Y02122860D01*
X02119002Y02125140D01*
X02117140Y02127002D01*
X02114860Y02128318D01*
X02112316Y02129000D01*
X02109684D01*
X02107140Y02128318D01*
X02104860Y02127002D01*
X02102998Y02125140D01*
X02101682Y02122860D01*
X02101000Y02120316D01*
Y02117684D01*
X02101682Y02115140D01*
X02102998Y02112860D01*
X02103500Y02112358D01*
Y02093500D01*
X02105882D01*
Y02081000D01*
X02106348Y02078659D01*
X02107674Y02076674D01*
X02119954Y02064394D01*
X02121939Y02063068D01*
X02124280Y02062602D01*
X02183746D01*
X02187966Y02058383D01*
X02187500Y02056646D01*
Y02053354D01*
X02188352Y02050175D01*
X02189998Y02047325D01*
X02192325Y02044998D01*
X02195175Y02043352D01*
X02198354Y02042500D01*
X02201646D01*
X02204825Y02043352D01*
X02207675Y02044998D01*
X02210002Y02047325D01*
X02211648Y02050175D01*
X02212500Y02053354D01*
Y02056646D01*
X02211648Y02059825D01*
X02210002Y02062675D01*
X02207675Y02065002D01*
X02204825Y02066648D01*
X02201646Y02067500D01*
X02198354D01*
X02196617Y02067034D01*
X02190606Y02073046D01*
X02188621Y02074372D01*
X02186280Y02074837D01*
X02126814D01*
X02118118Y02083534D01*
Y02093500D01*
X02134500D01*
Y02105000D01*
X02148882D01*
Y02092196D01*
X02148598Y02091912D01*
X02147545Y02090088D01*
X02147000Y02088053D01*
Y02085947D01*
X02147545Y02083912D01*
X02148598Y02082088D01*
X02150088Y02080598D01*
X02151912Y02079545D01*
X02153947Y02079000D01*
X02156053D01*
X02158088Y02079545D01*
X02159912Y02080598D01*
X02161402Y02082088D01*
X02162455Y02083912D01*
X02163000Y02085947D01*
Y02088053D01*
X02162455Y02090088D01*
X02161402Y02091912D01*
X02161118Y02092196D01*
Y02098500D01*
X02176000D01*
Y02100441D01*
X02178000D01*
Y02097000D01*
X02191000D01*
Y02103941D01*
X02194000D01*
X02194000Y02103941D01*
X02195170Y02104174D01*
X02196163Y02104837D01*
X02200163Y02108837D01*
X02200163Y02108837D01*
X02200826Y02109829D01*
X02201059Y02111000D01*
Y02124733D01*
X02202267Y02125941D01*
X02207000D01*
Y02119000D01*
X02220000D01*
Y02139000D01*
X02207000D01*
Y02132059D01*
X02201000D01*
X02201000Y02132059D01*
X02199830Y02131826D01*
X02198837Y02131163D01*
X02198837Y02131163D01*
X02195837Y02128163D01*
X02194242Y02128062D01*
X02194000Y02128255D01*
Y02142000D01*
D02*
G37*
G36*
X02094500Y02108500D02*
X02081500D01*
Y02106559D01*
X02079500D01*
Y02108500D01*
X02066500D01*
Y02106559D01*
X02064000D01*
Y02108500D01*
X02048000D01*
Y02098500D01*
X02064000D01*
Y02100441D01*
X02066500D01*
Y02098500D01*
X02079500D01*
Y02100441D01*
X02081500D01*
Y02098500D01*
X02094500D01*
Y02108500D01*
D02*
G37*
G36*
X02309995Y02135000D02*
X02308005D01*
X02306168Y02134239D01*
X02304761Y02132832D01*
X02304000Y02130995D01*
Y02129005D01*
X02304761Y02127168D01*
X02305941Y02125988D01*
Y02118500D01*
X02303500D01*
Y02105500D01*
X02313500D01*
Y02118500D01*
X02312059D01*
Y02125988D01*
X02313239Y02127168D01*
X02314000Y02129005D01*
Y02130995D01*
X02313239Y02132832D01*
X02311832Y02134239D01*
X02309995Y02135000D01*
D02*
G37*
G36*
X01847500Y02149500D02*
X01837500D01*
Y02136500D01*
X01839441D01*
Y02134500D01*
X01837500D01*
Y02121500D01*
X01839441D01*
Y02119000D01*
X01837500D01*
Y02103000D01*
X01847500D01*
Y02119000D01*
X01845559D01*
Y02121500D01*
X01847500D01*
Y02134500D01*
X01845559D01*
Y02136500D01*
X01847500D01*
Y02149500D01*
D02*
G37*
G36*
X02764000Y02108500D02*
X02748000D01*
Y02098500D01*
X02764000D01*
Y02100441D01*
X02766500D01*
Y02098500D01*
X02779500D01*
Y02100441D01*
X02781500D01*
Y02098500D01*
X02794500D01*
Y02108500D01*
X02781500D01*
Y02106559D01*
X02779500D01*
Y02108500D01*
X02766500D01*
Y02106559D01*
X02764000D01*
Y02108500D01*
D02*
G37*
G36*
X02264000D02*
X02248000D01*
Y02098500D01*
X02264000D01*
Y02100441D01*
X02266500D01*
Y02098500D01*
X02279500D01*
Y02100441D01*
X02281500D01*
Y02098500D01*
X02294500D01*
Y02108500D01*
X02281500D01*
Y02106559D01*
X02279500D01*
Y02108500D01*
X02266500D01*
Y02106559D01*
X02264000D01*
Y02108500D01*
D02*
G37*
G36*
X01564000D02*
X01548000D01*
Y02098500D01*
X01564000D01*
Y02100441D01*
X01566500D01*
Y02098500D01*
X01579500D01*
Y02100441D01*
X01581500D01*
Y02098500D01*
X01594500D01*
Y02108500D01*
X01581500D01*
Y02106559D01*
X01579500D01*
Y02108500D01*
X01566500D01*
Y02106559D01*
X01564000D01*
Y02108500D01*
D02*
G37*
G36*
X01783000Y02130000D02*
X01773000D01*
Y02114000D01*
X01774941D01*
Y02110317D01*
X01773702Y02109601D01*
X01772399Y02108298D01*
X01771477Y02106702D01*
X01771000Y02104922D01*
Y02103078D01*
X01771370Y02101696D01*
X01750733Y02081059D01*
X01726613D01*
X01726559Y02081196D01*
X01726402Y02082329D01*
X01727163Y02082837D01*
X01741696Y02097370D01*
X01743078Y02097000D01*
X01744922D01*
X01746702Y02097477D01*
X01748298Y02098399D01*
X01749601Y02099702D01*
X01750523Y02101298D01*
X01751000Y02103078D01*
Y02104922D01*
X01750523Y02106702D01*
X01749601Y02108298D01*
X01748298Y02109601D01*
X01747059Y02110317D01*
Y02114000D01*
X01749000D01*
Y02130000D01*
X01739000D01*
Y02114000D01*
X01740941D01*
Y02110317D01*
X01739702Y02109601D01*
X01738399Y02108298D01*
X01737477Y02106702D01*
X01737000Y02104922D01*
Y02103078D01*
X01737370Y02101696D01*
X01723733Y02088059D01*
X01695000D01*
X01693829Y02087826D01*
X01692837Y02087163D01*
X01692837Y02087163D01*
X01682837Y02077163D01*
X01682174Y02076171D01*
X01681941Y02075000D01*
X01681941Y02075000D01*
Y02056294D01*
X01680768Y02055808D01*
X01680274Y02056302D01*
X01678107Y02057553D01*
X01675691Y02058200D01*
X01673190D01*
X01670774Y02057553D01*
X01668607Y02056302D01*
X01666839Y02054533D01*
X01665588Y02052367D01*
X01665329Y02051400D01*
X01664059Y02051567D01*
Y02064733D01*
X01700267Y02100941D01*
X01703683D01*
X01704399Y02099702D01*
X01705702Y02098399D01*
X01707298Y02097477D01*
X01709078Y02097000D01*
X01710921D01*
X01712702Y02097477D01*
X01714298Y02098399D01*
X01715601Y02099702D01*
X01716523Y02101298D01*
X01717000Y02103078D01*
Y02104922D01*
X01716523Y02106702D01*
X01715601Y02108298D01*
X01714298Y02109601D01*
X01713059Y02110317D01*
Y02114000D01*
X01715000D01*
Y02130000D01*
X01705000D01*
Y02114000D01*
X01706941D01*
Y02110317D01*
X01705702Y02109601D01*
X01704399Y02108298D01*
X01703683Y02107059D01*
X01699000D01*
X01699000Y02107059D01*
X01697829Y02106826D01*
X01696837Y02106163D01*
X01658837Y02068163D01*
X01658579Y02067776D01*
X01657309Y02068161D01*
Y02080983D01*
X01673696Y02097370D01*
X01675078Y02097000D01*
X01676922D01*
X01678702Y02097477D01*
X01680298Y02098399D01*
X01681601Y02099702D01*
X01682523Y02101298D01*
X01683000Y02103078D01*
Y02104922D01*
X01682523Y02106702D01*
X01681601Y02108298D01*
X01680298Y02109601D01*
X01679059Y02110317D01*
Y02114000D01*
X01681000D01*
Y02130000D01*
X01671000D01*
Y02114000D01*
X01672941D01*
Y02110317D01*
X01671702Y02109601D01*
X01670399Y02108298D01*
X01669477Y02106702D01*
X01669000Y02104922D01*
Y02103078D01*
X01669370Y02101696D01*
X01652087Y02084413D01*
X01651424Y02083421D01*
X01651191Y02082250D01*
X01651191Y02082250D01*
Y02047750D01*
X01651191Y02047750D01*
X01651424Y02046579D01*
X01652087Y02045587D01*
X01655661Y02042014D01*
X01655135Y02040744D01*
X01653485D01*
X01651069Y02040096D01*
X01650524Y02039781D01*
X01645059Y02045246D01*
Y02097683D01*
X01646298Y02098399D01*
X01647601Y02099702D01*
X01648523Y02101298D01*
X01649000Y02103078D01*
Y02104922D01*
X01648523Y02106702D01*
X01647601Y02108298D01*
X01646298Y02109601D01*
X01645059Y02110317D01*
Y02114000D01*
X01647000D01*
Y02130000D01*
X01637000D01*
Y02114000D01*
X01638941D01*
Y02110317D01*
X01637702Y02109601D01*
X01636399Y02108298D01*
X01635477Y02106702D01*
X01635000Y02104922D01*
Y02103078D01*
X01635477Y02101298D01*
X01636399Y02099702D01*
X01637702Y02098399D01*
X01638941Y02097683D01*
Y02043980D01*
X01638941Y02043979D01*
X01639174Y02042809D01*
X01639837Y02041817D01*
X01646198Y02035456D01*
X01645883Y02034910D01*
X01645236Y02032494D01*
Y02029993D01*
X01645883Y02027577D01*
X01647134Y02025410D01*
X01648903Y02023642D01*
X01651069Y02022391D01*
X01653485Y02021744D01*
X01655987D01*
X01658403Y02022391D01*
X01660569Y02023642D01*
X01661671Y02024744D01*
X01662941Y02024218D01*
Y02014267D01*
X01658363Y02009689D01*
X01654417D01*
X01654254Y02010297D01*
X01653003Y02012463D01*
X01651234Y02014232D01*
X01649068Y02015483D01*
X01646652Y02016130D01*
X01644151D01*
X01641734Y02015483D01*
X01639568Y02014232D01*
X01637799Y02012463D01*
X01636549Y02010297D01*
X01635901Y02007881D01*
Y02005379D01*
X01636549Y02002963D01*
X01637799Y02000797D01*
X01639568Y01999028D01*
X01641734Y01997778D01*
X01644151Y01997130D01*
X01646652D01*
X01649068Y01997778D01*
X01651234Y01999028D01*
X01653003Y02000797D01*
X01654254Y02002963D01*
X01654417Y02003571D01*
X01659630D01*
X01659630Y02003571D01*
X01660801Y02003804D01*
X01661793Y02004467D01*
X01666768Y02009442D01*
X01667941Y02008956D01*
Y02004191D01*
X01652786Y01989036D01*
X01652240Y01989350D01*
X01649824Y01989998D01*
X01647323D01*
X01644907Y01989350D01*
X01642741Y01988100D01*
X01640972Y01986331D01*
X01639721Y01984165D01*
X01639074Y01981749D01*
Y01979247D01*
X01639721Y01976831D01*
X01640972Y01974665D01*
X01642741Y01972896D01*
X01644907Y01971645D01*
X01647323Y01970998D01*
X01649824D01*
X01652240Y01971645D01*
X01654407Y01972896D01*
X01656176Y01974665D01*
X01657426Y01976831D01*
X01658074Y01979247D01*
Y01981749D01*
X01657426Y01984165D01*
X01657112Y01984710D01*
X01673163Y02000761D01*
X01673826Y02001754D01*
X01674059Y02002924D01*
X01674059Y02002924D01*
Y02037000D01*
X01673874Y02037930D01*
X01674331Y02038790D01*
X01674665Y02039200D01*
X01675691D01*
X01678107Y02039848D01*
X01679571Y02040692D01*
X01680350Y02039676D01*
X01677837Y02037163D01*
X01677174Y02036171D01*
X01676941Y02035000D01*
X01676941Y02035000D01*
Y01976573D01*
X01667739Y01967371D01*
X01667194Y01967686D01*
X01664778Y01968333D01*
X01662276D01*
X01659860Y01967686D01*
X01657694Y01966435D01*
X01655925Y01964666D01*
X01654674Y01962500D01*
X01654027Y01960084D01*
Y01957583D01*
X01654674Y01955166D01*
X01655925Y01953000D01*
X01657694Y01951231D01*
X01659860Y01949981D01*
X01662276Y01949333D01*
X01664778D01*
X01667194Y01949981D01*
X01669360Y01951231D01*
X01671129Y01953000D01*
X01672379Y01955166D01*
X01673027Y01957583D01*
Y01960084D01*
X01672379Y01962500D01*
X01672065Y01963045D01*
X01682163Y01973143D01*
X01682163Y01973143D01*
X01682505Y01973656D01*
X01683775Y01973271D01*
Y01955615D01*
X01683167Y01955452D01*
X01681001Y01954201D01*
X01679232Y01952432D01*
X01677982Y01950266D01*
X01677334Y01947850D01*
Y01945348D01*
X01677982Y01942932D01*
X01679232Y01940766D01*
X01681001Y01938997D01*
X01683167Y01937746D01*
X01685583Y01937099D01*
X01688085D01*
X01690501Y01937746D01*
X01692667Y01938997D01*
X01694436Y01940766D01*
X01695687Y01942932D01*
X01696941Y01942707D01*
Y01895000D01*
X01693500D01*
Y01885000D01*
X01706500D01*
Y01895000D01*
X01703059D01*
Y01942708D01*
X01704313Y01942932D01*
X01705564Y01940766D01*
X01707333Y01938997D01*
X01709499Y01937746D01*
X01711915Y01937099D01*
X01714417D01*
X01716833Y01937746D01*
X01718999Y01938997D01*
X01720768Y01940766D01*
X01722018Y01942932D01*
X01722666Y01945348D01*
Y01947850D01*
X01722313Y01949166D01*
X01723452Y01949823D01*
X01740409Y01932866D01*
X01741732Y01931982D01*
X01743293Y01931672D01*
X01743293Y01931672D01*
X01764811D01*
X01803172Y01893311D01*
Y01824243D01*
X01803011Y01824082D01*
X01802250Y01822245D01*
Y01820255D01*
X01803011Y01818418D01*
X01804418Y01817011D01*
X01806255Y01816250D01*
X01808244D01*
X01810082Y01817011D01*
X01811489Y01818418D01*
X01812250Y01820255D01*
Y01822245D01*
X01811489Y01824082D01*
X01811328Y01824243D01*
Y01895000D01*
X01811018Y01896561D01*
X01810134Y01897884D01*
X01810134Y01897884D01*
X01769384Y01938634D01*
X01768061Y01939518D01*
X01766500Y01939828D01*
X01766500Y01939828D01*
X01744982D01*
X01736651Y01948160D01*
X01737137Y01949333D01*
X01737724D01*
X01740140Y01949981D01*
X01742306Y01951231D01*
X01744075Y01953000D01*
X01745326Y01955166D01*
X01745973Y01957583D01*
Y01960084D01*
X01745326Y01962500D01*
X01744075Y01964666D01*
X01742306Y01966435D01*
X01740140Y01967686D01*
X01737724Y01968333D01*
X01735222D01*
X01732806Y01967686D01*
X01730640Y01966435D01*
X01728871Y01964666D01*
X01728598Y01964194D01*
X01727328Y01964534D01*
Y01999250D01*
X01727018Y02000811D01*
X01726134Y02002134D01*
X01726134Y02002134D01*
X01715884Y02012384D01*
X01714561Y02013268D01*
X01713000Y02013578D01*
X01713000Y02013578D01*
X01708500D01*
Y02015000D01*
X01691500D01*
Y02004000D01*
X01708500D01*
Y02005422D01*
X01711311D01*
X01719172Y01997561D01*
Y01955793D01*
X01719172Y01955793D01*
X01719222Y01955539D01*
X01718089Y01954727D01*
X01716833Y01955452D01*
X01714417Y01956099D01*
X01711915D01*
X01709499Y01955452D01*
X01707333Y01954201D01*
X01705564Y01952432D01*
X01704313Y01950266D01*
X01703059Y01950490D01*
Y01985000D01*
X01708500D01*
Y01996000D01*
X01691500D01*
Y01985000D01*
X01696941D01*
Y01950491D01*
X01695687Y01950266D01*
X01694436Y01952432D01*
X01692667Y01954201D01*
X01690501Y01955452D01*
X01689893Y01955615D01*
Y02033567D01*
X01691163Y02034837D01*
X01691163Y02034837D01*
X01691826Y02035829D01*
X01692059Y02037000D01*
X01692059Y02037000D01*
Y02047710D01*
X01693329Y02048236D01*
X01694167Y02047398D01*
X01696333Y02046147D01*
X01698749Y02045500D01*
X01701251D01*
X01703667Y02046147D01*
X01705833Y02047398D01*
X01707602Y02049167D01*
X01708853Y02051333D01*
X01709500Y02053749D01*
Y02056251D01*
X01708853Y02058667D01*
X01708538Y02059212D01*
X01711267Y02061941D01*
X01758733D01*
X01767837Y02052837D01*
X01767837Y02052837D01*
X01768829Y02052174D01*
X01770000Y02051941D01*
X01797683D01*
X01798399Y02050702D01*
X01799702Y02049399D01*
X01801298Y02048477D01*
X01803078Y02048000D01*
X01804922D01*
X01806702Y02048477D01*
X01808298Y02049399D01*
X01809601Y02050702D01*
X01810317Y02051941D01*
X01813500D01*
Y02048500D01*
X01823500D01*
Y02061500D01*
X01813500D01*
Y02058059D01*
X01810317D01*
X01809601Y02059298D01*
X01808298Y02060601D01*
X01806702Y02061523D01*
X01804922Y02062000D01*
X01803078D01*
X01801298Y02061523D01*
X01799702Y02060601D01*
X01798399Y02059298D01*
X01797683Y02058059D01*
X01771267D01*
X01762163Y02067163D01*
X01761171Y02067826D01*
X01760000Y02068059D01*
X01760000Y02068059D01*
X01710000D01*
X01708829Y02067826D01*
X01707837Y02067163D01*
X01707837Y02067163D01*
X01704212Y02063538D01*
X01703667Y02063853D01*
X01701251Y02064500D01*
X01698749D01*
X01696333Y02063853D01*
X01694167Y02062602D01*
X01693329Y02061764D01*
X01692059Y02062290D01*
Y02066733D01*
X01700267Y02074941D01*
X01752000D01*
X01752000Y02074941D01*
X01753170Y02075174D01*
X01754163Y02075837D01*
X01775696Y02097370D01*
X01777078Y02097000D01*
X01778922D01*
X01780702Y02097477D01*
X01782298Y02098399D01*
X01783601Y02099702D01*
X01784523Y02101298D01*
X01785000Y02103078D01*
Y02104922D01*
X01784523Y02106702D01*
X01783601Y02108298D01*
X01782298Y02109601D01*
X01781059Y02110317D01*
Y02114000D01*
X01783000D01*
Y02130000D01*
D02*
G37*
G36*
X01838000Y02093000D02*
X01828000D01*
Y02077000D01*
X01838000D01*
Y02081941D01*
X01851000D01*
Y02079000D01*
X01871000D01*
Y02092000D01*
X01851000D01*
Y02088059D01*
X01838000D01*
Y02093000D01*
D02*
G37*
G36*
X01352322Y02179500D02*
X01347678D01*
X01343092Y02178774D01*
X01338676Y02177339D01*
X01334539Y02175231D01*
X01330782Y02172501D01*
X01327499Y02169218D01*
X01324769Y02165461D01*
X01322661Y02161324D01*
X01321226Y02156908D01*
X01320500Y02152322D01*
Y02147678D01*
X01321226Y02143092D01*
X01322661Y02138676D01*
X01324769Y02134539D01*
X01327499Y02130782D01*
X01330782Y02127499D01*
X01334539Y02124769D01*
X01338676Y02122661D01*
X01343092Y02121226D01*
X01344902Y02120940D01*
Y02088500D01*
X01343500D01*
Y02078500D01*
X01349508D01*
X01350000Y02078402D01*
X01350492Y02078500D01*
X01356500D01*
Y02088500D01*
X01355098D01*
Y02120940D01*
X01356908Y02121226D01*
X01361324Y02122661D01*
X01365461Y02124769D01*
X01369218Y02127499D01*
X01372501Y02130782D01*
X01375231Y02134539D01*
X01377339Y02138676D01*
X01378774Y02143092D01*
X01379500Y02147678D01*
Y02152322D01*
X01378774Y02156908D01*
X01377339Y02161324D01*
X01375231Y02165461D01*
X01372501Y02169218D01*
X01369218Y02172501D01*
X01365461Y02175231D01*
X01361324Y02177339D01*
X01356908Y02178774D01*
X01352322Y02179500D01*
D02*
G37*
G36*
X02852322D02*
X02847678D01*
X02843092Y02178774D01*
X02838676Y02177339D01*
X02834539Y02175231D01*
X02830782Y02172501D01*
X02827499Y02169218D01*
X02824769Y02165461D01*
X02822661Y02161324D01*
X02821227Y02156908D01*
X02820500Y02152322D01*
Y02147678D01*
X02821227Y02143092D01*
X02822661Y02138676D01*
X02824769Y02134539D01*
X02827499Y02130782D01*
X02830782Y02127499D01*
X02834539Y02124769D01*
X02838676Y02122661D01*
X02843092Y02121226D01*
X02844902Y02120940D01*
Y02088500D01*
X02843500D01*
Y02078500D01*
X02849507D01*
X02850000Y02078402D01*
X02850493Y02078500D01*
X02856500D01*
Y02088500D01*
X02855098D01*
Y02120940D01*
X02856908Y02121226D01*
X02861324Y02122661D01*
X02865461Y02124769D01*
X02869218Y02127499D01*
X02872501Y02130782D01*
X02875231Y02134539D01*
X02877339Y02138676D01*
X02878773Y02143092D01*
X02879500Y02147678D01*
Y02152322D01*
X02878773Y02156908D01*
X02877339Y02161324D01*
X02875231Y02165461D01*
X02872501Y02169218D01*
X02869218Y02172501D01*
X02865461Y02175231D01*
X02861324Y02177339D01*
X02856908Y02178774D01*
X02852322Y02179500D01*
D02*
G37*
G36*
X02328500Y02118500D02*
X02318500D01*
Y02105500D01*
X02320441D01*
Y02103500D01*
X02318500D01*
Y02090500D01*
X02320441D01*
Y02088000D01*
X02318500D01*
Y02072000D01*
X02328500D01*
Y02088000D01*
X02326559D01*
Y02090500D01*
X02328500D01*
Y02103500D01*
X02326559D01*
Y02105500D01*
X02328500D01*
Y02118500D01*
D02*
G37*
G36*
X01871000Y02063000D02*
X01851000D01*
Y02050000D01*
X01857941D01*
Y02048000D01*
X01851000D01*
Y02044559D01*
X01848672D01*
X01848672Y02044559D01*
X01847501Y02044326D01*
X01846509Y02043663D01*
X01846509Y02043663D01*
X01842837Y02039991D01*
X01842174Y02038999D01*
X01841941Y02037828D01*
X01841941Y02037828D01*
Y02029059D01*
X01838794D01*
X01838000Y02030000D01*
X01838000Y02030329D01*
Y02046000D01*
X01836059D01*
Y02048500D01*
X01838500D01*
Y02061500D01*
X01828500D01*
Y02048500D01*
X01829941D01*
Y02046000D01*
X01828000D01*
Y02030329D01*
X01828000Y02030000D01*
X01827206Y02029059D01*
X01827000D01*
X01827000Y02029059D01*
X01825829Y02028826D01*
X01824837Y02028163D01*
X01824837Y02028163D01*
X01821337Y02024663D01*
X01820674Y02023671D01*
X01820441Y02022500D01*
X01820441Y02022500D01*
Y02020000D01*
X01818500D01*
Y02004000D01*
X01828500D01*
Y02020000D01*
X01826648D01*
X01826596Y02021270D01*
X01828267Y02022941D01*
X01834500D01*
Y02001000D01*
X01834500D01*
X01834815Y01999730D01*
X01834500Y01998553D01*
Y01996447D01*
X01835045Y01994412D01*
X01836098Y01992588D01*
X01837588Y01991098D01*
X01839412Y01990045D01*
X01841447Y01989500D01*
X01843553D01*
X01845588Y01990045D01*
X01847412Y01991098D01*
X01848902Y01992588D01*
X01849955Y01994412D01*
X01850500Y01996447D01*
Y01998553D01*
X01850185Y01999730D01*
X01850500Y02001000D01*
X01850500D01*
Y02003000D01*
X01874000D01*
Y02022000D01*
X01850500D01*
Y02023000D01*
X01846950D01*
X01846424Y02024270D01*
X01847163Y02025009D01*
X01847163Y02025009D01*
X01847826Y02026001D01*
X01848059Y02027172D01*
X01848059Y02027172D01*
Y02036561D01*
X01849730Y02038233D01*
X01851000Y02037938D01*
Y02035000D01*
X01871000D01*
Y02048000D01*
X01864059D01*
Y02050000D01*
X01871000D01*
Y02063000D01*
D02*
G37*
G36*
X01912316Y02129000D02*
X01909684D01*
X01907140Y02128318D01*
X01904860Y02127002D01*
X01902998Y02125140D01*
X01901682Y02122860D01*
X01901000Y02120316D01*
Y02117684D01*
X01901682Y02115140D01*
X01902998Y02112860D01*
X01903500Y02112358D01*
Y02093500D01*
X01905882D01*
Y02081000D01*
X01906348Y02078659D01*
X01907674Y02076674D01*
X01919954Y02064394D01*
X01921939Y02063068D01*
X01924280Y02062602D01*
X01983746D01*
X01987966Y02058383D01*
X01987500Y02056646D01*
Y02053354D01*
X01988352Y02050175D01*
X01989998Y02047325D01*
X01992325Y02044998D01*
X01995175Y02043352D01*
X01998354Y02042500D01*
X02001646D01*
X02004825Y02043352D01*
X02007675Y02044998D01*
X02010002Y02047325D01*
X02011648Y02050175D01*
X02012500Y02053354D01*
Y02056646D01*
X02011648Y02059825D01*
X02010002Y02062675D01*
X02007675Y02065002D01*
X02004825Y02066648D01*
X02001646Y02067500D01*
X01998354D01*
X01996617Y02067034D01*
X01990606Y02073046D01*
X01988621Y02074372D01*
X01986280Y02074837D01*
X01926814D01*
X01918118Y02083534D01*
Y02093500D01*
X01934500D01*
Y02105000D01*
X01953000D01*
Y02121000D01*
X01931000D01*
Y02119118D01*
X01930000D01*
X01927659Y02118652D01*
X01925674Y02117326D01*
X01922174Y02113826D01*
X01921418Y02112695D01*
X01920135Y02112717D01*
X01919527Y02113770D01*
X01920318Y02115140D01*
X01921000Y02117684D01*
Y02120316D01*
X01920318Y02122860D01*
X01919002Y02125140D01*
X01917140Y02127002D01*
X01914860Y02128318D01*
X01912316Y02129000D01*
D02*
G37*
G36*
X01412316D02*
X01409684D01*
X01407140Y02128318D01*
X01404860Y02127002D01*
X01402998Y02125140D01*
X01401682Y02122860D01*
X01401000Y02120316D01*
Y02117684D01*
X01401682Y02115140D01*
X01402998Y02112860D01*
X01403500Y02112358D01*
Y02093500D01*
X01405882D01*
Y02081000D01*
X01406348Y02078659D01*
X01407674Y02076674D01*
X01419954Y02064394D01*
X01421939Y02063068D01*
X01424280Y02062602D01*
X01483746D01*
X01487966Y02058383D01*
X01487500Y02056646D01*
Y02053354D01*
X01488352Y02050175D01*
X01489998Y02047325D01*
X01492325Y02044998D01*
X01495175Y02043352D01*
X01498354Y02042500D01*
X01501646D01*
X01504825Y02043352D01*
X01507675Y02044998D01*
X01510002Y02047325D01*
X01511648Y02050175D01*
X01512500Y02053354D01*
Y02056646D01*
X01511648Y02059825D01*
X01510002Y02062675D01*
X01507675Y02065002D01*
X01504825Y02066648D01*
X01501646Y02067500D01*
X01498354D01*
X01496617Y02067034D01*
X01490606Y02073046D01*
X01488621Y02074372D01*
X01486280Y02074837D01*
X01426814D01*
X01418118Y02083534D01*
Y02093500D01*
X01434500D01*
Y02105000D01*
X01453000D01*
Y02121000D01*
X01431000D01*
Y02119118D01*
X01430000D01*
X01427659Y02118652D01*
X01425674Y02117326D01*
X01422174Y02113826D01*
X01421418Y02112695D01*
X01420135Y02112717D01*
X01419527Y02113770D01*
X01420318Y02115140D01*
X01421000Y02117684D01*
Y02120316D01*
X01420318Y02122860D01*
X01419002Y02125140D01*
X01417140Y02127002D01*
X01414860Y02128318D01*
X01412316Y02129000D01*
D02*
G37*
G36*
X02563000Y02130000D02*
X02553000D01*
Y02114000D01*
X02554941D01*
Y02110317D01*
X02553702Y02109601D01*
X02552399Y02108298D01*
X02551477Y02106702D01*
X02551000Y02104922D01*
Y02103078D01*
X02551477Y02101298D01*
X02552399Y02099702D01*
X02553702Y02098399D01*
X02554941Y02097683D01*
Y02045246D01*
X02549476Y02039781D01*
X02548931Y02040096D01*
X02546515Y02040744D01*
X02545729D01*
X02545243Y02041917D01*
X02547163Y02043837D01*
X02547163Y02043837D01*
X02547826Y02044830D01*
X02548059Y02046000D01*
X02548059Y02046000D01*
Y02083000D01*
X02547826Y02084171D01*
X02547163Y02085163D01*
X02530630Y02101696D01*
X02531000Y02103078D01*
Y02104922D01*
X02530523Y02106702D01*
X02529601Y02108298D01*
X02528298Y02109601D01*
X02527059Y02110317D01*
Y02114000D01*
X02529000D01*
Y02130000D01*
X02519000D01*
Y02114000D01*
X02520941D01*
Y02110317D01*
X02519702Y02109601D01*
X02518399Y02108298D01*
X02517477Y02106702D01*
X02517000Y02104922D01*
Y02103078D01*
X02517477Y02101298D01*
X02518399Y02099702D01*
X02519702Y02098399D01*
X02521298Y02097477D01*
X02523078Y02097000D01*
X02524922D01*
X02526304Y02097370D01*
X02541941Y02081733D01*
Y02075613D01*
X02541804Y02075559D01*
X02540671Y02075402D01*
X02540163Y02076163D01*
X02519413Y02096913D01*
X02518421Y02097576D01*
X02517250Y02097809D01*
X02517250Y02097809D01*
X02500517D01*
X02496630Y02101696D01*
X02497000Y02103078D01*
Y02104922D01*
X02496523Y02106702D01*
X02495601Y02108298D01*
X02494298Y02109601D01*
X02493059Y02110317D01*
Y02114000D01*
X02495000D01*
Y02130000D01*
X02485000D01*
Y02114000D01*
X02486941D01*
Y02110317D01*
X02485702Y02109601D01*
X02484399Y02108298D01*
X02483477Y02106702D01*
X02483000Y02104922D01*
Y02103078D01*
X02483477Y02101298D01*
X02484399Y02099702D01*
X02485702Y02098399D01*
X02487298Y02097477D01*
X02489078Y02097000D01*
X02490922D01*
X02492304Y02097370D01*
X02497087Y02092587D01*
X02497087Y02092587D01*
X02498079Y02091924D01*
X02499250Y02091691D01*
X02515983D01*
X02534941Y02072733D01*
Y02053991D01*
X02533671Y02053650D01*
X02533161Y02054533D01*
X02531393Y02056302D01*
X02529226Y02057553D01*
X02526810Y02058200D01*
X02524309D01*
X02521893Y02057553D01*
X02519726Y02056302D01*
X02519232Y02055808D01*
X02518059Y02056294D01*
Y02078750D01*
X02518059Y02078750D01*
X02517826Y02079921D01*
X02517163Y02080913D01*
X02517163Y02080913D01*
X02509913Y02088163D01*
X02508920Y02088826D01*
X02507750Y02089059D01*
X02507750Y02089059D01*
X02462267D01*
X02459059Y02092267D01*
Y02097683D01*
X02460298Y02098399D01*
X02461601Y02099702D01*
X02462523Y02101298D01*
X02463000Y02103078D01*
Y02104922D01*
X02462523Y02106702D01*
X02461601Y02108298D01*
X02460298Y02109601D01*
X02459059Y02110317D01*
Y02114000D01*
X02461000D01*
Y02130000D01*
X02451000D01*
Y02114000D01*
X02452941D01*
Y02110317D01*
X02451702Y02109601D01*
X02450399Y02108298D01*
X02449477Y02106702D01*
X02449000Y02104922D01*
Y02103078D01*
X02449477Y02101298D01*
X02450399Y02099702D01*
X02451702Y02098399D01*
X02452941Y02097683D01*
Y02091000D01*
X02452941Y02091000D01*
X02453174Y02089830D01*
X02453837Y02088837D01*
X02458837Y02083837D01*
X02459829Y02083174D01*
X02461000Y02082941D01*
X02461000Y02082941D01*
X02506483D01*
X02511941Y02077483D01*
Y02061857D01*
X02510671Y02061517D01*
X02510002Y02062675D01*
X02507675Y02065002D01*
X02504825Y02066648D01*
X02501646Y02067500D01*
X02498354D01*
X02496617Y02067034D01*
X02494326Y02069326D01*
X02492341Y02070652D01*
X02490000Y02071118D01*
X02435000D01*
X02432659Y02070652D01*
X02430674Y02069326D01*
X02422466Y02061118D01*
X02412044D01*
X02411792Y02062388D01*
X02412891Y02062843D01*
X02414297Y02064249D01*
X02415058Y02066087D01*
Y02068076D01*
X02414297Y02069914D01*
X02413117Y02071094D01*
Y02090791D01*
X02419696Y02097370D01*
X02421078Y02097000D01*
X02422921D01*
X02424702Y02097477D01*
X02426298Y02098399D01*
X02427601Y02099702D01*
X02428523Y02101298D01*
X02429000Y02103078D01*
Y02104922D01*
X02428523Y02106702D01*
X02427601Y02108298D01*
X02426298Y02109601D01*
X02425059Y02110317D01*
Y02114000D01*
X02427000D01*
Y02130000D01*
X02417000D01*
Y02114000D01*
X02418941D01*
Y02110317D01*
X02417702Y02109601D01*
X02416399Y02108298D01*
X02415477Y02106702D01*
X02415000Y02104922D01*
Y02103078D01*
X02415370Y02101696D01*
X02407896Y02094221D01*
X02407233Y02093229D01*
X02407000Y02092059D01*
X02407000Y02092058D01*
Y02071094D01*
X02405820Y02069914D01*
X02405058Y02068076D01*
Y02066087D01*
X02405820Y02064249D01*
X02407226Y02062843D01*
X02408326Y02062388D01*
X02408073Y02061118D01*
X02404015D01*
X02404002Y02061140D01*
X02402140Y02063002D01*
X02399860Y02064319D01*
X02397316Y02065000D01*
X02394684D01*
X02392140Y02064319D01*
X02390770Y02063527D01*
X02389500Y02064261D01*
Y02064500D01*
X02358500D01*
Y02045500D01*
X02359000D01*
Y02027000D01*
X02375000D01*
Y02045500D01*
X02389500D01*
Y02045739D01*
X02390770Y02046473D01*
X02392140Y02045681D01*
X02394684Y02045000D01*
X02397316D01*
X02399860Y02045681D01*
X02402140Y02046998D01*
X02403978Y02048836D01*
X02405216Y02048725D01*
X02405670Y02047612D01*
X02405000Y02045995D01*
Y02044005D01*
X02405761Y02042168D01*
X02407168Y02040761D01*
X02409005Y02040000D01*
X02410995D01*
X02412832Y02040761D01*
X02414012Y02041941D01*
X02428500D01*
X02428500Y02041941D01*
X02429671Y02042174D01*
X02429696Y02042191D01*
X02458233D01*
X02459489Y02040936D01*
X02458709Y02039919D01*
X02458403Y02040096D01*
X02455987Y02040744D01*
X02453485D01*
X02451069Y02040096D01*
X02448903Y02038845D01*
X02447134Y02037077D01*
X02445883Y02034910D01*
X02445236Y02032494D01*
Y02029993D01*
X02445883Y02027577D01*
X02447134Y02025410D01*
X02448903Y02023642D01*
X02451069Y02022391D01*
X02453485Y02021744D01*
X02455987D01*
X02458403Y02022391D01*
X02460569Y02023642D01*
X02462338Y02025410D01*
X02463588Y02027577D01*
X02464236Y02029993D01*
Y02032494D01*
X02463588Y02034910D01*
X02463412Y02035216D01*
X02464428Y02035996D01*
X02471587Y02028837D01*
X02471587Y02028837D01*
X02472579Y02028174D01*
X02473750Y02027941D01*
X02473750Y02027941D01*
X02499733D01*
X02510107Y02017567D01*
Y01955615D01*
X02509499Y01955452D01*
X02507333Y01954201D01*
X02505564Y01952432D01*
X02504313Y01950266D01*
X02503059Y01950490D01*
Y01985000D01*
X02508500D01*
Y01996000D01*
X02491500D01*
Y01985000D01*
X02496941D01*
Y01950491D01*
X02495687Y01950266D01*
X02494436Y01952432D01*
X02492667Y01954201D01*
X02490501Y01955452D01*
X02488085Y01956099D01*
X02485583D01*
X02483167Y01955452D01*
X02481001Y01954201D01*
X02479232Y01952432D01*
X02477982Y01950266D01*
X02477334Y01947850D01*
Y01945348D01*
X02477982Y01942932D01*
X02479232Y01940766D01*
X02481001Y01938997D01*
X02483167Y01937746D01*
X02485583Y01937099D01*
X02488085D01*
X02490501Y01937746D01*
X02492667Y01938997D01*
X02494436Y01940766D01*
X02495687Y01942932D01*
X02496941Y01942707D01*
Y01895000D01*
X02493500D01*
Y01885000D01*
X02506500D01*
Y01895000D01*
X02503059D01*
Y01942708D01*
X02504313Y01942932D01*
X02505564Y01940766D01*
X02507333Y01938997D01*
X02509499Y01937746D01*
X02511915Y01937099D01*
X02514417D01*
X02516833Y01937746D01*
X02518999Y01938997D01*
X02520768Y01940766D01*
X02522018Y01942932D01*
X02522666Y01945348D01*
Y01947850D01*
X02522018Y01950266D01*
X02520768Y01952432D01*
X02518999Y01954201D01*
X02516833Y01955452D01*
X02516225Y01955615D01*
Y02018834D01*
X02515992Y02020005D01*
X02515329Y02020997D01*
X02503163Y02033163D01*
X02502171Y02033826D01*
X02501000Y02034059D01*
X02501000Y02034059D01*
X02475017D01*
X02470459Y02038617D01*
X02471116Y02039756D01*
X02473190Y02039200D01*
X02475691D01*
X02478107Y02039848D01*
X02480274Y02041098D01*
X02482042Y02042867D01*
X02483293Y02045033D01*
X02483940Y02047449D01*
Y02049951D01*
X02483293Y02052367D01*
X02482042Y02054533D01*
X02480274Y02056302D01*
X02478107Y02057553D01*
X02477885Y02057612D01*
X02478052Y02058882D01*
X02486870D01*
X02487796Y02057749D01*
X02487500Y02056646D01*
Y02053354D01*
X02488352Y02050175D01*
X02489998Y02047325D01*
X02492325Y02044998D01*
X02495175Y02043352D01*
X02498354Y02042500D01*
X02501646D01*
X02504825Y02043352D01*
X02507675Y02044998D01*
X02510002Y02047325D01*
X02510671Y02048483D01*
X02511941Y02048143D01*
Y02036000D01*
X02511941Y02036000D01*
X02512174Y02034830D01*
X02512837Y02033837D01*
X02522178Y02024496D01*
Y01996764D01*
X02522178Y01996763D01*
X02522411Y01995593D01*
X02523074Y01994601D01*
X02533414Y01984260D01*
Y01967849D01*
X02532806Y01967686D01*
X02530640Y01966435D01*
X02528871Y01964666D01*
X02527621Y01962500D01*
X02526973Y01960084D01*
Y01957583D01*
X02527621Y01955166D01*
X02528871Y01953000D01*
X02530640Y01951231D01*
X02532806Y01949981D01*
X02535222Y01949333D01*
X02537724D01*
X02540140Y01949981D01*
X02542306Y01951231D01*
X02544075Y01953000D01*
X02545326Y01955166D01*
X02545973Y01957583D01*
Y01960084D01*
X02545326Y01962500D01*
X02544075Y01964666D01*
X02542306Y01966435D01*
X02540140Y01967686D01*
X02539532Y01967849D01*
Y01985527D01*
X02539347Y01986455D01*
X02540057Y01987048D01*
X02540395Y01987204D01*
X02542888Y01984710D01*
X02542574Y01984165D01*
X02541926Y01981749D01*
Y01979247D01*
X02542574Y01976831D01*
X02543824Y01974665D01*
X02545593Y01972896D01*
X02547759Y01971645D01*
X02550176Y01970998D01*
X02552677D01*
X02555093Y01971645D01*
X02557259Y01972896D01*
X02559028Y01974665D01*
X02560279Y01976831D01*
X02560926Y01979247D01*
Y01981749D01*
X02560279Y01984165D01*
X02559028Y01986331D01*
X02557259Y01988100D01*
X02555093Y01989350D01*
X02552677Y01989998D01*
X02550176D01*
X02547759Y01989350D01*
X02547214Y01989036D01*
X02532559Y02003691D01*
Y02010456D01*
X02533732Y02010942D01*
X02540207Y02004467D01*
X02541199Y02003804D01*
X02542370Y02003571D01*
X02545583D01*
X02545746Y02002963D01*
X02546997Y02000797D01*
X02548766Y01999028D01*
X02550932Y01997778D01*
X02553348Y01997130D01*
X02555849D01*
X02558266Y01997778D01*
X02560432Y01999028D01*
X02562201Y02000797D01*
X02563451Y02002963D01*
X02564099Y02005379D01*
Y02007881D01*
X02563451Y02010297D01*
X02562201Y02012463D01*
X02560432Y02014232D01*
X02558266Y02015483D01*
X02555849Y02016130D01*
X02553348D01*
X02550932Y02015483D01*
X02548766Y02014232D01*
X02546997Y02012463D01*
X02545746Y02010297D01*
X02545583Y02009689D01*
X02543637D01*
X02536559Y02016767D01*
Y02025008D01*
X02537829Y02025244D01*
X02539431Y02023642D01*
X02541597Y02022391D01*
X02544013Y02021744D01*
X02546515D01*
X02548931Y02022391D01*
X02551097Y02023642D01*
X02552866Y02025410D01*
X02554117Y02027577D01*
X02554764Y02029993D01*
Y02032494D01*
X02554117Y02034910D01*
X02553802Y02035456D01*
X02560163Y02041817D01*
X02560163Y02041817D01*
X02560826Y02042809D01*
X02561059Y02043979D01*
Y02097683D01*
X02562298Y02098399D01*
X02563601Y02099702D01*
X02564523Y02101298D01*
X02565000Y02103078D01*
Y02104922D01*
X02564523Y02106702D01*
X02563601Y02108298D01*
X02562298Y02109601D01*
X02561059Y02110317D01*
Y02114000D01*
X02563000D01*
Y02130000D01*
D02*
G37*
G36*
X02726810Y02058200D02*
X02724309D01*
X02721893Y02057553D01*
X02719726Y02056302D01*
X02717957Y02054533D01*
X02716707Y02052367D01*
X02716060Y02049951D01*
Y02047449D01*
X02716707Y02045033D01*
X02717957Y02042867D01*
X02719726Y02041098D01*
X02721893Y02039848D01*
X02724309Y02039200D01*
X02726810D01*
X02729226Y02039848D01*
X02731393Y02041098D01*
X02733161Y02042867D01*
X02734412Y02045033D01*
X02735060Y02047449D01*
Y02049951D01*
X02734412Y02052367D01*
X02733161Y02054533D01*
X02731393Y02056302D01*
X02729226Y02057553D01*
X02726810Y02058200D01*
D02*
G37*
G36*
X02675691D02*
X02673190D01*
X02670774Y02057553D01*
X02668607Y02056302D01*
X02666839Y02054533D01*
X02665588Y02052367D01*
X02664940Y02049951D01*
Y02047449D01*
X02665588Y02045033D01*
X02666839Y02042867D01*
X02668607Y02041098D01*
X02670774Y02039848D01*
X02673190Y02039200D01*
X02675691D01*
X02678107Y02039848D01*
X02680274Y02041098D01*
X02682042Y02042867D01*
X02683293Y02045033D01*
X02683940Y02047449D01*
Y02049951D01*
X02683293Y02052367D01*
X02682042Y02054533D01*
X02680274Y02056302D01*
X02678107Y02057553D01*
X02675691Y02058200D01*
D02*
G37*
G36*
X02226810D02*
X02224309D01*
X02221893Y02057553D01*
X02219726Y02056302D01*
X02217958Y02054533D01*
X02216707Y02052367D01*
X02216060Y02049951D01*
Y02047449D01*
X02216707Y02045033D01*
X02217958Y02042867D01*
X02219726Y02041098D01*
X02221893Y02039848D01*
X02224309Y02039200D01*
X02226810D01*
X02229226Y02039848D01*
X02231393Y02041098D01*
X02233161Y02042867D01*
X02234412Y02045033D01*
X02235060Y02047449D01*
Y02049951D01*
X02234412Y02052367D01*
X02233161Y02054533D01*
X02231393Y02056302D01*
X02229226Y02057553D01*
X02226810Y02058200D01*
D02*
G37*
G36*
X02175691D02*
X02173190D01*
X02170774Y02057553D01*
X02168607Y02056302D01*
X02166839Y02054533D01*
X02165588Y02052367D01*
X02164940Y02049951D01*
Y02047449D01*
X02165588Y02045033D01*
X02166839Y02042867D01*
X02168607Y02041098D01*
X02170774Y02039848D01*
X02173190Y02039200D01*
X02175691D01*
X02178107Y02039848D01*
X02180274Y02041098D01*
X02182042Y02042867D01*
X02183293Y02045033D01*
X02183940Y02047449D01*
Y02049951D01*
X02183293Y02052367D01*
X02182042Y02054533D01*
X02180274Y02056302D01*
X02178107Y02057553D01*
X02175691Y02058200D01*
D02*
G37*
G36*
X02026810D02*
X02024309D01*
X02021893Y02057553D01*
X02019726Y02056302D01*
X02017958Y02054533D01*
X02016707Y02052367D01*
X02016060Y02049951D01*
Y02047449D01*
X02016707Y02045033D01*
X02017958Y02042867D01*
X02019726Y02041098D01*
X02021893Y02039848D01*
X02024309Y02039200D01*
X02026810D01*
X02029226Y02039848D01*
X02031393Y02041098D01*
X02033161Y02042867D01*
X02034412Y02045033D01*
X02035060Y02047449D01*
Y02049951D01*
X02034412Y02052367D01*
X02033161Y02054533D01*
X02031393Y02056302D01*
X02029226Y02057553D01*
X02026810Y02058200D01*
D02*
G37*
G36*
X01975691D02*
X01973190D01*
X01970774Y02057553D01*
X01968607Y02056302D01*
X01966839Y02054533D01*
X01965588Y02052367D01*
X01964940Y02049951D01*
Y02047449D01*
X01965588Y02045033D01*
X01966839Y02042867D01*
X01968607Y02041098D01*
X01970774Y02039848D01*
X01973190Y02039200D01*
X01975691D01*
X01978107Y02039848D01*
X01980274Y02041098D01*
X01982042Y02042867D01*
X01983293Y02045033D01*
X01983940Y02047449D01*
Y02049951D01*
X01983293Y02052367D01*
X01982042Y02054533D01*
X01980274Y02056302D01*
X01978107Y02057553D01*
X01975691Y02058200D01*
D02*
G37*
G36*
X01726810D02*
X01724309D01*
X01721893Y02057553D01*
X01719726Y02056302D01*
X01717958Y02054533D01*
X01716707Y02052367D01*
X01716060Y02049951D01*
Y02047449D01*
X01716707Y02045033D01*
X01717958Y02042867D01*
X01719726Y02041098D01*
X01721893Y02039848D01*
X01724309Y02039200D01*
X01726810D01*
X01729226Y02039848D01*
X01731393Y02041098D01*
X01733161Y02042867D01*
X01734412Y02045033D01*
X01735060Y02047449D01*
Y02049951D01*
X01734412Y02052367D01*
X01733161Y02054533D01*
X01731393Y02056302D01*
X01729226Y02057553D01*
X01726810Y02058200D01*
D02*
G37*
G36*
X01526810D02*
X01524309D01*
X01521893Y02057553D01*
X01519726Y02056302D01*
X01517958Y02054533D01*
X01516707Y02052367D01*
X01516060Y02049951D01*
Y02047449D01*
X01516707Y02045033D01*
X01517958Y02042867D01*
X01519726Y02041098D01*
X01521893Y02039848D01*
X01524309Y02039200D01*
X01526810D01*
X01529226Y02039848D01*
X01531393Y02041098D01*
X01533161Y02042867D01*
X01534412Y02045033D01*
X01535060Y02047449D01*
Y02049951D01*
X01534412Y02052367D01*
X01533161Y02054533D01*
X01531393Y02056302D01*
X01529226Y02057553D01*
X01526810Y02058200D01*
D02*
G37*
G36*
X01475691D02*
X01473190D01*
X01470774Y02057553D01*
X01468607Y02056302D01*
X01466839Y02054533D01*
X01465588Y02052367D01*
X01464940Y02049951D01*
Y02047449D01*
X01465588Y02045033D01*
X01466839Y02042867D01*
X01468607Y02041098D01*
X01470774Y02039848D01*
X01473190Y02039200D01*
X01475691D01*
X01478107Y02039848D01*
X01480274Y02041098D01*
X01482042Y02042867D01*
X01483293Y02045033D01*
X01483940Y02047449D01*
Y02049951D01*
X01483293Y02052367D01*
X01482042Y02054533D01*
X01480274Y02056302D01*
X01478107Y02057553D01*
X01475691Y02058200D01*
D02*
G37*
G36*
X02746515Y02040744D02*
X02744013D01*
X02741597Y02040096D01*
X02739431Y02038845D01*
X02737662Y02037077D01*
X02736411Y02034910D01*
X02735764Y02032494D01*
Y02029993D01*
X02736411Y02027577D01*
X02737662Y02025410D01*
X02739431Y02023642D01*
X02741597Y02022391D01*
X02744013Y02021744D01*
X02746515D01*
X02748931Y02022391D01*
X02751097Y02023642D01*
X02752866Y02025410D01*
X02754117Y02027577D01*
X02754764Y02029993D01*
Y02032494D01*
X02754117Y02034910D01*
X02752866Y02037077D01*
X02751097Y02038845D01*
X02748931Y02040096D01*
X02746515Y02040744D01*
D02*
G37*
G36*
X02655987D02*
X02653485D01*
X02651069Y02040096D01*
X02648903Y02038845D01*
X02647134Y02037077D01*
X02645883Y02034910D01*
X02645236Y02032494D01*
Y02029993D01*
X02645883Y02027577D01*
X02647134Y02025410D01*
X02648903Y02023642D01*
X02651069Y02022391D01*
X02653485Y02021744D01*
X02655987D01*
X02658403Y02022391D01*
X02660569Y02023642D01*
X02662338Y02025410D01*
X02663588Y02027577D01*
X02664236Y02029993D01*
Y02032494D01*
X02663588Y02034910D01*
X02662338Y02037077D01*
X02660569Y02038845D01*
X02658403Y02040096D01*
X02655987Y02040744D01*
D02*
G37*
G36*
X02246515D02*
X02244013D01*
X02241597Y02040096D01*
X02239431Y02038845D01*
X02237662Y02037077D01*
X02236411Y02034910D01*
X02235764Y02032494D01*
Y02029993D01*
X02236411Y02027577D01*
X02237662Y02025410D01*
X02239431Y02023642D01*
X02241597Y02022391D01*
X02244013Y02021744D01*
X02246515D01*
X02248931Y02022391D01*
X02251097Y02023642D01*
X02252866Y02025410D01*
X02254117Y02027577D01*
X02254764Y02029993D01*
Y02032494D01*
X02254117Y02034910D01*
X02252866Y02037077D01*
X02251097Y02038845D01*
X02248931Y02040096D01*
X02246515Y02040744D01*
D02*
G37*
G36*
X02155987D02*
X02153485D01*
X02151069Y02040096D01*
X02148903Y02038845D01*
X02147134Y02037077D01*
X02145883Y02034910D01*
X02145236Y02032494D01*
Y02029993D01*
X02145883Y02027577D01*
X02147134Y02025410D01*
X02148903Y02023642D01*
X02151069Y02022391D01*
X02153485Y02021744D01*
X02155987D01*
X02158403Y02022391D01*
X02160569Y02023642D01*
X02162338Y02025410D01*
X02163589Y02027577D01*
X02164236Y02029993D01*
Y02032494D01*
X02163589Y02034910D01*
X02162338Y02037077D01*
X02160569Y02038845D01*
X02158403Y02040096D01*
X02155987Y02040744D01*
D02*
G37*
G36*
X02046515D02*
X02044013D01*
X02041597Y02040096D01*
X02039431Y02038845D01*
X02037662Y02037077D01*
X02036411Y02034910D01*
X02035764Y02032494D01*
Y02029993D01*
X02036411Y02027577D01*
X02037662Y02025410D01*
X02039431Y02023642D01*
X02041597Y02022391D01*
X02044013Y02021744D01*
X02046515D01*
X02048931Y02022391D01*
X02051097Y02023642D01*
X02052866Y02025410D01*
X02054117Y02027577D01*
X02054764Y02029993D01*
Y02032494D01*
X02054117Y02034910D01*
X02052866Y02037077D01*
X02051097Y02038845D01*
X02048931Y02040096D01*
X02046515Y02040744D01*
D02*
G37*
G36*
X01955987D02*
X01953485D01*
X01951069Y02040096D01*
X01948903Y02038845D01*
X01947134Y02037077D01*
X01945883Y02034910D01*
X01945236Y02032494D01*
Y02029993D01*
X01945883Y02027577D01*
X01947134Y02025410D01*
X01948903Y02023642D01*
X01951069Y02022391D01*
X01953485Y02021744D01*
X01955987D01*
X01958403Y02022391D01*
X01960569Y02023642D01*
X01962338Y02025410D01*
X01963589Y02027577D01*
X01964236Y02029993D01*
Y02032494D01*
X01963589Y02034910D01*
X01962338Y02037077D01*
X01960569Y02038845D01*
X01958403Y02040096D01*
X01955987Y02040744D01*
D02*
G37*
G36*
X01746515D02*
X01744013D01*
X01741597Y02040096D01*
X01739431Y02038845D01*
X01737662Y02037077D01*
X01736411Y02034910D01*
X01735764Y02032494D01*
Y02029993D01*
X01736411Y02027577D01*
X01737662Y02025410D01*
X01739431Y02023642D01*
X01741597Y02022391D01*
X01744013Y02021744D01*
X01746515D01*
X01748931Y02022391D01*
X01751097Y02023642D01*
X01752866Y02025410D01*
X01754117Y02027577D01*
X01754764Y02029993D01*
Y02032494D01*
X01754117Y02034910D01*
X01752866Y02037077D01*
X01751097Y02038845D01*
X01748931Y02040096D01*
X01746515Y02040744D01*
D02*
G37*
G36*
X01546515D02*
X01544013D01*
X01541597Y02040096D01*
X01539431Y02038845D01*
X01537662Y02037077D01*
X01536411Y02034910D01*
X01535764Y02032494D01*
Y02029993D01*
X01536411Y02027577D01*
X01537662Y02025410D01*
X01539431Y02023642D01*
X01541597Y02022391D01*
X01544013Y02021744D01*
X01546515D01*
X01548931Y02022391D01*
X01551097Y02023642D01*
X01552866Y02025410D01*
X01554117Y02027577D01*
X01554764Y02029993D01*
Y02032494D01*
X01554117Y02034910D01*
X01552866Y02037077D01*
X01551097Y02038845D01*
X01548931Y02040096D01*
X01546515Y02040744D01*
D02*
G37*
G36*
X01455987D02*
X01453485D01*
X01451069Y02040096D01*
X01448903Y02038845D01*
X01447134Y02037077D01*
X01445883Y02034910D01*
X01445236Y02032494D01*
Y02029993D01*
X01445883Y02027577D01*
X01447134Y02025410D01*
X01448903Y02023642D01*
X01451069Y02022391D01*
X01453485Y02021744D01*
X01455987D01*
X01458403Y02022391D01*
X01460569Y02023642D01*
X01462338Y02025410D01*
X01463589Y02027577D01*
X01464236Y02029993D01*
Y02032494D01*
X01463589Y02034910D01*
X01462338Y02037077D01*
X01460569Y02038845D01*
X01458403Y02040096D01*
X01455987Y02040744D01*
D02*
G37*
G36*
X02646652Y02016130D02*
X02644151D01*
X02641734Y02015483D01*
X02639568Y02014232D01*
X02637799Y02012463D01*
X02636549Y02010297D01*
X02635901Y02007881D01*
Y02005379D01*
X02636549Y02002963D01*
X02637799Y02000797D01*
X02639248Y01999348D01*
X02639089Y01998532D01*
X02638891Y01998113D01*
X02638842Y01998047D01*
X02637439Y01997768D01*
X02636116Y01996884D01*
X02636116Y01996884D01*
X02628204Y01988972D01*
X02627320Y01987648D01*
X02627009Y01986088D01*
X02627009Y01986087D01*
Y01835402D01*
X02626849Y01835242D01*
X02626088Y01833404D01*
Y01831415D01*
X02626849Y01829577D01*
X02628255Y01828170D01*
X02630093Y01827409D01*
X02632082D01*
X02633920Y01828170D01*
X02635327Y01829577D01*
X02636088Y01831415D01*
Y01833404D01*
X02635327Y01835242D01*
X02635166Y01835402D01*
Y01984398D01*
X02640689Y01989922D01*
X02643356D01*
X02643697Y01988652D01*
X02642740Y01988100D01*
X02640972Y01986331D01*
X02639721Y01984165D01*
X02639074Y01981749D01*
Y01979247D01*
X02639721Y01976831D01*
X02640972Y01974665D01*
X02642740Y01972896D01*
X02644907Y01971645D01*
X02647323Y01970998D01*
X02649825D01*
X02652241Y01971645D01*
X02654407Y01972896D01*
X02656176Y01974665D01*
X02657426Y01976831D01*
X02658074Y01979247D01*
Y01981749D01*
X02657426Y01984165D01*
X02656176Y01986331D01*
X02654407Y01988100D01*
X02653451Y01988652D01*
X02653791Y01989922D01*
X02663284D01*
X02663284Y01989922D01*
X02664844Y01990232D01*
X02666168Y01991116D01*
X02680473Y02005422D01*
X02691500D01*
Y02004000D01*
X02708500D01*
Y02015000D01*
X02691500D01*
Y02013578D01*
X02678784D01*
X02677223Y02013268D01*
X02675900Y02012384D01*
X02675900Y02012384D01*
X02661595Y01998078D01*
X02652007D01*
X02651555Y01999348D01*
X02653003Y02000797D01*
X02654254Y02002963D01*
X02654901Y02005379D01*
Y02007881D01*
X02654254Y02010297D01*
X02653003Y02012463D01*
X02651234Y02014232D01*
X02649068Y02015483D01*
X02646652Y02016130D01*
D02*
G37*
G36*
X02446652D02*
X02444151D01*
X02441734Y02015483D01*
X02439568Y02014232D01*
X02437799Y02012463D01*
X02436549Y02010297D01*
X02435901Y02007881D01*
Y02005379D01*
X02436549Y02002963D01*
X02437799Y02000797D01*
X02439248Y01999348D01*
X02439089Y01998532D01*
X02438891Y01998113D01*
X02438842Y01998047D01*
X02437439Y01997768D01*
X02436116Y01996884D01*
X02436116Y01996884D01*
X02428204Y01988972D01*
X02427320Y01987648D01*
X02427009Y01986088D01*
X02427009Y01986087D01*
Y01835402D01*
X02426849Y01835242D01*
X02426088Y01833404D01*
Y01831415D01*
X02426849Y01829577D01*
X02428255Y01828170D01*
X02430093Y01827409D01*
X02432082D01*
X02433920Y01828170D01*
X02435326Y01829577D01*
X02436088Y01831415D01*
Y01833404D01*
X02435326Y01835242D01*
X02435166Y01835402D01*
Y01984398D01*
X02440689Y01989922D01*
X02443356D01*
X02443696Y01988652D01*
X02442741Y01988100D01*
X02440972Y01986331D01*
X02439721Y01984165D01*
X02439074Y01981749D01*
Y01979247D01*
X02439721Y01976831D01*
X02440972Y01974665D01*
X02442741Y01972896D01*
X02444907Y01971645D01*
X02447323Y01970998D01*
X02449824D01*
X02452240Y01971645D01*
X02454407Y01972896D01*
X02456176Y01974665D01*
X02457426Y01976831D01*
X02458074Y01979247D01*
Y01981749D01*
X02457426Y01984165D01*
X02456176Y01986331D01*
X02454407Y01988100D01*
X02453451Y01988652D01*
X02453791Y01989922D01*
X02463284D01*
X02463284Y01989922D01*
X02464844Y01990232D01*
X02466167Y01991116D01*
X02480473Y02005422D01*
X02491500D01*
Y02004000D01*
X02508500D01*
Y02015000D01*
X02491500D01*
Y02013578D01*
X02478784D01*
X02477223Y02013268D01*
X02475900Y02012384D01*
X02475900Y02012384D01*
X02461594Y01998078D01*
X02452007D01*
X02451555Y01999348D01*
X02453003Y02000797D01*
X02454254Y02002963D01*
X02454901Y02005379D01*
Y02007881D01*
X02454254Y02010297D01*
X02453003Y02012463D01*
X02451234Y02014232D01*
X02449068Y02015483D01*
X02446652Y02016130D01*
D02*
G37*
G36*
X02349000Y02044000D02*
X02336000D01*
Y02024000D01*
X02339441D01*
Y02022000D01*
X02336000D01*
Y02002000D01*
X02349000D01*
Y02008941D01*
X02352500D01*
Y02004000D01*
X02362500D01*
Y02020000D01*
X02352500D01*
Y02015059D01*
X02349000D01*
Y02022000D01*
X02345559D01*
Y02024000D01*
X02349000D01*
Y02044000D01*
D02*
G37*
G36*
X02146652Y02016130D02*
X02144151D01*
X02141734Y02015483D01*
X02139568Y02014232D01*
X02137799Y02012463D01*
X02136549Y02010297D01*
X02135901Y02007881D01*
Y02005379D01*
X02136549Y02002963D01*
X02137799Y02000797D01*
X02139248Y01999348D01*
X02139089Y01998532D01*
X02138891Y01998113D01*
X02138842Y01998047D01*
X02137439Y01997768D01*
X02136116Y01996884D01*
X02136116Y01996884D01*
X02128204Y01988972D01*
X02127320Y01987648D01*
X02127009Y01986088D01*
X02127009Y01986087D01*
Y01835402D01*
X02126849Y01835242D01*
X02126088Y01833404D01*
Y01831415D01*
X02126849Y01829577D01*
X02128255Y01828170D01*
X02130093Y01827409D01*
X02132082D01*
X02133920Y01828170D01*
X02135327Y01829577D01*
X02136088Y01831415D01*
Y01833404D01*
X02135327Y01835242D01*
X02135166Y01835402D01*
Y01984398D01*
X02140689Y01989922D01*
X02143356D01*
X02143697Y01988652D01*
X02142741Y01988100D01*
X02140972Y01986331D01*
X02139721Y01984165D01*
X02139074Y01981749D01*
Y01979247D01*
X02139721Y01976831D01*
X02140972Y01974665D01*
X02142741Y01972896D01*
X02144907Y01971645D01*
X02147323Y01970998D01*
X02149824D01*
X02152240Y01971645D01*
X02154407Y01972896D01*
X02156176Y01974665D01*
X02157426Y01976831D01*
X02158074Y01979247D01*
Y01981749D01*
X02157426Y01984165D01*
X02156176Y01986331D01*
X02154407Y01988100D01*
X02153451Y01988652D01*
X02153791Y01989922D01*
X02163284D01*
X02163284Y01989922D01*
X02164844Y01990232D01*
X02166167Y01991116D01*
X02180473Y02005422D01*
X02191500D01*
Y02004000D01*
X02208500D01*
Y02015000D01*
X02191500D01*
Y02013578D01*
X02178784D01*
X02177223Y02013268D01*
X02175900Y02012384D01*
X02175900Y02012384D01*
X02161594Y01998078D01*
X02152007D01*
X02151555Y01999348D01*
X02153003Y02000797D01*
X02154254Y02002963D01*
X02154901Y02005379D01*
Y02007881D01*
X02154254Y02010297D01*
X02153003Y02012463D01*
X02151234Y02014232D01*
X02149068Y02015483D01*
X02146652Y02016130D01*
D02*
G37*
G36*
X01946652D02*
X01944151D01*
X01941734Y02015483D01*
X01939568Y02014232D01*
X01937799Y02012463D01*
X01936549Y02010297D01*
X01935901Y02007881D01*
Y02005379D01*
X01936549Y02002963D01*
X01937799Y02000797D01*
X01939248Y01999348D01*
X01939089Y01998532D01*
X01938891Y01998113D01*
X01938842Y01998047D01*
X01937439Y01997768D01*
X01936116Y01996884D01*
X01936116Y01996884D01*
X01928204Y01988972D01*
X01927320Y01987648D01*
X01927009Y01986088D01*
X01927009Y01986087D01*
Y01835402D01*
X01926849Y01835242D01*
X01926088Y01833404D01*
Y01831415D01*
X01926849Y01829577D01*
X01928255Y01828170D01*
X01930093Y01827409D01*
X01932082D01*
X01933920Y01828170D01*
X01935327Y01829577D01*
X01936088Y01831415D01*
Y01833404D01*
X01935327Y01835242D01*
X01935166Y01835402D01*
Y01984398D01*
X01940689Y01989922D01*
X01943356D01*
X01943696Y01988652D01*
X01942741Y01988100D01*
X01940972Y01986331D01*
X01939721Y01984165D01*
X01939074Y01981749D01*
Y01979247D01*
X01939721Y01976831D01*
X01940972Y01974665D01*
X01942741Y01972896D01*
X01944907Y01971645D01*
X01947323Y01970998D01*
X01949824D01*
X01952240Y01971645D01*
X01954407Y01972896D01*
X01956176Y01974665D01*
X01957426Y01976831D01*
X01958074Y01979247D01*
Y01981749D01*
X01957426Y01984165D01*
X01956176Y01986331D01*
X01954407Y01988100D01*
X01953451Y01988652D01*
X01953791Y01989922D01*
X01963284D01*
X01963284Y01989922D01*
X01964844Y01990232D01*
X01966167Y01991116D01*
X01980473Y02005422D01*
X01991500D01*
Y02004000D01*
X02008500D01*
Y02015000D01*
X01991500D01*
Y02013578D01*
X01978784D01*
X01977223Y02013268D01*
X01975900Y02012384D01*
X01975900Y02012384D01*
X01961594Y01998078D01*
X01952007D01*
X01951555Y01999348D01*
X01953003Y02000797D01*
X01954254Y02002963D01*
X01954901Y02005379D01*
Y02007881D01*
X01954254Y02010297D01*
X01953003Y02012463D01*
X01951234Y02014232D01*
X01949068Y02015483D01*
X01946652Y02016130D01*
D02*
G37*
G36*
X01446652D02*
X01444151D01*
X01441734Y02015483D01*
X01439568Y02014232D01*
X01437799Y02012463D01*
X01436549Y02010297D01*
X01435901Y02007881D01*
Y02005379D01*
X01436549Y02002963D01*
X01437799Y02000797D01*
X01439248Y01999348D01*
X01439089Y01998532D01*
X01438891Y01998113D01*
X01438842Y01998047D01*
X01437439Y01997768D01*
X01436116Y01996884D01*
X01436116Y01996884D01*
X01428204Y01988972D01*
X01427320Y01987648D01*
X01427009Y01986088D01*
X01427009Y01986087D01*
Y01835402D01*
X01426849Y01835242D01*
X01426088Y01833404D01*
Y01831415D01*
X01426849Y01829577D01*
X01428255Y01828170D01*
X01430093Y01827409D01*
X01432082D01*
X01433920Y01828170D01*
X01435327Y01829577D01*
X01436088Y01831415D01*
Y01833404D01*
X01435327Y01835242D01*
X01435166Y01835402D01*
Y01984398D01*
X01440689Y01989922D01*
X01443356D01*
X01443697Y01988652D01*
X01442741Y01988100D01*
X01440972Y01986331D01*
X01439721Y01984165D01*
X01439074Y01981749D01*
Y01979247D01*
X01439721Y01976831D01*
X01440972Y01974665D01*
X01442741Y01972896D01*
X01444907Y01971645D01*
X01447323Y01970998D01*
X01449824D01*
X01452240Y01971645D01*
X01454407Y01972896D01*
X01456176Y01974665D01*
X01457426Y01976831D01*
X01458074Y01979247D01*
Y01981749D01*
X01457426Y01984165D01*
X01456176Y01986331D01*
X01454407Y01988100D01*
X01453451Y01988652D01*
X01453791Y01989922D01*
X01463284D01*
X01463284Y01989922D01*
X01464844Y01990232D01*
X01466168Y01991116D01*
X01480473Y02005422D01*
X01491500D01*
Y02004000D01*
X01508500D01*
Y02015000D01*
X01491500D01*
Y02013578D01*
X01478784D01*
X01477223Y02013268D01*
X01475900Y02012384D01*
X01475900Y02012384D01*
X01461594Y01998078D01*
X01452007D01*
X01451555Y01999348D01*
X01453003Y02000797D01*
X01454254Y02002963D01*
X01454901Y02005379D01*
Y02007881D01*
X01454254Y02010297D01*
X01453003Y02012463D01*
X01451234Y02014232D01*
X01449068Y02015483D01*
X01446652Y02016130D01*
D02*
G37*
G36*
X02384500Y02023000D02*
X02368500D01*
Y02001000D01*
X02384500D01*
Y02003383D01*
X02385770Y02004315D01*
X02386947Y02004000D01*
X02389053D01*
X02391088Y02004545D01*
X02392912Y02005598D01*
X02394402Y02007088D01*
X02395455Y02008912D01*
X02396000Y02010947D01*
Y02013053D01*
X02395455Y02015088D01*
X02394402Y02016912D01*
X02392912Y02018402D01*
X02391088Y02019455D01*
X02389053Y02020000D01*
X02386947D01*
X02385770Y02019685D01*
X02384500Y02020618D01*
Y02023000D01*
D02*
G37*
G36*
X02755849Y02016130D02*
X02753348D01*
X02750932Y02015483D01*
X02748766Y02014232D01*
X02746997Y02012463D01*
X02745746Y02010297D01*
X02745099Y02007881D01*
Y02005379D01*
X02745746Y02002963D01*
X02746997Y02000797D01*
X02748766Y01999028D01*
X02750932Y01997778D01*
X02753348Y01997130D01*
X02755849D01*
X02758266Y01997778D01*
X02760432Y01999028D01*
X02762201Y02000797D01*
X02763451Y02002963D01*
X02764099Y02005379D01*
Y02007881D01*
X02763451Y02010297D01*
X02762201Y02012463D01*
X02760432Y02014232D01*
X02758266Y02015483D01*
X02755849Y02016130D01*
D02*
G37*
G36*
X02255849D02*
X02253348D01*
X02250932Y02015483D01*
X02248766Y02014232D01*
X02246997Y02012463D01*
X02245746Y02010297D01*
X02245099Y02007881D01*
Y02005379D01*
X02245746Y02002963D01*
X02246997Y02000797D01*
X02248766Y01999028D01*
X02250932Y01997778D01*
X02253348Y01997130D01*
X02255849D01*
X02258266Y01997778D01*
X02260432Y01999028D01*
X02262201Y02000797D01*
X02263451Y02002963D01*
X02264099Y02005379D01*
Y02007881D01*
X02263451Y02010297D01*
X02262201Y02012463D01*
X02260432Y02014232D01*
X02258266Y02015483D01*
X02255849Y02016130D01*
D02*
G37*
G36*
X02055849D02*
X02053348D01*
X02050932Y02015483D01*
X02048766Y02014232D01*
X02046997Y02012463D01*
X02045746Y02010297D01*
X02045099Y02007881D01*
Y02005379D01*
X02045746Y02002963D01*
X02046997Y02000797D01*
X02048766Y01999028D01*
X02050932Y01997778D01*
X02053348Y01997130D01*
X02055849D01*
X02058266Y01997778D01*
X02060432Y01999028D01*
X02062201Y02000797D01*
X02063451Y02002963D01*
X02064099Y02005379D01*
Y02007881D01*
X02063451Y02010297D01*
X02062201Y02012463D01*
X02060432Y02014232D01*
X02058266Y02015483D01*
X02055849Y02016130D01*
D02*
G37*
G36*
X01755849D02*
X01753348D01*
X01750932Y02015483D01*
X01748766Y02014232D01*
X01746997Y02012463D01*
X01745746Y02010297D01*
X01745099Y02007881D01*
Y02005379D01*
X01745746Y02002963D01*
X01746997Y02000797D01*
X01748766Y01999028D01*
X01750932Y01997778D01*
X01753348Y01997130D01*
X01755849D01*
X01758266Y01997778D01*
X01760432Y01999028D01*
X01762201Y02000797D01*
X01763451Y02002963D01*
X01764099Y02005379D01*
Y02007881D01*
X01763451Y02010297D01*
X01762201Y02012463D01*
X01760432Y02014232D01*
X01758266Y02015483D01*
X01755849Y02016130D01*
D02*
G37*
G36*
X01555849D02*
X01553348D01*
X01550932Y02015483D01*
X01548766Y02014232D01*
X01546997Y02012463D01*
X01545746Y02010297D01*
X01545099Y02007881D01*
Y02005379D01*
X01545746Y02002963D01*
X01546997Y02000797D01*
X01548766Y01999028D01*
X01550932Y01997778D01*
X01553348Y01997130D01*
X01555849D01*
X01558266Y01997778D01*
X01560432Y01999028D01*
X01562201Y02000797D01*
X01563451Y02002963D01*
X01564099Y02005379D01*
Y02007881D01*
X01563451Y02010297D01*
X01562201Y02012463D01*
X01560432Y02014232D01*
X01558266Y02015483D01*
X01555849Y02016130D01*
D02*
G37*
G36*
X02752677Y01989998D02*
X02750175D01*
X02747759Y01989350D01*
X02745593Y01988100D01*
X02743824Y01986331D01*
X02742574Y01984165D01*
X02741926Y01981749D01*
Y01979247D01*
X02742574Y01976831D01*
X02743824Y01974665D01*
X02745593Y01972896D01*
X02747759Y01971645D01*
X02750175Y01970998D01*
X02752677D01*
X02755093Y01971645D01*
X02757260Y01972896D01*
X02759028Y01974665D01*
X02760279Y01976831D01*
X02760926Y01979247D01*
Y01981749D01*
X02760279Y01984165D01*
X02759028Y01986331D01*
X02757260Y01988100D01*
X02755093Y01989350D01*
X02752677Y01989998D01*
D02*
G37*
G36*
X02252677D02*
X02250176D01*
X02247760Y01989350D01*
X02245593Y01988100D01*
X02243824Y01986331D01*
X02242574Y01984165D01*
X02241926Y01981749D01*
Y01979247D01*
X02242574Y01976831D01*
X02243824Y01974665D01*
X02245593Y01972896D01*
X02247760Y01971645D01*
X02250176Y01970998D01*
X02252677D01*
X02255093Y01971645D01*
X02257259Y01972896D01*
X02259028Y01974665D01*
X02260279Y01976831D01*
X02260926Y01979247D01*
Y01981749D01*
X02260279Y01984165D01*
X02259028Y01986331D01*
X02257259Y01988100D01*
X02255093Y01989350D01*
X02252677Y01989998D01*
D02*
G37*
G36*
X02052677D02*
X02050176D01*
X02047760Y01989350D01*
X02045593Y01988100D01*
X02043824Y01986331D01*
X02042574Y01984165D01*
X02041926Y01981749D01*
Y01979247D01*
X02042574Y01976831D01*
X02043824Y01974665D01*
X02045593Y01972896D01*
X02047760Y01971645D01*
X02050176Y01970998D01*
X02052677D01*
X02055093Y01971645D01*
X02057259Y01972896D01*
X02059028Y01974665D01*
X02060279Y01976831D01*
X02060926Y01979247D01*
Y01981749D01*
X02060279Y01984165D01*
X02059028Y01986331D01*
X02057259Y01988100D01*
X02055093Y01989350D01*
X02052677Y01989998D01*
D02*
G37*
G36*
X01752677D02*
X01750176D01*
X01747759Y01989350D01*
X01745593Y01988100D01*
X01743824Y01986331D01*
X01742574Y01984165D01*
X01741926Y01981749D01*
Y01979247D01*
X01742574Y01976831D01*
X01743824Y01974665D01*
X01745593Y01972896D01*
X01747759Y01971645D01*
X01750176Y01970998D01*
X01752677D01*
X01755093Y01971645D01*
X01757259Y01972896D01*
X01759028Y01974665D01*
X01760279Y01976831D01*
X01760926Y01979247D01*
Y01981749D01*
X01760279Y01984165D01*
X01759028Y01986331D01*
X01757259Y01988100D01*
X01755093Y01989350D01*
X01752677Y01989998D01*
D02*
G37*
G36*
X01552677D02*
X01550176D01*
X01547760Y01989350D01*
X01545593Y01988100D01*
X01543824Y01986331D01*
X01542574Y01984165D01*
X01541926Y01981749D01*
Y01979247D01*
X01542574Y01976831D01*
X01543824Y01974665D01*
X01545593Y01972896D01*
X01547760Y01971645D01*
X01550176Y01970998D01*
X01552677D01*
X01555093Y01971645D01*
X01557259Y01972896D01*
X01559028Y01974665D01*
X01560279Y01976831D01*
X01560926Y01979247D01*
Y01981749D01*
X01560279Y01984165D01*
X01559028Y01986331D01*
X01557259Y01988100D01*
X01555093Y01989350D01*
X01552677Y01989998D01*
D02*
G37*
G36*
X02708500Y01996000D02*
X02691500D01*
Y01985000D01*
X02696941D01*
Y01950491D01*
X02695687Y01950266D01*
X02694436Y01952432D01*
X02692667Y01954201D01*
X02690501Y01955452D01*
X02688085Y01956099D01*
X02685583D01*
X02683167Y01955452D01*
X02681001Y01954201D01*
X02679232Y01952432D01*
X02677982Y01950266D01*
X02677334Y01947850D01*
Y01945348D01*
X02677982Y01942932D01*
X02679232Y01940766D01*
X02681001Y01938997D01*
X02683167Y01937746D01*
X02685583Y01937099D01*
X02688085D01*
X02690501Y01937746D01*
X02692667Y01938997D01*
X02694436Y01940766D01*
X02695687Y01942932D01*
X02696941Y01942707D01*
Y01895000D01*
X02693500D01*
Y01885000D01*
X02706500D01*
Y01895000D01*
X02703059D01*
Y01942708D01*
X02704313Y01942932D01*
X02705564Y01940766D01*
X02707333Y01938997D01*
X02709499Y01937746D01*
X02711915Y01937099D01*
X02714417D01*
X02716833Y01937746D01*
X02718999Y01938997D01*
X02720768Y01940766D01*
X02722018Y01942932D01*
X02722666Y01945348D01*
Y01947850D01*
X02722018Y01950266D01*
X02720768Y01952432D01*
X02718999Y01954201D01*
X02716833Y01955452D01*
X02714417Y01956099D01*
X02711915D01*
X02709499Y01955452D01*
X02707333Y01954201D01*
X02705564Y01952432D01*
X02704313Y01950266D01*
X02703059Y01950490D01*
Y01985000D01*
X02708500D01*
Y01996000D01*
D02*
G37*
G36*
X02208500D02*
X02191500D01*
Y01985000D01*
X02196941D01*
Y01950491D01*
X02195687Y01950266D01*
X02194436Y01952432D01*
X02192667Y01954201D01*
X02190501Y01955452D01*
X02188085Y01956099D01*
X02185583D01*
X02183167Y01955452D01*
X02181001Y01954201D01*
X02179232Y01952432D01*
X02177982Y01950266D01*
X02177334Y01947850D01*
Y01945348D01*
X02177982Y01942932D01*
X02179232Y01940766D01*
X02181001Y01938997D01*
X02183167Y01937746D01*
X02185583Y01937099D01*
X02188085D01*
X02190501Y01937746D01*
X02192667Y01938997D01*
X02194436Y01940766D01*
X02195687Y01942932D01*
X02196941Y01942707D01*
Y01895000D01*
X02193500D01*
Y01885000D01*
X02206500D01*
Y01895000D01*
X02203059D01*
Y01942708D01*
X02204313Y01942932D01*
X02205564Y01940766D01*
X02207333Y01938997D01*
X02209499Y01937746D01*
X02211915Y01937099D01*
X02214417D01*
X02216833Y01937746D01*
X02218999Y01938997D01*
X02220768Y01940766D01*
X02222018Y01942932D01*
X02222666Y01945348D01*
Y01947850D01*
X02222018Y01950266D01*
X02220768Y01952432D01*
X02218999Y01954201D01*
X02216833Y01955452D01*
X02214417Y01956099D01*
X02211915D01*
X02209499Y01955452D01*
X02207333Y01954201D01*
X02205564Y01952432D01*
X02204313Y01950266D01*
X02203059Y01950490D01*
Y01985000D01*
X02208500D01*
Y01996000D01*
D02*
G37*
G36*
X02008500D02*
X01991500D01*
Y01985000D01*
X01996941D01*
Y01950491D01*
X01995687Y01950266D01*
X01994436Y01952432D01*
X01992667Y01954201D01*
X01990501Y01955452D01*
X01988085Y01956099D01*
X01985583D01*
X01983167Y01955452D01*
X01981001Y01954201D01*
X01979232Y01952432D01*
X01977982Y01950266D01*
X01977334Y01947850D01*
Y01945348D01*
X01977982Y01942932D01*
X01979232Y01940766D01*
X01981001Y01938997D01*
X01983167Y01937746D01*
X01985583Y01937099D01*
X01988085D01*
X01990501Y01937746D01*
X01992667Y01938997D01*
X01994436Y01940766D01*
X01995687Y01942932D01*
X01996941Y01942707D01*
Y01895000D01*
X01993500D01*
Y01885000D01*
X02006500D01*
Y01895000D01*
X02003059D01*
Y01942708D01*
X02004313Y01942932D01*
X02005564Y01940766D01*
X02007333Y01938997D01*
X02009499Y01937746D01*
X02011915Y01937099D01*
X02014417D01*
X02016833Y01937746D01*
X02018999Y01938997D01*
X02020768Y01940766D01*
X02022018Y01942932D01*
X02022666Y01945348D01*
Y01947850D01*
X02022018Y01950266D01*
X02020768Y01952432D01*
X02018999Y01954201D01*
X02016833Y01955452D01*
X02014417Y01956099D01*
X02011915D01*
X02009499Y01955452D01*
X02007333Y01954201D01*
X02005564Y01952432D01*
X02004313Y01950266D01*
X02003059Y01950490D01*
Y01985000D01*
X02008500D01*
Y01996000D01*
D02*
G37*
G36*
X01508500D02*
X01491500D01*
Y01985000D01*
X01496941D01*
Y01950491D01*
X01495687Y01950266D01*
X01494436Y01952432D01*
X01492667Y01954201D01*
X01490501Y01955452D01*
X01488085Y01956099D01*
X01485583D01*
X01483167Y01955452D01*
X01481001Y01954201D01*
X01479232Y01952432D01*
X01477982Y01950266D01*
X01477334Y01947850D01*
Y01945348D01*
X01477982Y01942932D01*
X01479232Y01940766D01*
X01481001Y01938997D01*
X01483167Y01937746D01*
X01485583Y01937099D01*
X01488085D01*
X01490501Y01937746D01*
X01492667Y01938997D01*
X01494436Y01940766D01*
X01495687Y01942932D01*
X01496941Y01942707D01*
Y01895000D01*
X01493500D01*
Y01885000D01*
X01506500D01*
Y01895000D01*
X01503059D01*
Y01942708D01*
X01504313Y01942932D01*
X01505564Y01940766D01*
X01507333Y01938997D01*
X01509499Y01937746D01*
X01511915Y01937099D01*
X01514417D01*
X01516833Y01937746D01*
X01518999Y01938997D01*
X01520768Y01940766D01*
X01522018Y01942932D01*
X01522666Y01945348D01*
Y01947850D01*
X01522018Y01950266D01*
X01520768Y01952432D01*
X01518999Y01954201D01*
X01516833Y01955452D01*
X01514417Y01956099D01*
X01511915D01*
X01509499Y01955452D01*
X01507333Y01954201D01*
X01505564Y01952432D01*
X01504313Y01950266D01*
X01503059Y01950490D01*
Y01985000D01*
X01508500D01*
Y01996000D01*
D02*
G37*
G36*
X02737724Y01968333D02*
X02735222D01*
X02732806Y01967686D01*
X02730640Y01966435D01*
X02728871Y01964666D01*
X02727621Y01962500D01*
X02726973Y01960084D01*
Y01957583D01*
X02727621Y01955166D01*
X02728871Y01953000D01*
X02730640Y01951231D01*
X02732806Y01949981D01*
X02735222Y01949333D01*
X02737724D01*
X02740140Y01949981D01*
X02742306Y01951231D01*
X02744075Y01953000D01*
X02745326Y01955166D01*
X02745973Y01957583D01*
Y01960084D01*
X02745326Y01962500D01*
X02744075Y01964666D01*
X02742306Y01966435D01*
X02740140Y01967686D01*
X02737724Y01968333D01*
D02*
G37*
G36*
X02664778D02*
X02662276D01*
X02659860Y01967686D01*
X02657694Y01966435D01*
X02655925Y01964666D01*
X02654674Y01962500D01*
X02654027Y01960084D01*
Y01957583D01*
X02654674Y01955166D01*
X02655925Y01953000D01*
X02657694Y01951231D01*
X02659860Y01949981D01*
X02662276Y01949333D01*
X02664778D01*
X02667194Y01949981D01*
X02669360Y01951231D01*
X02671129Y01953000D01*
X02672379Y01955166D01*
X02673027Y01957583D01*
Y01960084D01*
X02672379Y01962500D01*
X02671129Y01964666D01*
X02669360Y01966435D01*
X02667194Y01967686D01*
X02664778Y01968333D01*
D02*
G37*
G36*
X02464778D02*
X02462276D01*
X02459860Y01967686D01*
X02457694Y01966435D01*
X02455925Y01964666D01*
X02454674Y01962500D01*
X02454027Y01960084D01*
Y01957583D01*
X02454674Y01955166D01*
X02455925Y01953000D01*
X02457694Y01951231D01*
X02459860Y01949981D01*
X02462276Y01949333D01*
X02464778D01*
X02467194Y01949981D01*
X02469360Y01951231D01*
X02471129Y01953000D01*
X02472379Y01955166D01*
X02473027Y01957583D01*
Y01960084D01*
X02472379Y01962500D01*
X02471129Y01964666D01*
X02469360Y01966435D01*
X02467194Y01967686D01*
X02464778Y01968333D01*
D02*
G37*
G36*
X02237724D02*
X02235222D01*
X02232806Y01967686D01*
X02230640Y01966435D01*
X02228871Y01964666D01*
X02227621Y01962500D01*
X02226973Y01960084D01*
Y01957583D01*
X02227621Y01955166D01*
X02228871Y01953000D01*
X02230640Y01951231D01*
X02232806Y01949981D01*
X02235222Y01949333D01*
X02237724D01*
X02240140Y01949981D01*
X02242306Y01951231D01*
X02244075Y01953000D01*
X02245326Y01955166D01*
X02245973Y01957583D01*
Y01960084D01*
X02245326Y01962500D01*
X02244075Y01964666D01*
X02242306Y01966435D01*
X02240140Y01967686D01*
X02237724Y01968333D01*
D02*
G37*
G36*
X02164778D02*
X02162276D01*
X02159860Y01967686D01*
X02157694Y01966435D01*
X02155925Y01964666D01*
X02154674Y01962500D01*
X02154027Y01960084D01*
Y01957583D01*
X02154674Y01955166D01*
X02155925Y01953000D01*
X02157694Y01951231D01*
X02159860Y01949981D01*
X02162276Y01949333D01*
X02164778D01*
X02167194Y01949981D01*
X02169360Y01951231D01*
X02171129Y01953000D01*
X02172379Y01955166D01*
X02173027Y01957583D01*
Y01960084D01*
X02172379Y01962500D01*
X02171129Y01964666D01*
X02169360Y01966435D01*
X02167194Y01967686D01*
X02164778Y01968333D01*
D02*
G37*
G36*
X02037724D02*
X02035222D01*
X02032806Y01967686D01*
X02030640Y01966435D01*
X02028871Y01964666D01*
X02027621Y01962500D01*
X02026973Y01960084D01*
Y01957583D01*
X02027621Y01955166D01*
X02028871Y01953000D01*
X02030640Y01951231D01*
X02032806Y01949981D01*
X02035222Y01949333D01*
X02037724D01*
X02040140Y01949981D01*
X02042306Y01951231D01*
X02044075Y01953000D01*
X02045326Y01955166D01*
X02045973Y01957583D01*
Y01960084D01*
X02045326Y01962500D01*
X02044075Y01964666D01*
X02042306Y01966435D01*
X02040140Y01967686D01*
X02037724Y01968333D01*
D02*
G37*
G36*
X01964778D02*
X01962276D01*
X01959860Y01967686D01*
X01957694Y01966435D01*
X01955925Y01964666D01*
X01954674Y01962500D01*
X01954027Y01960084D01*
Y01957583D01*
X01954674Y01955166D01*
X01955925Y01953000D01*
X01957694Y01951231D01*
X01959860Y01949981D01*
X01962276Y01949333D01*
X01964778D01*
X01967194Y01949981D01*
X01969360Y01951231D01*
X01971129Y01953000D01*
X01972379Y01955166D01*
X01973027Y01957583D01*
Y01960084D01*
X01972379Y01962500D01*
X01971129Y01964666D01*
X01969360Y01966435D01*
X01967194Y01967686D01*
X01964778Y01968333D01*
D02*
G37*
G36*
X01537724D02*
X01535222D01*
X01532806Y01967686D01*
X01530640Y01966435D01*
X01528871Y01964666D01*
X01527621Y01962500D01*
X01526973Y01960084D01*
Y01957583D01*
X01527621Y01955166D01*
X01528871Y01953000D01*
X01530640Y01951231D01*
X01532806Y01949981D01*
X01535222Y01949333D01*
X01537724D01*
X01540140Y01949981D01*
X01542306Y01951231D01*
X01544075Y01953000D01*
X01545326Y01955166D01*
X01545973Y01957583D01*
Y01960084D01*
X01545326Y01962500D01*
X01544075Y01964666D01*
X01542306Y01966435D01*
X01540140Y01967686D01*
X01537724Y01968333D01*
D02*
G37*
G36*
X01464778D02*
X01462276D01*
X01459860Y01967686D01*
X01457694Y01966435D01*
X01455925Y01964666D01*
X01454674Y01962500D01*
X01454027Y01960084D01*
Y01957583D01*
X01454674Y01955166D01*
X01455925Y01953000D01*
X01457694Y01951231D01*
X01459860Y01949981D01*
X01462276Y01949333D01*
X01464778D01*
X01467194Y01949981D01*
X01469360Y01951231D01*
X01471129Y01953000D01*
X01472379Y01955166D01*
X01473027Y01957583D01*
Y01960084D01*
X01472379Y01962500D01*
X01471129Y01964666D01*
X01469360Y01966435D01*
X01467194Y01967686D01*
X01464778Y01968333D01*
D02*
G37*
G36*
X02319000Y02062000D02*
X02309000D01*
Y02046000D01*
X02310941D01*
Y02044000D01*
X02307000D01*
Y02025000D01*
X02304000D01*
Y01999000D01*
X02307383D01*
Y01966500D01*
X02307848Y01964159D01*
X02309174Y01962174D01*
X02317966Y01953383D01*
X02317500Y01951646D01*
Y01948354D01*
X02318352Y01945175D01*
X02319998Y01942325D01*
X02322325Y01939998D01*
X02325175Y01938352D01*
X02328354Y01937500D01*
X02331646D01*
X02334825Y01938352D01*
X02337675Y01939998D01*
X02340002Y01942325D01*
X02341648Y01945175D01*
X02342500Y01948354D01*
Y01951646D01*
X02341648Y01954825D01*
X02340002Y01957675D01*
X02337675Y01960002D01*
X02334825Y01961648D01*
X02331646Y01962500D01*
X02328354D01*
X02326617Y01962034D01*
X02319617Y01969034D01*
Y01999000D01*
X02323000D01*
Y02025000D01*
X02320000D01*
Y02044000D01*
X02317059D01*
Y02046000D01*
X02319000D01*
Y02062000D01*
D02*
G37*
G36*
X01831646Y01962500D02*
X01828354D01*
X01825175Y01961648D01*
X01822325Y01960002D01*
X01819998Y01957675D01*
X01818352Y01954825D01*
X01817500Y01951646D01*
Y01948354D01*
X01818352Y01945175D01*
X01819998Y01942325D01*
X01822325Y01939998D01*
X01825175Y01938352D01*
X01828354Y01937500D01*
X01831646D01*
X01834825Y01938352D01*
X01837675Y01939998D01*
X01840002Y01942325D01*
X01841648Y01945175D01*
X01842500Y01948354D01*
Y01951646D01*
X01841648Y01954825D01*
X01840002Y01957675D01*
X01837675Y01960002D01*
X01834825Y01961648D01*
X01831646Y01962500D01*
D02*
G37*
G36*
X02371251Y01959500D02*
X02368749D01*
X02366333Y01958853D01*
X02364167Y01957602D01*
X02362398Y01955833D01*
X02361147Y01953667D01*
X02360500Y01951251D01*
Y01948749D01*
X02361147Y01946333D01*
X02362398Y01944167D01*
X02364167Y01942398D01*
X02366333Y01941147D01*
X02366941Y01940984D01*
Y01912317D01*
X02365702Y01911601D01*
X02364399Y01910298D01*
X02363477Y01908702D01*
X02363000Y01906922D01*
Y01905078D01*
X02363477Y01903298D01*
X02364399Y01901702D01*
X02365702Y01900399D01*
X02366941Y01899683D01*
Y01895000D01*
X02363500D01*
Y01885000D01*
X02376500D01*
Y01895000D01*
X02373059D01*
Y01899683D01*
X02374298Y01900399D01*
X02375601Y01901702D01*
X02376523Y01903298D01*
X02377000Y01905078D01*
Y01906922D01*
X02376523Y01908702D01*
X02375601Y01910298D01*
X02374298Y01911601D01*
X02373059Y01912317D01*
Y01940984D01*
X02373667Y01941147D01*
X02375833Y01942398D01*
X02377602Y01944167D01*
X02378853Y01946333D01*
X02379500Y01948749D01*
Y01951251D01*
X02378853Y01953667D01*
X02377602Y01955833D01*
X02375833Y01957602D01*
X02373667Y01958853D01*
X02371251Y01959500D01*
D02*
G37*
G36*
X01871251D02*
X01868749D01*
X01866333Y01958853D01*
X01864167Y01957602D01*
X01862398Y01955833D01*
X01861147Y01953667D01*
X01860500Y01951251D01*
Y01948749D01*
X01861147Y01946333D01*
X01862398Y01944167D01*
X01864167Y01942398D01*
X01866333Y01941147D01*
X01866941Y01940984D01*
Y01912317D01*
X01865702Y01911601D01*
X01864399Y01910298D01*
X01863477Y01908702D01*
X01863000Y01906922D01*
Y01905078D01*
X01863477Y01903298D01*
X01864399Y01901702D01*
X01865702Y01900399D01*
X01866941Y01899683D01*
Y01895000D01*
X01863500D01*
Y01885000D01*
X01876500D01*
Y01895000D01*
X01873059D01*
Y01899683D01*
X01874298Y01900399D01*
X01875601Y01901702D01*
X01876523Y01903298D01*
X01877000Y01905078D01*
Y01906922D01*
X01876523Y01908702D01*
X01875601Y01910298D01*
X01874298Y01911601D01*
X01873059Y01912317D01*
Y01940984D01*
X01873667Y01941147D01*
X01875833Y01942398D01*
X01877602Y01944167D01*
X01878853Y01946333D01*
X01879500Y01948749D01*
Y01951251D01*
X01878853Y01953667D01*
X01877602Y01955833D01*
X01875833Y01957602D01*
X01873667Y01958853D01*
X01871251Y01959500D01*
D02*
G37*
G36*
X02706500Y01880000D02*
X02693500D01*
Y01870000D01*
X02696941D01*
Y01868000D01*
X02695000D01*
Y01863059D01*
X02681317D01*
X02680602Y01864298D01*
X02679298Y01865601D01*
X02677702Y01866523D01*
X02675922Y01867000D01*
X02674078D01*
X02672298Y01866523D01*
X02670702Y01865601D01*
X02669398Y01864298D01*
X02668477Y01862702D01*
X02668000Y01860922D01*
Y01859079D01*
X02668477Y01857298D01*
X02669398Y01855702D01*
X02670702Y01854399D01*
X02672298Y01853477D01*
X02674078Y01853000D01*
X02675922D01*
X02677702Y01853477D01*
X02679298Y01854399D01*
X02680602Y01855702D01*
X02681317Y01856941D01*
X02695000D01*
Y01852000D01*
X02705000D01*
Y01868000D01*
X02703059D01*
Y01870000D01*
X02706500D01*
Y01880000D01*
D02*
G37*
G36*
X02506500D02*
X02493500D01*
Y01870000D01*
X02496941D01*
Y01868000D01*
X02495000D01*
Y01863059D01*
X02481317D01*
X02480601Y01864298D01*
X02479298Y01865601D01*
X02477702Y01866523D01*
X02475922Y01867000D01*
X02474078D01*
X02472298Y01866523D01*
X02470702Y01865601D01*
X02469399Y01864298D01*
X02468477Y01862702D01*
X02468000Y01860922D01*
Y01859079D01*
X02468477Y01857298D01*
X02469399Y01855702D01*
X02470702Y01854399D01*
X02472298Y01853477D01*
X02474078Y01853000D01*
X02475922D01*
X02477702Y01853477D01*
X02479298Y01854399D01*
X02480601Y01855702D01*
X02481317Y01856941D01*
X02495000D01*
Y01852000D01*
X02505000D01*
Y01868000D01*
X02503059D01*
Y01870000D01*
X02506500D01*
Y01880000D01*
D02*
G37*
G36*
X02206500D02*
X02193500D01*
Y01870000D01*
X02196941D01*
Y01868000D01*
X02195000D01*
Y01863059D01*
X02181317D01*
X02180601Y01864298D01*
X02179298Y01865601D01*
X02177702Y01866523D01*
X02175922Y01867000D01*
X02174078D01*
X02172298Y01866523D01*
X02170702Y01865601D01*
X02169399Y01864298D01*
X02168477Y01862702D01*
X02168000Y01860922D01*
Y01859079D01*
X02168477Y01857298D01*
X02169399Y01855702D01*
X02170702Y01854399D01*
X02172298Y01853477D01*
X02174078Y01853000D01*
X02175922D01*
X02177702Y01853477D01*
X02179298Y01854399D01*
X02180601Y01855702D01*
X02181317Y01856941D01*
X02195000D01*
Y01852000D01*
X02205000D01*
Y01868000D01*
X02203059D01*
Y01870000D01*
X02206500D01*
Y01880000D01*
D02*
G37*
G36*
X02006500D02*
X01993500D01*
Y01870000D01*
X01996941D01*
Y01868000D01*
X01995000D01*
Y01863059D01*
X01981317D01*
X01980601Y01864298D01*
X01979298Y01865601D01*
X01977702Y01866523D01*
X01975921Y01867000D01*
X01974078D01*
X01972298Y01866523D01*
X01970702Y01865601D01*
X01969399Y01864298D01*
X01968477Y01862702D01*
X01968000Y01860922D01*
Y01859079D01*
X01968477Y01857298D01*
X01969399Y01855702D01*
X01970702Y01854399D01*
X01972298Y01853477D01*
X01974078Y01853000D01*
X01975921D01*
X01977702Y01853477D01*
X01979298Y01854399D01*
X01980601Y01855702D01*
X01981317Y01856941D01*
X01995000D01*
Y01852000D01*
X02005000D01*
Y01868000D01*
X02003059D01*
Y01870000D01*
X02006500D01*
Y01880000D01*
D02*
G37*
G36*
X01706500D02*
X01693500D01*
Y01870000D01*
X01696941D01*
Y01868000D01*
X01695000D01*
Y01863059D01*
X01681317D01*
X01680601Y01864298D01*
X01679298Y01865601D01*
X01677702Y01866523D01*
X01675922Y01867000D01*
X01674078D01*
X01672298Y01866523D01*
X01670702Y01865601D01*
X01669399Y01864298D01*
X01668477Y01862702D01*
X01668000Y01860922D01*
Y01859079D01*
X01668477Y01857298D01*
X01669399Y01855702D01*
X01670702Y01854399D01*
X01672298Y01853477D01*
X01674078Y01853000D01*
X01675922D01*
X01677702Y01853477D01*
X01679298Y01854399D01*
X01680601Y01855702D01*
X01681317Y01856941D01*
X01695000D01*
Y01852000D01*
X01705000D01*
Y01868000D01*
X01703059D01*
Y01870000D01*
X01706500D01*
Y01880000D01*
D02*
G37*
G36*
X01506500D02*
X01493500D01*
Y01870000D01*
X01496941D01*
Y01868000D01*
X01495000D01*
Y01863059D01*
X01481317D01*
X01480601Y01864298D01*
X01479298Y01865601D01*
X01477702Y01866523D01*
X01475922Y01867000D01*
X01474078D01*
X01472298Y01866523D01*
X01470702Y01865601D01*
X01469399Y01864298D01*
X01468477Y01862702D01*
X01468000Y01860922D01*
Y01859079D01*
X01468477Y01857298D01*
X01469399Y01855702D01*
X01470702Y01854399D01*
X01472298Y01853477D01*
X01474078Y01853000D01*
X01475922D01*
X01477702Y01853477D01*
X01479298Y01854399D01*
X01480601Y01855702D01*
X01481317Y01856941D01*
X01495000D01*
Y01852000D01*
X01505000D01*
Y01868000D01*
X01503059D01*
Y01870000D01*
X01506500D01*
Y01880000D01*
D02*
G37*
G36*
X02376500D02*
X02363500D01*
Y01870000D01*
X02366941D01*
Y01868000D01*
X02365000D01*
Y01852000D01*
X02375000D01*
Y01868000D01*
X02373059D01*
Y01870000D01*
X02376500D01*
Y01880000D01*
D02*
G37*
G36*
X01876500D02*
X01863500D01*
Y01870000D01*
X01866941D01*
Y01868000D01*
X01865000D01*
Y01852000D01*
X01875000D01*
Y01868000D01*
X01873059D01*
Y01870000D01*
X01876500D01*
Y01880000D01*
D02*
G37*
G36*
X02695500Y01842000D02*
X02685500D01*
Y01826000D01*
X02687441D01*
Y01822672D01*
X02687441Y01822672D01*
X02687674Y01821501D01*
X02688337Y01820509D01*
X02694009Y01814837D01*
X02695001Y01814174D01*
X02696172Y01813941D01*
X02696172Y01813941D01*
X02721000D01*
X02721000Y01813941D01*
X02722170Y01814174D01*
X02723163Y01814837D01*
X02727163Y01818837D01*
X02727163Y01818837D01*
X02727826Y01819829D01*
X02728059Y01821000D01*
Y01827500D01*
X02731500D01*
Y01829441D01*
X02733500D01*
Y01827500D01*
X02746500D01*
Y01837500D01*
X02733500D01*
Y01835559D01*
X02731500D01*
Y01837500D01*
X02718500D01*
Y01827500D01*
X02721941D01*
Y01822267D01*
X02719733Y01820059D01*
X02697439D01*
X02693559Y01823939D01*
Y01826000D01*
X02695500D01*
Y01842000D01*
D02*
G37*
G36*
X02495500D02*
X02485500D01*
Y01826000D01*
X02487441D01*
Y01822672D01*
X02487441Y01822672D01*
X02487674Y01821501D01*
X02488337Y01820509D01*
X02494009Y01814837D01*
X02495001Y01814174D01*
X02496172Y01813941D01*
X02496172Y01813941D01*
X02521000D01*
X02521000Y01813941D01*
X02522171Y01814174D01*
X02523163Y01814837D01*
X02527163Y01818837D01*
X02527163Y01818837D01*
X02527826Y01819829D01*
X02528059Y01821000D01*
Y01827500D01*
X02531500D01*
Y01829441D01*
X02533500D01*
Y01827500D01*
X02546500D01*
Y01837500D01*
X02533500D01*
Y01835559D01*
X02531500D01*
Y01837500D01*
X02518500D01*
Y01827500D01*
X02521941D01*
Y01822267D01*
X02519733Y01820059D01*
X02497439D01*
X02493559Y01823939D01*
Y01826000D01*
X02495500D01*
Y01842000D01*
D02*
G37*
G36*
X02365500D02*
X02355500D01*
Y01826000D01*
X02357441D01*
Y01822672D01*
X02357441Y01822672D01*
X02357674Y01821501D01*
X02358337Y01820509D01*
X02364009Y01814837D01*
X02365001Y01814174D01*
X02366172Y01813941D01*
X02366172Y01813941D01*
X02391000D01*
X02391000Y01813941D01*
X02392171Y01814174D01*
X02393163Y01814837D01*
X02397163Y01818837D01*
X02397163Y01818837D01*
X02397826Y01819829D01*
X02398059Y01821000D01*
Y01827500D01*
X02401500D01*
Y01829441D01*
X02403500D01*
Y01827500D01*
X02416500D01*
Y01837500D01*
X02403500D01*
Y01835559D01*
X02401500D01*
Y01837500D01*
X02388500D01*
Y01827500D01*
X02391941D01*
Y01822267D01*
X02389733Y01820059D01*
X02367439D01*
X02363559Y01823939D01*
Y01826000D01*
X02365500D01*
Y01842000D01*
D02*
G37*
G36*
X02195500D02*
X02185500D01*
Y01826000D01*
X02187441D01*
Y01822672D01*
X02187441Y01822672D01*
X02187674Y01821501D01*
X02188337Y01820509D01*
X02194009Y01814837D01*
X02195001Y01814174D01*
X02196172Y01813941D01*
X02196172Y01813941D01*
X02221000D01*
X02221000Y01813941D01*
X02222171Y01814174D01*
X02223163Y01814837D01*
X02227163Y01818837D01*
X02227163Y01818837D01*
X02227826Y01819829D01*
X02228059Y01821000D01*
Y01827500D01*
X02231500D01*
Y01829441D01*
X02233500D01*
Y01827500D01*
X02246500D01*
Y01837500D01*
X02233500D01*
Y01835559D01*
X02231500D01*
Y01837500D01*
X02218500D01*
Y01827500D01*
X02221941D01*
Y01822267D01*
X02219733Y01820059D01*
X02197439D01*
X02193559Y01823939D01*
Y01826000D01*
X02195500D01*
Y01842000D01*
D02*
G37*
G36*
X01995500D02*
X01985500D01*
Y01826000D01*
X01987441D01*
Y01822672D01*
X01987441Y01822672D01*
X01987674Y01821501D01*
X01988337Y01820509D01*
X01994009Y01814837D01*
X01995001Y01814174D01*
X01996172Y01813941D01*
X01996172Y01813941D01*
X02021000D01*
X02021000Y01813941D01*
X02022171Y01814174D01*
X02023163Y01814837D01*
X02027163Y01818837D01*
X02027163Y01818837D01*
X02027826Y01819829D01*
X02028059Y01821000D01*
Y01827500D01*
X02031500D01*
Y01829441D01*
X02033500D01*
Y01827500D01*
X02046500D01*
Y01837500D01*
X02033500D01*
Y01835559D01*
X02031500D01*
Y01837500D01*
X02018500D01*
Y01827500D01*
X02021941D01*
Y01822267D01*
X02019733Y01820059D01*
X01997439D01*
X01993559Y01823939D01*
Y01826000D01*
X01995500D01*
Y01842000D01*
D02*
G37*
G36*
X01865500D02*
X01855500D01*
Y01826000D01*
X01857441D01*
Y01822672D01*
X01857441Y01822672D01*
X01857674Y01821501D01*
X01858337Y01820509D01*
X01864009Y01814837D01*
X01865001Y01814174D01*
X01866172Y01813941D01*
X01866172Y01813941D01*
X01891000D01*
X01891000Y01813941D01*
X01892171Y01814174D01*
X01893163Y01814837D01*
X01897163Y01818837D01*
X01897163Y01818837D01*
X01897826Y01819829D01*
X01898059Y01821000D01*
Y01827500D01*
X01901500D01*
Y01829441D01*
X01903500D01*
Y01827500D01*
X01916500D01*
Y01837500D01*
X01903500D01*
Y01835559D01*
X01901500D01*
Y01837500D01*
X01888500D01*
Y01827500D01*
X01891941D01*
Y01822267D01*
X01889733Y01820059D01*
X01867439D01*
X01863559Y01823939D01*
Y01826000D01*
X01865500D01*
Y01842000D01*
D02*
G37*
G36*
X01695500D02*
X01685500D01*
Y01826000D01*
X01687441D01*
Y01822672D01*
X01687441Y01822672D01*
X01687674Y01821501D01*
X01688337Y01820509D01*
X01694009Y01814837D01*
X01695001Y01814174D01*
X01696172Y01813941D01*
X01696172Y01813941D01*
X01721000D01*
X01721000Y01813941D01*
X01722171Y01814174D01*
X01723163Y01814837D01*
X01727163Y01818837D01*
X01727163Y01818837D01*
X01727826Y01819829D01*
X01728059Y01821000D01*
Y01827500D01*
X01731500D01*
Y01829441D01*
X01733500D01*
Y01827500D01*
X01746500D01*
Y01837500D01*
X01733500D01*
Y01835559D01*
X01731500D01*
Y01837500D01*
X01718500D01*
Y01827500D01*
X01721941D01*
Y01822267D01*
X01719733Y01820059D01*
X01697439D01*
X01693559Y01823939D01*
Y01826000D01*
X01695500D01*
Y01842000D01*
D02*
G37*
G36*
X01495500D02*
X01485500D01*
Y01826000D01*
X01487441D01*
Y01822672D01*
X01487441Y01822672D01*
X01487674Y01821501D01*
X01488337Y01820509D01*
X01494009Y01814837D01*
X01495001Y01814174D01*
X01496172Y01813941D01*
X01496172Y01813941D01*
X01521000D01*
X01521000Y01813941D01*
X01522171Y01814174D01*
X01523163Y01814837D01*
X01527163Y01818837D01*
X01527163Y01818837D01*
X01527826Y01819829D01*
X01528059Y01821000D01*
Y01827500D01*
X01531500D01*
Y01829441D01*
X01533500D01*
Y01827500D01*
X01546500D01*
Y01837500D01*
X01533500D01*
Y01835559D01*
X01531500D01*
Y01837500D01*
X01518500D01*
Y01827500D01*
X01521941D01*
Y01822267D01*
X01519733Y01820059D01*
X01497439D01*
X01493559Y01823939D01*
Y01826000D01*
X01495500D01*
Y01842000D01*
D02*
G37*
G36*
X02850000Y01921598D02*
X02849507Y01921500D01*
X02843500D01*
Y01911500D01*
X02844902D01*
Y01879060D01*
X02843092Y01878774D01*
X02838676Y01877339D01*
X02834539Y01875231D01*
X02830782Y01872501D01*
X02827499Y01869218D01*
X02824769Y01865461D01*
X02822661Y01861324D01*
X02821227Y01856908D01*
X02820500Y01852322D01*
Y01847678D01*
X02821227Y01843092D01*
X02822661Y01838676D01*
X02824769Y01834539D01*
X02827499Y01830782D01*
X02830782Y01827499D01*
X02834539Y01824769D01*
X02838676Y01822661D01*
X02843092Y01821226D01*
X02847678Y01820500D01*
X02852322D01*
X02856908Y01821226D01*
X02861324Y01822661D01*
X02865461Y01824769D01*
X02869218Y01827499D01*
X02872501Y01830782D01*
X02875231Y01834539D01*
X02877339Y01838676D01*
X02878773Y01843092D01*
X02879500Y01847678D01*
Y01852322D01*
X02878773Y01856908D01*
X02877339Y01861324D01*
X02875231Y01865461D01*
X02872501Y01869218D01*
X02869218Y01872501D01*
X02865461Y01875231D01*
X02861324Y01877339D01*
X02856908Y01878774D01*
X02855098Y01879060D01*
Y01911500D01*
X02856500D01*
Y01921500D01*
X02850493D01*
X02850000Y01921598D01*
D02*
G37*
G36*
X01350000D02*
X01349507Y01921500D01*
X01343500D01*
Y01911500D01*
X01344902D01*
Y01879060D01*
X01343092Y01878774D01*
X01338676Y01877339D01*
X01334539Y01875231D01*
X01330782Y01872501D01*
X01327499Y01869218D01*
X01324769Y01865461D01*
X01322661Y01861324D01*
X01321226Y01856908D01*
X01320500Y01852322D01*
Y01847678D01*
X01321226Y01843092D01*
X01322661Y01838676D01*
X01324769Y01834539D01*
X01327499Y01830782D01*
X01330782Y01827499D01*
X01334539Y01824769D01*
X01338676Y01822661D01*
X01343092Y01821226D01*
X01347678Y01820500D01*
X01352322D01*
X01356908Y01821226D01*
X01361324Y01822661D01*
X01365461Y01824769D01*
X01369218Y01827499D01*
X01372501Y01830782D01*
X01375231Y01834539D01*
X01377339Y01838676D01*
X01378774Y01843092D01*
X01379500Y01847678D01*
Y01852322D01*
X01378774Y01856908D01*
X01377339Y01861324D01*
X01375231Y01865461D01*
X01372501Y01869218D01*
X01369218Y01872501D01*
X01365461Y01875231D01*
X01361324Y01877339D01*
X01356908Y01878774D01*
X01355098Y01879060D01*
Y01911500D01*
X01356500D01*
Y01921500D01*
X01350493D01*
X01350000Y01921598D01*
D02*
G37*
%LPD*%
G36*
X02470996Y02057612D02*
X02470774Y02057553D01*
X02468607Y02056302D01*
X02466839Y02054533D01*
X02465588Y02052367D01*
X02464940Y02049951D01*
Y02047449D01*
X02465496Y02045376D01*
X02464357Y02044718D01*
X02461663Y02047413D01*
X02460670Y02048076D01*
X02459500Y02048309D01*
X02459500Y02048309D01*
X02428750D01*
X02428623Y02048284D01*
X02428339Y02048487D01*
X02428364Y02050031D01*
X02429326Y02050674D01*
X02437534Y02058882D01*
X02470829D01*
X02470996Y02057612D01*
D02*
G37*
D10*
X02155000Y02120000D02*
X02157500Y02122500D01*
X02168000D01*
X02155000Y02087000D02*
Y02120000D01*
X02168000Y02122500D02*
X02181000D01*
X02655500Y02120500D02*
X02657500Y02122500D01*
X02655500Y02088000D02*
Y02120500D01*
X02657500Y02122500D02*
X02668000D01*
X02243250Y02089750D02*
Y02125500D01*
X02146250Y02146750D02*
X02222000D01*
X02243250Y02125500D01*
X02136500Y02156500D02*
X02146250Y02146750D01*
X02136500Y02156500D02*
Y02170000D01*
X02126500Y02109500D02*
X02130000Y02113000D01*
X02142000D01*
X02126500Y02103000D02*
Y02109500D01*
X02243250Y02089750D02*
X02282000Y02051000D01*
X02186280Y02068720D02*
X02200000Y02055000D01*
X02124280Y02068720D02*
X02186280D01*
X02111500Y02103000D02*
X02112000Y02102500D01*
X02111000Y02103500D02*
X02111500Y02103000D01*
X02111000Y02103500D02*
Y02119000D01*
X02112000Y02081000D02*
X02124280Y02068720D01*
X02410058Y02092059D02*
X02422000Y02104000D01*
X02410058Y02067082D02*
Y02092059D01*
X02501000Y02031000D02*
X02513166Y02018834D01*
X02428500Y02045000D02*
X02428750Y02045250D01*
X02410000Y02045000D02*
X02428500D01*
X02428750Y02045250D02*
X02459500D01*
X02473750Y02031000D01*
X02501000D01*
X02515000Y02036000D02*
Y02078750D01*
Y02036000D02*
X02525237Y02025763D01*
X02507750Y02086000D02*
X02515000Y02078750D01*
X02461000Y02086000D02*
X02507750D01*
X02490000Y02104000D02*
X02499250Y02094750D01*
X02517250D02*
X02538000Y02074000D01*
X02499250Y02094750D02*
X02517250D01*
X02533500Y02034500D02*
X02545000Y02046000D01*
X02533500Y02015500D02*
X02542370Y02006630D01*
X02533500Y02015500D02*
Y02034500D01*
X02529500Y02002424D02*
X02551426Y01980498D01*
X02529500Y02002424D02*
Y02037124D01*
X02538000Y02045625D01*
X02525237Y01996763D02*
Y02025763D01*
Y01996763D02*
X02536473Y01985527D01*
X01686834Y02034834D02*
X01689000Y02037000D01*
Y02068000D01*
X01699000Y02078000D01*
X01661000Y02047000D02*
X01671000Y02037000D01*
X01661000Y02066000D02*
X01699000Y02104000D01*
X01661000Y02047000D02*
Y02066000D01*
X01654250Y02047750D02*
X01666000Y02036000D01*
X01654250Y02047750D02*
Y02082250D01*
X01676000Y02104000D01*
X02509000Y02167000D02*
Y02188000D01*
X02511000Y02165000D02*
X02518500D01*
X02509000Y02167000D02*
X02511000Y02165000D01*
X02505000Y02192000D02*
X02509000Y02188000D01*
X02405000Y02192000D02*
X02505000D01*
X02177900Y02186000D02*
X02399000D01*
X02405000Y02192000D01*
X02161900Y02170000D02*
X02177900Y02186000D01*
X02187300Y02170000D02*
X02205300Y02152000D01*
X02274000D01*
X02281000Y02159000D02*
X02340000D01*
X02274000Y02152000D02*
X02281000Y02159000D01*
X02347000Y02152000D02*
X02380000D01*
X02340000Y02159000D02*
X02347000Y02152000D01*
X01968000Y02122500D02*
Y02134000D01*
X01968000Y02134000D01*
X02093000Y02136000D02*
X02105000D01*
X02088000Y02131000D02*
X02093000Y02136000D01*
X02088000Y02118500D02*
Y02131000D01*
X02288000Y02118500D02*
Y02142000D01*
X02293000Y02147000D02*
X02304000D01*
X02288000Y02142000D02*
X02293000Y02147000D01*
X02309000Y02112500D02*
Y02130000D01*
X02308500Y02112000D02*
X02309000Y02112500D01*
X02112000Y02081000D02*
Y02102500D01*
X01763000Y02165000D02*
X01772500D01*
X01729000D02*
X01738500D01*
X01596000D02*
X01636500D01*
X02376000D02*
X02416500D01*
X02543000D02*
X02552500D01*
X02475000D02*
X02484500D01*
X02441000D02*
X02450500D01*
X01695000D02*
X01704500D01*
X01661000D02*
X01670500D01*
X02282000Y01945000D02*
Y02051000D01*
Y01945000D02*
X02296000Y01931000D01*
X02668000Y02122500D02*
X02681000D01*
X01827500Y02143000D02*
Y02158000D01*
X01830500Y02161000D02*
X01836000D01*
X01827500Y02158000D02*
X01830500Y02161000D01*
X01607000Y02122000D02*
Y02146000D01*
X01588000Y02118500D02*
X01603500D01*
X01607000Y02122000D01*
X02410000Y01847500D02*
Y01960000D01*
X02358000Y01969000D02*
X02401000D01*
X02410000Y01960000D01*
X02351000Y01962000D02*
X02358000Y01969000D01*
X02343000Y01931000D02*
X02351000Y01939000D01*
Y01962000D01*
X02296000Y01931000D02*
X02343000D01*
X02636500Y02181500D02*
X02643000Y02188000D01*
X02636500Y02170000D02*
Y02181500D01*
X02643000Y02188000D02*
X02779000D01*
X02788000Y02179000D01*
Y02118500D02*
Y02179000D01*
X01848672Y02041500D02*
X01861000D01*
X01845000Y02037828D02*
X01848672Y02041500D01*
X01845000Y02027172D02*
Y02037828D01*
X01827000Y02026000D02*
X01843828D01*
X01845000Y02027172D01*
X01823500Y02022500D02*
X01827000Y02026000D01*
X01823500Y02012000D02*
Y02022500D01*
X01833000Y02038000D02*
Y02054500D01*
X01833500Y02055000D01*
X01861000Y02041500D02*
Y02056500D01*
X01833000Y02085000D02*
X01860500D01*
X01861000Y02085500D01*
X01842500Y02111000D02*
Y02128000D01*
Y02143000D01*
X01787500Y02165000D02*
Y02180000D01*
Y02148000D02*
Y02165000D01*
X01753500Y02148000D02*
Y02165000D01*
Y02180000D01*
X01719500Y02148000D02*
Y02167000D01*
X01719500Y02167000D02*
Y02180000D01*
Y02167000D02*
X01719500Y02167000D01*
X01685500Y02148000D02*
Y02165000D01*
Y02180000D01*
X01651500Y02148000D02*
Y02165000D01*
Y02180000D01*
X02567500Y02148000D02*
Y02165000D01*
Y02180000D01*
X02533500Y02148000D02*
Y02165000D01*
Y02180000D01*
X02499500Y02148000D02*
Y02165000D01*
Y02180000D01*
X02465500Y02148000D02*
Y02165000D01*
Y02180000D01*
X02431500Y02148000D02*
Y02165000D01*
Y02180000D01*
X01404000Y02148000D02*
X01439900D01*
X01461900Y02170000D01*
X01391000Y02135000D02*
X01404000Y02148000D01*
X01391000Y01846837D02*
Y02135000D01*
Y01846837D02*
X01428837Y01809000D01*
X01564500D01*
X01575750Y01820250D01*
X02323500Y02097000D02*
Y02112000D01*
Y02080000D02*
Y02097000D01*
X02314000Y02034500D02*
Y02054000D01*
X02313500Y02034000D02*
X02314000Y02034500D01*
X02367000Y02038000D02*
Y02054500D01*
X02366500Y02055000D02*
X02367000Y02054500D01*
X02342500Y02012000D02*
Y02034000D01*
Y02012000D02*
X02357500D01*
X01901000Y02170000D02*
X01936500D01*
X01892000Y02161000D02*
X01901000Y02170000D01*
X01892000Y02039000D02*
Y02161000D01*
X01910000Y01847500D02*
Y02021000D01*
X01892000Y02039000D02*
X01910000Y02021000D01*
X01912000Y02081000D02*
X01924280Y02068720D01*
X01911000Y02103500D02*
X01911500Y02103000D01*
X01912000Y02081000D02*
Y02102500D01*
X01911500Y02103000D02*
X01912000Y02102500D01*
X01924280Y02068720D02*
X01986280D01*
X01911000Y02103500D02*
Y02119000D01*
X01911500Y02103000D02*
X01912000Y02102500D01*
X01911000Y02103500D02*
X01911500Y02103000D01*
X02287000Y01809000D02*
X02564500D01*
X02087000D02*
X02264500D01*
X01787000D02*
X02064500D01*
X01587000D02*
X01764500D01*
X01540000Y01847500D02*
X01568500D01*
X01575750Y01840250D01*
Y01820250D02*
X01587000Y01809000D01*
X01575750Y01820250D02*
Y01840250D01*
X01740000Y01847500D02*
X01768500D01*
X01775750Y01840250D01*
Y01820250D02*
X01787000Y01809000D01*
X01775750Y01820250D02*
Y01840250D01*
X01764500Y01809000D02*
X01775750Y01820250D01*
X02040000Y01847500D02*
X02068500D01*
X02075750Y01840250D01*
Y01820250D02*
X02087000Y01809000D01*
X02075750Y01820250D02*
Y01840250D01*
X02064500Y01809000D02*
X02075750Y01820250D01*
X02240000Y01847500D02*
X02268500D01*
X02275750Y01840250D01*
Y01820250D02*
X02287000Y01809000D01*
X02275750Y01820250D02*
Y01840250D01*
X02264500Y01809000D02*
X02275750Y01820250D01*
X02564500Y01809000D02*
X02575750Y01820250D01*
Y01840250D01*
X02587000Y01809000D02*
X02747000D01*
X02575750Y01820250D02*
X02587000Y01809000D01*
X02568500Y01847500D02*
X02575750Y01840250D01*
X02540000Y01847500D02*
X02568500D01*
X02755000Y01817000D02*
Y01846000D01*
X02747000Y01809000D02*
X02755000Y01817000D01*
X02740000Y01847500D02*
X02753500D01*
X02755000Y01846000D01*
X02370000Y01950000D02*
X02370000Y01950000D01*
X02370000Y01906000D02*
Y01950000D01*
X02370000Y01890000D02*
X02370000Y01890000D01*
Y01906000D01*
X01870000D02*
Y01950000D01*
X01870000Y01890000D02*
X01870000Y01890000D01*
Y01906000D01*
X01500000Y01890000D02*
Y01990500D01*
Y01860000D02*
Y01875000D01*
X01475000Y01860000D02*
X01500000D01*
X01525000Y01832500D02*
X01540000D01*
X01521000Y01817000D02*
X01525000Y01821000D01*
Y01832500D01*
X01496172Y01817000D02*
X01521000D01*
X01490500Y01822672D02*
Y01834000D01*
Y01822672D02*
X01496172Y01817000D01*
X01700000Y01890000D02*
Y01990500D01*
Y01860000D02*
Y01875000D01*
X01675000Y01860000D02*
X01700000D01*
X01725000Y01832500D02*
X01740000D01*
X01721000Y01817000D02*
X01725000Y01821000D01*
Y01832500D01*
X01696172Y01817000D02*
X01721000D01*
X01690500Y01822672D02*
Y01834000D01*
Y01822672D02*
X01696172Y01817000D01*
X01870000Y01860000D02*
Y01875000D01*
X01895000Y01832500D02*
X01910000D01*
X01891000Y01817000D02*
X01895000Y01821000D01*
Y01832500D01*
X01866172Y01817000D02*
X01891000D01*
X01860500Y01822672D02*
Y01834000D01*
Y01822672D02*
X01866172Y01817000D01*
X02000000Y01890000D02*
Y01990500D01*
Y01860000D02*
Y01875000D01*
X01975000Y01860000D02*
X02000000D01*
X02025000Y01832500D02*
X02040000D01*
X02021000Y01817000D02*
X02025000Y01821000D01*
Y01832500D01*
X01996172Y01817000D02*
X02021000D01*
X01990500Y01822672D02*
Y01834000D01*
Y01822672D02*
X01996172Y01817000D01*
X02200000Y01890000D02*
Y01990500D01*
Y01860000D02*
Y01875000D01*
X02175000Y01860000D02*
X02200000D01*
X02225000Y01832500D02*
X02240000D01*
X02221000Y01817000D02*
X02225000Y01821000D01*
Y01832500D01*
X02196172Y01817000D02*
X02221000D01*
X02190500Y01822672D02*
Y01834000D01*
Y01822672D02*
X02196172Y01817000D01*
X02370000Y01860000D02*
Y01875000D01*
X02395000Y01832500D02*
X02410000D01*
X02391000Y01817000D02*
X02395000Y01821000D01*
Y01832500D01*
X02366172Y01817000D02*
X02391000D01*
X02360500Y01822672D02*
Y01834000D01*
Y01822672D02*
X02366172Y01817000D01*
X02500000Y01890000D02*
Y01990500D01*
Y01860000D02*
Y01875000D01*
X02475000Y01860000D02*
X02500000D01*
X02525000Y01832500D02*
X02540000D01*
X02521000Y01817000D02*
X02525000Y01821000D01*
Y01832500D01*
X02496172Y01817000D02*
X02521000D01*
X02490500Y01822672D02*
Y01834000D01*
Y01822672D02*
X02496172Y01817000D01*
X02690500Y01822672D02*
X02696172Y01817000D01*
X02690500Y01822672D02*
Y01834000D01*
X02696172Y01817000D02*
X02721000D01*
X02725000Y01821000D02*
Y01832500D01*
X02721000Y01817000D02*
X02725000Y01821000D01*
Y01832500D02*
X02740000D01*
X02675000Y01860000D02*
X02700000D01*
Y01875000D01*
Y01890000D02*
Y01990500D01*
X02700000Y01990500D01*
X02611000Y02103500D02*
Y02119000D01*
Y02103500D02*
X02611500Y02103000D01*
X02612000Y02102500D01*
X02626500Y02103000D02*
Y02109500D01*
X02630000Y02113000D01*
X02642000D01*
X02694000Y02107000D02*
X02698000Y02111000D01*
X02684500Y02107000D02*
X02694000D01*
X02698000Y02111000D02*
Y02126000D01*
X02701000Y02129000D01*
X02713500D01*
Y02107000D02*
Y02109500D01*
X02717000Y02113000D01*
X02730000D01*
X02773000Y02103500D02*
X02773000Y02103500D01*
X02756000Y02103500D02*
X02773000D01*
X02773000Y02103500D02*
X02788000D01*
X02681000Y02103500D02*
X02684500Y02107000D01*
X02668000Y02103500D02*
X02681000D01*
X02681000Y02122500D02*
X02684500Y02126000D01*
X02194000Y02107000D02*
X02198000Y02111000D01*
X02184500Y02107000D02*
X02194000D01*
X02198000Y02111000D02*
Y02126000D01*
X02201000Y02129000D01*
X02213500D01*
Y02107000D02*
Y02109500D01*
X02217000Y02113000D01*
X02230000D01*
X02273000Y02103500D02*
X02273000Y02103500D01*
X02256000Y02103500D02*
X02273000D01*
X02273000Y02103500D02*
X02288000D01*
X02181000Y02103500D02*
X02184500Y02107000D01*
X02168000Y02103500D02*
X02181000D01*
X02181000Y02122500D02*
X02184500Y02126000D01*
X01926500Y02103000D02*
Y02109500D01*
X01930000Y02113000D01*
X01942000D01*
X01994000Y02107000D02*
X01998000Y02111000D01*
X01984500Y02107000D02*
X01994000D01*
X01998000Y02111000D02*
Y02126000D01*
X02001000Y02129000D01*
X02013500D01*
Y02107000D02*
Y02109500D01*
X02017000Y02113000D01*
X02030000D01*
X02073000Y02103500D02*
X02073000Y02103500D01*
X02056000Y02103500D02*
X02073000D01*
X02073000Y02103500D02*
X02088000D01*
X01981000Y02103500D02*
X01984500Y02107000D01*
X01968000Y02103500D02*
X01981000D01*
X01984500Y02126000D02*
Y02129000D01*
X01981000Y02122500D02*
X01984500Y02126000D01*
X01968000Y02122500D02*
X01981000D01*
X02513166Y01946599D02*
Y02018834D01*
X02422000Y02122000D02*
X02422000Y02122000D01*
X02422000Y02104000D02*
Y02122000D01*
X02536473Y01958833D02*
Y01985527D01*
X02456000Y02091000D02*
X02461000Y02086000D01*
X02456000Y02091000D02*
Y02104000D01*
Y02122000D01*
X02538000Y02045625D02*
Y02074000D01*
X02545000Y02046000D02*
Y02083000D01*
X02524000Y02104000D02*
X02545000Y02083000D01*
X02545264Y02031244D02*
X02558000Y02043979D01*
Y02122000D01*
X02542370Y02006630D02*
X02554599D01*
X02490000Y02104000D02*
Y02122000D01*
X02524000Y02122000D02*
X02524000Y02122000D01*
X02524000Y02104000D02*
Y02122000D01*
X01680000Y01975306D02*
Y02035000D01*
X01685000Y02040000D02*
Y02075000D01*
X01680000Y02035000D02*
X01685000Y02040000D01*
X01686834Y01946599D02*
Y02034834D01*
X01699000Y02078000D02*
X01752000D01*
X01778000Y02104000D01*
X01700000Y02055000D02*
X01710000Y02065000D01*
X01760000D01*
X01695000Y02085000D02*
X01725000D01*
X01685000Y02075000D02*
X01695000Y02085000D01*
X01699000Y02104000D02*
X01710000D01*
X01760000Y02065000D02*
X01770000Y02055000D01*
X01778000Y02104000D02*
Y02122000D01*
X01744000Y02104000D02*
Y02122000D01*
X01725000Y02085000D02*
X01744000Y02104000D01*
X01663527Y01958833D02*
X01680000Y01975306D01*
X01648574Y01980498D02*
X01671000Y02002924D01*
Y02037000D01*
X01659630Y02006630D02*
X01666000Y02013000D01*
Y02036000D01*
X01710000Y02122000D02*
X01710000Y02122000D01*
X01710000Y02104000D02*
Y02122000D01*
X01645401Y02006630D02*
X01659630D01*
X01676000Y02104000D02*
Y02122000D01*
X01642000Y02043979D02*
Y02104000D01*
Y02043979D02*
X01654736Y02031244D01*
X01642000Y02104000D02*
Y02122000D01*
X01842500Y01997500D02*
Y02012000D01*
X02313500Y01966500D02*
Y02012000D01*
Y01966500D02*
X02330000Y01950000D01*
X02684500Y02126000D02*
Y02129000D01*
X02184500Y02126000D02*
Y02129000D01*
X01843000Y02012500D02*
X01861000D01*
X01842500Y02012000D02*
X01843000Y02012500D01*
X02376500Y02012000D02*
X02388000D01*
X01468000Y02134000D02*
X01468000Y02134000D01*
X01468000Y02122500D02*
Y02134000D01*
Y02122500D02*
X01481000D01*
X01484500Y02126000D01*
Y02129000D01*
X01468000Y02103500D02*
X01481000D01*
X01484500Y02107000D01*
X01573000Y02103500D02*
X01588000D01*
X01556000Y02103500D02*
X01573000D01*
X01573000Y02103500D01*
X01517000Y02113000D02*
X01530000D01*
X01513500Y02109500D02*
X01517000Y02113000D01*
X01513500Y02107000D02*
Y02109500D01*
X01501000Y02129000D02*
X01513500D01*
X01498000Y02126000D02*
X01501000Y02129000D01*
X01498000Y02111000D02*
Y02126000D01*
X01484500Y02107000D02*
X01494000D01*
X01498000Y02111000D01*
X01430000Y02113000D02*
X01442000D01*
X01426500Y02109500D02*
X01430000Y02113000D01*
X01426500Y02103000D02*
Y02109500D01*
X01804000Y02055000D02*
X01818500D01*
X01770000D02*
X01804000D01*
X01424280Y02068720D02*
X01486280D01*
X01500000Y02055000D01*
X01412000Y02081000D02*
X01424280Y02068720D01*
X01412000Y02081000D02*
Y02102500D01*
X01411500Y02103000D02*
X01412000Y02102500D01*
X01411000Y02103500D02*
X01411500Y02103000D01*
X01411000Y02103500D02*
Y02119000D01*
X01986280Y02068720D02*
X02000000Y02055000D01*
X01911000Y02103500D02*
Y02119000D01*
X02111500Y02103000D02*
X02112000Y02102500D01*
X02111000Y02103500D02*
X02111500Y02103000D01*
X02111000Y02103500D02*
Y02119000D01*
X02381500Y02055000D02*
X02396000D01*
X02425000D01*
X02435000Y02065000D02*
X02490000D01*
X02425000Y02055000D02*
X02435000Y02065000D01*
X02490000D02*
X02500000Y02055000D01*
X02611000Y02103500D02*
Y02119000D01*
Y02103500D02*
X02611500Y02103000D01*
X02612000Y02102500D01*
Y02081000D02*
Y02102500D01*
Y02081000D02*
X02624280Y02068720D01*
X02686280D02*
X02700000Y02055000D01*
X02624280Y02068720D02*
X02686280D01*
D12*
X01766500Y01935750D02*
X01807250Y01895000D01*
Y01821250D02*
Y01895000D01*
X01743293Y01935750D02*
X01766500D01*
X01723250Y01955793D02*
Y01999250D01*
Y01955793D02*
X01743293Y01935750D01*
X01700000Y02009500D02*
X01713000D01*
X01723250Y01999250D01*
X01963284Y01994000D02*
X01978784Y02009500D01*
X02000000D01*
X01931088Y01986088D02*
X01939000Y01994000D01*
X01963284D01*
X01931088Y01832409D02*
Y01986088D01*
X01463284Y01994000D02*
X01478784Y02009500D01*
X01500000D01*
X01431088Y01986088D02*
X01439000Y01994000D01*
X01463284D01*
X01431088Y01832409D02*
Y01986088D01*
X02163284Y01994000D02*
X02178784Y02009500D01*
X02200000D01*
X02131088Y01986088D02*
X02139000Y01994000D01*
X02163284D01*
X02131088Y01832409D02*
Y01986088D01*
X02663284Y01994000D02*
X02678784Y02009500D01*
X02700000D01*
X02631088Y01986088D02*
X02639000Y01994000D01*
X02663284D01*
X02631088Y01832409D02*
Y01986088D01*
X02431088Y01832409D02*
Y01986088D01*
X02439000Y01994000D02*
X02463284D01*
X02431088Y01986088D02*
X02439000Y01994000D01*
X02478784Y02009500D02*
X02500000D01*
X02463284Y01994000D02*
X02478784Y02009500D01*
D16*
X02900000Y02150000D02*
G03*
X02850000Y02200000I-00050000J00000000D01*
G01*
X01350000D02*
G03*
X01300000Y02150000I00000000J-00050000D01*
G01*
X02850000Y01800000D02*
G03*
X02900000Y01850000I00000000J00050000D01*
G01*
X01300000D02*
G03*
X01350000Y01800000I00050000J00000000D01*
G01*
Y02200000D02*
X02850000Y02200000D01*
X02900000Y02150000D02*
X02900000Y01850000D01*
X01350000Y01800000D02*
X02850000Y01800000D01*
X01300000Y01850000D02*
X01300000Y02150000D01*
D17*
X02700000Y01990500D02*
D03*
Y02009500D02*
D03*
X02500000Y01990500D02*
D03*
Y02009500D02*
D03*
X02200000Y01990500D02*
D03*
Y02009500D02*
D03*
X02000000Y01990500D02*
D03*
Y02009500D02*
D03*
X01700000Y01990500D02*
D03*
Y02009500D02*
D03*
X01500000Y01990500D02*
D03*
Y02009500D02*
D03*
D18*
X02788000Y02103500D02*
D03*
Y02118500D02*
D03*
X02773000Y02103500D02*
D03*
Y02118500D02*
D03*
X02288000Y02103500D02*
D03*
Y02118500D02*
D03*
X02273000Y02103500D02*
D03*
Y02118500D02*
D03*
X02088000Y02103500D02*
D03*
Y02118500D02*
D03*
X02073000Y02103500D02*
D03*
Y02118500D02*
D03*
X01588000Y02118500D02*
D03*
Y02103500D02*
D03*
X01573000Y02118500D02*
D03*
Y02103500D02*
D03*
X01350000Y02083500D02*
D03*
Y02068500D02*
D03*
X02850000Y02083500D02*
D03*
Y02068500D02*
D03*
X02700000Y01890000D02*
D03*
Y01875000D02*
D03*
X02500000Y01890000D02*
D03*
Y01875000D02*
D03*
X02370000Y01890000D02*
D03*
Y01875000D02*
D03*
X02200000Y01890000D02*
D03*
Y01875000D02*
D03*
X02000000Y01890000D02*
D03*
Y01875000D02*
D03*
X01870000Y01890000D02*
D03*
Y01875000D02*
D03*
X01700000Y01890000D02*
D03*
Y01875000D02*
D03*
X01500000Y01890000D02*
D03*
Y01875000D02*
D03*
X02740000Y01847500D02*
D03*
Y01832500D02*
D03*
X02725000Y01847500D02*
D03*
Y01832500D02*
D03*
X02525000Y01847500D02*
D03*
Y01832500D02*
D03*
X02540000Y01847500D02*
D03*
Y01832500D02*
D03*
X02395000Y01847500D02*
D03*
Y01832500D02*
D03*
X02410000Y01847500D02*
D03*
Y01832500D02*
D03*
X02240000Y01847500D02*
D03*
Y01832500D02*
D03*
X02225000Y01847500D02*
D03*
Y01832500D02*
D03*
X02040000Y01847500D02*
D03*
Y01832500D02*
D03*
X02025000Y01847500D02*
D03*
Y01832500D02*
D03*
X01910000Y01847500D02*
D03*
Y01832500D02*
D03*
X01895000Y01847500D02*
D03*
Y01832500D02*
D03*
X01740000Y01847500D02*
D03*
Y01832500D02*
D03*
X01725000Y01847500D02*
D03*
Y01832500D02*
D03*
X01540000Y01847500D02*
D03*
Y01832500D02*
D03*
X01525000Y01847500D02*
D03*
Y01832500D02*
D03*
X01350000Y01931500D02*
D03*
Y01916500D02*
D03*
X02850000Y01931500D02*
D03*
Y01916500D02*
D03*
D19*
X02756000Y02122500D02*
D03*
Y02103500D02*
D03*
X02730000Y02113000D02*
D03*
X02668000Y02122500D02*
D03*
Y02103500D02*
D03*
X02642000Y02113000D02*
D03*
X02256000Y02122500D02*
D03*
Y02103500D02*
D03*
X02230000Y02113000D02*
D03*
X02168000Y02122500D02*
D03*
Y02103500D02*
D03*
X02142000Y02113000D02*
D03*
X02056000Y02122500D02*
D03*
Y02103500D02*
D03*
X02030000Y02113000D02*
D03*
X01968000Y02122500D02*
D03*
Y02103500D02*
D03*
X01942000Y02113000D02*
D03*
X01442000D02*
D03*
X01468000Y02103500D02*
D03*
Y02122500D02*
D03*
X01556000D02*
D03*
Y02103500D02*
D03*
X01530000Y02113000D02*
D03*
D20*
X02684500Y02107000D02*
D03*
X02713500D02*
D03*
X02684500Y02129000D02*
D03*
X02713500D02*
D03*
X02313500Y02012000D02*
D03*
X02342500D02*
D03*
Y02034000D02*
D03*
X02313500D02*
D03*
X02184500Y02107000D02*
D03*
X02213500D02*
D03*
X02184500Y02129000D02*
D03*
X02213500D02*
D03*
X01984500Y02107000D02*
D03*
X02013500D02*
D03*
X01984500Y02129000D02*
D03*
X02013500D02*
D03*
X01513500D02*
D03*
X01484500D02*
D03*
X01513500Y02107000D02*
D03*
X01484500D02*
D03*
D21*
X02626500Y02103000D02*
D03*
X02611500D02*
D03*
X02567500Y02180000D02*
D03*
X02552500D02*
D03*
X02567500Y02165000D02*
D03*
X02552500D02*
D03*
X02431500Y02180000D02*
D03*
X02416500D02*
D03*
X02431500Y02165000D02*
D03*
X02416500D02*
D03*
X02366500Y02055000D02*
D03*
X02381500D02*
D03*
X02323500Y02097000D02*
D03*
X02308500D02*
D03*
X02323500Y02112000D02*
D03*
X02308500D02*
D03*
X02126500Y02103000D02*
D03*
X02111500D02*
D03*
X01926500D02*
D03*
X01911500D02*
D03*
X01833500Y02055000D02*
D03*
X01818500D02*
D03*
X01651500Y02180000D02*
D03*
X01636500D02*
D03*
X01651500Y02165000D02*
D03*
X01636500D02*
D03*
X01842500Y02128000D02*
D03*
X01827500D02*
D03*
X01842500Y02143000D02*
D03*
X01827500D02*
D03*
X01787500Y02165000D02*
D03*
X01772500D02*
D03*
X01787500Y02180000D02*
D03*
X01772500D02*
D03*
X01411500Y02103000D02*
D03*
X01426500D02*
D03*
X02518500Y02165000D02*
D03*
X02533500D02*
D03*
X02484500D02*
D03*
X02499500D02*
D03*
X02450500D02*
D03*
X02465500D02*
D03*
X01738500D02*
D03*
X01753500D02*
D03*
X01704500D02*
D03*
X01719500D02*
D03*
X01670500D02*
D03*
X01685500D02*
D03*
X02518500Y02180000D02*
D03*
X02533500D02*
D03*
X02484500D02*
D03*
X02499500D02*
D03*
X02450500D02*
D03*
X02465500D02*
D03*
X01738500D02*
D03*
X01753500D02*
D03*
X01704500D02*
D03*
X01719500D02*
D03*
X01670500D02*
D03*
X01685500D02*
D03*
D22*
X02548500Y02148000D02*
D03*
X02567500D02*
D03*
X02558000Y02122000D02*
D03*
X02514500Y02148000D02*
D03*
X02533500D02*
D03*
X02524000Y02122000D02*
D03*
X02480500Y02148000D02*
D03*
X02499500D02*
D03*
X02490000Y02122000D02*
D03*
X02446500Y02148000D02*
D03*
X02465500D02*
D03*
X02456000Y02122000D02*
D03*
X02412500Y02148000D02*
D03*
X02431500D02*
D03*
X02422000Y02122000D02*
D03*
X02376500Y02012000D02*
D03*
X02357500D02*
D03*
X02367000Y02038000D02*
D03*
X02304500Y02080000D02*
D03*
X02323500D02*
D03*
X02314000Y02054000D02*
D03*
X01842500Y02012000D02*
D03*
X01823500D02*
D03*
X01833000Y02038000D02*
D03*
X01823500Y02111000D02*
D03*
X01842500D02*
D03*
X01833000Y02085000D02*
D03*
X01768500Y02148000D02*
D03*
X01787500D02*
D03*
X01778000Y02122000D02*
D03*
X01734500Y02148000D02*
D03*
X01753500D02*
D03*
X01744000Y02122000D02*
D03*
X01700500Y02148000D02*
D03*
X01719500D02*
D03*
X01710000Y02122000D02*
D03*
X01666500Y02148000D02*
D03*
X01685500D02*
D03*
X01676000Y02122000D02*
D03*
X01632500Y02148000D02*
D03*
X01651500D02*
D03*
X01642000Y02122000D02*
D03*
X02709500Y01834000D02*
D03*
X02690500D02*
D03*
X02700000Y01860000D02*
D03*
X02509500Y01834000D02*
D03*
X02490500D02*
D03*
X02500000Y01860000D02*
D03*
X02379500Y01834000D02*
D03*
X02360500D02*
D03*
X02370000Y01860000D02*
D03*
X02209500Y01834000D02*
D03*
X02190500D02*
D03*
X02200000Y01860000D02*
D03*
X02009500Y01834000D02*
D03*
X01990500D02*
D03*
X02000000Y01860000D02*
D03*
X01879500Y01834000D02*
D03*
X01860500D02*
D03*
X01870000Y01860000D02*
D03*
X01709500Y01834000D02*
D03*
X01690500D02*
D03*
X01700000Y01860000D02*
D03*
X01509500Y01834000D02*
D03*
X01490500D02*
D03*
X01500000Y01860000D02*
D03*
D23*
X02422000Y02104000D02*
D03*
X01911000Y02119000D02*
D03*
X02111000D02*
D03*
X01642000Y02104000D02*
D03*
X02475000Y01860000D02*
D03*
X01975000D02*
D03*
X01675000D02*
D03*
X01475000D02*
D03*
X01411000Y02119000D02*
D03*
X02370000Y01906000D02*
D03*
X01870000D02*
D03*
X02675000Y01860000D02*
D03*
X02175000D02*
D03*
X02611000Y02119000D02*
D03*
X02396000Y02055000D02*
D03*
X01804000D02*
D03*
X02558000Y02104000D02*
D03*
X02524000D02*
D03*
X02490000D02*
D03*
X02456000D02*
D03*
X01778000D02*
D03*
X01744000D02*
D03*
X01710000D02*
D03*
X01676000D02*
D03*
D24*
X01861000Y02012500D02*
D03*
Y02041500D02*
D03*
Y02056500D02*
D03*
Y02085500D02*
D03*
D38*
X01350000Y02083500D02*
Y02150000D01*
Y01850000D02*
Y01916500D01*
X02850000Y01850000D02*
Y01916500D01*
X02850000Y02083500D02*
X02850000D01*
Y02150000D01*
X02850000Y02150000D01*
D39*
X02700000Y02055000D02*
D03*
X02725559Y02048700D02*
D03*
X02745264Y02031244D02*
D03*
X02754599Y02006630D02*
D03*
X02751426Y01980498D02*
D03*
X02736473Y01958833D02*
D03*
X02713166Y01946599D02*
D03*
X02686834D02*
D03*
X02663527Y01958833D02*
D03*
X02648574Y01980498D02*
D03*
X02645401Y02006630D02*
D03*
X02654736Y02031244D02*
D03*
X02674441Y02048700D02*
D03*
X02500000Y02055000D02*
D03*
X02525560Y02048700D02*
D03*
X02545264Y02031244D02*
D03*
X02554599Y02006630D02*
D03*
X02551426Y01980498D02*
D03*
X02536473Y01958833D02*
D03*
X02513166Y01946599D02*
D03*
X02486834D02*
D03*
X02463527Y01958833D02*
D03*
X02448574Y01980498D02*
D03*
X02445401Y02006630D02*
D03*
X02454736Y02031244D02*
D03*
X02474440Y02048700D02*
D03*
X02370000Y01950000D02*
D03*
X02330000D02*
D03*
X02200000Y02055000D02*
D03*
X02225560Y02048700D02*
D03*
X02245264Y02031244D02*
D03*
X02254599Y02006630D02*
D03*
X02251426Y01980498D02*
D03*
X02236473Y01958833D02*
D03*
X02213166Y01946599D02*
D03*
X02186834D02*
D03*
X02163527Y01958833D02*
D03*
X02148574Y01980498D02*
D03*
X02145401Y02006630D02*
D03*
X02154736Y02031244D02*
D03*
X02174440Y02048700D02*
D03*
X02000000Y02055000D02*
D03*
X02025560Y02048700D02*
D03*
X02045264Y02031244D02*
D03*
X02054599Y02006630D02*
D03*
X02051426Y01980498D02*
D03*
X02036473Y01958833D02*
D03*
X02013166Y01946599D02*
D03*
X01986834D02*
D03*
X01963527Y01958833D02*
D03*
X01948574Y01980498D02*
D03*
X01945401Y02006630D02*
D03*
X01954736Y02031244D02*
D03*
X01974440Y02048700D02*
D03*
X01700000Y02055000D02*
D03*
X01725560Y02048700D02*
D03*
X01745264Y02031244D02*
D03*
X01754599Y02006630D02*
D03*
X01751426Y01980498D02*
D03*
X01736473Y01958833D02*
D03*
X01713166Y01946599D02*
D03*
X01686834D02*
D03*
X01663527Y01958833D02*
D03*
X01648574Y01980498D02*
D03*
X01645401Y02006630D02*
D03*
X01654736Y02031244D02*
D03*
X01674440Y02048700D02*
D03*
X01500000Y02055000D02*
D03*
X01525560Y02048700D02*
D03*
X01545264Y02031244D02*
D03*
X01554599Y02006630D02*
D03*
X01551426Y01980498D02*
D03*
X01536473Y01958833D02*
D03*
X01513166Y01946599D02*
D03*
X01486834D02*
D03*
X01463527Y01958833D02*
D03*
X01448574Y01980498D02*
D03*
X01445401Y02006630D02*
D03*
X01454736Y02031244D02*
D03*
X01474440Y02048700D02*
D03*
X01870000Y01950000D02*
D03*
X01830000D02*
D03*
D40*
X02636500Y02170000D02*
D03*
X02661900D02*
D03*
X02687300D02*
D03*
X02712700D02*
D03*
X02738100D02*
D03*
X02238100D02*
D03*
X02212700D02*
D03*
X02187300D02*
D03*
X02161900D02*
D03*
X02136500D02*
D03*
X01936500D02*
D03*
X01961900D02*
D03*
X01987300D02*
D03*
X02012700D02*
D03*
X02038100D02*
D03*
X01538100D02*
D03*
X01512700D02*
D03*
X01487300D02*
D03*
X01461900D02*
D03*
X01436500D02*
D03*
D41*
X02763500D02*
D03*
X02263500D02*
D03*
X02063500D02*
D03*
X01563500D02*
D03*
D42*
X02850000Y01850000D02*
D03*
X01350000Y02150000D02*
D03*
X02850000D02*
D03*
X01350000Y01850000D02*
D03*
D43*
X01808000Y02152000D02*
D03*
X01865000Y02159000D02*
D03*
X02050000Y02140000D02*
D03*
X02330000Y02170000D02*
D03*
X02590000Y02150000D02*
D03*
X02610000D02*
D03*
X02810000Y02120000D02*
D03*
Y02140000D02*
D03*
Y02160000D02*
D03*
X02850000Y01950000D02*
D03*
X02875000D02*
D03*
Y01925000D02*
D03*
Y01900000D02*
D03*
X02800000Y01825000D02*
D03*
Y01850000D02*
D03*
Y01875000D02*
D03*
X02775000D02*
D03*
Y01850000D02*
D03*
Y01825000D02*
D03*
X02660000Y01830000D02*
D03*
Y01850000D02*
D03*
X02602500Y01855000D02*
D03*
X02460000Y01845000D02*
D03*
X02317500D02*
D03*
X02160000Y01850000D02*
D03*
Y01890000D02*
D03*
X02100000D02*
D03*
Y01850000D02*
D03*
X01800000Y02080000D02*
D03*
X01870000Y02110000D02*
D03*
X01876107Y01993196D02*
D03*
X01330000Y01890000D02*
D03*
X01410000Y01870000D02*
D03*
X01375000Y02075000D02*
D03*
X01390000Y02170000D02*
D03*
X01590000Y02180000D02*
D03*
X01610000Y02105000D02*
D03*
X01600000Y02070000D02*
D03*
Y02005000D02*
D03*
Y01955000D02*
D03*
X01650000Y01885000D02*
D03*
X01625000D02*
D03*
X01600000D02*
D03*
X01650000Y01850000D02*
D03*
X01625000D02*
D03*
X01600000D02*
D03*
X01375000Y01950000D02*
D03*
Y01975000D02*
D03*
Y02000000D02*
D03*
Y02025000D02*
D03*
Y02050000D02*
D03*
X01350000D02*
D03*
Y02025000D02*
D03*
Y02000000D02*
D03*
Y01975000D02*
D03*
Y01950000D02*
D03*
X01325000D02*
D03*
Y01975000D02*
D03*
Y02000000D02*
D03*
Y02025000D02*
D03*
Y02050000D02*
D03*
X02155000Y02087000D02*
D03*
X02655500Y02088000D02*
D03*
X02410058Y02067082D02*
D03*
X02410000Y02045000D02*
D03*
X01807250Y01821250D02*
D03*
X02380000Y02152000D02*
D03*
X01968000Y02134000D02*
D03*
X02105000Y02136000D02*
D03*
X02304000Y02147000D02*
D03*
X02309000Y02130000D02*
D03*
X01763000Y02165000D02*
D03*
X01729000D02*
D03*
X01596000D02*
D03*
X02376000D02*
D03*
X02543000D02*
D03*
X02475000D02*
D03*
X02441000D02*
D03*
X01695000D02*
D03*
X01661000D02*
D03*
X01836000Y02161000D02*
D03*
X01607000Y02146000D02*
D03*
X01931088Y01832409D02*
D03*
X01431088D02*
D03*
X02131088D02*
D03*
X02631088D02*
D03*
X02431088D02*
D03*
X01842500Y01997500D02*
D03*
X02388000Y02012000D02*
D03*
X01468000Y02134000D02*
D03*
M02*
